%TF.GenerationSoftware,KiCad,Pcbnew,7.0.11*%
%TF.CreationDate,2024-03-03T11:22:05+13:00*%
%TF.ProjectId,socius-choc-v1,736f6369-7573-42d6-9368-6f632d76312e,v1.0.0*%
%TF.SameCoordinates,Original*%
%TF.FileFunction,Legend,Top*%
%TF.FilePolarity,Positive*%
%FSLAX46Y46*%
G04 Gerber Fmt 4.6, Leading zero omitted, Abs format (unit mm)*
G04 Created by KiCad (PCBNEW 7.0.11) date 2024-03-03 11:22:05*
%MOMM*%
%LPD*%
G01*
G04 APERTURE LIST*
%ADD10C,0.150000*%
%ADD11C,0.200000*%
%ADD12C,0.100000*%
%ADD13C,1.752600*%
%ADD14R,1.400000X1.400000*%
%ADD15C,1.400000*%
G04 APERTURE END LIST*
D10*
X249107499Y-129902194D02*
X248840832Y-129521241D01*
X248650356Y-129902194D02*
X248650356Y-129102194D01*
X248650356Y-129102194D02*
X248955118Y-129102194D01*
X248955118Y-129102194D02*
X249031308Y-129140289D01*
X249031308Y-129140289D02*
X249069403Y-129178384D01*
X249069403Y-129178384D02*
X249107499Y-129254575D01*
X249107499Y-129254575D02*
X249107499Y-129368860D01*
X249107499Y-129368860D02*
X249069403Y-129445051D01*
X249069403Y-129445051D02*
X249031308Y-129483146D01*
X249031308Y-129483146D02*
X248955118Y-129521241D01*
X248955118Y-129521241D02*
X248650356Y-129521241D01*
X249412260Y-129673622D02*
X249793213Y-129673622D01*
X249336070Y-129902194D02*
X249602737Y-129102194D01*
X249602737Y-129102194D02*
X249869403Y-129902194D01*
X250059879Y-129102194D02*
X250250355Y-129902194D01*
X250250355Y-129902194D02*
X250402736Y-129330765D01*
X250402736Y-129330765D02*
X250555117Y-129902194D01*
X250555117Y-129902194D02*
X250745594Y-129102194D01*
X249069403Y-131680289D02*
X248993213Y-131642194D01*
X248993213Y-131642194D02*
X248878927Y-131642194D01*
X248878927Y-131642194D02*
X248764641Y-131680289D01*
X248764641Y-131680289D02*
X248688451Y-131756479D01*
X248688451Y-131756479D02*
X248650356Y-131832670D01*
X248650356Y-131832670D02*
X248612260Y-131985051D01*
X248612260Y-131985051D02*
X248612260Y-132099337D01*
X248612260Y-132099337D02*
X248650356Y-132251718D01*
X248650356Y-132251718D02*
X248688451Y-132327908D01*
X248688451Y-132327908D02*
X248764641Y-132404099D01*
X248764641Y-132404099D02*
X248878927Y-132442194D01*
X248878927Y-132442194D02*
X248955118Y-132442194D01*
X248955118Y-132442194D02*
X249069403Y-132404099D01*
X249069403Y-132404099D02*
X249107499Y-132366003D01*
X249107499Y-132366003D02*
X249107499Y-132099337D01*
X249107499Y-132099337D02*
X248955118Y-132099337D01*
X249450356Y-132442194D02*
X249450356Y-131642194D01*
X249450356Y-131642194D02*
X249907499Y-132442194D01*
X249907499Y-132442194D02*
X249907499Y-131642194D01*
X250288451Y-132442194D02*
X250288451Y-131642194D01*
X250288451Y-131642194D02*
X250478927Y-131642194D01*
X250478927Y-131642194D02*
X250593213Y-131680289D01*
X250593213Y-131680289D02*
X250669403Y-131756479D01*
X250669403Y-131756479D02*
X250707498Y-131832670D01*
X250707498Y-131832670D02*
X250745594Y-131985051D01*
X250745594Y-131985051D02*
X250745594Y-132099337D01*
X250745594Y-132099337D02*
X250707498Y-132251718D01*
X250707498Y-132251718D02*
X250669403Y-132327908D01*
X250669403Y-132327908D02*
X250593213Y-132404099D01*
X250593213Y-132404099D02*
X250478927Y-132442194D01*
X250478927Y-132442194D02*
X250288451Y-132442194D01*
X249107499Y-134982194D02*
X248840832Y-134601241D01*
X248650356Y-134982194D02*
X248650356Y-134182194D01*
X248650356Y-134182194D02*
X248955118Y-134182194D01*
X248955118Y-134182194D02*
X249031308Y-134220289D01*
X249031308Y-134220289D02*
X249069403Y-134258384D01*
X249069403Y-134258384D02*
X249107499Y-134334575D01*
X249107499Y-134334575D02*
X249107499Y-134448860D01*
X249107499Y-134448860D02*
X249069403Y-134525051D01*
X249069403Y-134525051D02*
X249031308Y-134563146D01*
X249031308Y-134563146D02*
X248955118Y-134601241D01*
X248955118Y-134601241D02*
X248650356Y-134601241D01*
X249412260Y-134944099D02*
X249526546Y-134982194D01*
X249526546Y-134982194D02*
X249717022Y-134982194D01*
X249717022Y-134982194D02*
X249793213Y-134944099D01*
X249793213Y-134944099D02*
X249831308Y-134906003D01*
X249831308Y-134906003D02*
X249869403Y-134829813D01*
X249869403Y-134829813D02*
X249869403Y-134753622D01*
X249869403Y-134753622D02*
X249831308Y-134677432D01*
X249831308Y-134677432D02*
X249793213Y-134639337D01*
X249793213Y-134639337D02*
X249717022Y-134601241D01*
X249717022Y-134601241D02*
X249564641Y-134563146D01*
X249564641Y-134563146D02*
X249488451Y-134525051D01*
X249488451Y-134525051D02*
X249450356Y-134486956D01*
X249450356Y-134486956D02*
X249412260Y-134410765D01*
X249412260Y-134410765D02*
X249412260Y-134334575D01*
X249412260Y-134334575D02*
X249450356Y-134258384D01*
X249450356Y-134258384D02*
X249488451Y-134220289D01*
X249488451Y-134220289D02*
X249564641Y-134182194D01*
X249564641Y-134182194D02*
X249755118Y-134182194D01*
X249755118Y-134182194D02*
X249869403Y-134220289D01*
X250097975Y-134182194D02*
X250555118Y-134182194D01*
X250326546Y-134982194D02*
X250326546Y-134182194D01*
X248536070Y-136722194D02*
X248802737Y-137522194D01*
X248802737Y-137522194D02*
X249069403Y-136722194D01*
X249793213Y-137446003D02*
X249755117Y-137484099D01*
X249755117Y-137484099D02*
X249640832Y-137522194D01*
X249640832Y-137522194D02*
X249564641Y-137522194D01*
X249564641Y-137522194D02*
X249450355Y-137484099D01*
X249450355Y-137484099D02*
X249374165Y-137407908D01*
X249374165Y-137407908D02*
X249336070Y-137331718D01*
X249336070Y-137331718D02*
X249297974Y-137179337D01*
X249297974Y-137179337D02*
X249297974Y-137065051D01*
X249297974Y-137065051D02*
X249336070Y-136912670D01*
X249336070Y-136912670D02*
X249374165Y-136836479D01*
X249374165Y-136836479D02*
X249450355Y-136760289D01*
X249450355Y-136760289D02*
X249564641Y-136722194D01*
X249564641Y-136722194D02*
X249640832Y-136722194D01*
X249640832Y-136722194D02*
X249755117Y-136760289D01*
X249755117Y-136760289D02*
X249793213Y-136798384D01*
X250593213Y-137446003D02*
X250555117Y-137484099D01*
X250555117Y-137484099D02*
X250440832Y-137522194D01*
X250440832Y-137522194D02*
X250364641Y-137522194D01*
X250364641Y-137522194D02*
X250250355Y-137484099D01*
X250250355Y-137484099D02*
X250174165Y-137407908D01*
X250174165Y-137407908D02*
X250136070Y-137331718D01*
X250136070Y-137331718D02*
X250097974Y-137179337D01*
X250097974Y-137179337D02*
X250097974Y-137065051D01*
X250097974Y-137065051D02*
X250136070Y-136912670D01*
X250136070Y-136912670D02*
X250174165Y-136836479D01*
X250174165Y-136836479D02*
X250250355Y-136760289D01*
X250250355Y-136760289D02*
X250364641Y-136722194D01*
X250364641Y-136722194D02*
X250440832Y-136722194D01*
X250440832Y-136722194D02*
X250555117Y-136760289D01*
X250555117Y-136760289D02*
X250593213Y-136798384D01*
X249107499Y-147606003D02*
X249069403Y-147644099D01*
X249069403Y-147644099D02*
X248955118Y-147682194D01*
X248955118Y-147682194D02*
X248878927Y-147682194D01*
X248878927Y-147682194D02*
X248764641Y-147644099D01*
X248764641Y-147644099D02*
X248688451Y-147567908D01*
X248688451Y-147567908D02*
X248650356Y-147491718D01*
X248650356Y-147491718D02*
X248612260Y-147339337D01*
X248612260Y-147339337D02*
X248612260Y-147225051D01*
X248612260Y-147225051D02*
X248650356Y-147072670D01*
X248650356Y-147072670D02*
X248688451Y-146996479D01*
X248688451Y-146996479D02*
X248764641Y-146920289D01*
X248764641Y-146920289D02*
X248878927Y-146882194D01*
X248878927Y-146882194D02*
X248955118Y-146882194D01*
X248955118Y-146882194D02*
X249069403Y-146920289D01*
X249069403Y-146920289D02*
X249107499Y-146958384D01*
X249602737Y-146882194D02*
X249755118Y-146882194D01*
X249755118Y-146882194D02*
X249831308Y-146920289D01*
X249831308Y-146920289D02*
X249907499Y-146996479D01*
X249907499Y-146996479D02*
X249945594Y-147148860D01*
X249945594Y-147148860D02*
X249945594Y-147415527D01*
X249945594Y-147415527D02*
X249907499Y-147567908D01*
X249907499Y-147567908D02*
X249831308Y-147644099D01*
X249831308Y-147644099D02*
X249755118Y-147682194D01*
X249755118Y-147682194D02*
X249602737Y-147682194D01*
X249602737Y-147682194D02*
X249526546Y-147644099D01*
X249526546Y-147644099D02*
X249450356Y-147567908D01*
X249450356Y-147567908D02*
X249412260Y-147415527D01*
X249412260Y-147415527D02*
X249412260Y-147148860D01*
X249412260Y-147148860D02*
X249450356Y-146996479D01*
X249450356Y-146996479D02*
X249526546Y-146920289D01*
X249526546Y-146920289D02*
X249602737Y-146882194D01*
X250669403Y-147682194D02*
X250288451Y-147682194D01*
X250288451Y-147682194D02*
X250288451Y-146882194D01*
X251088451Y-146882194D02*
X251164641Y-146882194D01*
X251164641Y-146882194D02*
X251240832Y-146920289D01*
X251240832Y-146920289D02*
X251278927Y-146958384D01*
X251278927Y-146958384D02*
X251317022Y-147034575D01*
X251317022Y-147034575D02*
X251355117Y-147186956D01*
X251355117Y-147186956D02*
X251355117Y-147377432D01*
X251355117Y-147377432D02*
X251317022Y-147529813D01*
X251317022Y-147529813D02*
X251278927Y-147606003D01*
X251278927Y-147606003D02*
X251240832Y-147644099D01*
X251240832Y-147644099D02*
X251164641Y-147682194D01*
X251164641Y-147682194D02*
X251088451Y-147682194D01*
X251088451Y-147682194D02*
X251012260Y-147644099D01*
X251012260Y-147644099D02*
X250974165Y-147606003D01*
X250974165Y-147606003D02*
X250936070Y-147529813D01*
X250936070Y-147529813D02*
X250897974Y-147377432D01*
X250897974Y-147377432D02*
X250897974Y-147186956D01*
X250897974Y-147186956D02*
X250936070Y-147034575D01*
X250936070Y-147034575D02*
X250974165Y-146958384D01*
X250974165Y-146958384D02*
X251012260Y-146920289D01*
X251012260Y-146920289D02*
X251088451Y-146882194D01*
X249107499Y-150146003D02*
X249069403Y-150184099D01*
X249069403Y-150184099D02*
X248955118Y-150222194D01*
X248955118Y-150222194D02*
X248878927Y-150222194D01*
X248878927Y-150222194D02*
X248764641Y-150184099D01*
X248764641Y-150184099D02*
X248688451Y-150107908D01*
X248688451Y-150107908D02*
X248650356Y-150031718D01*
X248650356Y-150031718D02*
X248612260Y-149879337D01*
X248612260Y-149879337D02*
X248612260Y-149765051D01*
X248612260Y-149765051D02*
X248650356Y-149612670D01*
X248650356Y-149612670D02*
X248688451Y-149536479D01*
X248688451Y-149536479D02*
X248764641Y-149460289D01*
X248764641Y-149460289D02*
X248878927Y-149422194D01*
X248878927Y-149422194D02*
X248955118Y-149422194D01*
X248955118Y-149422194D02*
X249069403Y-149460289D01*
X249069403Y-149460289D02*
X249107499Y-149498384D01*
X249602737Y-149422194D02*
X249755118Y-149422194D01*
X249755118Y-149422194D02*
X249831308Y-149460289D01*
X249831308Y-149460289D02*
X249907499Y-149536479D01*
X249907499Y-149536479D02*
X249945594Y-149688860D01*
X249945594Y-149688860D02*
X249945594Y-149955527D01*
X249945594Y-149955527D02*
X249907499Y-150107908D01*
X249907499Y-150107908D02*
X249831308Y-150184099D01*
X249831308Y-150184099D02*
X249755118Y-150222194D01*
X249755118Y-150222194D02*
X249602737Y-150222194D01*
X249602737Y-150222194D02*
X249526546Y-150184099D01*
X249526546Y-150184099D02*
X249450356Y-150107908D01*
X249450356Y-150107908D02*
X249412260Y-149955527D01*
X249412260Y-149955527D02*
X249412260Y-149688860D01*
X249412260Y-149688860D02*
X249450356Y-149536479D01*
X249450356Y-149536479D02*
X249526546Y-149460289D01*
X249526546Y-149460289D02*
X249602737Y-149422194D01*
X250669403Y-150222194D02*
X250288451Y-150222194D01*
X250288451Y-150222194D02*
X250288451Y-149422194D01*
X251355117Y-150222194D02*
X250897974Y-150222194D01*
X251126546Y-150222194D02*
X251126546Y-149422194D01*
X251126546Y-149422194D02*
X251050355Y-149536479D01*
X251050355Y-149536479D02*
X250974165Y-149612670D01*
X250974165Y-149612670D02*
X250897974Y-149650765D01*
X249107499Y-152686003D02*
X249069403Y-152724099D01*
X249069403Y-152724099D02*
X248955118Y-152762194D01*
X248955118Y-152762194D02*
X248878927Y-152762194D01*
X248878927Y-152762194D02*
X248764641Y-152724099D01*
X248764641Y-152724099D02*
X248688451Y-152647908D01*
X248688451Y-152647908D02*
X248650356Y-152571718D01*
X248650356Y-152571718D02*
X248612260Y-152419337D01*
X248612260Y-152419337D02*
X248612260Y-152305051D01*
X248612260Y-152305051D02*
X248650356Y-152152670D01*
X248650356Y-152152670D02*
X248688451Y-152076479D01*
X248688451Y-152076479D02*
X248764641Y-152000289D01*
X248764641Y-152000289D02*
X248878927Y-151962194D01*
X248878927Y-151962194D02*
X248955118Y-151962194D01*
X248955118Y-151962194D02*
X249069403Y-152000289D01*
X249069403Y-152000289D02*
X249107499Y-152038384D01*
X249602737Y-151962194D02*
X249755118Y-151962194D01*
X249755118Y-151962194D02*
X249831308Y-152000289D01*
X249831308Y-152000289D02*
X249907499Y-152076479D01*
X249907499Y-152076479D02*
X249945594Y-152228860D01*
X249945594Y-152228860D02*
X249945594Y-152495527D01*
X249945594Y-152495527D02*
X249907499Y-152647908D01*
X249907499Y-152647908D02*
X249831308Y-152724099D01*
X249831308Y-152724099D02*
X249755118Y-152762194D01*
X249755118Y-152762194D02*
X249602737Y-152762194D01*
X249602737Y-152762194D02*
X249526546Y-152724099D01*
X249526546Y-152724099D02*
X249450356Y-152647908D01*
X249450356Y-152647908D02*
X249412260Y-152495527D01*
X249412260Y-152495527D02*
X249412260Y-152228860D01*
X249412260Y-152228860D02*
X249450356Y-152076479D01*
X249450356Y-152076479D02*
X249526546Y-152000289D01*
X249526546Y-152000289D02*
X249602737Y-151962194D01*
X250669403Y-152762194D02*
X250288451Y-152762194D01*
X250288451Y-152762194D02*
X250288451Y-151962194D01*
X250897974Y-152038384D02*
X250936070Y-152000289D01*
X250936070Y-152000289D02*
X251012260Y-151962194D01*
X251012260Y-151962194D02*
X251202736Y-151962194D01*
X251202736Y-151962194D02*
X251278927Y-152000289D01*
X251278927Y-152000289D02*
X251317022Y-152038384D01*
X251317022Y-152038384D02*
X251355117Y-152114575D01*
X251355117Y-152114575D02*
X251355117Y-152190765D01*
X251355117Y-152190765D02*
X251317022Y-152305051D01*
X251317022Y-152305051D02*
X250859879Y-152762194D01*
X250859879Y-152762194D02*
X251355117Y-152762194D01*
X249107499Y-155226003D02*
X249069403Y-155264099D01*
X249069403Y-155264099D02*
X248955118Y-155302194D01*
X248955118Y-155302194D02*
X248878927Y-155302194D01*
X248878927Y-155302194D02*
X248764641Y-155264099D01*
X248764641Y-155264099D02*
X248688451Y-155187908D01*
X248688451Y-155187908D02*
X248650356Y-155111718D01*
X248650356Y-155111718D02*
X248612260Y-154959337D01*
X248612260Y-154959337D02*
X248612260Y-154845051D01*
X248612260Y-154845051D02*
X248650356Y-154692670D01*
X248650356Y-154692670D02*
X248688451Y-154616479D01*
X248688451Y-154616479D02*
X248764641Y-154540289D01*
X248764641Y-154540289D02*
X248878927Y-154502194D01*
X248878927Y-154502194D02*
X248955118Y-154502194D01*
X248955118Y-154502194D02*
X249069403Y-154540289D01*
X249069403Y-154540289D02*
X249107499Y-154578384D01*
X249602737Y-154502194D02*
X249755118Y-154502194D01*
X249755118Y-154502194D02*
X249831308Y-154540289D01*
X249831308Y-154540289D02*
X249907499Y-154616479D01*
X249907499Y-154616479D02*
X249945594Y-154768860D01*
X249945594Y-154768860D02*
X249945594Y-155035527D01*
X249945594Y-155035527D02*
X249907499Y-155187908D01*
X249907499Y-155187908D02*
X249831308Y-155264099D01*
X249831308Y-155264099D02*
X249755118Y-155302194D01*
X249755118Y-155302194D02*
X249602737Y-155302194D01*
X249602737Y-155302194D02*
X249526546Y-155264099D01*
X249526546Y-155264099D02*
X249450356Y-155187908D01*
X249450356Y-155187908D02*
X249412260Y-155035527D01*
X249412260Y-155035527D02*
X249412260Y-154768860D01*
X249412260Y-154768860D02*
X249450356Y-154616479D01*
X249450356Y-154616479D02*
X249526546Y-154540289D01*
X249526546Y-154540289D02*
X249602737Y-154502194D01*
X250669403Y-155302194D02*
X250288451Y-155302194D01*
X250288451Y-155302194D02*
X250288451Y-154502194D01*
X250859879Y-154502194D02*
X251355117Y-154502194D01*
X251355117Y-154502194D02*
X251088451Y-154806956D01*
X251088451Y-154806956D02*
X251202736Y-154806956D01*
X251202736Y-154806956D02*
X251278927Y-154845051D01*
X251278927Y-154845051D02*
X251317022Y-154883146D01*
X251317022Y-154883146D02*
X251355117Y-154959337D01*
X251355117Y-154959337D02*
X251355117Y-155149813D01*
X251355117Y-155149813D02*
X251317022Y-155226003D01*
X251317022Y-155226003D02*
X251278927Y-155264099D01*
X251278927Y-155264099D02*
X251202736Y-155302194D01*
X251202736Y-155302194D02*
X250974165Y-155302194D01*
X250974165Y-155302194D02*
X250897974Y-155264099D01*
X250897974Y-155264099D02*
X250859879Y-155226003D01*
X249107499Y-157766003D02*
X249069403Y-157804099D01*
X249069403Y-157804099D02*
X248955118Y-157842194D01*
X248955118Y-157842194D02*
X248878927Y-157842194D01*
X248878927Y-157842194D02*
X248764641Y-157804099D01*
X248764641Y-157804099D02*
X248688451Y-157727908D01*
X248688451Y-157727908D02*
X248650356Y-157651718D01*
X248650356Y-157651718D02*
X248612260Y-157499337D01*
X248612260Y-157499337D02*
X248612260Y-157385051D01*
X248612260Y-157385051D02*
X248650356Y-157232670D01*
X248650356Y-157232670D02*
X248688451Y-157156479D01*
X248688451Y-157156479D02*
X248764641Y-157080289D01*
X248764641Y-157080289D02*
X248878927Y-157042194D01*
X248878927Y-157042194D02*
X248955118Y-157042194D01*
X248955118Y-157042194D02*
X249069403Y-157080289D01*
X249069403Y-157080289D02*
X249107499Y-157118384D01*
X249602737Y-157042194D02*
X249755118Y-157042194D01*
X249755118Y-157042194D02*
X249831308Y-157080289D01*
X249831308Y-157080289D02*
X249907499Y-157156479D01*
X249907499Y-157156479D02*
X249945594Y-157308860D01*
X249945594Y-157308860D02*
X249945594Y-157575527D01*
X249945594Y-157575527D02*
X249907499Y-157727908D01*
X249907499Y-157727908D02*
X249831308Y-157804099D01*
X249831308Y-157804099D02*
X249755118Y-157842194D01*
X249755118Y-157842194D02*
X249602737Y-157842194D01*
X249602737Y-157842194D02*
X249526546Y-157804099D01*
X249526546Y-157804099D02*
X249450356Y-157727908D01*
X249450356Y-157727908D02*
X249412260Y-157575527D01*
X249412260Y-157575527D02*
X249412260Y-157308860D01*
X249412260Y-157308860D02*
X249450356Y-157156479D01*
X249450356Y-157156479D02*
X249526546Y-157080289D01*
X249526546Y-157080289D02*
X249602737Y-157042194D01*
X250669403Y-157842194D02*
X250288451Y-157842194D01*
X250288451Y-157842194D02*
X250288451Y-157042194D01*
X251278927Y-157308860D02*
X251278927Y-157842194D01*
X251088451Y-157004099D02*
X250897974Y-157575527D01*
X250897974Y-157575527D02*
X251393213Y-157575527D01*
X259948226Y-129826003D02*
X259910130Y-129864099D01*
X259910130Y-129864099D02*
X259795845Y-129902194D01*
X259795845Y-129902194D02*
X259719654Y-129902194D01*
X259719654Y-129902194D02*
X259605368Y-129864099D01*
X259605368Y-129864099D02*
X259529178Y-129787908D01*
X259529178Y-129787908D02*
X259491083Y-129711718D01*
X259491083Y-129711718D02*
X259452987Y-129559337D01*
X259452987Y-129559337D02*
X259452987Y-129445051D01*
X259452987Y-129445051D02*
X259491083Y-129292670D01*
X259491083Y-129292670D02*
X259529178Y-129216479D01*
X259529178Y-129216479D02*
X259605368Y-129140289D01*
X259605368Y-129140289D02*
X259719654Y-129102194D01*
X259719654Y-129102194D02*
X259795845Y-129102194D01*
X259795845Y-129102194D02*
X259910130Y-129140289D01*
X259910130Y-129140289D02*
X259948226Y-129178384D01*
X260252987Y-129864099D02*
X260367273Y-129902194D01*
X260367273Y-129902194D02*
X260557749Y-129902194D01*
X260557749Y-129902194D02*
X260633940Y-129864099D01*
X260633940Y-129864099D02*
X260672035Y-129826003D01*
X260672035Y-129826003D02*
X260710130Y-129749813D01*
X260710130Y-129749813D02*
X260710130Y-129673622D01*
X260710130Y-129673622D02*
X260672035Y-129597432D01*
X260672035Y-129597432D02*
X260633940Y-129559337D01*
X260633940Y-129559337D02*
X260557749Y-129521241D01*
X260557749Y-129521241D02*
X260405368Y-129483146D01*
X260405368Y-129483146D02*
X260329178Y-129445051D01*
X260329178Y-129445051D02*
X260291083Y-129406956D01*
X260291083Y-129406956D02*
X260252987Y-129330765D01*
X260252987Y-129330765D02*
X260252987Y-129254575D01*
X260252987Y-129254575D02*
X260291083Y-129178384D01*
X260291083Y-129178384D02*
X260329178Y-129140289D01*
X260329178Y-129140289D02*
X260405368Y-129102194D01*
X260405368Y-129102194D02*
X260595845Y-129102194D01*
X260595845Y-129102194D02*
X260710130Y-129140289D01*
X259033940Y-134220289D02*
X258957750Y-134182194D01*
X258957750Y-134182194D02*
X258843464Y-134182194D01*
X258843464Y-134182194D02*
X258729178Y-134220289D01*
X258729178Y-134220289D02*
X258652988Y-134296479D01*
X258652988Y-134296479D02*
X258614893Y-134372670D01*
X258614893Y-134372670D02*
X258576797Y-134525051D01*
X258576797Y-134525051D02*
X258576797Y-134639337D01*
X258576797Y-134639337D02*
X258614893Y-134791718D01*
X258614893Y-134791718D02*
X258652988Y-134867908D01*
X258652988Y-134867908D02*
X258729178Y-134944099D01*
X258729178Y-134944099D02*
X258843464Y-134982194D01*
X258843464Y-134982194D02*
X258919655Y-134982194D01*
X258919655Y-134982194D02*
X259033940Y-134944099D01*
X259033940Y-134944099D02*
X259072036Y-134906003D01*
X259072036Y-134906003D02*
X259072036Y-134639337D01*
X259072036Y-134639337D02*
X258919655Y-134639337D01*
X259414893Y-134982194D02*
X259414893Y-134182194D01*
X259414893Y-134182194D02*
X259872036Y-134982194D01*
X259872036Y-134982194D02*
X259872036Y-134182194D01*
X260252988Y-134982194D02*
X260252988Y-134182194D01*
X260252988Y-134182194D02*
X260443464Y-134182194D01*
X260443464Y-134182194D02*
X260557750Y-134220289D01*
X260557750Y-134220289D02*
X260633940Y-134296479D01*
X260633940Y-134296479D02*
X260672035Y-134372670D01*
X260672035Y-134372670D02*
X260710131Y-134525051D01*
X260710131Y-134525051D02*
X260710131Y-134639337D01*
X260710131Y-134639337D02*
X260672035Y-134791718D01*
X260672035Y-134791718D02*
X260633940Y-134867908D01*
X260633940Y-134867908D02*
X260557750Y-134944099D01*
X260557750Y-134944099D02*
X260443464Y-134982194D01*
X260443464Y-134982194D02*
X260252988Y-134982194D01*
X259033940Y-136760289D02*
X258957750Y-136722194D01*
X258957750Y-136722194D02*
X258843464Y-136722194D01*
X258843464Y-136722194D02*
X258729178Y-136760289D01*
X258729178Y-136760289D02*
X258652988Y-136836479D01*
X258652988Y-136836479D02*
X258614893Y-136912670D01*
X258614893Y-136912670D02*
X258576797Y-137065051D01*
X258576797Y-137065051D02*
X258576797Y-137179337D01*
X258576797Y-137179337D02*
X258614893Y-137331718D01*
X258614893Y-137331718D02*
X258652988Y-137407908D01*
X258652988Y-137407908D02*
X258729178Y-137484099D01*
X258729178Y-137484099D02*
X258843464Y-137522194D01*
X258843464Y-137522194D02*
X258919655Y-137522194D01*
X258919655Y-137522194D02*
X259033940Y-137484099D01*
X259033940Y-137484099D02*
X259072036Y-137446003D01*
X259072036Y-137446003D02*
X259072036Y-137179337D01*
X259072036Y-137179337D02*
X258919655Y-137179337D01*
X259414893Y-137522194D02*
X259414893Y-136722194D01*
X259414893Y-136722194D02*
X259872036Y-137522194D01*
X259872036Y-137522194D02*
X259872036Y-136722194D01*
X260252988Y-137522194D02*
X260252988Y-136722194D01*
X260252988Y-136722194D02*
X260443464Y-136722194D01*
X260443464Y-136722194D02*
X260557750Y-136760289D01*
X260557750Y-136760289D02*
X260633940Y-136836479D01*
X260633940Y-136836479D02*
X260672035Y-136912670D01*
X260672035Y-136912670D02*
X260710131Y-137065051D01*
X260710131Y-137065051D02*
X260710131Y-137179337D01*
X260710131Y-137179337D02*
X260672035Y-137331718D01*
X260672035Y-137331718D02*
X260633940Y-137407908D01*
X260633940Y-137407908D02*
X260557750Y-137484099D01*
X260557750Y-137484099D02*
X260443464Y-137522194D01*
X260443464Y-137522194D02*
X260252988Y-137522194D01*
X258157750Y-140062194D02*
X258157750Y-139262194D01*
X258157750Y-139262194D02*
X258424416Y-139833622D01*
X258424416Y-139833622D02*
X258691083Y-139262194D01*
X258691083Y-139262194D02*
X258691083Y-140062194D01*
X259224417Y-139262194D02*
X259376798Y-139262194D01*
X259376798Y-139262194D02*
X259452988Y-139300289D01*
X259452988Y-139300289D02*
X259529179Y-139376479D01*
X259529179Y-139376479D02*
X259567274Y-139528860D01*
X259567274Y-139528860D02*
X259567274Y-139795527D01*
X259567274Y-139795527D02*
X259529179Y-139947908D01*
X259529179Y-139947908D02*
X259452988Y-140024099D01*
X259452988Y-140024099D02*
X259376798Y-140062194D01*
X259376798Y-140062194D02*
X259224417Y-140062194D01*
X259224417Y-140062194D02*
X259148226Y-140024099D01*
X259148226Y-140024099D02*
X259072036Y-139947908D01*
X259072036Y-139947908D02*
X259033940Y-139795527D01*
X259033940Y-139795527D02*
X259033940Y-139528860D01*
X259033940Y-139528860D02*
X259072036Y-139376479D01*
X259072036Y-139376479D02*
X259148226Y-139300289D01*
X259148226Y-139300289D02*
X259224417Y-139262194D01*
X259872035Y-140024099D02*
X259986321Y-140062194D01*
X259986321Y-140062194D02*
X260176797Y-140062194D01*
X260176797Y-140062194D02*
X260252988Y-140024099D01*
X260252988Y-140024099D02*
X260291083Y-139986003D01*
X260291083Y-139986003D02*
X260329178Y-139909813D01*
X260329178Y-139909813D02*
X260329178Y-139833622D01*
X260329178Y-139833622D02*
X260291083Y-139757432D01*
X260291083Y-139757432D02*
X260252988Y-139719337D01*
X260252988Y-139719337D02*
X260176797Y-139681241D01*
X260176797Y-139681241D02*
X260024416Y-139643146D01*
X260024416Y-139643146D02*
X259948226Y-139605051D01*
X259948226Y-139605051D02*
X259910131Y-139566956D01*
X259910131Y-139566956D02*
X259872035Y-139490765D01*
X259872035Y-139490765D02*
X259872035Y-139414575D01*
X259872035Y-139414575D02*
X259910131Y-139338384D01*
X259910131Y-139338384D02*
X259948226Y-139300289D01*
X259948226Y-139300289D02*
X260024416Y-139262194D01*
X260024416Y-139262194D02*
X260214893Y-139262194D01*
X260214893Y-139262194D02*
X260329178Y-139300289D01*
X260672036Y-140062194D02*
X260672036Y-139262194D01*
X258652987Y-142564099D02*
X258767273Y-142602194D01*
X258767273Y-142602194D02*
X258957749Y-142602194D01*
X258957749Y-142602194D02*
X259033940Y-142564099D01*
X259033940Y-142564099D02*
X259072035Y-142526003D01*
X259072035Y-142526003D02*
X259110130Y-142449813D01*
X259110130Y-142449813D02*
X259110130Y-142373622D01*
X259110130Y-142373622D02*
X259072035Y-142297432D01*
X259072035Y-142297432D02*
X259033940Y-142259337D01*
X259033940Y-142259337D02*
X258957749Y-142221241D01*
X258957749Y-142221241D02*
X258805368Y-142183146D01*
X258805368Y-142183146D02*
X258729178Y-142145051D01*
X258729178Y-142145051D02*
X258691083Y-142106956D01*
X258691083Y-142106956D02*
X258652987Y-142030765D01*
X258652987Y-142030765D02*
X258652987Y-141954575D01*
X258652987Y-141954575D02*
X258691083Y-141878384D01*
X258691083Y-141878384D02*
X258729178Y-141840289D01*
X258729178Y-141840289D02*
X258805368Y-141802194D01*
X258805368Y-141802194D02*
X258995845Y-141802194D01*
X258995845Y-141802194D02*
X259110130Y-141840289D01*
X259910131Y-142526003D02*
X259872035Y-142564099D01*
X259872035Y-142564099D02*
X259757750Y-142602194D01*
X259757750Y-142602194D02*
X259681559Y-142602194D01*
X259681559Y-142602194D02*
X259567273Y-142564099D01*
X259567273Y-142564099D02*
X259491083Y-142487908D01*
X259491083Y-142487908D02*
X259452988Y-142411718D01*
X259452988Y-142411718D02*
X259414892Y-142259337D01*
X259414892Y-142259337D02*
X259414892Y-142145051D01*
X259414892Y-142145051D02*
X259452988Y-141992670D01*
X259452988Y-141992670D02*
X259491083Y-141916479D01*
X259491083Y-141916479D02*
X259567273Y-141840289D01*
X259567273Y-141840289D02*
X259681559Y-141802194D01*
X259681559Y-141802194D02*
X259757750Y-141802194D01*
X259757750Y-141802194D02*
X259872035Y-141840289D01*
X259872035Y-141840289D02*
X259910131Y-141878384D01*
X260252988Y-142602194D02*
X260252988Y-141802194D01*
X260710131Y-142602194D02*
X260367273Y-142145051D01*
X260710131Y-141802194D02*
X260252988Y-142259337D01*
X258195845Y-150222194D02*
X257929178Y-149841241D01*
X257738702Y-150222194D02*
X257738702Y-149422194D01*
X257738702Y-149422194D02*
X258043464Y-149422194D01*
X258043464Y-149422194D02*
X258119654Y-149460289D01*
X258119654Y-149460289D02*
X258157749Y-149498384D01*
X258157749Y-149498384D02*
X258195845Y-149574575D01*
X258195845Y-149574575D02*
X258195845Y-149688860D01*
X258195845Y-149688860D02*
X258157749Y-149765051D01*
X258157749Y-149765051D02*
X258119654Y-149803146D01*
X258119654Y-149803146D02*
X258043464Y-149841241D01*
X258043464Y-149841241D02*
X257738702Y-149841241D01*
X258691083Y-149422194D02*
X258843464Y-149422194D01*
X258843464Y-149422194D02*
X258919654Y-149460289D01*
X258919654Y-149460289D02*
X258995845Y-149536479D01*
X258995845Y-149536479D02*
X259033940Y-149688860D01*
X259033940Y-149688860D02*
X259033940Y-149955527D01*
X259033940Y-149955527D02*
X258995845Y-150107908D01*
X258995845Y-150107908D02*
X258919654Y-150184099D01*
X258919654Y-150184099D02*
X258843464Y-150222194D01*
X258843464Y-150222194D02*
X258691083Y-150222194D01*
X258691083Y-150222194D02*
X258614892Y-150184099D01*
X258614892Y-150184099D02*
X258538702Y-150107908D01*
X258538702Y-150107908D02*
X258500606Y-149955527D01*
X258500606Y-149955527D02*
X258500606Y-149688860D01*
X258500606Y-149688860D02*
X258538702Y-149536479D01*
X258538702Y-149536479D02*
X258614892Y-149460289D01*
X258614892Y-149460289D02*
X258691083Y-149422194D01*
X259300606Y-149422194D02*
X259491082Y-150222194D01*
X259491082Y-150222194D02*
X259643463Y-149650765D01*
X259643463Y-149650765D02*
X259795844Y-150222194D01*
X259795844Y-150222194D02*
X259986321Y-149422194D01*
X260443464Y-149422194D02*
X260519654Y-149422194D01*
X260519654Y-149422194D02*
X260595845Y-149460289D01*
X260595845Y-149460289D02*
X260633940Y-149498384D01*
X260633940Y-149498384D02*
X260672035Y-149574575D01*
X260672035Y-149574575D02*
X260710130Y-149726956D01*
X260710130Y-149726956D02*
X260710130Y-149917432D01*
X260710130Y-149917432D02*
X260672035Y-150069813D01*
X260672035Y-150069813D02*
X260633940Y-150146003D01*
X260633940Y-150146003D02*
X260595845Y-150184099D01*
X260595845Y-150184099D02*
X260519654Y-150222194D01*
X260519654Y-150222194D02*
X260443464Y-150222194D01*
X260443464Y-150222194D02*
X260367273Y-150184099D01*
X260367273Y-150184099D02*
X260329178Y-150146003D01*
X260329178Y-150146003D02*
X260291083Y-150069813D01*
X260291083Y-150069813D02*
X260252987Y-149917432D01*
X260252987Y-149917432D02*
X260252987Y-149726956D01*
X260252987Y-149726956D02*
X260291083Y-149574575D01*
X260291083Y-149574575D02*
X260329178Y-149498384D01*
X260329178Y-149498384D02*
X260367273Y-149460289D01*
X260367273Y-149460289D02*
X260443464Y-149422194D01*
X258195845Y-152762194D02*
X257929178Y-152381241D01*
X257738702Y-152762194D02*
X257738702Y-151962194D01*
X257738702Y-151962194D02*
X258043464Y-151962194D01*
X258043464Y-151962194D02*
X258119654Y-152000289D01*
X258119654Y-152000289D02*
X258157749Y-152038384D01*
X258157749Y-152038384D02*
X258195845Y-152114575D01*
X258195845Y-152114575D02*
X258195845Y-152228860D01*
X258195845Y-152228860D02*
X258157749Y-152305051D01*
X258157749Y-152305051D02*
X258119654Y-152343146D01*
X258119654Y-152343146D02*
X258043464Y-152381241D01*
X258043464Y-152381241D02*
X257738702Y-152381241D01*
X258691083Y-151962194D02*
X258843464Y-151962194D01*
X258843464Y-151962194D02*
X258919654Y-152000289D01*
X258919654Y-152000289D02*
X258995845Y-152076479D01*
X258995845Y-152076479D02*
X259033940Y-152228860D01*
X259033940Y-152228860D02*
X259033940Y-152495527D01*
X259033940Y-152495527D02*
X258995845Y-152647908D01*
X258995845Y-152647908D02*
X258919654Y-152724099D01*
X258919654Y-152724099D02*
X258843464Y-152762194D01*
X258843464Y-152762194D02*
X258691083Y-152762194D01*
X258691083Y-152762194D02*
X258614892Y-152724099D01*
X258614892Y-152724099D02*
X258538702Y-152647908D01*
X258538702Y-152647908D02*
X258500606Y-152495527D01*
X258500606Y-152495527D02*
X258500606Y-152228860D01*
X258500606Y-152228860D02*
X258538702Y-152076479D01*
X258538702Y-152076479D02*
X258614892Y-152000289D01*
X258614892Y-152000289D02*
X258691083Y-151962194D01*
X259300606Y-151962194D02*
X259491082Y-152762194D01*
X259491082Y-152762194D02*
X259643463Y-152190765D01*
X259643463Y-152190765D02*
X259795844Y-152762194D01*
X259795844Y-152762194D02*
X259986321Y-151962194D01*
X260710130Y-152762194D02*
X260252987Y-152762194D01*
X260481559Y-152762194D02*
X260481559Y-151962194D01*
X260481559Y-151962194D02*
X260405368Y-152076479D01*
X260405368Y-152076479D02*
X260329178Y-152152670D01*
X260329178Y-152152670D02*
X260252987Y-152190765D01*
X258195845Y-155302194D02*
X257929178Y-154921241D01*
X257738702Y-155302194D02*
X257738702Y-154502194D01*
X257738702Y-154502194D02*
X258043464Y-154502194D01*
X258043464Y-154502194D02*
X258119654Y-154540289D01*
X258119654Y-154540289D02*
X258157749Y-154578384D01*
X258157749Y-154578384D02*
X258195845Y-154654575D01*
X258195845Y-154654575D02*
X258195845Y-154768860D01*
X258195845Y-154768860D02*
X258157749Y-154845051D01*
X258157749Y-154845051D02*
X258119654Y-154883146D01*
X258119654Y-154883146D02*
X258043464Y-154921241D01*
X258043464Y-154921241D02*
X257738702Y-154921241D01*
X258691083Y-154502194D02*
X258843464Y-154502194D01*
X258843464Y-154502194D02*
X258919654Y-154540289D01*
X258919654Y-154540289D02*
X258995845Y-154616479D01*
X258995845Y-154616479D02*
X259033940Y-154768860D01*
X259033940Y-154768860D02*
X259033940Y-155035527D01*
X259033940Y-155035527D02*
X258995845Y-155187908D01*
X258995845Y-155187908D02*
X258919654Y-155264099D01*
X258919654Y-155264099D02*
X258843464Y-155302194D01*
X258843464Y-155302194D02*
X258691083Y-155302194D01*
X258691083Y-155302194D02*
X258614892Y-155264099D01*
X258614892Y-155264099D02*
X258538702Y-155187908D01*
X258538702Y-155187908D02*
X258500606Y-155035527D01*
X258500606Y-155035527D02*
X258500606Y-154768860D01*
X258500606Y-154768860D02*
X258538702Y-154616479D01*
X258538702Y-154616479D02*
X258614892Y-154540289D01*
X258614892Y-154540289D02*
X258691083Y-154502194D01*
X259300606Y-154502194D02*
X259491082Y-155302194D01*
X259491082Y-155302194D02*
X259643463Y-154730765D01*
X259643463Y-154730765D02*
X259795844Y-155302194D01*
X259795844Y-155302194D02*
X259986321Y-154502194D01*
X260252987Y-154578384D02*
X260291083Y-154540289D01*
X260291083Y-154540289D02*
X260367273Y-154502194D01*
X260367273Y-154502194D02*
X260557749Y-154502194D01*
X260557749Y-154502194D02*
X260633940Y-154540289D01*
X260633940Y-154540289D02*
X260672035Y-154578384D01*
X260672035Y-154578384D02*
X260710130Y-154654575D01*
X260710130Y-154654575D02*
X260710130Y-154730765D01*
X260710130Y-154730765D02*
X260672035Y-154845051D01*
X260672035Y-154845051D02*
X260214892Y-155302194D01*
X260214892Y-155302194D02*
X260710130Y-155302194D01*
X258195845Y-157842194D02*
X257929178Y-157461241D01*
X257738702Y-157842194D02*
X257738702Y-157042194D01*
X257738702Y-157042194D02*
X258043464Y-157042194D01*
X258043464Y-157042194D02*
X258119654Y-157080289D01*
X258119654Y-157080289D02*
X258157749Y-157118384D01*
X258157749Y-157118384D02*
X258195845Y-157194575D01*
X258195845Y-157194575D02*
X258195845Y-157308860D01*
X258195845Y-157308860D02*
X258157749Y-157385051D01*
X258157749Y-157385051D02*
X258119654Y-157423146D01*
X258119654Y-157423146D02*
X258043464Y-157461241D01*
X258043464Y-157461241D02*
X257738702Y-157461241D01*
X258691083Y-157042194D02*
X258843464Y-157042194D01*
X258843464Y-157042194D02*
X258919654Y-157080289D01*
X258919654Y-157080289D02*
X258995845Y-157156479D01*
X258995845Y-157156479D02*
X259033940Y-157308860D01*
X259033940Y-157308860D02*
X259033940Y-157575527D01*
X259033940Y-157575527D02*
X258995845Y-157727908D01*
X258995845Y-157727908D02*
X258919654Y-157804099D01*
X258919654Y-157804099D02*
X258843464Y-157842194D01*
X258843464Y-157842194D02*
X258691083Y-157842194D01*
X258691083Y-157842194D02*
X258614892Y-157804099D01*
X258614892Y-157804099D02*
X258538702Y-157727908D01*
X258538702Y-157727908D02*
X258500606Y-157575527D01*
X258500606Y-157575527D02*
X258500606Y-157308860D01*
X258500606Y-157308860D02*
X258538702Y-157156479D01*
X258538702Y-157156479D02*
X258614892Y-157080289D01*
X258614892Y-157080289D02*
X258691083Y-157042194D01*
X259300606Y-157042194D02*
X259491082Y-157842194D01*
X259491082Y-157842194D02*
X259643463Y-157270765D01*
X259643463Y-157270765D02*
X259795844Y-157842194D01*
X259795844Y-157842194D02*
X259986321Y-157042194D01*
X260214892Y-157042194D02*
X260710130Y-157042194D01*
X260710130Y-157042194D02*
X260443464Y-157346956D01*
X260443464Y-157346956D02*
X260557749Y-157346956D01*
X260557749Y-157346956D02*
X260633940Y-157385051D01*
X260633940Y-157385051D02*
X260672035Y-157423146D01*
X260672035Y-157423146D02*
X260710130Y-157499337D01*
X260710130Y-157499337D02*
X260710130Y-157689813D01*
X260710130Y-157689813D02*
X260672035Y-157766003D01*
X260672035Y-157766003D02*
X260633940Y-157804099D01*
X260633940Y-157804099D02*
X260557749Y-157842194D01*
X260557749Y-157842194D02*
X260329178Y-157842194D01*
X260329178Y-157842194D02*
X260252987Y-157804099D01*
X260252987Y-157804099D02*
X260214892Y-157766003D01*
D11*
G36*
X253683958Y-144809898D02*
G01*
X253600975Y-144809898D01*
X253537616Y-144778219D01*
X253505938Y-144714862D01*
X253505938Y-144533505D01*
X253537616Y-144470148D01*
X253600974Y-144438470D01*
X253609673Y-144438470D01*
X253683958Y-144809898D01*
G37*
G36*
X254105938Y-141619218D02*
G01*
X254105938Y-141857720D01*
X254074260Y-141921076D01*
X254010903Y-141952755D01*
X253943832Y-141952755D01*
X253880473Y-141921076D01*
X253848796Y-141857720D01*
X253848796Y-141595612D01*
X253844155Y-141581327D01*
X254086992Y-141581327D01*
X254105938Y-141619218D01*
G37*
G36*
X254032418Y-139392085D02*
G01*
X254066610Y-139426277D01*
X254105938Y-139504933D01*
X254105938Y-139629149D01*
X254066610Y-139707805D01*
X254032416Y-139741998D01*
X253953760Y-139781327D01*
X253658118Y-139781327D01*
X253579459Y-139741998D01*
X253545266Y-139707804D01*
X253505938Y-139629148D01*
X253505938Y-139504934D01*
X253545266Y-139426276D01*
X253579458Y-139392085D01*
X253658118Y-139352756D01*
X253953760Y-139352756D01*
X254032418Y-139392085D01*
G37*
G36*
X254477367Y-147981327D02*
G01*
X252735740Y-147981327D01*
X252735740Y-147730253D01*
X252908031Y-147730253D01*
X252910832Y-147735154D01*
X252910832Y-147740800D01*
X252925943Y-147761599D01*
X252938695Y-147783914D01*
X252943840Y-147786232D01*
X252947159Y-147790800D01*
X252971605Y-147798743D01*
X252995042Y-147809303D01*
X253000569Y-147808153D01*
X253005938Y-147809898D01*
X254205938Y-147809898D01*
X254264717Y-147790800D01*
X254301044Y-147740800D01*
X254301044Y-147678996D01*
X254264717Y-147628996D01*
X254205938Y-147609898D01*
X253382494Y-147609898D01*
X254255552Y-147111008D01*
X254259347Y-147106830D01*
X254264717Y-147105086D01*
X254279828Y-147084287D01*
X254297111Y-147065264D01*
X254297726Y-147059652D01*
X254301044Y-147055086D01*
X254301044Y-147029382D01*
X254303845Y-147003829D01*
X254301044Y-146998927D01*
X254301044Y-146993282D01*
X254285932Y-146972482D01*
X254273181Y-146950168D01*
X254268035Y-146947849D01*
X254264717Y-146943282D01*
X254240270Y-146935338D01*
X254216834Y-146924779D01*
X254211306Y-146925928D01*
X254205938Y-146924184D01*
X253005938Y-146924184D01*
X252947159Y-146943282D01*
X252910832Y-146993282D01*
X252910832Y-147055086D01*
X252947159Y-147105086D01*
X253005938Y-147124184D01*
X253829382Y-147124184D01*
X252956324Y-147623074D01*
X252952528Y-147627251D01*
X252947159Y-147628996D01*
X252932047Y-147649794D01*
X252914765Y-147668818D01*
X252914149Y-147674429D01*
X252910832Y-147678996D01*
X252910832Y-147704699D01*
X252908031Y-147730253D01*
X252735740Y-147730253D01*
X252735740Y-146468398D01*
X252907169Y-146468398D01*
X252910832Y-146475587D01*
X252910832Y-146483657D01*
X252915574Y-146490184D01*
X252916837Y-146498154D01*
X252928036Y-146509353D01*
X252935227Y-146523466D01*
X252992370Y-146580608D01*
X253006481Y-146587798D01*
X253017682Y-146598999D01*
X253033325Y-146601476D01*
X253047437Y-146608667D01*
X253063080Y-146606189D01*
X253078724Y-146608667D01*
X253092836Y-146601476D01*
X253108480Y-146598999D01*
X253119679Y-146587799D01*
X253133792Y-146580609D01*
X253190934Y-146523466D01*
X253198124Y-146509354D01*
X253209325Y-146498154D01*
X253210587Y-146490185D01*
X253215330Y-146483657D01*
X253310832Y-146483657D01*
X253347159Y-146533657D01*
X253405938Y-146552755D01*
X254205938Y-146552755D01*
X254264717Y-146533657D01*
X254301044Y-146483657D01*
X254301044Y-146421853D01*
X254264717Y-146371853D01*
X254205938Y-146352755D01*
X253405938Y-146352755D01*
X253347159Y-146371853D01*
X253310832Y-146421853D01*
X253310832Y-146483657D01*
X253215330Y-146483657D01*
X253215330Y-146475587D01*
X253218993Y-146468399D01*
X253216515Y-146452755D01*
X253218993Y-146437111D01*
X253215330Y-146429922D01*
X253215330Y-146421853D01*
X253210587Y-146415324D01*
X253209325Y-146407356D01*
X253198124Y-146396155D01*
X253190934Y-146382044D01*
X253133792Y-146324901D01*
X253119679Y-146317710D01*
X253108480Y-146306511D01*
X253092836Y-146304033D01*
X253078724Y-146296843D01*
X253063080Y-146299320D01*
X253047437Y-146296843D01*
X253033325Y-146304033D01*
X253017682Y-146306511D01*
X253006481Y-146317711D01*
X252992370Y-146324902D01*
X252935227Y-146382044D01*
X252928036Y-146396156D01*
X252916837Y-146407356D01*
X252915574Y-146415325D01*
X252910832Y-146421853D01*
X252910832Y-146429922D01*
X252907169Y-146437112D01*
X252909646Y-146452755D01*
X252907169Y-146468398D01*
X252735740Y-146468398D01*
X252735740Y-145709898D01*
X253305938Y-145709898D01*
X253313061Y-145731821D01*
X253316495Y-145754620D01*
X253373639Y-145868905D01*
X253385011Y-145880451D01*
X253392370Y-145894894D01*
X253449513Y-145952036D01*
X253463954Y-145959394D01*
X253475503Y-145970769D01*
X253589789Y-146027912D01*
X253612586Y-146031345D01*
X253634510Y-146038469D01*
X253977367Y-146038469D01*
X253999290Y-146031345D01*
X254022088Y-146027912D01*
X254136375Y-145970769D01*
X254147922Y-145959394D01*
X254162364Y-145952037D01*
X254219506Y-145894894D01*
X254226864Y-145880452D01*
X254238239Y-145868904D01*
X254295381Y-145754619D01*
X254298814Y-145731821D01*
X254305938Y-145709898D01*
X254305938Y-145481326D01*
X254298814Y-145459402D01*
X254295381Y-145436605D01*
X254238239Y-145322320D01*
X254194870Y-145278287D01*
X254133903Y-145268156D01*
X254078624Y-145295795D01*
X254050148Y-145350648D01*
X254059353Y-145411762D01*
X254105938Y-145504932D01*
X254105938Y-145686291D01*
X254066610Y-145764947D01*
X254032416Y-145799140D01*
X253953760Y-145838469D01*
X253658118Y-145838469D01*
X253579459Y-145799140D01*
X253545266Y-145764946D01*
X253505938Y-145686290D01*
X253505938Y-145504934D01*
X253552524Y-145411762D01*
X253561729Y-145350648D01*
X253533254Y-145295795D01*
X253477975Y-145268156D01*
X253417007Y-145278287D01*
X253373639Y-145322319D01*
X253316495Y-145436604D01*
X253313061Y-145459402D01*
X253305938Y-145481326D01*
X253305938Y-145709898D01*
X252735740Y-145709898D01*
X252735740Y-144738470D01*
X253305938Y-144738470D01*
X253313061Y-144760393D01*
X253316495Y-144783192D01*
X253373639Y-144897477D01*
X253374196Y-144898042D01*
X253374327Y-144898829D01*
X253395829Y-144920007D01*
X253417007Y-144941509D01*
X253417793Y-144941639D01*
X253418360Y-144942198D01*
X253532646Y-144999341D01*
X253555443Y-145002774D01*
X253577367Y-145009898D01*
X254034510Y-145009898D01*
X254056433Y-145002774D01*
X254079231Y-144999341D01*
X254193518Y-144942198D01*
X254194085Y-144941639D01*
X254194870Y-144941509D01*
X254216032Y-144920022D01*
X254237550Y-144898829D01*
X254237680Y-144898042D01*
X254238239Y-144897476D01*
X254295381Y-144783191D01*
X254298814Y-144760393D01*
X254305938Y-144738470D01*
X254305938Y-144509898D01*
X254298814Y-144487974D01*
X254295381Y-144465177D01*
X254238239Y-144350891D01*
X254194871Y-144306858D01*
X254133904Y-144296727D01*
X254078624Y-144324366D01*
X254050148Y-144379218D01*
X254059353Y-144440333D01*
X254105938Y-144533504D01*
X254105938Y-144714863D01*
X254074260Y-144778219D01*
X254010903Y-144809898D01*
X253887918Y-144809898D01*
X253789711Y-144318858D01*
X253786759Y-144313599D01*
X253786759Y-144307568D01*
X253771863Y-144287066D01*
X253759457Y-144264966D01*
X253753976Y-144262446D01*
X253750432Y-144257568D01*
X253726330Y-144249737D01*
X253703303Y-144239151D01*
X253697389Y-144240333D01*
X253691653Y-144238470D01*
X253577367Y-144238470D01*
X253555443Y-144245593D01*
X253532646Y-144249027D01*
X253418360Y-144306169D01*
X253417793Y-144306727D01*
X253417007Y-144306858D01*
X253395829Y-144328358D01*
X253374327Y-144349537D01*
X253374196Y-144350323D01*
X253373638Y-144350890D01*
X253316495Y-144465177D01*
X253313061Y-144487974D01*
X253305938Y-144509898D01*
X253305938Y-144738470D01*
X252735740Y-144738470D01*
X252735740Y-143839827D01*
X252907169Y-143839827D01*
X252910832Y-143847016D01*
X252910832Y-143855086D01*
X252915574Y-143861613D01*
X252916837Y-143869583D01*
X252928036Y-143880782D01*
X252935227Y-143894895D01*
X252992370Y-143952037D01*
X253003249Y-143957580D01*
X253011224Y-143966831D01*
X253030132Y-143971278D01*
X253047437Y-143980096D01*
X253059498Y-143978185D01*
X253071386Y-143980982D01*
X253757101Y-143923839D01*
X253778286Y-143914949D01*
X253800654Y-143909688D01*
X253803471Y-143906419D01*
X253807575Y-143905086D01*
X253810111Y-143901594D01*
X253814091Y-143899925D01*
X253826006Y-143880278D01*
X253841007Y-143862877D01*
X253841365Y-143858577D01*
X253843902Y-143855086D01*
X253843902Y-143850771D01*
X253846140Y-143847081D01*
X253845535Y-143839827D01*
X253992884Y-143839827D01*
X253996547Y-143847016D01*
X253996547Y-143855086D01*
X254001289Y-143861613D01*
X254002552Y-143869583D01*
X254013751Y-143880782D01*
X254020942Y-143894895D01*
X254078085Y-143952037D01*
X254092195Y-143959227D01*
X254103398Y-143970429D01*
X254119042Y-143972906D01*
X254133152Y-143980096D01*
X254148795Y-143977618D01*
X254164440Y-143980096D01*
X254178551Y-143972905D01*
X254194195Y-143970428D01*
X254205395Y-143959227D01*
X254219507Y-143952037D01*
X254276650Y-143894894D01*
X254283839Y-143880783D01*
X254295039Y-143869584D01*
X254296301Y-143861613D01*
X254301044Y-143855086D01*
X254301044Y-143847017D01*
X254304708Y-143839826D01*
X254302230Y-143824184D01*
X254304708Y-143808542D01*
X254301044Y-143801350D01*
X254301044Y-143793282D01*
X254296301Y-143786754D01*
X254295039Y-143778784D01*
X254283839Y-143767584D01*
X254276650Y-143753474D01*
X254219507Y-143696331D01*
X254205395Y-143689140D01*
X254194195Y-143677940D01*
X254178551Y-143675462D01*
X254164440Y-143668272D01*
X254148795Y-143670749D01*
X254133152Y-143668272D01*
X254119042Y-143675461D01*
X254103398Y-143677939D01*
X254092195Y-143689140D01*
X254078085Y-143696331D01*
X254020942Y-143753473D01*
X254013751Y-143767585D01*
X254002552Y-143778785D01*
X254001289Y-143786754D01*
X253996547Y-143793282D01*
X253996547Y-143801351D01*
X253992884Y-143808541D01*
X253995361Y-143824184D01*
X253992884Y-143839827D01*
X253845535Y-143839827D01*
X253844231Y-143824184D01*
X253846140Y-143801287D01*
X253843902Y-143797596D01*
X253843902Y-143793282D01*
X253841365Y-143789790D01*
X253841007Y-143785491D01*
X253826006Y-143768089D01*
X253814091Y-143748443D01*
X253810111Y-143746773D01*
X253807575Y-143743282D01*
X253803471Y-143741948D01*
X253800654Y-143738680D01*
X253778286Y-143733418D01*
X253757101Y-143724529D01*
X253071386Y-143667386D01*
X253059498Y-143670182D01*
X253047437Y-143668272D01*
X253030132Y-143677089D01*
X253011224Y-143681537D01*
X253003249Y-143690787D01*
X252992370Y-143696331D01*
X252935227Y-143753473D01*
X252928036Y-143767585D01*
X252916837Y-143778785D01*
X252915574Y-143786754D01*
X252910832Y-143793282D01*
X252910832Y-143801351D01*
X252907169Y-143808541D01*
X252909646Y-143824184D01*
X252907169Y-143839827D01*
X252735740Y-143839827D01*
X252735740Y-143273110D01*
X252908031Y-143273110D01*
X252910832Y-143278011D01*
X252910832Y-143283657D01*
X252925943Y-143304456D01*
X252938695Y-143326771D01*
X252943840Y-143329089D01*
X252947159Y-143333657D01*
X252971605Y-143341600D01*
X252995042Y-143352160D01*
X253000569Y-143351010D01*
X253005938Y-143352755D01*
X254205938Y-143352755D01*
X254264717Y-143333657D01*
X254301044Y-143283657D01*
X254301044Y-143221853D01*
X254264717Y-143171853D01*
X254205938Y-143152755D01*
X253382494Y-143152755D01*
X254255552Y-142653865D01*
X254259347Y-142649687D01*
X254264717Y-142647943D01*
X254279828Y-142627144D01*
X254297111Y-142608121D01*
X254297726Y-142602509D01*
X254301044Y-142597943D01*
X254301044Y-142572239D01*
X254303845Y-142546686D01*
X254301044Y-142541784D01*
X254301044Y-142536139D01*
X254285932Y-142515339D01*
X254273181Y-142493025D01*
X254268035Y-142490706D01*
X254264717Y-142486139D01*
X254240270Y-142478195D01*
X254216834Y-142467636D01*
X254211306Y-142468785D01*
X254205938Y-142467041D01*
X253005938Y-142467041D01*
X252947159Y-142486139D01*
X252910832Y-142536139D01*
X252910832Y-142597943D01*
X252947159Y-142647943D01*
X253005938Y-142667041D01*
X253829382Y-142667041D01*
X252956324Y-143165931D01*
X252952528Y-143170108D01*
X252947159Y-143171853D01*
X252932047Y-143192651D01*
X252914765Y-143211675D01*
X252914149Y-143217286D01*
X252910832Y-143221853D01*
X252910832Y-143247556D01*
X252908031Y-143273110D01*
X252735740Y-143273110D01*
X252735740Y-141881327D01*
X253305938Y-141881327D01*
X253313061Y-141903250D01*
X253316495Y-141926049D01*
X253373639Y-142040334D01*
X253417007Y-142084366D01*
X253477975Y-142094497D01*
X253533254Y-142066858D01*
X253561729Y-142012005D01*
X253552524Y-141950891D01*
X253505938Y-141857719D01*
X253505938Y-141676362D01*
X253537616Y-141613005D01*
X253600974Y-141581327D01*
X253629850Y-141581327D01*
X253648796Y-141619218D01*
X253648796Y-141881327D01*
X253655919Y-141903250D01*
X253659353Y-141926048D01*
X253716495Y-142040333D01*
X253717053Y-142040899D01*
X253717184Y-142041686D01*
X253738669Y-142062847D01*
X253759863Y-142084366D01*
X253760650Y-142084496D01*
X253761217Y-142085055D01*
X253875503Y-142142198D01*
X253898300Y-142145631D01*
X253920224Y-142152755D01*
X254034510Y-142152755D01*
X254056433Y-142145631D01*
X254079231Y-142142198D01*
X254193518Y-142085055D01*
X254194085Y-142084496D01*
X254194870Y-142084366D01*
X254216032Y-142062879D01*
X254237550Y-142041686D01*
X254237680Y-142040899D01*
X254238239Y-142040333D01*
X254295381Y-141926048D01*
X254298814Y-141903250D01*
X254305938Y-141881327D01*
X254305938Y-141595612D01*
X254298814Y-141573688D01*
X254295381Y-141550891D01*
X254286238Y-141532606D01*
X254301044Y-141512229D01*
X254301044Y-141450425D01*
X254264717Y-141400425D01*
X254205938Y-141381327D01*
X253577367Y-141381327D01*
X253555443Y-141388450D01*
X253532646Y-141391884D01*
X253418360Y-141449026D01*
X253417793Y-141449584D01*
X253417007Y-141449715D01*
X253395829Y-141471215D01*
X253374327Y-141492394D01*
X253374196Y-141493180D01*
X253373638Y-141493747D01*
X253316495Y-141608034D01*
X253313061Y-141630831D01*
X253305938Y-141652755D01*
X253305938Y-141881327D01*
X252735740Y-141881327D01*
X252735740Y-140738470D01*
X253305938Y-140738470D01*
X253313061Y-140760393D01*
X253316495Y-140783192D01*
X253342561Y-140835323D01*
X253310832Y-140878996D01*
X253310832Y-140940800D01*
X253347159Y-140990800D01*
X253405938Y-141009898D01*
X254205938Y-141009898D01*
X254264717Y-140990800D01*
X254301044Y-140940800D01*
X254301044Y-140878996D01*
X254264717Y-140828996D01*
X254205938Y-140809898D01*
X253561646Y-140809898D01*
X253545266Y-140793518D01*
X253505938Y-140714862D01*
X253505938Y-140590648D01*
X253537616Y-140527291D01*
X253600974Y-140495613D01*
X254205938Y-140495613D01*
X254264717Y-140476515D01*
X254301044Y-140426515D01*
X254301044Y-140364711D01*
X254264717Y-140314711D01*
X254205938Y-140295613D01*
X253577367Y-140295613D01*
X253555443Y-140302736D01*
X253532646Y-140306170D01*
X253418360Y-140363312D01*
X253417793Y-140363870D01*
X253417007Y-140364001D01*
X253395829Y-140385501D01*
X253374327Y-140406680D01*
X253374196Y-140407466D01*
X253373638Y-140408033D01*
X253316495Y-140522320D01*
X253313061Y-140545117D01*
X253305938Y-140567041D01*
X253305938Y-140738470D01*
X252735740Y-140738470D01*
X252735740Y-139652756D01*
X253305938Y-139652756D01*
X253313061Y-139674679D01*
X253316495Y-139697478D01*
X253373639Y-139811763D01*
X253385011Y-139823309D01*
X253392370Y-139837752D01*
X253449513Y-139894894D01*
X253463954Y-139902252D01*
X253475503Y-139913627D01*
X253589789Y-139970770D01*
X253612586Y-139974203D01*
X253634510Y-139981327D01*
X253977367Y-139981327D01*
X253999290Y-139974203D01*
X254022088Y-139970770D01*
X254136375Y-139913627D01*
X254147922Y-139902252D01*
X254162364Y-139894895D01*
X254219506Y-139837752D01*
X254226864Y-139823310D01*
X254238239Y-139811762D01*
X254295381Y-139697477D01*
X254298814Y-139674679D01*
X254305938Y-139652756D01*
X254305938Y-139481327D01*
X254298814Y-139459403D01*
X254295381Y-139436606D01*
X254238239Y-139322320D01*
X254226864Y-139310770D01*
X254219506Y-139296330D01*
X254162363Y-139239188D01*
X254147923Y-139231830D01*
X254136375Y-139220456D01*
X254022088Y-139163313D01*
X253999290Y-139159879D01*
X253977367Y-139152756D01*
X253634510Y-139152756D01*
X253612586Y-139159879D01*
X253589789Y-139163313D01*
X253475503Y-139220456D01*
X253463956Y-139231828D01*
X253449514Y-139239187D01*
X253392371Y-139296330D01*
X253385013Y-139310769D01*
X253373638Y-139322319D01*
X253316495Y-139436606D01*
X253313061Y-139459403D01*
X253305938Y-139481327D01*
X253305938Y-139652756D01*
X252735740Y-139652756D01*
X252735740Y-138981327D01*
X254477367Y-138981327D01*
X254477367Y-147981327D01*
G37*
D10*
X256716015Y-149581328D02*
X255716015Y-149581328D01*
X255716015Y-149581328D02*
X255716015Y-149200376D01*
X255716015Y-149200376D02*
X255763634Y-149105138D01*
X255763634Y-149105138D02*
X255811253Y-149057519D01*
X255811253Y-149057519D02*
X255906491Y-149009900D01*
X255906491Y-149009900D02*
X256049348Y-149009900D01*
X256049348Y-149009900D02*
X256144586Y-149057519D01*
X256144586Y-149057519D02*
X256192205Y-149105138D01*
X256192205Y-149105138D02*
X256239824Y-149200376D01*
X256239824Y-149200376D02*
X256239824Y-149581328D01*
X256716015Y-148438471D02*
X256668396Y-148533709D01*
X256668396Y-148533709D02*
X256573157Y-148581328D01*
X256573157Y-148581328D02*
X255716015Y-148581328D01*
X256716015Y-147628947D02*
X256192205Y-147628947D01*
X256192205Y-147628947D02*
X256096967Y-147676566D01*
X256096967Y-147676566D02*
X256049348Y-147771804D01*
X256049348Y-147771804D02*
X256049348Y-147962280D01*
X256049348Y-147962280D02*
X256096967Y-148057518D01*
X256668396Y-147628947D02*
X256716015Y-147724185D01*
X256716015Y-147724185D02*
X256716015Y-147962280D01*
X256716015Y-147962280D02*
X256668396Y-148057518D01*
X256668396Y-148057518D02*
X256573157Y-148105137D01*
X256573157Y-148105137D02*
X256477919Y-148105137D01*
X256477919Y-148105137D02*
X256382681Y-148057518D01*
X256382681Y-148057518D02*
X256335062Y-147962280D01*
X256335062Y-147962280D02*
X256335062Y-147724185D01*
X256335062Y-147724185D02*
X256287443Y-147628947D01*
X256668396Y-146724185D02*
X256716015Y-146819423D01*
X256716015Y-146819423D02*
X256716015Y-147009899D01*
X256716015Y-147009899D02*
X256668396Y-147105137D01*
X256668396Y-147105137D02*
X256620776Y-147152756D01*
X256620776Y-147152756D02*
X256525538Y-147200375D01*
X256525538Y-147200375D02*
X256239824Y-147200375D01*
X256239824Y-147200375D02*
X256144586Y-147152756D01*
X256144586Y-147152756D02*
X256096967Y-147105137D01*
X256096967Y-147105137D02*
X256049348Y-147009899D01*
X256049348Y-147009899D02*
X256049348Y-146819423D01*
X256049348Y-146819423D02*
X256096967Y-146724185D01*
X256668396Y-145914661D02*
X256716015Y-146009899D01*
X256716015Y-146009899D02*
X256716015Y-146200375D01*
X256716015Y-146200375D02*
X256668396Y-146295613D01*
X256668396Y-146295613D02*
X256573157Y-146343232D01*
X256573157Y-146343232D02*
X256192205Y-146343232D01*
X256192205Y-146343232D02*
X256096967Y-146295613D01*
X256096967Y-146295613D02*
X256049348Y-146200375D01*
X256049348Y-146200375D02*
X256049348Y-146009899D01*
X256049348Y-146009899D02*
X256096967Y-145914661D01*
X256096967Y-145914661D02*
X256192205Y-145867042D01*
X256192205Y-145867042D02*
X256287443Y-145867042D01*
X256287443Y-145867042D02*
X256382681Y-146343232D01*
X256049348Y-144819422D02*
X256049348Y-144438470D01*
X256716015Y-144676565D02*
X255858872Y-144676565D01*
X255858872Y-144676565D02*
X255763634Y-144628946D01*
X255763634Y-144628946D02*
X255716015Y-144533708D01*
X255716015Y-144533708D02*
X255716015Y-144438470D01*
X256716015Y-143676565D02*
X256192205Y-143676565D01*
X256192205Y-143676565D02*
X256096967Y-143724184D01*
X256096967Y-143724184D02*
X256049348Y-143819422D01*
X256049348Y-143819422D02*
X256049348Y-144009898D01*
X256049348Y-144009898D02*
X256096967Y-144105136D01*
X256668396Y-143676565D02*
X256716015Y-143771803D01*
X256716015Y-143771803D02*
X256716015Y-144009898D01*
X256716015Y-144009898D02*
X256668396Y-144105136D01*
X256668396Y-144105136D02*
X256573157Y-144152755D01*
X256573157Y-144152755D02*
X256477919Y-144152755D01*
X256477919Y-144152755D02*
X256382681Y-144105136D01*
X256382681Y-144105136D02*
X256335062Y-144009898D01*
X256335062Y-144009898D02*
X256335062Y-143771803D01*
X256335062Y-143771803D02*
X256287443Y-143676565D01*
X256668396Y-142771803D02*
X256716015Y-142867041D01*
X256716015Y-142867041D02*
X256716015Y-143057517D01*
X256716015Y-143057517D02*
X256668396Y-143152755D01*
X256668396Y-143152755D02*
X256620776Y-143200374D01*
X256620776Y-143200374D02*
X256525538Y-143247993D01*
X256525538Y-143247993D02*
X256239824Y-143247993D01*
X256239824Y-143247993D02*
X256144586Y-143200374D01*
X256144586Y-143200374D02*
X256096967Y-143152755D01*
X256096967Y-143152755D02*
X256049348Y-143057517D01*
X256049348Y-143057517D02*
X256049348Y-142867041D01*
X256049348Y-142867041D02*
X256096967Y-142771803D01*
X256668396Y-141962279D02*
X256716015Y-142057517D01*
X256716015Y-142057517D02*
X256716015Y-142247993D01*
X256716015Y-142247993D02*
X256668396Y-142343231D01*
X256668396Y-142343231D02*
X256573157Y-142390850D01*
X256573157Y-142390850D02*
X256192205Y-142390850D01*
X256192205Y-142390850D02*
X256096967Y-142343231D01*
X256096967Y-142343231D02*
X256049348Y-142247993D01*
X256049348Y-142247993D02*
X256049348Y-142057517D01*
X256049348Y-142057517D02*
X256096967Y-141962279D01*
X256096967Y-141962279D02*
X256192205Y-141914660D01*
X256192205Y-141914660D02*
X256287443Y-141914660D01*
X256287443Y-141914660D02*
X256382681Y-142390850D01*
X256716015Y-140295612D02*
X255716015Y-140295612D01*
X256668396Y-140295612D02*
X256716015Y-140390850D01*
X256716015Y-140390850D02*
X256716015Y-140581326D01*
X256716015Y-140581326D02*
X256668396Y-140676564D01*
X256668396Y-140676564D02*
X256620776Y-140724183D01*
X256620776Y-140724183D02*
X256525538Y-140771802D01*
X256525538Y-140771802D02*
X256239824Y-140771802D01*
X256239824Y-140771802D02*
X256144586Y-140724183D01*
X256144586Y-140724183D02*
X256096967Y-140676564D01*
X256096967Y-140676564D02*
X256049348Y-140581326D01*
X256049348Y-140581326D02*
X256049348Y-140390850D01*
X256049348Y-140390850D02*
X256096967Y-140295612D01*
X256716015Y-139676564D02*
X256668396Y-139771802D01*
X256668396Y-139771802D02*
X256620776Y-139819421D01*
X256620776Y-139819421D02*
X256525538Y-139867040D01*
X256525538Y-139867040D02*
X256239824Y-139867040D01*
X256239824Y-139867040D02*
X256144586Y-139819421D01*
X256144586Y-139819421D02*
X256096967Y-139771802D01*
X256096967Y-139771802D02*
X256049348Y-139676564D01*
X256049348Y-139676564D02*
X256049348Y-139533707D01*
X256049348Y-139533707D02*
X256096967Y-139438469D01*
X256096967Y-139438469D02*
X256144586Y-139390850D01*
X256144586Y-139390850D02*
X256239824Y-139343231D01*
X256239824Y-139343231D02*
X256525538Y-139343231D01*
X256525538Y-139343231D02*
X256620776Y-139390850D01*
X256620776Y-139390850D02*
X256668396Y-139438469D01*
X256668396Y-139438469D02*
X256716015Y-139533707D01*
X256716015Y-139533707D02*
X256716015Y-139676564D01*
X256049348Y-139009897D02*
X256716015Y-138819421D01*
X256716015Y-138819421D02*
X256239824Y-138628945D01*
X256239824Y-138628945D02*
X256716015Y-138438469D01*
X256716015Y-138438469D02*
X256049348Y-138247993D01*
X256049348Y-137867040D02*
X256716015Y-137867040D01*
X256144586Y-137867040D02*
X256096967Y-137819421D01*
X256096967Y-137819421D02*
X256049348Y-137724183D01*
X256049348Y-137724183D02*
X256049348Y-137581326D01*
X256049348Y-137581326D02*
X256096967Y-137486088D01*
X256096967Y-137486088D02*
X256192205Y-137438469D01*
X256192205Y-137438469D02*
X256716015Y-137438469D01*
D11*
G36*
X250973386Y-159993969D02*
G01*
X251056613Y-160077196D01*
X251104052Y-160266951D01*
X251104052Y-160642331D01*
X251056613Y-160832087D01*
X250973386Y-160915313D01*
X250894731Y-160954641D01*
X250713373Y-160954641D01*
X250634717Y-160915313D01*
X250551490Y-160832086D01*
X250504052Y-160642331D01*
X250504052Y-160266951D01*
X250551490Y-160077196D01*
X250634717Y-159993969D01*
X250713373Y-159954641D01*
X250894730Y-159954641D01*
X250973386Y-159993969D01*
G37*
G36*
X258116245Y-159993969D02*
G01*
X258150438Y-160028162D01*
X258195415Y-160118116D01*
X258246910Y-160324094D01*
X258246910Y-160585188D01*
X258195415Y-160791166D01*
X258150438Y-160881120D01*
X258116245Y-160915313D01*
X258037589Y-160954641D01*
X257970517Y-160954641D01*
X257891860Y-160915313D01*
X257857667Y-160881119D01*
X257812690Y-160791165D01*
X257761196Y-160585189D01*
X257761196Y-160324094D01*
X257812690Y-160118118D01*
X257857667Y-160028163D01*
X257891859Y-159993970D01*
X257970517Y-159954641D01*
X258037589Y-159954641D01*
X258116245Y-159993969D01*
G37*
G36*
X260327731Y-161326070D02*
G01*
X248989766Y-161326070D01*
X248989766Y-160197499D01*
X249161195Y-160197499D01*
X249168318Y-160219422D01*
X249171752Y-160242221D01*
X249228896Y-160356506D01*
X249240268Y-160368052D01*
X249247627Y-160382495D01*
X249304770Y-160439637D01*
X249319209Y-160446994D01*
X249330759Y-160458370D01*
X249445045Y-160515513D01*
X249456065Y-160517172D01*
X249465512Y-160523084D01*
X249683433Y-160577564D01*
X249773388Y-160622541D01*
X249807579Y-160656732D01*
X249846909Y-160735390D01*
X249846909Y-160802462D01*
X249807579Y-160881121D01*
X249773388Y-160915312D01*
X249694731Y-160954641D01*
X249448851Y-160954641D01*
X249292817Y-160902631D01*
X249231015Y-160902161D01*
X249180741Y-160938108D01*
X249161197Y-160996741D01*
X249179849Y-161055662D01*
X249229573Y-161092367D01*
X249401002Y-161149510D01*
X249417210Y-161149633D01*
X249432624Y-161154641D01*
X249718338Y-161154641D01*
X249740261Y-161147517D01*
X249763059Y-161144084D01*
X249877345Y-161086942D01*
X249888894Y-161075567D01*
X249903335Y-161068209D01*
X249960478Y-161011066D01*
X249967836Y-160996623D01*
X249979209Y-160985077D01*
X250036352Y-160870791D01*
X250039785Y-160847993D01*
X250046909Y-160826070D01*
X250046909Y-160711784D01*
X250039785Y-160689860D01*
X250036352Y-160667063D01*
X250030141Y-160654641D01*
X250304052Y-160654641D01*
X250307898Y-160666478D01*
X250307038Y-160678895D01*
X250364181Y-160907467D01*
X250378353Y-160930115D01*
X250390484Y-160953924D01*
X250504770Y-161068210D01*
X250519213Y-161075569D01*
X250530760Y-161086942D01*
X250645045Y-161144084D01*
X250667842Y-161147517D01*
X250689766Y-161154641D01*
X250918338Y-161154641D01*
X250940261Y-161147517D01*
X250963059Y-161144084D01*
X251077344Y-161086942D01*
X251088891Y-161075568D01*
X251103334Y-161068210D01*
X251217620Y-160953924D01*
X251229753Y-160930112D01*
X251243923Y-160907467D01*
X251301066Y-160678894D01*
X251300205Y-160666478D01*
X251304052Y-160654641D01*
X251304052Y-160540356D01*
X251561195Y-160540356D01*
X251565041Y-160552193D01*
X251564181Y-160564610D01*
X251621324Y-160793181D01*
X251627235Y-160802627D01*
X251628895Y-160813648D01*
X251686038Y-160927935D01*
X251697412Y-160939483D01*
X251704770Y-160953923D01*
X251819055Y-161068209D01*
X251839596Y-161078675D01*
X251858144Y-161092367D01*
X252029573Y-161149510D01*
X252045781Y-161149633D01*
X252061195Y-161154641D01*
X252175481Y-161154641D01*
X252190896Y-161149632D01*
X252207103Y-161149509D01*
X252378532Y-161092367D01*
X252397078Y-161078676D01*
X252417620Y-161068210D01*
X252431189Y-161054641D01*
X252818338Y-161054641D01*
X252837436Y-161113420D01*
X252887436Y-161149747D01*
X252949240Y-161149747D01*
X252999240Y-161113420D01*
X253018338Y-161054641D01*
X253018338Y-160826070D01*
X253389767Y-160826070D01*
X253396890Y-160847993D01*
X253400324Y-160870791D01*
X253457467Y-160985078D01*
X253468841Y-160996625D01*
X253476199Y-161011067D01*
X253533342Y-161068209D01*
X253547783Y-161075567D01*
X253559332Y-161086942D01*
X253673617Y-161144084D01*
X253696414Y-161147517D01*
X253718338Y-161154641D01*
X253946910Y-161154641D01*
X253968833Y-161147517D01*
X253991631Y-161144084D01*
X254105916Y-161086942D01*
X254117463Y-161075568D01*
X254131906Y-161068210D01*
X254189048Y-161011067D01*
X254196406Y-160996625D01*
X254207781Y-160985077D01*
X254264924Y-160870791D01*
X254268357Y-160847993D01*
X254275481Y-160826070D01*
X254275481Y-160197499D01*
X254589767Y-160197499D01*
X254596890Y-160219422D01*
X254600324Y-160242221D01*
X254657468Y-160356506D01*
X254668840Y-160368052D01*
X254676199Y-160382495D01*
X254733342Y-160439637D01*
X254747781Y-160446994D01*
X254759331Y-160458370D01*
X254873617Y-160515513D01*
X254884637Y-160517172D01*
X254894084Y-160523084D01*
X255112005Y-160577564D01*
X255201960Y-160622541D01*
X255236151Y-160656732D01*
X255275481Y-160735390D01*
X255275481Y-160802462D01*
X255236151Y-160881121D01*
X255201960Y-160915312D01*
X255123303Y-160954641D01*
X254877423Y-160954641D01*
X254721389Y-160902631D01*
X254659587Y-160902161D01*
X254609313Y-160938108D01*
X254589769Y-160996741D01*
X254608421Y-161055662D01*
X254658145Y-161092367D01*
X254829574Y-161149510D01*
X254845782Y-161149633D01*
X254861196Y-161154641D01*
X255146910Y-161154641D01*
X255168833Y-161147517D01*
X255191631Y-161144084D01*
X255305917Y-161086942D01*
X255317466Y-161075567D01*
X255331907Y-161068209D01*
X255389050Y-161011066D01*
X255396408Y-160996623D01*
X255407781Y-160985077D01*
X255464924Y-160870791D01*
X255468357Y-160847993D01*
X255475481Y-160826070D01*
X255475481Y-160711784D01*
X255468357Y-160689860D01*
X255464924Y-160667063D01*
X255407781Y-160552777D01*
X255396407Y-160541230D01*
X255389050Y-160526789D01*
X255331907Y-160469646D01*
X255317467Y-160462288D01*
X255305918Y-160450913D01*
X255191631Y-160393770D01*
X255180610Y-160392110D01*
X255171164Y-160386199D01*
X254953240Y-160331718D01*
X254863287Y-160286740D01*
X254829095Y-160252547D01*
X254816070Y-160226497D01*
X256593809Y-160226497D01*
X256595593Y-160288275D01*
X256881307Y-161088275D01*
X256898506Y-161110565D01*
X256914392Y-161133813D01*
X256917224Y-161134824D01*
X256919062Y-161137206D01*
X256946080Y-161145130D01*
X256972595Y-161154600D01*
X256975481Y-161153753D01*
X256978367Y-161154600D01*
X257004881Y-161145130D01*
X257031900Y-161137206D01*
X257033737Y-161134824D01*
X257036570Y-161133813D01*
X257052458Y-161110561D01*
X257069655Y-161088275D01*
X257244933Y-160597499D01*
X257561196Y-160597499D01*
X257565042Y-160609336D01*
X257564182Y-160621753D01*
X257621325Y-160850324D01*
X257627236Y-160859770D01*
X257628896Y-160870791D01*
X257686039Y-160985078D01*
X257697413Y-160996625D01*
X257704771Y-161011067D01*
X257761914Y-161068209D01*
X257776355Y-161075567D01*
X257787904Y-161086942D01*
X257902189Y-161144084D01*
X257924986Y-161147517D01*
X257946910Y-161154641D01*
X258061196Y-161154641D01*
X258083119Y-161147517D01*
X258105917Y-161144084D01*
X258220203Y-161086942D01*
X258231750Y-161075568D01*
X258246193Y-161068210D01*
X258301259Y-161013143D01*
X258705284Y-161013143D01*
X258712474Y-161027254D01*
X258714952Y-161042898D01*
X258726152Y-161054098D01*
X258733343Y-161068210D01*
X258790486Y-161125353D01*
X258804597Y-161132542D01*
X258815796Y-161143742D01*
X258823766Y-161145004D01*
X258830294Y-161149747D01*
X258838363Y-161149747D01*
X258845554Y-161153411D01*
X258861196Y-161150933D01*
X258876838Y-161153411D01*
X258884029Y-161149747D01*
X258892098Y-161149747D01*
X258898625Y-161145004D01*
X258906596Y-161143742D01*
X258917796Y-161132541D01*
X258931906Y-161125352D01*
X258989049Y-161068210D01*
X258996239Y-161054098D01*
X259007440Y-161042898D01*
X259009917Y-161027254D01*
X259017108Y-161013143D01*
X259014630Y-160997498D01*
X259017108Y-160981855D01*
X259009918Y-160967745D01*
X259007441Y-160952100D01*
X258996238Y-160940897D01*
X258989049Y-160926788D01*
X258931907Y-160869645D01*
X258917794Y-160862454D01*
X258906595Y-160851255D01*
X258898626Y-160849992D01*
X258892098Y-160845250D01*
X258884028Y-160845250D01*
X258876839Y-160841587D01*
X258861195Y-160844064D01*
X258845552Y-160841587D01*
X258838363Y-160845250D01*
X258830294Y-160845250D01*
X258823766Y-160849992D01*
X258815797Y-160851255D01*
X258804596Y-160862455D01*
X258790485Y-160869646D01*
X258733342Y-160926788D01*
X258726151Y-160940900D01*
X258714951Y-160952101D01*
X258712473Y-160967745D01*
X258705284Y-160981856D01*
X258707761Y-160997498D01*
X258705284Y-161013143D01*
X258301259Y-161013143D01*
X258303335Y-161011067D01*
X258310693Y-160996626D01*
X258322068Y-160985077D01*
X258379210Y-160870791D01*
X258380869Y-160859770D01*
X258386781Y-160850324D01*
X258443924Y-160621752D01*
X258443063Y-160609336D01*
X258446910Y-160597499D01*
X258446910Y-160311784D01*
X258443063Y-160299946D01*
X258443924Y-160287531D01*
X258425139Y-160212392D01*
X259276597Y-160212392D01*
X259304236Y-160267671D01*
X259359089Y-160296147D01*
X259420203Y-160286942D01*
X259534490Y-160229799D01*
X259546039Y-160218423D01*
X259560479Y-160211066D01*
X259618339Y-160153205D01*
X259618339Y-160954641D01*
X259375482Y-160954641D01*
X259316703Y-160973739D01*
X259280376Y-161023739D01*
X259280376Y-161085543D01*
X259316703Y-161135543D01*
X259375482Y-161154641D01*
X260061196Y-161154641D01*
X260119975Y-161135543D01*
X260156302Y-161085543D01*
X260156302Y-161023739D01*
X260119975Y-160973739D01*
X260061196Y-160954641D01*
X259818339Y-160954641D01*
X259818339Y-159854641D01*
X259817688Y-159852638D01*
X259818258Y-159850610D01*
X259808196Y-159823425D01*
X259799241Y-159795862D01*
X259797536Y-159794623D01*
X259796806Y-159792649D01*
X259772695Y-159776575D01*
X259749241Y-159759535D01*
X259747134Y-159759535D01*
X259745382Y-159758367D01*
X259716427Y-159759535D01*
X259687437Y-159759535D01*
X259685732Y-159760773D01*
X259683629Y-159760858D01*
X259660894Y-159778819D01*
X259637437Y-159795862D01*
X259636785Y-159797865D01*
X259635134Y-159799171D01*
X259526339Y-159962362D01*
X259430532Y-160058170D01*
X259330761Y-160108056D01*
X259286728Y-160151425D01*
X259276597Y-160212392D01*
X258425139Y-160212392D01*
X258386781Y-160058959D01*
X258380869Y-160049512D01*
X258379210Y-160038492D01*
X258322068Y-159924206D01*
X258310693Y-159912656D01*
X258303335Y-159898216D01*
X258246193Y-159841073D01*
X258231751Y-159833715D01*
X258220204Y-159822341D01*
X258105917Y-159765198D01*
X258083119Y-159761764D01*
X258061196Y-159754641D01*
X257946910Y-159754641D01*
X257924986Y-159761764D01*
X257902189Y-159765198D01*
X257787903Y-159822341D01*
X257776353Y-159833716D01*
X257761914Y-159841074D01*
X257704771Y-159898216D01*
X257697413Y-159912657D01*
X257686039Y-159924205D01*
X257628896Y-160038492D01*
X257627236Y-160049512D01*
X257621325Y-160058959D01*
X257564182Y-160287530D01*
X257565042Y-160299946D01*
X257561196Y-160311784D01*
X257561196Y-160597499D01*
X257244933Y-160597499D01*
X257355370Y-160288275D01*
X257357154Y-160226497D01*
X257322285Y-160175469D01*
X257264082Y-160154682D01*
X257204777Y-160172076D01*
X257167022Y-160221007D01*
X256975481Y-160757320D01*
X256783941Y-160221007D01*
X256746186Y-160172076D01*
X256686881Y-160154682D01*
X256628678Y-160175469D01*
X256593809Y-160226497D01*
X254816070Y-160226497D01*
X254789767Y-160173891D01*
X254789767Y-160106820D01*
X254829095Y-160028163D01*
X254863287Y-159993970D01*
X254941945Y-159954641D01*
X255187826Y-159954641D01*
X255343858Y-160006652D01*
X255405660Y-160007122D01*
X255455934Y-159971175D01*
X255475478Y-159912543D01*
X255456827Y-159853621D01*
X255407104Y-159816916D01*
X255235676Y-159759773D01*
X255219468Y-159759649D01*
X255204053Y-159754641D01*
X254918338Y-159754641D01*
X254896414Y-159761764D01*
X254873617Y-159765198D01*
X254759331Y-159822341D01*
X254747781Y-159833716D01*
X254733342Y-159841074D01*
X254676199Y-159898216D01*
X254668841Y-159912657D01*
X254657467Y-159924205D01*
X254600324Y-160038492D01*
X254596890Y-160061289D01*
X254589767Y-160083213D01*
X254589767Y-160197499D01*
X254275481Y-160197499D01*
X254275481Y-159854641D01*
X254256383Y-159795862D01*
X254206383Y-159759535D01*
X254144579Y-159759535D01*
X254094579Y-159795862D01*
X254075481Y-159854641D01*
X254075481Y-160802462D01*
X254036152Y-160881120D01*
X254001958Y-160915313D01*
X253923303Y-160954641D01*
X253741945Y-160954641D01*
X253663288Y-160915313D01*
X253629095Y-160881119D01*
X253589767Y-160802463D01*
X253589767Y-159854641D01*
X253570669Y-159795862D01*
X253520669Y-159759535D01*
X253458865Y-159759535D01*
X253408865Y-159795862D01*
X253389767Y-159854641D01*
X253389767Y-160826070D01*
X253018338Y-160826070D01*
X253018338Y-159854641D01*
X252999240Y-159795862D01*
X252949240Y-159759535D01*
X252887436Y-159759535D01*
X252837436Y-159795862D01*
X252818338Y-159854641D01*
X252818338Y-161054641D01*
X252431189Y-161054641D01*
X252474762Y-161011067D01*
X252502821Y-160956000D01*
X252493153Y-160894957D01*
X252449451Y-160851255D01*
X252388408Y-160841587D01*
X252333341Y-160869646D01*
X252292890Y-160910095D01*
X252159255Y-160954641D01*
X252077422Y-160954641D01*
X251943784Y-160910096D01*
X251857667Y-160823978D01*
X251812689Y-160734022D01*
X251761195Y-160528046D01*
X251761195Y-160381237D01*
X251812689Y-160175261D01*
X251857667Y-160085304D01*
X251943784Y-159999186D01*
X252077422Y-159954641D01*
X252159254Y-159954641D01*
X252292889Y-159999186D01*
X252333341Y-160039637D01*
X252388408Y-160067696D01*
X252449451Y-160058028D01*
X252493153Y-160014326D01*
X252502821Y-159953283D01*
X252474762Y-159898216D01*
X252417620Y-159841073D01*
X252397078Y-159830606D01*
X252378532Y-159816916D01*
X252207104Y-159759773D01*
X252190896Y-159759649D01*
X252175481Y-159754641D01*
X252061195Y-159754641D01*
X252045779Y-159759649D01*
X252029572Y-159759773D01*
X251858143Y-159816916D01*
X251839594Y-159830608D01*
X251819055Y-159841074D01*
X251704770Y-159955360D01*
X251697412Y-159969799D01*
X251686038Y-159981348D01*
X251628895Y-160095635D01*
X251627235Y-160106655D01*
X251621324Y-160116102D01*
X251564181Y-160344673D01*
X251565041Y-160357089D01*
X251561195Y-160368927D01*
X251561195Y-160540356D01*
X251304052Y-160540356D01*
X251304052Y-160254641D01*
X251300205Y-160242803D01*
X251301066Y-160230388D01*
X251243923Y-160001816D01*
X251229753Y-159979170D01*
X251217620Y-159955359D01*
X251103334Y-159841073D01*
X251088891Y-159833714D01*
X251077345Y-159822342D01*
X250963060Y-159765198D01*
X250940261Y-159761764D01*
X250918338Y-159754641D01*
X250689766Y-159754641D01*
X250667842Y-159761764D01*
X250645045Y-159765198D01*
X250530759Y-159822341D01*
X250519211Y-159833714D01*
X250504770Y-159841073D01*
X250390484Y-159955359D01*
X250378353Y-159979167D01*
X250364181Y-160001816D01*
X250307038Y-160230387D01*
X250307898Y-160242803D01*
X250304052Y-160254641D01*
X250304052Y-160654641D01*
X250030141Y-160654641D01*
X249979209Y-160552777D01*
X249967835Y-160541230D01*
X249960478Y-160526789D01*
X249903335Y-160469646D01*
X249888895Y-160462288D01*
X249877346Y-160450913D01*
X249763059Y-160393770D01*
X249752038Y-160392110D01*
X249742592Y-160386199D01*
X249524668Y-160331718D01*
X249434715Y-160286740D01*
X249400523Y-160252547D01*
X249361195Y-160173891D01*
X249361195Y-160106820D01*
X249400523Y-160028163D01*
X249434715Y-159993970D01*
X249513373Y-159954641D01*
X249759254Y-159954641D01*
X249915286Y-160006652D01*
X249977088Y-160007122D01*
X250027362Y-159971175D01*
X250046906Y-159912543D01*
X250028255Y-159853621D01*
X249978532Y-159816916D01*
X249807104Y-159759773D01*
X249790896Y-159759649D01*
X249775481Y-159754641D01*
X249489766Y-159754641D01*
X249467842Y-159761764D01*
X249445045Y-159765198D01*
X249330759Y-159822341D01*
X249319209Y-159833716D01*
X249304770Y-159841074D01*
X249247627Y-159898216D01*
X249240269Y-159912657D01*
X249228895Y-159924205D01*
X249171752Y-160038492D01*
X249168318Y-160061289D01*
X249161195Y-160083213D01*
X249161195Y-160197499D01*
X248989766Y-160197499D01*
X248989766Y-159583212D01*
X260327731Y-159583212D01*
X260327731Y-161326070D01*
G37*
D10*
X248056433Y-127067434D02*
X248665957Y-127067434D01*
X248361195Y-127372196D02*
X248361195Y-126762672D01*
X260656433Y-127067434D02*
X261265957Y-127067434D01*
G36*
X254140578Y-130538597D02*
G01*
X254161461Y-130559480D01*
X254186195Y-130608948D01*
X254186195Y-130802110D01*
X254161460Y-130851578D01*
X254140577Y-130872462D01*
X254091109Y-130897196D01*
X254012233Y-130897196D01*
X253962765Y-130872462D01*
X253941881Y-130851577D01*
X253917147Y-130802109D01*
X253917147Y-130608949D01*
X253941881Y-130559481D01*
X253962764Y-130538597D01*
X254012234Y-130513862D01*
X254091109Y-130513862D01*
X254140578Y-130538597D01*
G37*
G36*
X255691008Y-130532859D02*
G01*
X255708641Y-130568125D01*
X255479052Y-130614043D01*
X255479052Y-130570854D01*
X255498048Y-130532860D01*
X255536044Y-130513862D01*
X255653014Y-130513862D01*
X255691008Y-130532859D01*
G37*
G36*
X253416768Y-130271930D02*
G01*
X253437651Y-130292813D01*
X253462386Y-130342282D01*
X253462386Y-130421156D01*
X253437651Y-130470625D01*
X253416768Y-130491509D01*
X253367300Y-130516243D01*
X253155243Y-130516243D01*
X253155243Y-130247196D01*
X253367300Y-130247196D01*
X253416768Y-130271930D01*
G37*
G36*
X256544580Y-131161482D02*
G01*
X252890957Y-131161482D01*
X252890957Y-130972196D01*
X253005243Y-130972196D01*
X253022790Y-131020405D01*
X253067219Y-131046057D01*
X253117743Y-131037148D01*
X253150720Y-130997848D01*
X253155243Y-130972196D01*
X253155243Y-130819815D01*
X253767147Y-130819815D01*
X253768680Y-130824028D01*
X253767639Y-130828390D01*
X253775065Y-130853357D01*
X253813161Y-130929546D01*
X253814349Y-130930671D01*
X253827209Y-130949037D01*
X253865304Y-130987133D01*
X253866785Y-130987823D01*
X253884797Y-131001183D01*
X253960987Y-131039278D01*
X253965440Y-131039790D01*
X253968876Y-131042673D01*
X253994528Y-131047196D01*
X254108814Y-131047196D01*
X254113026Y-131045662D01*
X254117388Y-131046705D01*
X254142355Y-131039278D01*
X254218546Y-131001183D01*
X254219670Y-130999995D01*
X254238039Y-130987133D01*
X254276134Y-130949037D01*
X254276825Y-130947554D01*
X254290182Y-130929546D01*
X254328277Y-130853356D01*
X254328789Y-130848902D01*
X254331672Y-130845467D01*
X254336195Y-130819815D01*
X254336195Y-130591243D01*
X254334661Y-130587029D01*
X254335703Y-130582669D01*
X254328277Y-130557702D01*
X254290182Y-130481512D01*
X254288992Y-130480386D01*
X254276133Y-130462020D01*
X254247671Y-130433558D01*
X254453050Y-130433558D01*
X254455748Y-130459466D01*
X254608129Y-130992800D01*
X254609043Y-130994061D01*
X254608995Y-130995619D01*
X254624005Y-131014695D01*
X254638245Y-131034334D01*
X254639755Y-131034712D01*
X254640719Y-131035937D01*
X254664474Y-131040900D01*
X254688011Y-131046793D01*
X254689412Y-131046111D01*
X254690938Y-131046430D01*
X254712326Y-131034962D01*
X254734144Y-131024347D01*
X254734779Y-131022924D01*
X254736152Y-131022188D01*
X254749879Y-131000050D01*
X254832624Y-130793187D01*
X254915369Y-131000050D01*
X254916408Y-131001212D01*
X254916519Y-131002767D01*
X254933394Y-131020209D01*
X254949566Y-131038295D01*
X254951107Y-131038517D01*
X254952191Y-131039637D01*
X254976323Y-131042150D01*
X255000344Y-131045611D01*
X255001668Y-131044789D01*
X255003218Y-131044951D01*
X255023328Y-131031358D01*
X255043945Y-131018575D01*
X255044431Y-131017096D01*
X255045723Y-131016223D01*
X255057119Y-130992800D01*
X255095659Y-130857910D01*
X255329052Y-130857910D01*
X255330585Y-130862123D01*
X255329544Y-130866485D01*
X255336970Y-130891451D01*
X255375066Y-130967642D01*
X255383219Y-130975361D01*
X255387686Y-130985666D01*
X255408607Y-131001183D01*
X255484797Y-131039278D01*
X255489250Y-131039790D01*
X255492686Y-131042673D01*
X255518338Y-131047196D01*
X255670719Y-131047196D01*
X255674931Y-131045662D01*
X255679293Y-131046705D01*
X255704260Y-131039278D01*
X255780451Y-131001183D01*
X255807896Y-130972196D01*
X256052862Y-130972196D01*
X256070409Y-131020405D01*
X256114838Y-131046057D01*
X256165362Y-131037148D01*
X256198339Y-130997848D01*
X256202862Y-130972196D01*
X256202862Y-130608948D01*
X256227596Y-130559480D01*
X256248479Y-130538596D01*
X256297948Y-130513862D01*
X256356433Y-130513862D01*
X256404642Y-130496315D01*
X256430294Y-130451886D01*
X256421385Y-130401362D01*
X256382085Y-130368385D01*
X256356433Y-130363862D01*
X256280243Y-130363862D01*
X256276029Y-130365395D01*
X256271668Y-130364354D01*
X256246701Y-130371780D01*
X256188955Y-130400653D01*
X256185315Y-130390653D01*
X256140886Y-130365001D01*
X256090362Y-130373910D01*
X256057385Y-130413210D01*
X256052862Y-130438862D01*
X256052862Y-130972196D01*
X255807896Y-130972196D01*
X255815723Y-130963929D01*
X255818798Y-130912719D01*
X255788235Y-130871513D01*
X255738336Y-130859592D01*
X255713369Y-130867019D01*
X255653014Y-130897196D01*
X255536043Y-130897196D01*
X255498049Y-130878199D01*
X255479052Y-130840204D01*
X255479052Y-130767014D01*
X255799713Y-130702883D01*
X255810300Y-130696443D01*
X255822505Y-130694291D01*
X255831539Y-130683524D01*
X255843545Y-130676222D01*
X255847515Y-130664484D01*
X255855482Y-130654991D01*
X255860005Y-130629339D01*
X255860005Y-130553148D01*
X255858471Y-130548934D01*
X255859513Y-130544574D01*
X255852087Y-130519607D01*
X255813992Y-130443417D01*
X255805837Y-130435696D01*
X255801372Y-130425394D01*
X255780451Y-130409876D01*
X255704260Y-130371780D01*
X255699806Y-130371267D01*
X255696371Y-130368385D01*
X255670719Y-130363862D01*
X255518338Y-130363862D01*
X255514123Y-130365395D01*
X255509762Y-130364354D01*
X255484796Y-130371781D01*
X255408606Y-130409876D01*
X255400885Y-130418030D01*
X255390584Y-130422496D01*
X255375066Y-130443417D01*
X255336970Y-130519606D01*
X255336457Y-130524060D01*
X255333575Y-130527496D01*
X255329052Y-130553148D01*
X255329052Y-130857910D01*
X255095659Y-130857910D01*
X255209500Y-130459466D01*
X255205873Y-130408291D01*
X255170200Y-130371421D01*
X255119173Y-130366107D01*
X255076668Y-130394835D01*
X255065272Y-130418258D01*
X254973161Y-130740643D01*
X254902260Y-130563389D01*
X254886646Y-130545928D01*
X254872148Y-130527502D01*
X254869716Y-130526993D01*
X254868063Y-130525145D01*
X254844878Y-130521804D01*
X254821929Y-130517009D01*
X254819741Y-130518181D01*
X254817285Y-130517828D01*
X254797373Y-130530174D01*
X254776715Y-130541251D01*
X254774968Y-130544067D01*
X254773684Y-130544864D01*
X254772791Y-130547578D01*
X254762988Y-130563389D01*
X254692086Y-130740643D01*
X254599976Y-130418258D01*
X254569860Y-130376724D01*
X254520094Y-130364265D01*
X254473961Y-130386711D01*
X254453050Y-130433558D01*
X254247671Y-130433558D01*
X254238038Y-130423925D01*
X254236553Y-130423232D01*
X254218546Y-130409876D01*
X254142355Y-130371780D01*
X254137901Y-130371267D01*
X254134466Y-130368385D01*
X254108814Y-130363862D01*
X253994528Y-130363862D01*
X253990313Y-130365395D01*
X253985952Y-130364354D01*
X253960986Y-130371781D01*
X253884796Y-130409876D01*
X253883668Y-130411067D01*
X253865305Y-130423925D01*
X253827210Y-130462020D01*
X253826517Y-130463504D01*
X253813161Y-130481512D01*
X253775065Y-130557701D01*
X253774552Y-130562155D01*
X253771670Y-130565591D01*
X253767147Y-130591243D01*
X253767147Y-130819815D01*
X253155243Y-130819815D01*
X253155243Y-130666243D01*
X253385005Y-130666243D01*
X253389218Y-130664709D01*
X253393579Y-130665751D01*
X253418546Y-130658325D01*
X253494736Y-130620230D01*
X253495861Y-130619040D01*
X253514228Y-130606181D01*
X253552323Y-130568086D01*
X253553015Y-130566600D01*
X253566372Y-130548594D01*
X253604468Y-130472404D01*
X253604980Y-130467949D01*
X253607863Y-130464514D01*
X253612386Y-130438862D01*
X253612386Y-130324577D01*
X253610852Y-130320363D01*
X253611894Y-130316002D01*
X253604468Y-130291035D01*
X253566372Y-130214845D01*
X253565182Y-130213719D01*
X253552323Y-130195353D01*
X253514228Y-130157258D01*
X253512746Y-130156567D01*
X253494736Y-130143209D01*
X253418546Y-130105114D01*
X253414092Y-130104601D01*
X253410657Y-130101719D01*
X253385005Y-130097196D01*
X253080243Y-130097196D01*
X253061934Y-130103859D01*
X253042743Y-130107244D01*
X253038392Y-130112428D01*
X253032034Y-130114743D01*
X253022291Y-130131616D01*
X253009766Y-130146544D01*
X253008048Y-130156286D01*
X253006382Y-130159172D01*
X253006960Y-130162454D01*
X253005243Y-130172196D01*
X253005243Y-130972196D01*
X252890957Y-130972196D01*
X252890957Y-129982910D01*
X256544580Y-129982910D01*
X256544580Y-131161482D01*
G37*
G36*
X254140578Y-130538597D02*
G01*
X254161461Y-130559480D01*
X254186195Y-130608948D01*
X254186195Y-130802110D01*
X254161460Y-130851578D01*
X254140577Y-130872462D01*
X254091109Y-130897196D01*
X254012233Y-130897196D01*
X253962765Y-130872462D01*
X253941881Y-130851577D01*
X253917147Y-130802109D01*
X253917147Y-130608949D01*
X253941881Y-130559481D01*
X253962764Y-130538597D01*
X254012234Y-130513862D01*
X254091109Y-130513862D01*
X254140578Y-130538597D01*
G37*
G36*
X255691008Y-130532859D02*
G01*
X255708641Y-130568125D01*
X255479052Y-130614043D01*
X255479052Y-130570854D01*
X255498048Y-130532860D01*
X255536044Y-130513862D01*
X255653014Y-130513862D01*
X255691008Y-130532859D01*
G37*
G36*
X253416768Y-130271930D02*
G01*
X253437651Y-130292813D01*
X253462386Y-130342282D01*
X253462386Y-130421156D01*
X253437651Y-130470625D01*
X253416768Y-130491509D01*
X253367300Y-130516243D01*
X253155243Y-130516243D01*
X253155243Y-130247196D01*
X253367300Y-130247196D01*
X253416768Y-130271930D01*
G37*
G36*
X256544580Y-131161482D02*
G01*
X252890957Y-131161482D01*
X252890957Y-130972196D01*
X253005243Y-130972196D01*
X253022790Y-131020405D01*
X253067219Y-131046057D01*
X253117743Y-131037148D01*
X253150720Y-130997848D01*
X253155243Y-130972196D01*
X253155243Y-130819815D01*
X253767147Y-130819815D01*
X253768680Y-130824028D01*
X253767639Y-130828390D01*
X253775065Y-130853357D01*
X253813161Y-130929546D01*
X253814349Y-130930671D01*
X253827209Y-130949037D01*
X253865304Y-130987133D01*
X253866785Y-130987823D01*
X253884797Y-131001183D01*
X253960987Y-131039278D01*
X253965440Y-131039790D01*
X253968876Y-131042673D01*
X253994528Y-131047196D01*
X254108814Y-131047196D01*
X254113026Y-131045662D01*
X254117388Y-131046705D01*
X254142355Y-131039278D01*
X254218546Y-131001183D01*
X254219670Y-130999995D01*
X254238039Y-130987133D01*
X254276134Y-130949037D01*
X254276825Y-130947554D01*
X254290182Y-130929546D01*
X254328277Y-130853356D01*
X254328789Y-130848902D01*
X254331672Y-130845467D01*
X254336195Y-130819815D01*
X254336195Y-130591243D01*
X254334661Y-130587029D01*
X254335703Y-130582669D01*
X254328277Y-130557702D01*
X254290182Y-130481512D01*
X254288992Y-130480386D01*
X254276133Y-130462020D01*
X254247671Y-130433558D01*
X254453050Y-130433558D01*
X254455748Y-130459466D01*
X254608129Y-130992800D01*
X254609043Y-130994061D01*
X254608995Y-130995619D01*
X254624005Y-131014695D01*
X254638245Y-131034334D01*
X254639755Y-131034712D01*
X254640719Y-131035937D01*
X254664474Y-131040900D01*
X254688011Y-131046793D01*
X254689412Y-131046111D01*
X254690938Y-131046430D01*
X254712326Y-131034962D01*
X254734144Y-131024347D01*
X254734779Y-131022924D01*
X254736152Y-131022188D01*
X254749879Y-131000050D01*
X254832624Y-130793187D01*
X254915369Y-131000050D01*
X254916408Y-131001212D01*
X254916519Y-131002767D01*
X254933394Y-131020209D01*
X254949566Y-131038295D01*
X254951107Y-131038517D01*
X254952191Y-131039637D01*
X254976323Y-131042150D01*
X255000344Y-131045611D01*
X255001668Y-131044789D01*
X255003218Y-131044951D01*
X255023328Y-131031358D01*
X255043945Y-131018575D01*
X255044431Y-131017096D01*
X255045723Y-131016223D01*
X255057119Y-130992800D01*
X255095659Y-130857910D01*
X255329052Y-130857910D01*
X255330585Y-130862123D01*
X255329544Y-130866485D01*
X255336970Y-130891451D01*
X255375066Y-130967642D01*
X255383219Y-130975361D01*
X255387686Y-130985666D01*
X255408607Y-131001183D01*
X255484797Y-131039278D01*
X255489250Y-131039790D01*
X255492686Y-131042673D01*
X255518338Y-131047196D01*
X255670719Y-131047196D01*
X255674931Y-131045662D01*
X255679293Y-131046705D01*
X255704260Y-131039278D01*
X255780451Y-131001183D01*
X255807896Y-130972196D01*
X256052862Y-130972196D01*
X256070409Y-131020405D01*
X256114838Y-131046057D01*
X256165362Y-131037148D01*
X256198339Y-130997848D01*
X256202862Y-130972196D01*
X256202862Y-130608948D01*
X256227596Y-130559480D01*
X256248479Y-130538596D01*
X256297948Y-130513862D01*
X256356433Y-130513862D01*
X256404642Y-130496315D01*
X256430294Y-130451886D01*
X256421385Y-130401362D01*
X256382085Y-130368385D01*
X256356433Y-130363862D01*
X256280243Y-130363862D01*
X256276029Y-130365395D01*
X256271668Y-130364354D01*
X256246701Y-130371780D01*
X256188955Y-130400653D01*
X256185315Y-130390653D01*
X256140886Y-130365001D01*
X256090362Y-130373910D01*
X256057385Y-130413210D01*
X256052862Y-130438862D01*
X256052862Y-130972196D01*
X255807896Y-130972196D01*
X255815723Y-130963929D01*
X255818798Y-130912719D01*
X255788235Y-130871513D01*
X255738336Y-130859592D01*
X255713369Y-130867019D01*
X255653014Y-130897196D01*
X255536043Y-130897196D01*
X255498049Y-130878199D01*
X255479052Y-130840204D01*
X255479052Y-130767014D01*
X255799713Y-130702883D01*
X255810300Y-130696443D01*
X255822505Y-130694291D01*
X255831539Y-130683524D01*
X255843545Y-130676222D01*
X255847515Y-130664484D01*
X255855482Y-130654991D01*
X255860005Y-130629339D01*
X255860005Y-130553148D01*
X255858471Y-130548934D01*
X255859513Y-130544574D01*
X255852087Y-130519607D01*
X255813992Y-130443417D01*
X255805837Y-130435696D01*
X255801372Y-130425394D01*
X255780451Y-130409876D01*
X255704260Y-130371780D01*
X255699806Y-130371267D01*
X255696371Y-130368385D01*
X255670719Y-130363862D01*
X255518338Y-130363862D01*
X255514123Y-130365395D01*
X255509762Y-130364354D01*
X255484796Y-130371781D01*
X255408606Y-130409876D01*
X255400885Y-130418030D01*
X255390584Y-130422496D01*
X255375066Y-130443417D01*
X255336970Y-130519606D01*
X255336457Y-130524060D01*
X255333575Y-130527496D01*
X255329052Y-130553148D01*
X255329052Y-130857910D01*
X255095659Y-130857910D01*
X255209500Y-130459466D01*
X255205873Y-130408291D01*
X255170200Y-130371421D01*
X255119173Y-130366107D01*
X255076668Y-130394835D01*
X255065272Y-130418258D01*
X254973161Y-130740643D01*
X254902260Y-130563389D01*
X254886646Y-130545928D01*
X254872148Y-130527502D01*
X254869716Y-130526993D01*
X254868063Y-130525145D01*
X254844878Y-130521804D01*
X254821929Y-130517009D01*
X254819741Y-130518181D01*
X254817285Y-130517828D01*
X254797373Y-130530174D01*
X254776715Y-130541251D01*
X254774968Y-130544067D01*
X254773684Y-130544864D01*
X254772791Y-130547578D01*
X254762988Y-130563389D01*
X254692086Y-130740643D01*
X254599976Y-130418258D01*
X254569860Y-130376724D01*
X254520094Y-130364265D01*
X254473961Y-130386711D01*
X254453050Y-130433558D01*
X254247671Y-130433558D01*
X254238038Y-130423925D01*
X254236553Y-130423232D01*
X254218546Y-130409876D01*
X254142355Y-130371780D01*
X254137901Y-130371267D01*
X254134466Y-130368385D01*
X254108814Y-130363862D01*
X253994528Y-130363862D01*
X253990313Y-130365395D01*
X253985952Y-130364354D01*
X253960986Y-130371781D01*
X253884796Y-130409876D01*
X253883668Y-130411067D01*
X253865305Y-130423925D01*
X253827210Y-130462020D01*
X253826517Y-130463504D01*
X253813161Y-130481512D01*
X253775065Y-130557701D01*
X253774552Y-130562155D01*
X253771670Y-130565591D01*
X253767147Y-130591243D01*
X253767147Y-130819815D01*
X253155243Y-130819815D01*
X253155243Y-130666243D01*
X253385005Y-130666243D01*
X253389218Y-130664709D01*
X253393579Y-130665751D01*
X253418546Y-130658325D01*
X253494736Y-130620230D01*
X253495861Y-130619040D01*
X253514228Y-130606181D01*
X253552323Y-130568086D01*
X253553015Y-130566600D01*
X253566372Y-130548594D01*
X253604468Y-130472404D01*
X253604980Y-130467949D01*
X253607863Y-130464514D01*
X253612386Y-130438862D01*
X253612386Y-130324577D01*
X253610852Y-130320363D01*
X253611894Y-130316002D01*
X253604468Y-130291035D01*
X253566372Y-130214845D01*
X253565182Y-130213719D01*
X253552323Y-130195353D01*
X253514228Y-130157258D01*
X253512746Y-130156567D01*
X253494736Y-130143209D01*
X253418546Y-130105114D01*
X253414092Y-130104601D01*
X253410657Y-130101719D01*
X253385005Y-130097196D01*
X253080243Y-130097196D01*
X253061934Y-130103859D01*
X253042743Y-130107244D01*
X253038392Y-130112428D01*
X253032034Y-130114743D01*
X253022291Y-130131616D01*
X253009766Y-130146544D01*
X253008048Y-130156286D01*
X253006382Y-130159172D01*
X253006960Y-130162454D01*
X253005243Y-130172196D01*
X253005243Y-130972196D01*
X252890957Y-130972196D01*
X252890957Y-129982910D01*
X256544580Y-129982910D01*
X256544580Y-131161482D01*
G37*
G36*
X254262440Y-168432857D02*
G01*
X254280073Y-168468123D01*
X254050484Y-168514041D01*
X254050484Y-168470852D01*
X254069480Y-168432858D01*
X254107476Y-168413860D01*
X254224446Y-168413860D01*
X254262440Y-168432857D01*
G37*
G36*
X255595773Y-168432857D02*
G01*
X255613406Y-168468123D01*
X255383817Y-168514041D01*
X255383817Y-168470852D01*
X255402813Y-168432858D01*
X255440809Y-168413860D01*
X255557779Y-168413860D01*
X255595773Y-168432857D01*
G37*
G36*
X253550105Y-168171928D02*
G01*
X253570988Y-168192811D01*
X253595723Y-168242280D01*
X253595723Y-168321154D01*
X253570988Y-168370623D01*
X253550105Y-168391507D01*
X253500637Y-168416241D01*
X253288580Y-168416241D01*
X253288580Y-168147194D01*
X253500637Y-168147194D01*
X253550105Y-168171928D01*
G37*
G36*
X256411250Y-169061480D02*
G01*
X253024294Y-169061480D01*
X253024294Y-168872194D01*
X253138580Y-168872194D01*
X253156127Y-168920403D01*
X253200556Y-168946055D01*
X253251080Y-168937146D01*
X253284057Y-168897846D01*
X253288580Y-168872194D01*
X253288580Y-168566241D01*
X253365007Y-168566241D01*
X253609280Y-168915203D01*
X253651302Y-168944635D01*
X253702410Y-168940172D01*
X253738692Y-168903900D01*
X253743170Y-168852793D01*
X253732165Y-168829184D01*
X253682272Y-168757908D01*
X253900484Y-168757908D01*
X253902017Y-168762121D01*
X253900976Y-168766483D01*
X253908402Y-168791449D01*
X253946498Y-168867640D01*
X253954651Y-168875359D01*
X253959118Y-168885664D01*
X253980039Y-168901181D01*
X254056229Y-168939276D01*
X254060682Y-168939788D01*
X254064118Y-168942671D01*
X254089770Y-168947194D01*
X254242151Y-168947194D01*
X254246363Y-168945660D01*
X254250725Y-168946703D01*
X254275692Y-168939276D01*
X254351883Y-168901181D01*
X254387155Y-168863927D01*
X254390230Y-168812717D01*
X254359667Y-168771511D01*
X254309768Y-168759590D01*
X254284801Y-168767017D01*
X254224446Y-168797194D01*
X254107475Y-168797194D01*
X254069481Y-168778197D01*
X254050484Y-168740202D01*
X254050484Y-168667012D01*
X254371145Y-168602881D01*
X254381732Y-168596441D01*
X254393937Y-168594289D01*
X254402971Y-168583522D01*
X254414977Y-168576220D01*
X254418947Y-168564482D01*
X254426914Y-168554989D01*
X254431437Y-168529337D01*
X254431437Y-168491241D01*
X254586198Y-168491241D01*
X254587731Y-168495454D01*
X254586690Y-168499816D01*
X254594116Y-168524782D01*
X254632212Y-168600973D01*
X254640365Y-168608692D01*
X254644832Y-168618997D01*
X254665753Y-168634514D01*
X254741943Y-168672609D01*
X254746396Y-168673121D01*
X254749832Y-168676004D01*
X254775484Y-168680527D01*
X254872065Y-168680527D01*
X254910058Y-168699523D01*
X254929056Y-168737518D01*
X254929056Y-168740202D01*
X254910058Y-168778197D01*
X254872065Y-168797194D01*
X254755094Y-168797194D01*
X254694739Y-168767017D01*
X254643772Y-168761152D01*
X254600959Y-168789419D01*
X254586333Y-168838593D01*
X254606736Y-168885664D01*
X254627657Y-168901181D01*
X254703848Y-168939276D01*
X254708301Y-168939788D01*
X254711737Y-168942671D01*
X254737389Y-168947194D01*
X254889770Y-168947194D01*
X254893983Y-168945660D01*
X254898344Y-168946702D01*
X254923311Y-168939276D01*
X254999501Y-168901181D01*
X255007221Y-168893026D01*
X255017524Y-168888561D01*
X255033042Y-168867640D01*
X255071138Y-168791450D01*
X255071650Y-168786995D01*
X255074533Y-168783560D01*
X255079056Y-168757908D01*
X255233817Y-168757908D01*
X255235350Y-168762121D01*
X255234309Y-168766483D01*
X255241735Y-168791449D01*
X255279831Y-168867640D01*
X255287984Y-168875359D01*
X255292451Y-168885664D01*
X255313372Y-168901181D01*
X255389562Y-168939276D01*
X255394015Y-168939788D01*
X255397451Y-168942671D01*
X255423103Y-168947194D01*
X255575484Y-168947194D01*
X255579696Y-168945660D01*
X255584058Y-168946703D01*
X255609025Y-168939276D01*
X255685216Y-168901181D01*
X255720488Y-168863927D01*
X255723563Y-168812717D01*
X255693000Y-168771511D01*
X255643101Y-168759590D01*
X255618134Y-168767017D01*
X255557779Y-168797194D01*
X255440808Y-168797194D01*
X255402814Y-168778197D01*
X255383817Y-168740202D01*
X255383817Y-168667012D01*
X255704478Y-168602881D01*
X255715065Y-168596441D01*
X255727270Y-168594289D01*
X255736304Y-168583522D01*
X255748310Y-168576220D01*
X255752280Y-168564482D01*
X255760247Y-168554989D01*
X255764770Y-168529337D01*
X255764770Y-168453146D01*
X255763236Y-168448932D01*
X255764278Y-168444572D01*
X255756852Y-168419605D01*
X255718757Y-168343415D01*
X255710602Y-168335694D01*
X255706329Y-168325836D01*
X255844480Y-168325836D01*
X255853389Y-168376360D01*
X255892689Y-168409337D01*
X255918341Y-168413860D01*
X255957627Y-168413860D01*
X255957627Y-168757908D01*
X255959160Y-168762120D01*
X255958118Y-168766482D01*
X255965545Y-168791449D01*
X256003640Y-168867640D01*
X256011793Y-168875359D01*
X256016260Y-168885664D01*
X256037181Y-168901181D01*
X256113371Y-168939276D01*
X256117824Y-168939788D01*
X256121260Y-168942671D01*
X256146912Y-168947194D01*
X256223103Y-168947194D01*
X256271312Y-168929647D01*
X256296964Y-168885218D01*
X256288055Y-168834694D01*
X256248755Y-168801717D01*
X256223103Y-168797194D01*
X256164617Y-168797194D01*
X256126623Y-168778197D01*
X256107627Y-168740203D01*
X256107627Y-168413860D01*
X256223103Y-168413860D01*
X256271312Y-168396313D01*
X256296964Y-168351884D01*
X256288055Y-168301360D01*
X256248755Y-168268383D01*
X256223103Y-168263860D01*
X256107627Y-168263860D01*
X256107627Y-168072194D01*
X256090080Y-168023985D01*
X256045651Y-167998333D01*
X255995127Y-168007242D01*
X255962150Y-168046542D01*
X255957627Y-168072194D01*
X255957627Y-168263860D01*
X255918341Y-168263860D01*
X255870132Y-168281407D01*
X255844480Y-168325836D01*
X255706329Y-168325836D01*
X255706137Y-168325392D01*
X255685216Y-168309874D01*
X255609025Y-168271778D01*
X255604571Y-168271265D01*
X255601136Y-168268383D01*
X255575484Y-168263860D01*
X255423103Y-168263860D01*
X255418888Y-168265393D01*
X255414527Y-168264352D01*
X255389561Y-168271779D01*
X255313371Y-168309874D01*
X255305650Y-168318028D01*
X255295349Y-168322494D01*
X255279831Y-168343415D01*
X255241735Y-168419604D01*
X255241222Y-168424058D01*
X255238340Y-168427494D01*
X255233817Y-168453146D01*
X255233817Y-168757908D01*
X255079056Y-168757908D01*
X255079056Y-168719813D01*
X255077522Y-168715599D01*
X255078564Y-168711238D01*
X255071138Y-168686271D01*
X255033042Y-168610081D01*
X255024888Y-168602361D01*
X255020422Y-168592057D01*
X254999501Y-168576540D01*
X254923311Y-168538445D01*
X254918857Y-168537932D01*
X254915422Y-168535050D01*
X254889770Y-168530527D01*
X254793189Y-168530527D01*
X254755195Y-168511530D01*
X254736198Y-168473535D01*
X254736198Y-168470852D01*
X254755194Y-168432858D01*
X254793190Y-168413860D01*
X254872064Y-168413860D01*
X254932418Y-168444037D01*
X254983385Y-168449903D01*
X255026198Y-168421637D01*
X255040825Y-168372463D01*
X255020422Y-168325392D01*
X254999501Y-168309874D01*
X254923312Y-168271778D01*
X254918857Y-168271265D01*
X254915422Y-168268383D01*
X254889770Y-168263860D01*
X254775484Y-168263860D01*
X254771269Y-168265393D01*
X254766908Y-168264352D01*
X254741942Y-168271779D01*
X254665752Y-168309874D01*
X254658031Y-168318028D01*
X254647730Y-168322494D01*
X254632212Y-168343415D01*
X254594116Y-168419604D01*
X254593603Y-168424058D01*
X254590721Y-168427494D01*
X254586198Y-168453146D01*
X254586198Y-168491241D01*
X254431437Y-168491241D01*
X254431437Y-168453146D01*
X254429903Y-168448932D01*
X254430945Y-168444572D01*
X254423519Y-168419605D01*
X254385424Y-168343415D01*
X254377269Y-168335694D01*
X254372804Y-168325392D01*
X254351883Y-168309874D01*
X254275692Y-168271778D01*
X254271238Y-168271265D01*
X254267803Y-168268383D01*
X254242151Y-168263860D01*
X254089770Y-168263860D01*
X254085555Y-168265393D01*
X254081194Y-168264352D01*
X254056228Y-168271779D01*
X253980038Y-168309874D01*
X253972317Y-168318028D01*
X253962016Y-168322494D01*
X253946498Y-168343415D01*
X253908402Y-168419604D01*
X253907889Y-168424058D01*
X253905007Y-168427494D01*
X253900484Y-168453146D01*
X253900484Y-168757908D01*
X253682272Y-168757908D01*
X253544168Y-168560617D01*
X253551883Y-168558323D01*
X253628073Y-168520228D01*
X253629198Y-168519038D01*
X253647565Y-168506179D01*
X253685660Y-168468084D01*
X253686352Y-168466598D01*
X253699709Y-168448592D01*
X253737805Y-168372402D01*
X253738317Y-168367947D01*
X253741200Y-168364512D01*
X253745723Y-168338860D01*
X253745723Y-168224575D01*
X253744189Y-168220361D01*
X253745231Y-168216000D01*
X253737805Y-168191033D01*
X253699709Y-168114843D01*
X253698519Y-168113717D01*
X253685660Y-168095351D01*
X253647565Y-168057256D01*
X253646083Y-168056565D01*
X253628073Y-168043207D01*
X253551883Y-168005112D01*
X253547429Y-168004599D01*
X253543994Y-168001717D01*
X253518342Y-167997194D01*
X253213580Y-167997194D01*
X253195271Y-168003857D01*
X253176080Y-168007242D01*
X253171729Y-168012426D01*
X253165371Y-168014741D01*
X253155628Y-168031614D01*
X253143103Y-168046542D01*
X253141385Y-168056284D01*
X253139719Y-168059170D01*
X253140297Y-168062452D01*
X253138580Y-168072194D01*
X253138580Y-168872194D01*
X253024294Y-168872194D01*
X253024294Y-167882908D01*
X256411250Y-167882908D01*
X256411250Y-169061480D01*
G37*
D12*
%TO.C,D1*%
X162752059Y-169782652D02*
X163248332Y-169721717D01*
X162800806Y-170179670D02*
X162156531Y-169855773D01*
X162703311Y-169385633D02*
X162800806Y-170179670D01*
X162156531Y-169855773D02*
X162703311Y-169385633D01*
X162156531Y-169855773D02*
X162223559Y-170401674D01*
X162156531Y-169855773D02*
X162089503Y-169309873D01*
X161759512Y-169904521D02*
X162156531Y-169855773D01*
%TO.C,D2*%
X160680277Y-152909369D02*
X161176550Y-152848434D01*
X160729024Y-153306387D02*
X160084749Y-152982490D01*
X160631529Y-152512350D02*
X160729024Y-153306387D01*
X160084749Y-152982490D02*
X160631529Y-152512350D01*
X160084749Y-152982490D02*
X160151777Y-153528391D01*
X160084749Y-152982490D02*
X160017721Y-152436590D01*
X159687730Y-153031238D02*
X160084749Y-152982490D01*
%TO.C,D3*%
X158608505Y-136036083D02*
X159104778Y-135975148D01*
X158657252Y-136433101D02*
X158012977Y-136109204D01*
X158559757Y-135639064D02*
X158657252Y-136433101D01*
X158012977Y-136109204D02*
X158559757Y-135639064D01*
X158012977Y-136109204D02*
X158080005Y-136655105D01*
X158012977Y-136109204D02*
X157945949Y-135563304D01*
X157615958Y-136157952D02*
X158012977Y-136109204D01*
%TO.C,D4*%
X180411196Y-153509899D02*
X180911196Y-153509899D01*
X180411196Y-153909899D02*
X179811196Y-153509899D01*
X180411196Y-153109899D02*
X180411196Y-153909899D01*
X179811196Y-153509899D02*
X180411196Y-153109899D01*
X179811196Y-153509899D02*
X179811196Y-154059899D01*
X179811196Y-153509899D02*
X179811196Y-152959899D01*
X179411196Y-153509899D02*
X179811196Y-153509899D01*
%TO.C,D5*%
X180411195Y-136509900D02*
X180911195Y-136509900D01*
X180411195Y-136909900D02*
X179811195Y-136509900D01*
X180411195Y-136109900D02*
X180411195Y-136909900D01*
X179811195Y-136509900D02*
X180411195Y-136109900D01*
X179811195Y-136509900D02*
X179811195Y-137059900D01*
X179811195Y-136509900D02*
X179811195Y-135959900D01*
X179411195Y-136509900D02*
X179811195Y-136509900D01*
%TO.C,D6*%
X180411194Y-119509898D02*
X180911194Y-119509898D01*
X180411194Y-119909898D02*
X179811194Y-119509898D01*
X180411194Y-119109898D02*
X180411194Y-119909898D01*
X179811194Y-119509898D02*
X180411194Y-119109898D01*
X179811194Y-119509898D02*
X179811194Y-120059898D01*
X179811194Y-119509898D02*
X179811194Y-118959898D01*
X179411194Y-119509898D02*
X179811194Y-119509898D01*
%TO.C,D7*%
X198411197Y-145509899D02*
X198911197Y-145509899D01*
X198411197Y-145909899D02*
X197811197Y-145509899D01*
X198411197Y-145109899D02*
X198411197Y-145909899D01*
X197811197Y-145509899D02*
X198411197Y-145109899D01*
X197811197Y-145509899D02*
X197811197Y-146059899D01*
X197811197Y-145509899D02*
X197811197Y-144959899D01*
X197411197Y-145509899D02*
X197811197Y-145509899D01*
%TO.C,D8*%
X198411199Y-128509898D02*
X198911199Y-128509898D01*
X198411199Y-128909898D02*
X197811199Y-128509898D01*
X198411199Y-128109898D02*
X198411199Y-128909898D01*
X197811199Y-128509898D02*
X198411199Y-128109898D01*
X197811199Y-128509898D02*
X197811199Y-129059898D01*
X197811199Y-128509898D02*
X197811199Y-127959898D01*
X197411199Y-128509898D02*
X197811199Y-128509898D01*
%TO.C,D9*%
X198411198Y-111509900D02*
X198911198Y-111509900D01*
X198411198Y-111909900D02*
X197811198Y-111509900D01*
X198411198Y-111109900D02*
X198411198Y-111909900D01*
X197811198Y-111509900D02*
X198411198Y-111109900D01*
X197811198Y-111509900D02*
X197811198Y-112059900D01*
X197811198Y-111509900D02*
X197811198Y-110959900D01*
X197411198Y-111509900D02*
X197811198Y-111509900D01*
%TO.C,D10*%
X216411192Y-155509899D02*
X216911192Y-155509899D01*
X216411192Y-155909899D02*
X215811192Y-155509899D01*
X216411192Y-155109899D02*
X216411192Y-155909899D01*
X215811192Y-155509899D02*
X216411192Y-155109899D01*
X215811192Y-155509899D02*
X215811192Y-156059899D01*
X215811192Y-155509899D02*
X215811192Y-154959899D01*
X215411192Y-155509899D02*
X215811192Y-155509899D01*
%TO.C,D11*%
X216411196Y-138509903D02*
X216911196Y-138509903D01*
X216411196Y-138909903D02*
X215811196Y-138509903D01*
X216411196Y-138109903D02*
X216411196Y-138909903D01*
X215811196Y-138509903D02*
X216411196Y-138109903D01*
X215811196Y-138509903D02*
X215811196Y-139059903D01*
X215811196Y-138509903D02*
X215811196Y-137959903D01*
X215411196Y-138509903D02*
X215811196Y-138509903D01*
%TO.C,D12*%
X216411197Y-121509905D02*
X216911197Y-121509905D01*
X216411197Y-121909905D02*
X215811197Y-121509905D01*
X216411197Y-121109905D02*
X216411197Y-121909905D01*
X215811197Y-121509905D02*
X216411197Y-121109905D01*
X215811197Y-121509905D02*
X215811197Y-122059905D01*
X215811197Y-121509905D02*
X215811197Y-120959905D01*
X215411197Y-121509905D02*
X215811197Y-121509905D01*
%TO.C,D13*%
X234411195Y-158509898D02*
X234911195Y-158509898D01*
X234411195Y-158909898D02*
X233811195Y-158509898D01*
X234411195Y-158109898D02*
X234411195Y-158909898D01*
X233811195Y-158509898D02*
X234411195Y-158109898D01*
X233811195Y-158509898D02*
X233811195Y-159059898D01*
X233811195Y-158509898D02*
X233811195Y-157959898D01*
X233411195Y-158509898D02*
X233811195Y-158509898D01*
%TO.C,D14*%
X234411199Y-141509905D02*
X234911199Y-141509905D01*
X234411199Y-141909905D02*
X233811199Y-141509905D01*
X234411199Y-141109905D02*
X234411199Y-141909905D01*
X233811199Y-141509905D02*
X234411199Y-141109905D01*
X233811199Y-141509905D02*
X233811199Y-142059905D01*
X233811199Y-141509905D02*
X233811199Y-140959905D01*
X233411199Y-141509905D02*
X233811199Y-141509905D01*
%TO.C,D15*%
X234411195Y-124509901D02*
X234911195Y-124509901D01*
X234411195Y-124909901D02*
X233811195Y-124509901D01*
X234411195Y-124109901D02*
X234411195Y-124909901D01*
X233811195Y-124509901D02*
X234411195Y-124109901D01*
X233811195Y-124509901D02*
X233811195Y-125059901D01*
X233811195Y-124509901D02*
X233811195Y-123959901D01*
X233411195Y-124509901D02*
X233811195Y-124509901D01*
%TO.C,D16*%
X227367400Y-177938305D02*
X227850363Y-178067714D01*
X227263873Y-178324675D02*
X226787845Y-177783013D01*
X227470928Y-177551934D02*
X227263873Y-178324675D01*
X226787845Y-177783013D02*
X227470928Y-177551934D01*
X226787845Y-177783013D02*
X226645494Y-178314273D01*
X226787845Y-177783013D02*
X226930195Y-177251754D01*
X226401475Y-177679486D02*
X226787845Y-177783013D01*
%TO.C,D17*%
X246610695Y-185944145D02*
X247056198Y-186171140D01*
X246429098Y-186300547D02*
X246076091Y-185671750D01*
X246792291Y-185587742D02*
X246429098Y-186300547D01*
X246076091Y-185671750D02*
X246792291Y-185587742D01*
X246076091Y-185671750D02*
X245826396Y-186161804D01*
X246076091Y-185671750D02*
X246325785Y-185181697D01*
X245719688Y-185490154D02*
X246076091Y-185671750D01*
D10*
%TO.C,MCU1*%
X245771196Y-125729899D02*
X245771196Y-158749899D01*
X245771196Y-158749899D02*
X263551196Y-158749899D01*
X263551196Y-158749899D02*
X263551196Y-125729899D01*
X263551196Y-125729899D02*
X245771196Y-125729899D01*
%TO.C,T1*%
X256611195Y-125659901D02*
X252711195Y-125659901D01*
X254661195Y-125659901D02*
X251361195Y-125659901D01*
X251361195Y-125659901D02*
X251361195Y-128509901D01*
X251361195Y-128509901D02*
X257961195Y-128509901D01*
X257961195Y-128509901D02*
X257961195Y-125659901D01*
X254661195Y-125659901D02*
X257961195Y-125659901D01*
%TD*%
D13*
%TO.C,MCU1*%
X247041196Y-129539899D03*
X247041196Y-132079899D03*
X247041196Y-134619899D03*
X247041196Y-137159899D03*
X247041196Y-139699899D03*
X247041196Y-142239899D03*
X247041196Y-144779899D03*
X247041196Y-147319899D03*
X247041196Y-149859899D03*
X247041196Y-152399899D03*
X247041196Y-154939899D03*
X247041196Y-157479899D03*
X262281196Y-129539899D03*
X262281196Y-132079899D03*
X262281196Y-134619899D03*
X262281196Y-137159899D03*
X262281196Y-139699899D03*
X262281196Y-142239899D03*
X262281196Y-144779899D03*
X262281196Y-147319899D03*
X262281196Y-149859899D03*
X262281196Y-152399899D03*
X262281196Y-154939899D03*
X262281196Y-157479899D03*
%TD*%
D14*
%TO.C,*%
X246911195Y-127009901D03*
D15*
X262411195Y-127009901D03*
%TD*%
M02*
