%TF.GenerationSoftware,KiCad,Pcbnew,7.0.11*%
%TF.CreationDate,2024-03-03T11:22:05+13:00*%
%TF.ProjectId,socius-choc-v1,736f6369-7573-42d6-9368-6f632d76312e,v1.0.0*%
%TF.SameCoordinates,Original*%
%TF.FileFunction,Profile,NP*%
%FSLAX46Y46*%
G04 Gerber Fmt 4.6, Leading zero omitted, Abs format (unit mm)*
G04 Created by KiCad (PCBNEW 7.0.11) date 2024-03-03 11:22:05*
%MOMM*%
%LPD*%
G01*
G04 APERTURE LIST*
%TA.AperFunction,Profile*%
%ADD10C,0.150000*%
%TD*%
G04 APERTURE END LIST*
D10*
X155233834Y-176247074D02*
X172826586Y-174086958D01*
X153005001Y-174505722D02*
X147033407Y-125870959D01*
X153005007Y-174505721D02*
G75*
G03*
X155233834Y-176247074I1985092J243740D01*
G01*
X148774756Y-123642129D02*
X170161192Y-121016202D01*
X148774757Y-123642134D02*
G75*
G03*
X147033408Y-125870959I243738J-1985087D01*
G01*
X188161199Y-106009898D02*
X172161199Y-106009901D01*
X172161199Y-106009900D02*
G75*
G03*
X170161195Y-108009903I-6J-1999998D01*
G01*
X170161195Y-108009902D02*
X170161192Y-121016202D01*
X208161195Y-108009897D02*
X208161196Y-100009903D01*
X208161195Y-100009903D02*
G75*
G03*
X206161193Y-98009898I-2000001J4D01*
G01*
X206161193Y-98009899D02*
X190161200Y-98009904D01*
X190161200Y-98009899D02*
G75*
G03*
X188161194Y-100009899I-7J-1999999D01*
G01*
X188161194Y-100009899D02*
X188161199Y-106009898D01*
X226161197Y-111009902D02*
X226161195Y-110009902D01*
X226161193Y-110009902D02*
G75*
G03*
X224161199Y-108009902I-1999997J3D01*
G01*
X224161198Y-108009903D02*
X208161195Y-108009897D01*
X244161197Y-125258307D02*
X244161198Y-113009900D01*
X244161200Y-113009900D02*
G75*
G03*
X242161197Y-111009901I-2000004J-5D01*
G01*
X242161197Y-111009899D02*
X226161197Y-111009902D01*
X236762945Y-187099254D02*
X251019045Y-194363102D01*
X251019044Y-194363104D02*
G75*
G03*
X253709044Y-193489069I907985J1782010D01*
G01*
X253709044Y-193489069D02*
X261306635Y-178577968D01*
X236762380Y-187098967D02*
G75*
G03*
X236762945Y-187099255I908545J1781728D01*
G01*
X244161197Y-125258307D02*
X246561315Y-125499849D01*
X246761582Y-125509901D02*
X262661201Y-125509902D01*
X264661197Y-127509900D02*
X264661195Y-162801244D01*
X264618130Y-163214063D02*
X261481554Y-178082796D01*
X236762945Y-187099254D02*
X236762379Y-187098970D01*
X236762379Y-187098970D02*
X235145393Y-186275072D01*
X234803921Y-186138991D02*
X216173738Y-180636573D01*
X215908551Y-180577495D02*
X173371647Y-174094875D01*
X246561315Y-125499849D02*
G75*
G03*
X246761582Y-125509901I200267J1989952D01*
G01*
X264661196Y-127509900D02*
G75*
G03*
X262661200Y-125509903I-2000000J-3D01*
G01*
X264618127Y-163214062D02*
G75*
G03*
X264661195Y-162801244I-1956925J412817D01*
G01*
X261306632Y-178577966D02*
G75*
G03*
X261481554Y-178082796I-1782012J907987D01*
G01*
X235145394Y-186275071D02*
G75*
G03*
X234803922Y-186138993I-907986J-1782009D01*
G01*
X216173737Y-180636577D02*
G75*
G03*
X215908551Y-180577496I-566505J-1918082D01*
G01*
X173371647Y-174094878D02*
G75*
G03*
X172826586Y-174086959I-301315J-1977170D01*
G01*
M02*
