%TF.GenerationSoftware,KiCad,Pcbnew,7.0.11*%
%TF.CreationDate,2024-03-03T11:22:05+13:00*%
%TF.ProjectId,socius-choc-v1,736f6369-7573-42d6-9368-6f632d76312e,v1.0.0*%
%TF.SameCoordinates,Original*%
%TF.FileFunction,Soldermask,Top*%
%TF.FilePolarity,Negative*%
%FSLAX46Y46*%
G04 Gerber Fmt 4.6, Leading zero omitted, Abs format (unit mm)*
G04 Created by KiCad (PCBNEW 7.0.11) date 2024-03-03 11:22:05*
%MOMM*%
%LPD*%
G01*
G04 APERTURE LIST*
G04 Aperture macros list*
%AMRoundRect*
0 Rectangle with rounded corners*
0 $1 Rounding radius*
0 $2 $3 $4 $5 $6 $7 $8 $9 X,Y pos of 4 corners*
0 Add a 4 corners polygon primitive as box body*
4,1,4,$2,$3,$4,$5,$6,$7,$8,$9,$2,$3,0*
0 Add four circle primitives for the rounded corners*
1,1,$1+$1,$2,$3*
1,1,$1+$1,$4,$5*
1,1,$1+$1,$6,$7*
1,1,$1+$1,$8,$9*
0 Add four rect primitives between the rounded corners*
20,1,$1+$1,$2,$3,$4,$5,0*
20,1,$1+$1,$4,$5,$6,$7,0*
20,1,$1+$1,$6,$7,$8,$9,0*
20,1,$1+$1,$8,$9,$2,$3,0*%
G04 Aperture macros list end*
%ADD10C,3.529000*%
%ADD11C,1.801800*%
%ADD12C,3.100000*%
%ADD13RoundRect,0.050000X-1.300000X-1.300000X1.300000X-1.300000X1.300000X1.300000X-1.300000X1.300000X0*%
%ADD14RoundRect,0.050000X-1.131880X-1.448740X1.448740X-1.131880X1.131880X1.448740X-1.448740X1.131880X0*%
%ADD15RoundRect,0.050000X-1.592168X-0.919239X0.919239X-1.592168X1.592168X0.919239X-0.919239X1.592168X0*%
%ADD16RoundRect,0.050000X-1.748496X-0.568121X0.568121X-1.748496X1.748496X0.568121X-0.568121X1.748496X0*%
%ADD17RoundRect,0.050000X-0.373524X-0.650369X0.519767X-0.540686X0.373524X0.650369X-0.519767X0.540686X0*%
%ADD18RoundRect,0.050000X-0.450000X-0.600000X0.450000X-0.600000X0.450000X0.600000X-0.450000X0.600000X0*%
%ADD19RoundRect,0.050000X-0.589958X-0.463087X0.279375X-0.696024X0.589958X0.463087X-0.279375X0.696024X0*%
%ADD20RoundRect,0.050000X-0.673347X-0.330308X0.128559X-0.738900X0.673347X0.330308X-0.128559X0.738900X0*%
%ADD21C,1.852600*%
%ADD22RoundRect,0.050000X-0.876300X0.876300X-0.876300X-0.876300X0.876300X-0.876300X0.876300X0.876300X0*%
%ADD23RoundRect,0.050000X-0.700000X0.700000X-0.700000X-0.700000X0.700000X-0.700000X0.700000X0.700000X0*%
%ADD24C,1.500000*%
%ADD25C,1.100000*%
%ADD26RoundRect,0.050000X-0.450000X-0.450000X0.450000X-0.450000X0.450000X0.450000X-0.450000X0.450000X0*%
%ADD27RoundRect,0.050000X-0.450000X-0.625000X0.450000X-0.625000X0.450000X0.625000X-0.450000X0.625000X0*%
%ADD28RoundRect,0.050000X0.450000X0.850000X-0.450000X0.850000X-0.450000X-0.850000X0.450000X-0.850000X0*%
G04 APERTURE END LIST*
D10*
%TO.C,S14*%
X234161190Y-137509898D03*
D11*
X239661190Y-137509898D03*
X228661190Y-137509898D03*
D12*
X239161190Y-133759898D03*
X234161190Y-131559898D03*
X229161190Y-133759898D03*
X234161190Y-131559898D03*
D13*
X237436190Y-131559898D03*
X225886190Y-133759898D03*
%TD*%
D10*
%TO.C,S1*%
X162016442Y-165842930D03*
D11*
X167475446Y-165172649D03*
X156557438Y-166513211D03*
D12*
X166522163Y-161511535D03*
X161291319Y-159937280D03*
X156596701Y-162730229D03*
X161291319Y-159937280D03*
D14*
X164541908Y-159538158D03*
X153346113Y-163129351D03*
%TD*%
D10*
%TO.C,S2*%
X159944667Y-148969644D03*
D11*
X165403671Y-148299363D03*
X154485663Y-149639925D03*
D12*
X164450388Y-144638249D03*
X159219544Y-143063994D03*
X154524926Y-145856943D03*
X159219544Y-143063994D03*
D14*
X162470133Y-142664872D03*
X151274338Y-146256065D03*
%TD*%
D10*
%TO.C,S3*%
X157872889Y-132096362D03*
D11*
X163331893Y-131426081D03*
X152413885Y-132766643D03*
D12*
X162378610Y-127764967D03*
X157147766Y-126190712D03*
X152453148Y-128983661D03*
X157147766Y-126190712D03*
D14*
X160398355Y-125791590D03*
X149202560Y-129382783D03*
%TD*%
D10*
%TO.C,S4*%
X180161196Y-149509899D03*
D11*
X185661196Y-149509899D03*
X174661196Y-149509899D03*
D12*
X185161196Y-145759899D03*
X180161196Y-143559899D03*
X175161196Y-145759899D03*
X180161196Y-143559899D03*
D13*
X183436196Y-143559899D03*
X171886196Y-145759899D03*
%TD*%
D10*
%TO.C,S5*%
X180161198Y-132509899D03*
D11*
X185661198Y-132509899D03*
X174661198Y-132509899D03*
D12*
X185161198Y-128759899D03*
X180161198Y-126559899D03*
X175161198Y-128759899D03*
X180161198Y-126559899D03*
D13*
X183436198Y-126559899D03*
X171886198Y-128759899D03*
%TD*%
D10*
%TO.C,S6*%
X180161202Y-115509899D03*
D11*
X185661202Y-115509899D03*
X174661202Y-115509899D03*
D12*
X185161202Y-111759899D03*
X180161202Y-109559899D03*
X175161202Y-111759899D03*
X180161202Y-109559899D03*
D13*
X183436202Y-109559899D03*
X171886202Y-111759899D03*
%TD*%
D10*
%TO.C,S7*%
X198161198Y-141509898D03*
D11*
X203661198Y-141509898D03*
X192661198Y-141509898D03*
D12*
X203161198Y-137759898D03*
X198161198Y-135559898D03*
X193161198Y-137759898D03*
X198161198Y-135559898D03*
D13*
X201436198Y-135559898D03*
X189886198Y-137759898D03*
%TD*%
D10*
%TO.C,S8*%
X198161195Y-124509895D03*
D11*
X203661195Y-124509895D03*
X192661195Y-124509895D03*
D12*
X203161195Y-120759895D03*
X198161195Y-118559895D03*
X193161195Y-120759895D03*
X198161195Y-118559895D03*
D13*
X201436195Y-118559895D03*
X189886195Y-120759895D03*
%TD*%
D10*
%TO.C,S9*%
X198161196Y-107509897D03*
D11*
X203661196Y-107509897D03*
X192661196Y-107509897D03*
D12*
X203161196Y-103759897D03*
X198161196Y-101559897D03*
X193161196Y-103759897D03*
X198161196Y-101559897D03*
D13*
X201436196Y-101559897D03*
X189886196Y-103759897D03*
%TD*%
D10*
%TO.C,S10*%
X216161199Y-151509903D03*
D11*
X221661199Y-151509903D03*
X210661199Y-151509903D03*
D12*
X221161199Y-147759903D03*
X216161199Y-145559903D03*
X211161199Y-147759903D03*
X216161199Y-145559903D03*
D13*
X219436199Y-145559903D03*
X207886199Y-147759903D03*
%TD*%
D10*
%TO.C,S11*%
X216161199Y-134509900D03*
D11*
X221661199Y-134509900D03*
X210661199Y-134509900D03*
D12*
X221161199Y-130759900D03*
X216161199Y-128559900D03*
X211161199Y-130759900D03*
X216161199Y-128559900D03*
D13*
X219436199Y-128559900D03*
X207886199Y-130759900D03*
%TD*%
D10*
%TO.C,S12*%
X216161192Y-117509901D03*
D11*
X221661192Y-117509901D03*
X210661192Y-117509901D03*
D12*
X221161192Y-113759901D03*
X216161192Y-111559901D03*
X211161192Y-113759901D03*
X216161192Y-111559901D03*
D13*
X219436192Y-111559901D03*
X207886192Y-113759901D03*
%TD*%
D10*
%TO.C,S13*%
X234161196Y-154509900D03*
D11*
X239661196Y-154509900D03*
X228661196Y-154509900D03*
D12*
X239161196Y-150759900D03*
X234161196Y-148559900D03*
X229161196Y-150759900D03*
X234161196Y-148559900D03*
D13*
X237436196Y-148559900D03*
X225886196Y-150759900D03*
%TD*%
D10*
%TO.C,S15*%
X234161201Y-120509898D03*
D11*
X239661201Y-120509898D03*
X228661201Y-120509898D03*
D12*
X239161201Y-116759898D03*
X234161201Y-114559898D03*
X229161201Y-116759898D03*
X234161201Y-114559898D03*
D13*
X237436201Y-114559898D03*
X225886201Y-116759898D03*
%TD*%
D10*
%TO.C,S16*%
X228161196Y-174009901D03*
D11*
X233473788Y-175433406D03*
X222848604Y-172586396D03*
D12*
X233961397Y-171681774D03*
X229701169Y-168262642D03*
X224302138Y-169093584D03*
X229701169Y-168262642D03*
D15*
X232864576Y-169110275D03*
X221138731Y-168245952D03*
%TD*%
D10*
%TO.C,S17*%
X248203905Y-182266622D03*
D11*
X253104441Y-184763570D03*
X243303369Y-179769674D03*
D12*
X254361402Y-181195300D03*
X250905148Y-176965133D03*
X245451337Y-176655395D03*
X250905148Y-176965133D03*
D16*
X253823195Y-178451952D03*
X242533290Y-175168576D03*
%TD*%
D17*
%TO.C,D1*%
X160866221Y-170014203D03*
X164141623Y-169612035D03*
%TD*%
%TO.C,D2*%
X158794439Y-153140920D03*
X162069841Y-152738752D03*
%TD*%
%TO.C,D3*%
X156722667Y-136267634D03*
X159998069Y-135865466D03*
%TD*%
D18*
%TO.C,D4*%
X178511196Y-153509899D03*
X181811196Y-153509899D03*
%TD*%
%TO.C,D5*%
X178511195Y-136509900D03*
X181811195Y-136509900D03*
%TD*%
%TO.C,D6*%
X178511194Y-119509898D03*
X181811194Y-119509898D03*
%TD*%
%TO.C,D7*%
X196511197Y-145509899D03*
X199811197Y-145509899D03*
%TD*%
%TO.C,D8*%
X196511199Y-128509898D03*
X199811199Y-128509898D03*
%TD*%
%TO.C,D9*%
X196511198Y-111509900D03*
X199811198Y-111509900D03*
%TD*%
%TO.C,D10*%
X214511192Y-155509899D03*
X217811192Y-155509899D03*
%TD*%
%TO.C,D11*%
X214511196Y-138509903D03*
X217811196Y-138509903D03*
%TD*%
%TO.C,D12*%
X214511197Y-121509905D03*
X217811197Y-121509905D03*
%TD*%
%TO.C,D13*%
X232511195Y-158509898D03*
X235811195Y-158509898D03*
%TD*%
%TO.C,D14*%
X232511199Y-141509905D03*
X235811199Y-141509905D03*
%TD*%
%TO.C,D15*%
X232511195Y-124509901D03*
X235811195Y-124509901D03*
%TD*%
D19*
%TO.C,D16*%
X225532141Y-177446549D03*
X228719697Y-178300651D03*
%TD*%
D20*
%TO.C,D17*%
X244917782Y-185081563D03*
X247858104Y-186579731D03*
%TD*%
D21*
%TO.C,MCU1*%
X247041196Y-129539899D03*
X247041196Y-132079899D03*
X247041196Y-134619899D03*
X247041196Y-137159899D03*
X247041196Y-139699899D03*
X247041196Y-142239899D03*
X247041196Y-144779899D03*
X247041196Y-147319899D03*
X247041196Y-149859899D03*
X247041196Y-152399899D03*
X247041196Y-154939899D03*
X247041196Y-157479899D03*
X262281196Y-129539899D03*
X262281196Y-132079899D03*
X262281196Y-134619899D03*
X262281196Y-137159899D03*
X262281196Y-139699899D03*
X262281196Y-142239899D03*
X262281196Y-144779899D03*
X262281196Y-147319899D03*
X262281196Y-149859899D03*
X262281196Y-152399899D03*
X262281196Y-154939899D03*
X262281196Y-157479899D03*
D22*
X247041196Y-129539899D03*
%TD*%
D23*
%TO.C,*%
X246911195Y-127009901D03*
D24*
X262411195Y-127009901D03*
%TD*%
D25*
%TO.C,T1*%
X256161195Y-127009901D03*
X253161195Y-127009901D03*
D26*
X258361195Y-125909901D03*
X258361195Y-128109901D03*
X250961195Y-128109901D03*
X250961195Y-125909901D03*
D27*
X256911195Y-129084901D03*
X253911195Y-129084901D03*
X252411195Y-129084901D03*
%TD*%
D28*
%TO.C,*%
X252961199Y-165509899D03*
X256361199Y-165509899D03*
%TD*%
M02*
