%TF.GenerationSoftware,KiCad,Pcbnew,7.0.11*%
%TF.CreationDate,2024-03-03T11:22:05+13:00*%
%TF.ProjectId,socius-choc-v1,736f6369-7573-42d6-9368-6f632d76312e,v1.0.0*%
%TF.SameCoordinates,Original*%
%TF.FileFunction,Legend,Bot*%
%TF.FilePolarity,Positive*%
%FSLAX46Y46*%
G04 Gerber Fmt 4.6, Leading zero omitted, Abs format (unit mm)*
G04 Created by KiCad (PCBNEW 7.0.11) date 2024-03-03 11:22:05*
%MOMM*%
%LPD*%
G01*
G04 APERTURE LIST*
%ADD10C,0.150000*%
%ADD11C,0.200000*%
%ADD12C,0.100000*%
%ADD13C,1.752600*%
%ADD14R,1.400000X1.400000*%
%ADD15C,1.400000*%
G04 APERTURE END LIST*
D10*
X250212260Y-129902194D02*
X250478927Y-129521241D01*
X250669403Y-129902194D02*
X250669403Y-129102194D01*
X250669403Y-129102194D02*
X250364641Y-129102194D01*
X250364641Y-129102194D02*
X250288451Y-129140289D01*
X250288451Y-129140289D02*
X250250356Y-129178384D01*
X250250356Y-129178384D02*
X250212260Y-129254575D01*
X250212260Y-129254575D02*
X250212260Y-129368860D01*
X250212260Y-129368860D02*
X250250356Y-129445051D01*
X250250356Y-129445051D02*
X250288451Y-129483146D01*
X250288451Y-129483146D02*
X250364641Y-129521241D01*
X250364641Y-129521241D02*
X250669403Y-129521241D01*
X249907499Y-129673622D02*
X249526546Y-129673622D01*
X249983689Y-129902194D02*
X249717022Y-129102194D01*
X249717022Y-129102194D02*
X249450356Y-129902194D01*
X249259880Y-129102194D02*
X249069404Y-129902194D01*
X249069404Y-129902194D02*
X248917023Y-129330765D01*
X248917023Y-129330765D02*
X248764642Y-129902194D01*
X248764642Y-129902194D02*
X248574166Y-129102194D01*
X250288451Y-131680289D02*
X250364641Y-131642194D01*
X250364641Y-131642194D02*
X250478927Y-131642194D01*
X250478927Y-131642194D02*
X250593213Y-131680289D01*
X250593213Y-131680289D02*
X250669403Y-131756479D01*
X250669403Y-131756479D02*
X250707498Y-131832670D01*
X250707498Y-131832670D02*
X250745594Y-131985051D01*
X250745594Y-131985051D02*
X250745594Y-132099337D01*
X250745594Y-132099337D02*
X250707498Y-132251718D01*
X250707498Y-132251718D02*
X250669403Y-132327908D01*
X250669403Y-132327908D02*
X250593213Y-132404099D01*
X250593213Y-132404099D02*
X250478927Y-132442194D01*
X250478927Y-132442194D02*
X250402736Y-132442194D01*
X250402736Y-132442194D02*
X250288451Y-132404099D01*
X250288451Y-132404099D02*
X250250355Y-132366003D01*
X250250355Y-132366003D02*
X250250355Y-132099337D01*
X250250355Y-132099337D02*
X250402736Y-132099337D01*
X249907498Y-132442194D02*
X249907498Y-131642194D01*
X249907498Y-131642194D02*
X249450355Y-132442194D01*
X249450355Y-132442194D02*
X249450355Y-131642194D01*
X249069403Y-132442194D02*
X249069403Y-131642194D01*
X249069403Y-131642194D02*
X248878927Y-131642194D01*
X248878927Y-131642194D02*
X248764641Y-131680289D01*
X248764641Y-131680289D02*
X248688451Y-131756479D01*
X248688451Y-131756479D02*
X248650356Y-131832670D01*
X248650356Y-131832670D02*
X248612260Y-131985051D01*
X248612260Y-131985051D02*
X248612260Y-132099337D01*
X248612260Y-132099337D02*
X248650356Y-132251718D01*
X248650356Y-132251718D02*
X248688451Y-132327908D01*
X248688451Y-132327908D02*
X248764641Y-132404099D01*
X248764641Y-132404099D02*
X248878927Y-132442194D01*
X248878927Y-132442194D02*
X249069403Y-132442194D01*
X249983689Y-134982194D02*
X250250356Y-134601241D01*
X250440832Y-134982194D02*
X250440832Y-134182194D01*
X250440832Y-134182194D02*
X250136070Y-134182194D01*
X250136070Y-134182194D02*
X250059880Y-134220289D01*
X250059880Y-134220289D02*
X250021785Y-134258384D01*
X250021785Y-134258384D02*
X249983689Y-134334575D01*
X249983689Y-134334575D02*
X249983689Y-134448860D01*
X249983689Y-134448860D02*
X250021785Y-134525051D01*
X250021785Y-134525051D02*
X250059880Y-134563146D01*
X250059880Y-134563146D02*
X250136070Y-134601241D01*
X250136070Y-134601241D02*
X250440832Y-134601241D01*
X249678928Y-134944099D02*
X249564642Y-134982194D01*
X249564642Y-134982194D02*
X249374166Y-134982194D01*
X249374166Y-134982194D02*
X249297975Y-134944099D01*
X249297975Y-134944099D02*
X249259880Y-134906003D01*
X249259880Y-134906003D02*
X249221785Y-134829813D01*
X249221785Y-134829813D02*
X249221785Y-134753622D01*
X249221785Y-134753622D02*
X249259880Y-134677432D01*
X249259880Y-134677432D02*
X249297975Y-134639337D01*
X249297975Y-134639337D02*
X249374166Y-134601241D01*
X249374166Y-134601241D02*
X249526547Y-134563146D01*
X249526547Y-134563146D02*
X249602737Y-134525051D01*
X249602737Y-134525051D02*
X249640832Y-134486956D01*
X249640832Y-134486956D02*
X249678928Y-134410765D01*
X249678928Y-134410765D02*
X249678928Y-134334575D01*
X249678928Y-134334575D02*
X249640832Y-134258384D01*
X249640832Y-134258384D02*
X249602737Y-134220289D01*
X249602737Y-134220289D02*
X249526547Y-134182194D01*
X249526547Y-134182194D02*
X249336070Y-134182194D01*
X249336070Y-134182194D02*
X249221785Y-134220289D01*
X248993213Y-134182194D02*
X248536070Y-134182194D01*
X248764642Y-134982194D02*
X248764642Y-134182194D01*
X250669403Y-136722194D02*
X250402736Y-137522194D01*
X250402736Y-137522194D02*
X250136070Y-136722194D01*
X249412260Y-137446003D02*
X249450356Y-137484099D01*
X249450356Y-137484099D02*
X249564641Y-137522194D01*
X249564641Y-137522194D02*
X249640832Y-137522194D01*
X249640832Y-137522194D02*
X249755118Y-137484099D01*
X249755118Y-137484099D02*
X249831308Y-137407908D01*
X249831308Y-137407908D02*
X249869403Y-137331718D01*
X249869403Y-137331718D02*
X249907499Y-137179337D01*
X249907499Y-137179337D02*
X249907499Y-137065051D01*
X249907499Y-137065051D02*
X249869403Y-136912670D01*
X249869403Y-136912670D02*
X249831308Y-136836479D01*
X249831308Y-136836479D02*
X249755118Y-136760289D01*
X249755118Y-136760289D02*
X249640832Y-136722194D01*
X249640832Y-136722194D02*
X249564641Y-136722194D01*
X249564641Y-136722194D02*
X249450356Y-136760289D01*
X249450356Y-136760289D02*
X249412260Y-136798384D01*
X248612260Y-137446003D02*
X248650356Y-137484099D01*
X248650356Y-137484099D02*
X248764641Y-137522194D01*
X248764641Y-137522194D02*
X248840832Y-137522194D01*
X248840832Y-137522194D02*
X248955118Y-137484099D01*
X248955118Y-137484099D02*
X249031308Y-137407908D01*
X249031308Y-137407908D02*
X249069403Y-137331718D01*
X249069403Y-137331718D02*
X249107499Y-137179337D01*
X249107499Y-137179337D02*
X249107499Y-137065051D01*
X249107499Y-137065051D02*
X249069403Y-136912670D01*
X249069403Y-136912670D02*
X249031308Y-136836479D01*
X249031308Y-136836479D02*
X248955118Y-136760289D01*
X248955118Y-136760289D02*
X248840832Y-136722194D01*
X248840832Y-136722194D02*
X248764641Y-136722194D01*
X248764641Y-136722194D02*
X248650356Y-136760289D01*
X248650356Y-136760289D02*
X248612260Y-136798384D01*
X250859879Y-147606003D02*
X250897975Y-147644099D01*
X250897975Y-147644099D02*
X251012260Y-147682194D01*
X251012260Y-147682194D02*
X251088451Y-147682194D01*
X251088451Y-147682194D02*
X251202737Y-147644099D01*
X251202737Y-147644099D02*
X251278927Y-147567908D01*
X251278927Y-147567908D02*
X251317022Y-147491718D01*
X251317022Y-147491718D02*
X251355118Y-147339337D01*
X251355118Y-147339337D02*
X251355118Y-147225051D01*
X251355118Y-147225051D02*
X251317022Y-147072670D01*
X251317022Y-147072670D02*
X251278927Y-146996479D01*
X251278927Y-146996479D02*
X251202737Y-146920289D01*
X251202737Y-146920289D02*
X251088451Y-146882194D01*
X251088451Y-146882194D02*
X251012260Y-146882194D01*
X251012260Y-146882194D02*
X250897975Y-146920289D01*
X250897975Y-146920289D02*
X250859879Y-146958384D01*
X250364641Y-146882194D02*
X250212260Y-146882194D01*
X250212260Y-146882194D02*
X250136070Y-146920289D01*
X250136070Y-146920289D02*
X250059879Y-146996479D01*
X250059879Y-146996479D02*
X250021784Y-147148860D01*
X250021784Y-147148860D02*
X250021784Y-147415527D01*
X250021784Y-147415527D02*
X250059879Y-147567908D01*
X250059879Y-147567908D02*
X250136070Y-147644099D01*
X250136070Y-147644099D02*
X250212260Y-147682194D01*
X250212260Y-147682194D02*
X250364641Y-147682194D01*
X250364641Y-147682194D02*
X250440832Y-147644099D01*
X250440832Y-147644099D02*
X250517022Y-147567908D01*
X250517022Y-147567908D02*
X250555118Y-147415527D01*
X250555118Y-147415527D02*
X250555118Y-147148860D01*
X250555118Y-147148860D02*
X250517022Y-146996479D01*
X250517022Y-146996479D02*
X250440832Y-146920289D01*
X250440832Y-146920289D02*
X250364641Y-146882194D01*
X249297975Y-147682194D02*
X249678927Y-147682194D01*
X249678927Y-147682194D02*
X249678927Y-146882194D01*
X248878927Y-146882194D02*
X248802737Y-146882194D01*
X248802737Y-146882194D02*
X248726546Y-146920289D01*
X248726546Y-146920289D02*
X248688451Y-146958384D01*
X248688451Y-146958384D02*
X248650356Y-147034575D01*
X248650356Y-147034575D02*
X248612261Y-147186956D01*
X248612261Y-147186956D02*
X248612261Y-147377432D01*
X248612261Y-147377432D02*
X248650356Y-147529813D01*
X248650356Y-147529813D02*
X248688451Y-147606003D01*
X248688451Y-147606003D02*
X248726546Y-147644099D01*
X248726546Y-147644099D02*
X248802737Y-147682194D01*
X248802737Y-147682194D02*
X248878927Y-147682194D01*
X248878927Y-147682194D02*
X248955118Y-147644099D01*
X248955118Y-147644099D02*
X248993213Y-147606003D01*
X248993213Y-147606003D02*
X249031308Y-147529813D01*
X249031308Y-147529813D02*
X249069404Y-147377432D01*
X249069404Y-147377432D02*
X249069404Y-147186956D01*
X249069404Y-147186956D02*
X249031308Y-147034575D01*
X249031308Y-147034575D02*
X248993213Y-146958384D01*
X248993213Y-146958384D02*
X248955118Y-146920289D01*
X248955118Y-146920289D02*
X248878927Y-146882194D01*
X250859879Y-150146003D02*
X250897975Y-150184099D01*
X250897975Y-150184099D02*
X251012260Y-150222194D01*
X251012260Y-150222194D02*
X251088451Y-150222194D01*
X251088451Y-150222194D02*
X251202737Y-150184099D01*
X251202737Y-150184099D02*
X251278927Y-150107908D01*
X251278927Y-150107908D02*
X251317022Y-150031718D01*
X251317022Y-150031718D02*
X251355118Y-149879337D01*
X251355118Y-149879337D02*
X251355118Y-149765051D01*
X251355118Y-149765051D02*
X251317022Y-149612670D01*
X251317022Y-149612670D02*
X251278927Y-149536479D01*
X251278927Y-149536479D02*
X251202737Y-149460289D01*
X251202737Y-149460289D02*
X251088451Y-149422194D01*
X251088451Y-149422194D02*
X251012260Y-149422194D01*
X251012260Y-149422194D02*
X250897975Y-149460289D01*
X250897975Y-149460289D02*
X250859879Y-149498384D01*
X250364641Y-149422194D02*
X250212260Y-149422194D01*
X250212260Y-149422194D02*
X250136070Y-149460289D01*
X250136070Y-149460289D02*
X250059879Y-149536479D01*
X250059879Y-149536479D02*
X250021784Y-149688860D01*
X250021784Y-149688860D02*
X250021784Y-149955527D01*
X250021784Y-149955527D02*
X250059879Y-150107908D01*
X250059879Y-150107908D02*
X250136070Y-150184099D01*
X250136070Y-150184099D02*
X250212260Y-150222194D01*
X250212260Y-150222194D02*
X250364641Y-150222194D01*
X250364641Y-150222194D02*
X250440832Y-150184099D01*
X250440832Y-150184099D02*
X250517022Y-150107908D01*
X250517022Y-150107908D02*
X250555118Y-149955527D01*
X250555118Y-149955527D02*
X250555118Y-149688860D01*
X250555118Y-149688860D02*
X250517022Y-149536479D01*
X250517022Y-149536479D02*
X250440832Y-149460289D01*
X250440832Y-149460289D02*
X250364641Y-149422194D01*
X249297975Y-150222194D02*
X249678927Y-150222194D01*
X249678927Y-150222194D02*
X249678927Y-149422194D01*
X248612261Y-150222194D02*
X249069404Y-150222194D01*
X248840832Y-150222194D02*
X248840832Y-149422194D01*
X248840832Y-149422194D02*
X248917023Y-149536479D01*
X248917023Y-149536479D02*
X248993213Y-149612670D01*
X248993213Y-149612670D02*
X249069404Y-149650765D01*
X250859879Y-152686003D02*
X250897975Y-152724099D01*
X250897975Y-152724099D02*
X251012260Y-152762194D01*
X251012260Y-152762194D02*
X251088451Y-152762194D01*
X251088451Y-152762194D02*
X251202737Y-152724099D01*
X251202737Y-152724099D02*
X251278927Y-152647908D01*
X251278927Y-152647908D02*
X251317022Y-152571718D01*
X251317022Y-152571718D02*
X251355118Y-152419337D01*
X251355118Y-152419337D02*
X251355118Y-152305051D01*
X251355118Y-152305051D02*
X251317022Y-152152670D01*
X251317022Y-152152670D02*
X251278927Y-152076479D01*
X251278927Y-152076479D02*
X251202737Y-152000289D01*
X251202737Y-152000289D02*
X251088451Y-151962194D01*
X251088451Y-151962194D02*
X251012260Y-151962194D01*
X251012260Y-151962194D02*
X250897975Y-152000289D01*
X250897975Y-152000289D02*
X250859879Y-152038384D01*
X250364641Y-151962194D02*
X250212260Y-151962194D01*
X250212260Y-151962194D02*
X250136070Y-152000289D01*
X250136070Y-152000289D02*
X250059879Y-152076479D01*
X250059879Y-152076479D02*
X250021784Y-152228860D01*
X250021784Y-152228860D02*
X250021784Y-152495527D01*
X250021784Y-152495527D02*
X250059879Y-152647908D01*
X250059879Y-152647908D02*
X250136070Y-152724099D01*
X250136070Y-152724099D02*
X250212260Y-152762194D01*
X250212260Y-152762194D02*
X250364641Y-152762194D01*
X250364641Y-152762194D02*
X250440832Y-152724099D01*
X250440832Y-152724099D02*
X250517022Y-152647908D01*
X250517022Y-152647908D02*
X250555118Y-152495527D01*
X250555118Y-152495527D02*
X250555118Y-152228860D01*
X250555118Y-152228860D02*
X250517022Y-152076479D01*
X250517022Y-152076479D02*
X250440832Y-152000289D01*
X250440832Y-152000289D02*
X250364641Y-151962194D01*
X249297975Y-152762194D02*
X249678927Y-152762194D01*
X249678927Y-152762194D02*
X249678927Y-151962194D01*
X249069404Y-152038384D02*
X249031308Y-152000289D01*
X249031308Y-152000289D02*
X248955118Y-151962194D01*
X248955118Y-151962194D02*
X248764642Y-151962194D01*
X248764642Y-151962194D02*
X248688451Y-152000289D01*
X248688451Y-152000289D02*
X248650356Y-152038384D01*
X248650356Y-152038384D02*
X248612261Y-152114575D01*
X248612261Y-152114575D02*
X248612261Y-152190765D01*
X248612261Y-152190765D02*
X248650356Y-152305051D01*
X248650356Y-152305051D02*
X249107499Y-152762194D01*
X249107499Y-152762194D02*
X248612261Y-152762194D01*
X250859879Y-155226003D02*
X250897975Y-155264099D01*
X250897975Y-155264099D02*
X251012260Y-155302194D01*
X251012260Y-155302194D02*
X251088451Y-155302194D01*
X251088451Y-155302194D02*
X251202737Y-155264099D01*
X251202737Y-155264099D02*
X251278927Y-155187908D01*
X251278927Y-155187908D02*
X251317022Y-155111718D01*
X251317022Y-155111718D02*
X251355118Y-154959337D01*
X251355118Y-154959337D02*
X251355118Y-154845051D01*
X251355118Y-154845051D02*
X251317022Y-154692670D01*
X251317022Y-154692670D02*
X251278927Y-154616479D01*
X251278927Y-154616479D02*
X251202737Y-154540289D01*
X251202737Y-154540289D02*
X251088451Y-154502194D01*
X251088451Y-154502194D02*
X251012260Y-154502194D01*
X251012260Y-154502194D02*
X250897975Y-154540289D01*
X250897975Y-154540289D02*
X250859879Y-154578384D01*
X250364641Y-154502194D02*
X250212260Y-154502194D01*
X250212260Y-154502194D02*
X250136070Y-154540289D01*
X250136070Y-154540289D02*
X250059879Y-154616479D01*
X250059879Y-154616479D02*
X250021784Y-154768860D01*
X250021784Y-154768860D02*
X250021784Y-155035527D01*
X250021784Y-155035527D02*
X250059879Y-155187908D01*
X250059879Y-155187908D02*
X250136070Y-155264099D01*
X250136070Y-155264099D02*
X250212260Y-155302194D01*
X250212260Y-155302194D02*
X250364641Y-155302194D01*
X250364641Y-155302194D02*
X250440832Y-155264099D01*
X250440832Y-155264099D02*
X250517022Y-155187908D01*
X250517022Y-155187908D02*
X250555118Y-155035527D01*
X250555118Y-155035527D02*
X250555118Y-154768860D01*
X250555118Y-154768860D02*
X250517022Y-154616479D01*
X250517022Y-154616479D02*
X250440832Y-154540289D01*
X250440832Y-154540289D02*
X250364641Y-154502194D01*
X249297975Y-155302194D02*
X249678927Y-155302194D01*
X249678927Y-155302194D02*
X249678927Y-154502194D01*
X249107499Y-154502194D02*
X248612261Y-154502194D01*
X248612261Y-154502194D02*
X248878927Y-154806956D01*
X248878927Y-154806956D02*
X248764642Y-154806956D01*
X248764642Y-154806956D02*
X248688451Y-154845051D01*
X248688451Y-154845051D02*
X248650356Y-154883146D01*
X248650356Y-154883146D02*
X248612261Y-154959337D01*
X248612261Y-154959337D02*
X248612261Y-155149813D01*
X248612261Y-155149813D02*
X248650356Y-155226003D01*
X248650356Y-155226003D02*
X248688451Y-155264099D01*
X248688451Y-155264099D02*
X248764642Y-155302194D01*
X248764642Y-155302194D02*
X248993213Y-155302194D01*
X248993213Y-155302194D02*
X249069404Y-155264099D01*
X249069404Y-155264099D02*
X249107499Y-155226003D01*
X250859879Y-157766003D02*
X250897975Y-157804099D01*
X250897975Y-157804099D02*
X251012260Y-157842194D01*
X251012260Y-157842194D02*
X251088451Y-157842194D01*
X251088451Y-157842194D02*
X251202737Y-157804099D01*
X251202737Y-157804099D02*
X251278927Y-157727908D01*
X251278927Y-157727908D02*
X251317022Y-157651718D01*
X251317022Y-157651718D02*
X251355118Y-157499337D01*
X251355118Y-157499337D02*
X251355118Y-157385051D01*
X251355118Y-157385051D02*
X251317022Y-157232670D01*
X251317022Y-157232670D02*
X251278927Y-157156479D01*
X251278927Y-157156479D02*
X251202737Y-157080289D01*
X251202737Y-157080289D02*
X251088451Y-157042194D01*
X251088451Y-157042194D02*
X251012260Y-157042194D01*
X251012260Y-157042194D02*
X250897975Y-157080289D01*
X250897975Y-157080289D02*
X250859879Y-157118384D01*
X250364641Y-157042194D02*
X250212260Y-157042194D01*
X250212260Y-157042194D02*
X250136070Y-157080289D01*
X250136070Y-157080289D02*
X250059879Y-157156479D01*
X250059879Y-157156479D02*
X250021784Y-157308860D01*
X250021784Y-157308860D02*
X250021784Y-157575527D01*
X250021784Y-157575527D02*
X250059879Y-157727908D01*
X250059879Y-157727908D02*
X250136070Y-157804099D01*
X250136070Y-157804099D02*
X250212260Y-157842194D01*
X250212260Y-157842194D02*
X250364641Y-157842194D01*
X250364641Y-157842194D02*
X250440832Y-157804099D01*
X250440832Y-157804099D02*
X250517022Y-157727908D01*
X250517022Y-157727908D02*
X250555118Y-157575527D01*
X250555118Y-157575527D02*
X250555118Y-157308860D01*
X250555118Y-157308860D02*
X250517022Y-157156479D01*
X250517022Y-157156479D02*
X250440832Y-157080289D01*
X250440832Y-157080289D02*
X250364641Y-157042194D01*
X249297975Y-157842194D02*
X249678927Y-157842194D01*
X249678927Y-157842194D02*
X249678927Y-157042194D01*
X248688451Y-157308860D02*
X248688451Y-157842194D01*
X248878927Y-157004099D02*
X249069404Y-157575527D01*
X249069404Y-157575527D02*
X248574165Y-157575527D01*
X260214892Y-129826003D02*
X260252988Y-129864099D01*
X260252988Y-129864099D02*
X260367273Y-129902194D01*
X260367273Y-129902194D02*
X260443464Y-129902194D01*
X260443464Y-129902194D02*
X260557750Y-129864099D01*
X260557750Y-129864099D02*
X260633940Y-129787908D01*
X260633940Y-129787908D02*
X260672035Y-129711718D01*
X260672035Y-129711718D02*
X260710131Y-129559337D01*
X260710131Y-129559337D02*
X260710131Y-129445051D01*
X260710131Y-129445051D02*
X260672035Y-129292670D01*
X260672035Y-129292670D02*
X260633940Y-129216479D01*
X260633940Y-129216479D02*
X260557750Y-129140289D01*
X260557750Y-129140289D02*
X260443464Y-129102194D01*
X260443464Y-129102194D02*
X260367273Y-129102194D01*
X260367273Y-129102194D02*
X260252988Y-129140289D01*
X260252988Y-129140289D02*
X260214892Y-129178384D01*
X259910131Y-129864099D02*
X259795845Y-129902194D01*
X259795845Y-129902194D02*
X259605369Y-129902194D01*
X259605369Y-129902194D02*
X259529178Y-129864099D01*
X259529178Y-129864099D02*
X259491083Y-129826003D01*
X259491083Y-129826003D02*
X259452988Y-129749813D01*
X259452988Y-129749813D02*
X259452988Y-129673622D01*
X259452988Y-129673622D02*
X259491083Y-129597432D01*
X259491083Y-129597432D02*
X259529178Y-129559337D01*
X259529178Y-129559337D02*
X259605369Y-129521241D01*
X259605369Y-129521241D02*
X259757750Y-129483146D01*
X259757750Y-129483146D02*
X259833940Y-129445051D01*
X259833940Y-129445051D02*
X259872035Y-129406956D01*
X259872035Y-129406956D02*
X259910131Y-129330765D01*
X259910131Y-129330765D02*
X259910131Y-129254575D01*
X259910131Y-129254575D02*
X259872035Y-129178384D01*
X259872035Y-129178384D02*
X259833940Y-129140289D01*
X259833940Y-129140289D02*
X259757750Y-129102194D01*
X259757750Y-129102194D02*
X259567273Y-129102194D01*
X259567273Y-129102194D02*
X259452988Y-129140289D01*
X260252988Y-134220289D02*
X260329178Y-134182194D01*
X260329178Y-134182194D02*
X260443464Y-134182194D01*
X260443464Y-134182194D02*
X260557750Y-134220289D01*
X260557750Y-134220289D02*
X260633940Y-134296479D01*
X260633940Y-134296479D02*
X260672035Y-134372670D01*
X260672035Y-134372670D02*
X260710131Y-134525051D01*
X260710131Y-134525051D02*
X260710131Y-134639337D01*
X260710131Y-134639337D02*
X260672035Y-134791718D01*
X260672035Y-134791718D02*
X260633940Y-134867908D01*
X260633940Y-134867908D02*
X260557750Y-134944099D01*
X260557750Y-134944099D02*
X260443464Y-134982194D01*
X260443464Y-134982194D02*
X260367273Y-134982194D01*
X260367273Y-134982194D02*
X260252988Y-134944099D01*
X260252988Y-134944099D02*
X260214892Y-134906003D01*
X260214892Y-134906003D02*
X260214892Y-134639337D01*
X260214892Y-134639337D02*
X260367273Y-134639337D01*
X259872035Y-134982194D02*
X259872035Y-134182194D01*
X259872035Y-134182194D02*
X259414892Y-134982194D01*
X259414892Y-134982194D02*
X259414892Y-134182194D01*
X259033940Y-134982194D02*
X259033940Y-134182194D01*
X259033940Y-134182194D02*
X258843464Y-134182194D01*
X258843464Y-134182194D02*
X258729178Y-134220289D01*
X258729178Y-134220289D02*
X258652988Y-134296479D01*
X258652988Y-134296479D02*
X258614893Y-134372670D01*
X258614893Y-134372670D02*
X258576797Y-134525051D01*
X258576797Y-134525051D02*
X258576797Y-134639337D01*
X258576797Y-134639337D02*
X258614893Y-134791718D01*
X258614893Y-134791718D02*
X258652988Y-134867908D01*
X258652988Y-134867908D02*
X258729178Y-134944099D01*
X258729178Y-134944099D02*
X258843464Y-134982194D01*
X258843464Y-134982194D02*
X259033940Y-134982194D01*
X260252988Y-136760289D02*
X260329178Y-136722194D01*
X260329178Y-136722194D02*
X260443464Y-136722194D01*
X260443464Y-136722194D02*
X260557750Y-136760289D01*
X260557750Y-136760289D02*
X260633940Y-136836479D01*
X260633940Y-136836479D02*
X260672035Y-136912670D01*
X260672035Y-136912670D02*
X260710131Y-137065051D01*
X260710131Y-137065051D02*
X260710131Y-137179337D01*
X260710131Y-137179337D02*
X260672035Y-137331718D01*
X260672035Y-137331718D02*
X260633940Y-137407908D01*
X260633940Y-137407908D02*
X260557750Y-137484099D01*
X260557750Y-137484099D02*
X260443464Y-137522194D01*
X260443464Y-137522194D02*
X260367273Y-137522194D01*
X260367273Y-137522194D02*
X260252988Y-137484099D01*
X260252988Y-137484099D02*
X260214892Y-137446003D01*
X260214892Y-137446003D02*
X260214892Y-137179337D01*
X260214892Y-137179337D02*
X260367273Y-137179337D01*
X259872035Y-137522194D02*
X259872035Y-136722194D01*
X259872035Y-136722194D02*
X259414892Y-137522194D01*
X259414892Y-137522194D02*
X259414892Y-136722194D01*
X259033940Y-137522194D02*
X259033940Y-136722194D01*
X259033940Y-136722194D02*
X258843464Y-136722194D01*
X258843464Y-136722194D02*
X258729178Y-136760289D01*
X258729178Y-136760289D02*
X258652988Y-136836479D01*
X258652988Y-136836479D02*
X258614893Y-136912670D01*
X258614893Y-136912670D02*
X258576797Y-137065051D01*
X258576797Y-137065051D02*
X258576797Y-137179337D01*
X258576797Y-137179337D02*
X258614893Y-137331718D01*
X258614893Y-137331718D02*
X258652988Y-137407908D01*
X258652988Y-137407908D02*
X258729178Y-137484099D01*
X258729178Y-137484099D02*
X258843464Y-137522194D01*
X258843464Y-137522194D02*
X259033940Y-137522194D01*
X260672035Y-140062194D02*
X260672035Y-139262194D01*
X260672035Y-139262194D02*
X260405369Y-139833622D01*
X260405369Y-139833622D02*
X260138702Y-139262194D01*
X260138702Y-139262194D02*
X260138702Y-140062194D01*
X259605368Y-139262194D02*
X259452987Y-139262194D01*
X259452987Y-139262194D02*
X259376797Y-139300289D01*
X259376797Y-139300289D02*
X259300606Y-139376479D01*
X259300606Y-139376479D02*
X259262511Y-139528860D01*
X259262511Y-139528860D02*
X259262511Y-139795527D01*
X259262511Y-139795527D02*
X259300606Y-139947908D01*
X259300606Y-139947908D02*
X259376797Y-140024099D01*
X259376797Y-140024099D02*
X259452987Y-140062194D01*
X259452987Y-140062194D02*
X259605368Y-140062194D01*
X259605368Y-140062194D02*
X259681559Y-140024099D01*
X259681559Y-140024099D02*
X259757749Y-139947908D01*
X259757749Y-139947908D02*
X259795845Y-139795527D01*
X259795845Y-139795527D02*
X259795845Y-139528860D01*
X259795845Y-139528860D02*
X259757749Y-139376479D01*
X259757749Y-139376479D02*
X259681559Y-139300289D01*
X259681559Y-139300289D02*
X259605368Y-139262194D01*
X258957750Y-140024099D02*
X258843464Y-140062194D01*
X258843464Y-140062194D02*
X258652988Y-140062194D01*
X258652988Y-140062194D02*
X258576797Y-140024099D01*
X258576797Y-140024099D02*
X258538702Y-139986003D01*
X258538702Y-139986003D02*
X258500607Y-139909813D01*
X258500607Y-139909813D02*
X258500607Y-139833622D01*
X258500607Y-139833622D02*
X258538702Y-139757432D01*
X258538702Y-139757432D02*
X258576797Y-139719337D01*
X258576797Y-139719337D02*
X258652988Y-139681241D01*
X258652988Y-139681241D02*
X258805369Y-139643146D01*
X258805369Y-139643146D02*
X258881559Y-139605051D01*
X258881559Y-139605051D02*
X258919654Y-139566956D01*
X258919654Y-139566956D02*
X258957750Y-139490765D01*
X258957750Y-139490765D02*
X258957750Y-139414575D01*
X258957750Y-139414575D02*
X258919654Y-139338384D01*
X258919654Y-139338384D02*
X258881559Y-139300289D01*
X258881559Y-139300289D02*
X258805369Y-139262194D01*
X258805369Y-139262194D02*
X258614892Y-139262194D01*
X258614892Y-139262194D02*
X258500607Y-139300289D01*
X258157749Y-140062194D02*
X258157749Y-139262194D01*
X260710131Y-142564099D02*
X260595845Y-142602194D01*
X260595845Y-142602194D02*
X260405369Y-142602194D01*
X260405369Y-142602194D02*
X260329178Y-142564099D01*
X260329178Y-142564099D02*
X260291083Y-142526003D01*
X260291083Y-142526003D02*
X260252988Y-142449813D01*
X260252988Y-142449813D02*
X260252988Y-142373622D01*
X260252988Y-142373622D02*
X260291083Y-142297432D01*
X260291083Y-142297432D02*
X260329178Y-142259337D01*
X260329178Y-142259337D02*
X260405369Y-142221241D01*
X260405369Y-142221241D02*
X260557750Y-142183146D01*
X260557750Y-142183146D02*
X260633940Y-142145051D01*
X260633940Y-142145051D02*
X260672035Y-142106956D01*
X260672035Y-142106956D02*
X260710131Y-142030765D01*
X260710131Y-142030765D02*
X260710131Y-141954575D01*
X260710131Y-141954575D02*
X260672035Y-141878384D01*
X260672035Y-141878384D02*
X260633940Y-141840289D01*
X260633940Y-141840289D02*
X260557750Y-141802194D01*
X260557750Y-141802194D02*
X260367273Y-141802194D01*
X260367273Y-141802194D02*
X260252988Y-141840289D01*
X259452987Y-142526003D02*
X259491083Y-142564099D01*
X259491083Y-142564099D02*
X259605368Y-142602194D01*
X259605368Y-142602194D02*
X259681559Y-142602194D01*
X259681559Y-142602194D02*
X259795845Y-142564099D01*
X259795845Y-142564099D02*
X259872035Y-142487908D01*
X259872035Y-142487908D02*
X259910130Y-142411718D01*
X259910130Y-142411718D02*
X259948226Y-142259337D01*
X259948226Y-142259337D02*
X259948226Y-142145051D01*
X259948226Y-142145051D02*
X259910130Y-141992670D01*
X259910130Y-141992670D02*
X259872035Y-141916479D01*
X259872035Y-141916479D02*
X259795845Y-141840289D01*
X259795845Y-141840289D02*
X259681559Y-141802194D01*
X259681559Y-141802194D02*
X259605368Y-141802194D01*
X259605368Y-141802194D02*
X259491083Y-141840289D01*
X259491083Y-141840289D02*
X259452987Y-141878384D01*
X259110130Y-142602194D02*
X259110130Y-141802194D01*
X258652987Y-142602194D02*
X258995845Y-142145051D01*
X258652987Y-141802194D02*
X259110130Y-142259337D01*
X260214892Y-150222194D02*
X260481559Y-149841241D01*
X260672035Y-150222194D02*
X260672035Y-149422194D01*
X260672035Y-149422194D02*
X260367273Y-149422194D01*
X260367273Y-149422194D02*
X260291083Y-149460289D01*
X260291083Y-149460289D02*
X260252988Y-149498384D01*
X260252988Y-149498384D02*
X260214892Y-149574575D01*
X260214892Y-149574575D02*
X260214892Y-149688860D01*
X260214892Y-149688860D02*
X260252988Y-149765051D01*
X260252988Y-149765051D02*
X260291083Y-149803146D01*
X260291083Y-149803146D02*
X260367273Y-149841241D01*
X260367273Y-149841241D02*
X260672035Y-149841241D01*
X259719654Y-149422194D02*
X259567273Y-149422194D01*
X259567273Y-149422194D02*
X259491083Y-149460289D01*
X259491083Y-149460289D02*
X259414892Y-149536479D01*
X259414892Y-149536479D02*
X259376797Y-149688860D01*
X259376797Y-149688860D02*
X259376797Y-149955527D01*
X259376797Y-149955527D02*
X259414892Y-150107908D01*
X259414892Y-150107908D02*
X259491083Y-150184099D01*
X259491083Y-150184099D02*
X259567273Y-150222194D01*
X259567273Y-150222194D02*
X259719654Y-150222194D01*
X259719654Y-150222194D02*
X259795845Y-150184099D01*
X259795845Y-150184099D02*
X259872035Y-150107908D01*
X259872035Y-150107908D02*
X259910131Y-149955527D01*
X259910131Y-149955527D02*
X259910131Y-149688860D01*
X259910131Y-149688860D02*
X259872035Y-149536479D01*
X259872035Y-149536479D02*
X259795845Y-149460289D01*
X259795845Y-149460289D02*
X259719654Y-149422194D01*
X259110131Y-149422194D02*
X258919655Y-150222194D01*
X258919655Y-150222194D02*
X258767274Y-149650765D01*
X258767274Y-149650765D02*
X258614893Y-150222194D01*
X258614893Y-150222194D02*
X258424417Y-149422194D01*
X257967273Y-149422194D02*
X257891083Y-149422194D01*
X257891083Y-149422194D02*
X257814892Y-149460289D01*
X257814892Y-149460289D02*
X257776797Y-149498384D01*
X257776797Y-149498384D02*
X257738702Y-149574575D01*
X257738702Y-149574575D02*
X257700607Y-149726956D01*
X257700607Y-149726956D02*
X257700607Y-149917432D01*
X257700607Y-149917432D02*
X257738702Y-150069813D01*
X257738702Y-150069813D02*
X257776797Y-150146003D01*
X257776797Y-150146003D02*
X257814892Y-150184099D01*
X257814892Y-150184099D02*
X257891083Y-150222194D01*
X257891083Y-150222194D02*
X257967273Y-150222194D01*
X257967273Y-150222194D02*
X258043464Y-150184099D01*
X258043464Y-150184099D02*
X258081559Y-150146003D01*
X258081559Y-150146003D02*
X258119654Y-150069813D01*
X258119654Y-150069813D02*
X258157750Y-149917432D01*
X258157750Y-149917432D02*
X258157750Y-149726956D01*
X258157750Y-149726956D02*
X258119654Y-149574575D01*
X258119654Y-149574575D02*
X258081559Y-149498384D01*
X258081559Y-149498384D02*
X258043464Y-149460289D01*
X258043464Y-149460289D02*
X257967273Y-149422194D01*
X260214892Y-152762194D02*
X260481559Y-152381241D01*
X260672035Y-152762194D02*
X260672035Y-151962194D01*
X260672035Y-151962194D02*
X260367273Y-151962194D01*
X260367273Y-151962194D02*
X260291083Y-152000289D01*
X260291083Y-152000289D02*
X260252988Y-152038384D01*
X260252988Y-152038384D02*
X260214892Y-152114575D01*
X260214892Y-152114575D02*
X260214892Y-152228860D01*
X260214892Y-152228860D02*
X260252988Y-152305051D01*
X260252988Y-152305051D02*
X260291083Y-152343146D01*
X260291083Y-152343146D02*
X260367273Y-152381241D01*
X260367273Y-152381241D02*
X260672035Y-152381241D01*
X259719654Y-151962194D02*
X259567273Y-151962194D01*
X259567273Y-151962194D02*
X259491083Y-152000289D01*
X259491083Y-152000289D02*
X259414892Y-152076479D01*
X259414892Y-152076479D02*
X259376797Y-152228860D01*
X259376797Y-152228860D02*
X259376797Y-152495527D01*
X259376797Y-152495527D02*
X259414892Y-152647908D01*
X259414892Y-152647908D02*
X259491083Y-152724099D01*
X259491083Y-152724099D02*
X259567273Y-152762194D01*
X259567273Y-152762194D02*
X259719654Y-152762194D01*
X259719654Y-152762194D02*
X259795845Y-152724099D01*
X259795845Y-152724099D02*
X259872035Y-152647908D01*
X259872035Y-152647908D02*
X259910131Y-152495527D01*
X259910131Y-152495527D02*
X259910131Y-152228860D01*
X259910131Y-152228860D02*
X259872035Y-152076479D01*
X259872035Y-152076479D02*
X259795845Y-152000289D01*
X259795845Y-152000289D02*
X259719654Y-151962194D01*
X259110131Y-151962194D02*
X258919655Y-152762194D01*
X258919655Y-152762194D02*
X258767274Y-152190765D01*
X258767274Y-152190765D02*
X258614893Y-152762194D01*
X258614893Y-152762194D02*
X258424417Y-151962194D01*
X257700607Y-152762194D02*
X258157750Y-152762194D01*
X257929178Y-152762194D02*
X257929178Y-151962194D01*
X257929178Y-151962194D02*
X258005369Y-152076479D01*
X258005369Y-152076479D02*
X258081559Y-152152670D01*
X258081559Y-152152670D02*
X258157750Y-152190765D01*
X260214892Y-155302194D02*
X260481559Y-154921241D01*
X260672035Y-155302194D02*
X260672035Y-154502194D01*
X260672035Y-154502194D02*
X260367273Y-154502194D01*
X260367273Y-154502194D02*
X260291083Y-154540289D01*
X260291083Y-154540289D02*
X260252988Y-154578384D01*
X260252988Y-154578384D02*
X260214892Y-154654575D01*
X260214892Y-154654575D02*
X260214892Y-154768860D01*
X260214892Y-154768860D02*
X260252988Y-154845051D01*
X260252988Y-154845051D02*
X260291083Y-154883146D01*
X260291083Y-154883146D02*
X260367273Y-154921241D01*
X260367273Y-154921241D02*
X260672035Y-154921241D01*
X259719654Y-154502194D02*
X259567273Y-154502194D01*
X259567273Y-154502194D02*
X259491083Y-154540289D01*
X259491083Y-154540289D02*
X259414892Y-154616479D01*
X259414892Y-154616479D02*
X259376797Y-154768860D01*
X259376797Y-154768860D02*
X259376797Y-155035527D01*
X259376797Y-155035527D02*
X259414892Y-155187908D01*
X259414892Y-155187908D02*
X259491083Y-155264099D01*
X259491083Y-155264099D02*
X259567273Y-155302194D01*
X259567273Y-155302194D02*
X259719654Y-155302194D01*
X259719654Y-155302194D02*
X259795845Y-155264099D01*
X259795845Y-155264099D02*
X259872035Y-155187908D01*
X259872035Y-155187908D02*
X259910131Y-155035527D01*
X259910131Y-155035527D02*
X259910131Y-154768860D01*
X259910131Y-154768860D02*
X259872035Y-154616479D01*
X259872035Y-154616479D02*
X259795845Y-154540289D01*
X259795845Y-154540289D02*
X259719654Y-154502194D01*
X259110131Y-154502194D02*
X258919655Y-155302194D01*
X258919655Y-155302194D02*
X258767274Y-154730765D01*
X258767274Y-154730765D02*
X258614893Y-155302194D01*
X258614893Y-155302194D02*
X258424417Y-154502194D01*
X258157750Y-154578384D02*
X258119654Y-154540289D01*
X258119654Y-154540289D02*
X258043464Y-154502194D01*
X258043464Y-154502194D02*
X257852988Y-154502194D01*
X257852988Y-154502194D02*
X257776797Y-154540289D01*
X257776797Y-154540289D02*
X257738702Y-154578384D01*
X257738702Y-154578384D02*
X257700607Y-154654575D01*
X257700607Y-154654575D02*
X257700607Y-154730765D01*
X257700607Y-154730765D02*
X257738702Y-154845051D01*
X257738702Y-154845051D02*
X258195845Y-155302194D01*
X258195845Y-155302194D02*
X257700607Y-155302194D01*
X260214892Y-157842194D02*
X260481559Y-157461241D01*
X260672035Y-157842194D02*
X260672035Y-157042194D01*
X260672035Y-157042194D02*
X260367273Y-157042194D01*
X260367273Y-157042194D02*
X260291083Y-157080289D01*
X260291083Y-157080289D02*
X260252988Y-157118384D01*
X260252988Y-157118384D02*
X260214892Y-157194575D01*
X260214892Y-157194575D02*
X260214892Y-157308860D01*
X260214892Y-157308860D02*
X260252988Y-157385051D01*
X260252988Y-157385051D02*
X260291083Y-157423146D01*
X260291083Y-157423146D02*
X260367273Y-157461241D01*
X260367273Y-157461241D02*
X260672035Y-157461241D01*
X259719654Y-157042194D02*
X259567273Y-157042194D01*
X259567273Y-157042194D02*
X259491083Y-157080289D01*
X259491083Y-157080289D02*
X259414892Y-157156479D01*
X259414892Y-157156479D02*
X259376797Y-157308860D01*
X259376797Y-157308860D02*
X259376797Y-157575527D01*
X259376797Y-157575527D02*
X259414892Y-157727908D01*
X259414892Y-157727908D02*
X259491083Y-157804099D01*
X259491083Y-157804099D02*
X259567273Y-157842194D01*
X259567273Y-157842194D02*
X259719654Y-157842194D01*
X259719654Y-157842194D02*
X259795845Y-157804099D01*
X259795845Y-157804099D02*
X259872035Y-157727908D01*
X259872035Y-157727908D02*
X259910131Y-157575527D01*
X259910131Y-157575527D02*
X259910131Y-157308860D01*
X259910131Y-157308860D02*
X259872035Y-157156479D01*
X259872035Y-157156479D02*
X259795845Y-157080289D01*
X259795845Y-157080289D02*
X259719654Y-157042194D01*
X259110131Y-157042194D02*
X258919655Y-157842194D01*
X258919655Y-157842194D02*
X258767274Y-157270765D01*
X258767274Y-157270765D02*
X258614893Y-157842194D01*
X258614893Y-157842194D02*
X258424417Y-157042194D01*
X258195845Y-157042194D02*
X257700607Y-157042194D01*
X257700607Y-157042194D02*
X257967273Y-157346956D01*
X257967273Y-157346956D02*
X257852988Y-157346956D01*
X257852988Y-157346956D02*
X257776797Y-157385051D01*
X257776797Y-157385051D02*
X257738702Y-157423146D01*
X257738702Y-157423146D02*
X257700607Y-157499337D01*
X257700607Y-157499337D02*
X257700607Y-157689813D01*
X257700607Y-157689813D02*
X257738702Y-157766003D01*
X257738702Y-157766003D02*
X257776797Y-157804099D01*
X257776797Y-157804099D02*
X257852988Y-157842194D01*
X257852988Y-157842194D02*
X258081559Y-157842194D01*
X258081559Y-157842194D02*
X258157750Y-157804099D01*
X258157750Y-157804099D02*
X258195845Y-157766003D01*
D11*
G36*
X253871220Y-147150607D02*
G01*
X253905414Y-147184800D01*
X253944742Y-147263456D01*
X253944742Y-147387672D01*
X253905413Y-147466329D01*
X253871220Y-147500522D01*
X253792564Y-147539850D01*
X253496921Y-147539850D01*
X253418263Y-147500521D01*
X253384070Y-147466328D01*
X253344742Y-147387672D01*
X253344742Y-147263458D01*
X253384070Y-147184801D01*
X253418263Y-147150607D01*
X253496922Y-147111279D01*
X253792564Y-147111279D01*
X253871220Y-147150607D01*
G37*
G36*
X253913063Y-144971529D02*
G01*
X253944742Y-145034886D01*
X253944742Y-145273387D01*
X253925796Y-145311280D01*
X253682958Y-145311280D01*
X253687600Y-145296994D01*
X253687600Y-145034886D01*
X253719277Y-144971529D01*
X253782636Y-144939851D01*
X253849707Y-144939851D01*
X253913063Y-144971529D01*
G37*
G36*
X253448477Y-142454137D02*
G01*
X253439779Y-142454137D01*
X253376420Y-142422458D01*
X253344742Y-142359101D01*
X253344742Y-142177744D01*
X253376420Y-142114386D01*
X253439779Y-142082708D01*
X253522762Y-142082708D01*
X253448477Y-142454137D01*
G37*
G36*
X254316171Y-147911279D02*
G01*
X252574544Y-147911279D01*
X252574544Y-147411279D01*
X253144742Y-147411279D01*
X253151865Y-147433202D01*
X253155299Y-147456000D01*
X253212442Y-147570287D01*
X253223816Y-147581834D01*
X253231174Y-147596276D01*
X253288317Y-147653418D01*
X253302757Y-147660776D01*
X253314307Y-147672151D01*
X253428593Y-147729293D01*
X253451390Y-147732726D01*
X253473314Y-147739850D01*
X253816171Y-147739850D01*
X253838094Y-147732726D01*
X253860892Y-147729293D01*
X253975178Y-147672151D01*
X253986725Y-147660777D01*
X254001168Y-147653419D01*
X254058310Y-147596276D01*
X254065668Y-147581835D01*
X254077043Y-147570286D01*
X254134185Y-147456000D01*
X254137618Y-147433202D01*
X254144742Y-147411279D01*
X254144742Y-147239850D01*
X254137618Y-147217926D01*
X254134185Y-147195129D01*
X254077043Y-147080844D01*
X254065668Y-147069295D01*
X254058310Y-147054854D01*
X254001168Y-146997711D01*
X253986726Y-146990353D01*
X253975179Y-146978979D01*
X253860892Y-146921836D01*
X253838094Y-146918402D01*
X253816171Y-146911279D01*
X253473314Y-146911279D01*
X253451390Y-146918402D01*
X253428593Y-146921836D01*
X253314307Y-146978979D01*
X253302758Y-146990353D01*
X253288317Y-146997712D01*
X253231174Y-147054854D01*
X253223815Y-147069296D01*
X253212443Y-147080843D01*
X253155299Y-147195128D01*
X253151865Y-147217926D01*
X253144742Y-147239850D01*
X253144742Y-147411279D01*
X252574544Y-147411279D01*
X252574544Y-146325565D01*
X253144742Y-146325565D01*
X253151865Y-146347488D01*
X253155299Y-146370286D01*
X253212442Y-146484573D01*
X253213000Y-146485140D01*
X253213131Y-146485925D01*
X253234617Y-146507087D01*
X253255811Y-146528605D01*
X253256597Y-146528735D01*
X253257164Y-146529294D01*
X253371450Y-146586437D01*
X253394247Y-146589870D01*
X253416171Y-146596994D01*
X254044742Y-146596994D01*
X254103521Y-146577896D01*
X254139848Y-146527896D01*
X254139848Y-146466092D01*
X254103521Y-146416092D01*
X254044742Y-146396994D01*
X253439779Y-146396994D01*
X253376420Y-146365315D01*
X253344742Y-146301958D01*
X253344742Y-146177744D01*
X253384070Y-146099087D01*
X253400450Y-146082708D01*
X254044742Y-146082708D01*
X254103521Y-146063610D01*
X254139848Y-146013610D01*
X254139848Y-145951806D01*
X254103521Y-145901806D01*
X254044742Y-145882708D01*
X253244742Y-145882708D01*
X253185963Y-145901806D01*
X253149636Y-145951806D01*
X253149636Y-146013610D01*
X253181365Y-146057282D01*
X253155299Y-146109414D01*
X253151865Y-146132212D01*
X253144742Y-146154136D01*
X253144742Y-146325565D01*
X252574544Y-146325565D01*
X252574544Y-145239851D01*
X253144742Y-145239851D01*
X253151865Y-145261774D01*
X253155299Y-145284572D01*
X253212442Y-145398859D01*
X253213000Y-145399426D01*
X253213131Y-145400211D01*
X253234617Y-145421373D01*
X253255811Y-145442891D01*
X253256597Y-145443021D01*
X253257164Y-145443580D01*
X253371450Y-145500723D01*
X253394247Y-145504156D01*
X253416171Y-145511280D01*
X254044742Y-145511280D01*
X254103521Y-145492182D01*
X254139848Y-145442182D01*
X254139848Y-145380378D01*
X254125042Y-145360000D01*
X254134185Y-145341715D01*
X254137618Y-145318917D01*
X254144742Y-145296994D01*
X254144742Y-145011280D01*
X254137618Y-144989356D01*
X254134185Y-144966559D01*
X254077043Y-144852273D01*
X254076484Y-144851706D01*
X254076354Y-144850920D01*
X254054853Y-144829742D01*
X254033675Y-144808240D01*
X254032888Y-144808109D01*
X254032322Y-144807551D01*
X253918035Y-144750408D01*
X253895237Y-144746974D01*
X253873314Y-144739851D01*
X253759028Y-144739851D01*
X253737104Y-144746974D01*
X253714307Y-144750408D01*
X253600021Y-144807551D01*
X253599454Y-144808109D01*
X253598667Y-144808240D01*
X253577473Y-144829758D01*
X253555988Y-144850920D01*
X253555857Y-144851706D01*
X253555299Y-144852273D01*
X253498157Y-144966559D01*
X253494723Y-144989356D01*
X253487600Y-145011280D01*
X253487600Y-145273386D01*
X253468653Y-145311280D01*
X253439779Y-145311280D01*
X253376420Y-145279601D01*
X253344742Y-145216244D01*
X253344742Y-145034887D01*
X253391328Y-144941715D01*
X253400533Y-144880601D01*
X253372057Y-144825748D01*
X253316778Y-144798108D01*
X253255811Y-144808240D01*
X253212442Y-144852272D01*
X253155299Y-144966559D01*
X253151865Y-144989356D01*
X253144742Y-145011280D01*
X253144742Y-145239851D01*
X252574544Y-145239851D01*
X252574544Y-143619496D01*
X252746835Y-143619496D01*
X252749636Y-143645049D01*
X252749636Y-143670753D01*
X252752953Y-143675319D01*
X252753569Y-143680931D01*
X252770851Y-143699954D01*
X252785963Y-143720753D01*
X252791332Y-143722497D01*
X252795128Y-143726675D01*
X253668186Y-144225565D01*
X252844742Y-144225565D01*
X252785963Y-144244663D01*
X252749636Y-144294663D01*
X252749636Y-144356467D01*
X252785963Y-144406467D01*
X252844742Y-144425565D01*
X254044742Y-144425565D01*
X254050110Y-144423820D01*
X254055638Y-144424970D01*
X254079074Y-144414410D01*
X254103521Y-144406467D01*
X254106839Y-144401899D01*
X254111985Y-144399581D01*
X254124736Y-144377266D01*
X254139848Y-144356467D01*
X254139848Y-144350821D01*
X254142649Y-144345920D01*
X254139848Y-144320366D01*
X254139848Y-144294663D01*
X254136530Y-144290096D01*
X254135915Y-144284485D01*
X254118632Y-144265461D01*
X254103521Y-144244663D01*
X254098151Y-144242918D01*
X254094356Y-144238741D01*
X253221298Y-143739851D01*
X254044742Y-143739851D01*
X254103521Y-143720753D01*
X254139848Y-143670753D01*
X254139848Y-143608949D01*
X254103521Y-143558949D01*
X254044742Y-143539851D01*
X252844742Y-143539851D01*
X252839373Y-143541595D01*
X252833846Y-143540446D01*
X252810409Y-143551005D01*
X252785963Y-143558949D01*
X252782644Y-143563516D01*
X252777499Y-143565835D01*
X252764747Y-143588149D01*
X252749636Y-143608949D01*
X252749636Y-143614594D01*
X252746835Y-143619496D01*
X252574544Y-143619496D01*
X252574544Y-143084065D01*
X252745973Y-143084065D01*
X252749636Y-143091254D01*
X252749636Y-143099324D01*
X252754378Y-143105851D01*
X252755641Y-143113821D01*
X252766840Y-143125020D01*
X252774031Y-143139133D01*
X252831174Y-143196275D01*
X252842053Y-143201818D01*
X252850028Y-143211069D01*
X252868936Y-143215516D01*
X252886241Y-143224334D01*
X252898302Y-143222423D01*
X252910190Y-143225220D01*
X253595905Y-143168077D01*
X253617090Y-143159187D01*
X253639458Y-143153926D01*
X253642275Y-143150657D01*
X253646379Y-143149324D01*
X253648915Y-143145832D01*
X253652895Y-143144163D01*
X253664810Y-143124516D01*
X253679811Y-143107115D01*
X253680169Y-143102815D01*
X253682706Y-143099324D01*
X253682706Y-143095009D01*
X253684944Y-143091319D01*
X253684339Y-143084065D01*
X253831688Y-143084065D01*
X253835351Y-143091254D01*
X253835351Y-143099324D01*
X253840093Y-143105851D01*
X253841356Y-143113821D01*
X253852555Y-143125020D01*
X253859746Y-143139133D01*
X253916889Y-143196275D01*
X253930999Y-143203465D01*
X253942202Y-143214667D01*
X253957846Y-143217144D01*
X253971956Y-143224334D01*
X253987599Y-143221856D01*
X254003244Y-143224334D01*
X254017355Y-143217143D01*
X254032999Y-143214666D01*
X254044199Y-143203465D01*
X254058311Y-143196275D01*
X254115454Y-143139132D01*
X254122643Y-143125021D01*
X254133843Y-143113822D01*
X254135105Y-143105851D01*
X254139848Y-143099324D01*
X254139848Y-143091255D01*
X254143512Y-143084064D01*
X254141034Y-143068422D01*
X254143512Y-143052780D01*
X254139848Y-143045588D01*
X254139848Y-143037520D01*
X254135105Y-143030992D01*
X254133843Y-143023022D01*
X254122643Y-143011822D01*
X254115454Y-142997712D01*
X254058311Y-142940569D01*
X254044199Y-142933378D01*
X254032999Y-142922178D01*
X254017355Y-142919700D01*
X254003244Y-142912510D01*
X253987599Y-142914987D01*
X253971956Y-142912510D01*
X253957846Y-142919699D01*
X253942202Y-142922177D01*
X253930999Y-142933378D01*
X253916889Y-142940569D01*
X253859746Y-142997711D01*
X253852555Y-143011823D01*
X253841356Y-143023023D01*
X253840093Y-143030992D01*
X253835351Y-143037520D01*
X253835351Y-143045589D01*
X253831688Y-143052779D01*
X253834165Y-143068422D01*
X253831688Y-143084065D01*
X253684339Y-143084065D01*
X253683035Y-143068422D01*
X253684944Y-143045525D01*
X253682706Y-143041834D01*
X253682706Y-143037520D01*
X253680169Y-143034028D01*
X253679811Y-143029729D01*
X253664810Y-143012327D01*
X253652895Y-142992681D01*
X253648915Y-142991011D01*
X253646379Y-142987520D01*
X253642275Y-142986186D01*
X253639458Y-142982918D01*
X253617090Y-142977656D01*
X253595905Y-142968767D01*
X252910190Y-142911624D01*
X252898302Y-142914420D01*
X252886241Y-142912510D01*
X252868936Y-142921327D01*
X252850028Y-142925775D01*
X252842053Y-142935025D01*
X252831174Y-142940569D01*
X252774031Y-142997711D01*
X252766840Y-143011823D01*
X252755641Y-143023023D01*
X252754378Y-143030992D01*
X252749636Y-143037520D01*
X252749636Y-143045589D01*
X252745973Y-143052779D01*
X252748450Y-143068422D01*
X252745973Y-143084065D01*
X252574544Y-143084065D01*
X252574544Y-142382708D01*
X253144742Y-142382708D01*
X253151865Y-142404631D01*
X253155299Y-142427429D01*
X253212442Y-142541716D01*
X253213000Y-142542283D01*
X253213131Y-142543068D01*
X253234617Y-142564230D01*
X253255811Y-142585748D01*
X253256597Y-142585878D01*
X253257164Y-142586437D01*
X253371450Y-142643580D01*
X253394247Y-142647013D01*
X253416171Y-142654137D01*
X253530457Y-142654137D01*
X253536193Y-142652273D01*
X253542107Y-142653456D01*
X253565134Y-142642869D01*
X253589236Y-142635039D01*
X253592780Y-142630160D01*
X253598261Y-142627641D01*
X253610666Y-142605541D01*
X253625563Y-142585039D01*
X253625563Y-142579006D01*
X253628515Y-142573748D01*
X253726722Y-142082708D01*
X253849707Y-142082708D01*
X253913063Y-142114386D01*
X253944742Y-142177743D01*
X253944742Y-142359101D01*
X253898157Y-142452273D01*
X253888952Y-142513388D01*
X253917428Y-142568240D01*
X253972708Y-142595879D01*
X254033675Y-142585748D01*
X254077043Y-142541715D01*
X254134185Y-142427429D01*
X254137618Y-142404631D01*
X254144742Y-142382708D01*
X254144742Y-142154137D01*
X254137618Y-142132213D01*
X254134185Y-142109416D01*
X254077043Y-141995130D01*
X254076484Y-141994563D01*
X254076354Y-141993777D01*
X254054853Y-141972599D01*
X254033675Y-141951097D01*
X254032888Y-141950966D01*
X254032322Y-141950408D01*
X253918035Y-141893265D01*
X253895237Y-141889831D01*
X253873314Y-141882708D01*
X253416171Y-141882708D01*
X253394247Y-141889831D01*
X253371450Y-141893265D01*
X253257164Y-141950408D01*
X253256597Y-141950966D01*
X253255811Y-141951097D01*
X253234617Y-141972614D01*
X253213131Y-141993777D01*
X253213000Y-141994561D01*
X253212442Y-141995129D01*
X253155299Y-142109416D01*
X253151865Y-142132213D01*
X253144742Y-142154137D01*
X253144742Y-142382708D01*
X252574544Y-142382708D01*
X252574544Y-141411280D01*
X253144742Y-141411280D01*
X253151865Y-141433203D01*
X253155299Y-141456001D01*
X253212442Y-141570288D01*
X253255811Y-141614320D01*
X253316778Y-141624452D01*
X253372057Y-141596812D01*
X253400533Y-141541959D01*
X253391328Y-141480845D01*
X253344742Y-141387673D01*
X253344742Y-141206316D01*
X253384070Y-141127659D01*
X253418263Y-141093465D01*
X253496922Y-141054137D01*
X253792564Y-141054137D01*
X253871220Y-141093465D01*
X253905414Y-141127658D01*
X253944742Y-141206314D01*
X253944742Y-141387673D01*
X253898157Y-141480845D01*
X253888952Y-141541960D01*
X253917428Y-141596812D01*
X253972708Y-141624451D01*
X254033675Y-141614320D01*
X254077043Y-141570287D01*
X254134185Y-141456001D01*
X254137618Y-141433203D01*
X254144742Y-141411280D01*
X254144742Y-141182708D01*
X254137618Y-141160784D01*
X254134185Y-141137987D01*
X254077043Y-141023702D01*
X254065668Y-141012153D01*
X254058310Y-140997712D01*
X254001168Y-140940569D01*
X253986726Y-140933211D01*
X253975179Y-140921837D01*
X253860892Y-140864694D01*
X253838094Y-140861260D01*
X253816171Y-140854137D01*
X253473314Y-140854137D01*
X253451390Y-140861260D01*
X253428593Y-140864694D01*
X253314307Y-140921837D01*
X253302758Y-140933211D01*
X253288317Y-140940570D01*
X253231174Y-140997712D01*
X253223815Y-141012154D01*
X253212443Y-141023701D01*
X253155299Y-141137986D01*
X253151865Y-141160784D01*
X253144742Y-141182708D01*
X253144742Y-141411280D01*
X252574544Y-141411280D01*
X252574544Y-140455494D01*
X252745973Y-140455494D01*
X252749636Y-140462683D01*
X252749636Y-140470753D01*
X252754378Y-140477280D01*
X252755641Y-140485250D01*
X252766840Y-140496449D01*
X252774031Y-140510562D01*
X252831174Y-140567704D01*
X252845285Y-140574894D01*
X252856486Y-140586095D01*
X252872129Y-140588572D01*
X252886241Y-140595763D01*
X252901884Y-140593285D01*
X252917528Y-140595763D01*
X252931640Y-140588572D01*
X252947284Y-140586095D01*
X252958483Y-140574895D01*
X252972596Y-140567705D01*
X253029738Y-140510562D01*
X253036928Y-140496450D01*
X253048129Y-140485250D01*
X253049391Y-140477281D01*
X253054134Y-140470753D01*
X253149636Y-140470753D01*
X253185963Y-140520753D01*
X253244742Y-140539851D01*
X254044742Y-140539851D01*
X254103521Y-140520753D01*
X254139848Y-140470753D01*
X254139848Y-140408949D01*
X254103521Y-140358949D01*
X254044742Y-140339851D01*
X253244742Y-140339851D01*
X253185963Y-140358949D01*
X253149636Y-140408949D01*
X253149636Y-140470753D01*
X253054134Y-140470753D01*
X253054134Y-140462683D01*
X253057797Y-140455495D01*
X253055319Y-140439851D01*
X253057797Y-140424207D01*
X253054134Y-140417018D01*
X253054134Y-140408949D01*
X253049391Y-140402420D01*
X253048129Y-140394452D01*
X253036928Y-140383251D01*
X253029738Y-140369140D01*
X252972596Y-140311997D01*
X252958483Y-140304806D01*
X252947284Y-140293607D01*
X252931640Y-140291129D01*
X252917528Y-140283939D01*
X252901884Y-140286416D01*
X252886241Y-140283939D01*
X252872129Y-140291129D01*
X252856486Y-140293607D01*
X252845285Y-140304807D01*
X252831174Y-140311998D01*
X252774031Y-140369140D01*
X252766840Y-140383252D01*
X252755641Y-140394452D01*
X252754378Y-140402421D01*
X252749636Y-140408949D01*
X252749636Y-140417018D01*
X252745973Y-140424208D01*
X252748450Y-140439851D01*
X252745973Y-140455494D01*
X252574544Y-140455494D01*
X252574544Y-139162353D01*
X252746835Y-139162353D01*
X252749636Y-139187906D01*
X252749636Y-139213610D01*
X252752953Y-139218176D01*
X252753569Y-139223788D01*
X252770851Y-139242811D01*
X252785963Y-139263610D01*
X252791332Y-139265354D01*
X252795128Y-139269532D01*
X253668186Y-139768422D01*
X252844742Y-139768422D01*
X252785963Y-139787520D01*
X252749636Y-139837520D01*
X252749636Y-139899324D01*
X252785963Y-139949324D01*
X252844742Y-139968422D01*
X254044742Y-139968422D01*
X254050110Y-139966677D01*
X254055638Y-139967827D01*
X254079074Y-139957267D01*
X254103521Y-139949324D01*
X254106839Y-139944756D01*
X254111985Y-139942438D01*
X254124736Y-139920123D01*
X254139848Y-139899324D01*
X254139848Y-139893678D01*
X254142649Y-139888777D01*
X254139848Y-139863223D01*
X254139848Y-139837520D01*
X254136530Y-139832953D01*
X254135915Y-139827342D01*
X254118632Y-139808318D01*
X254103521Y-139787520D01*
X254098151Y-139785775D01*
X254094356Y-139781598D01*
X253221298Y-139282708D01*
X254044742Y-139282708D01*
X254103521Y-139263610D01*
X254139848Y-139213610D01*
X254139848Y-139151806D01*
X254103521Y-139101806D01*
X254044742Y-139082708D01*
X252844742Y-139082708D01*
X252839373Y-139084452D01*
X252833846Y-139083303D01*
X252810409Y-139093862D01*
X252785963Y-139101806D01*
X252782644Y-139106373D01*
X252777499Y-139108692D01*
X252764747Y-139131006D01*
X252749636Y-139151806D01*
X252749636Y-139157451D01*
X252746835Y-139162353D01*
X252574544Y-139162353D01*
X252574544Y-138911279D01*
X254316171Y-138911279D01*
X254316171Y-147911279D01*
G37*
D10*
X256716015Y-138329885D02*
X255716015Y-138329885D01*
X255716015Y-138329885D02*
X255716015Y-138710837D01*
X255716015Y-138710837D02*
X255763634Y-138806075D01*
X255763634Y-138806075D02*
X255811253Y-138853694D01*
X255811253Y-138853694D02*
X255906491Y-138901313D01*
X255906491Y-138901313D02*
X256049348Y-138901313D01*
X256049348Y-138901313D02*
X256144586Y-138853694D01*
X256144586Y-138853694D02*
X256192205Y-138806075D01*
X256192205Y-138806075D02*
X256239824Y-138710837D01*
X256239824Y-138710837D02*
X256239824Y-138329885D01*
X256716015Y-139472742D02*
X256668396Y-139377504D01*
X256668396Y-139377504D02*
X256573157Y-139329885D01*
X256573157Y-139329885D02*
X255716015Y-139329885D01*
X256716015Y-140282266D02*
X256192205Y-140282266D01*
X256192205Y-140282266D02*
X256096967Y-140234647D01*
X256096967Y-140234647D02*
X256049348Y-140139409D01*
X256049348Y-140139409D02*
X256049348Y-139948933D01*
X256049348Y-139948933D02*
X256096967Y-139853695D01*
X256668396Y-140282266D02*
X256716015Y-140187028D01*
X256716015Y-140187028D02*
X256716015Y-139948933D01*
X256716015Y-139948933D02*
X256668396Y-139853695D01*
X256668396Y-139853695D02*
X256573157Y-139806076D01*
X256573157Y-139806076D02*
X256477919Y-139806076D01*
X256477919Y-139806076D02*
X256382681Y-139853695D01*
X256382681Y-139853695D02*
X256335062Y-139948933D01*
X256335062Y-139948933D02*
X256335062Y-140187028D01*
X256335062Y-140187028D02*
X256287443Y-140282266D01*
X256668396Y-141187028D02*
X256716015Y-141091790D01*
X256716015Y-141091790D02*
X256716015Y-140901314D01*
X256716015Y-140901314D02*
X256668396Y-140806076D01*
X256668396Y-140806076D02*
X256620776Y-140758457D01*
X256620776Y-140758457D02*
X256525538Y-140710838D01*
X256525538Y-140710838D02*
X256239824Y-140710838D01*
X256239824Y-140710838D02*
X256144586Y-140758457D01*
X256144586Y-140758457D02*
X256096967Y-140806076D01*
X256096967Y-140806076D02*
X256049348Y-140901314D01*
X256049348Y-140901314D02*
X256049348Y-141091790D01*
X256049348Y-141091790D02*
X256096967Y-141187028D01*
X256668396Y-141996552D02*
X256716015Y-141901314D01*
X256716015Y-141901314D02*
X256716015Y-141710838D01*
X256716015Y-141710838D02*
X256668396Y-141615600D01*
X256668396Y-141615600D02*
X256573157Y-141567981D01*
X256573157Y-141567981D02*
X256192205Y-141567981D01*
X256192205Y-141567981D02*
X256096967Y-141615600D01*
X256096967Y-141615600D02*
X256049348Y-141710838D01*
X256049348Y-141710838D02*
X256049348Y-141901314D01*
X256049348Y-141901314D02*
X256096967Y-141996552D01*
X256096967Y-141996552D02*
X256192205Y-142044171D01*
X256192205Y-142044171D02*
X256287443Y-142044171D01*
X256287443Y-142044171D02*
X256382681Y-141567981D01*
X256049348Y-143091791D02*
X256049348Y-143472743D01*
X256716015Y-143234648D02*
X255858872Y-143234648D01*
X255858872Y-143234648D02*
X255763634Y-143282267D01*
X255763634Y-143282267D02*
X255716015Y-143377505D01*
X255716015Y-143377505D02*
X255716015Y-143472743D01*
X256716015Y-144234648D02*
X256192205Y-144234648D01*
X256192205Y-144234648D02*
X256096967Y-144187029D01*
X256096967Y-144187029D02*
X256049348Y-144091791D01*
X256049348Y-144091791D02*
X256049348Y-143901315D01*
X256049348Y-143901315D02*
X256096967Y-143806077D01*
X256668396Y-144234648D02*
X256716015Y-144139410D01*
X256716015Y-144139410D02*
X256716015Y-143901315D01*
X256716015Y-143901315D02*
X256668396Y-143806077D01*
X256668396Y-143806077D02*
X256573157Y-143758458D01*
X256573157Y-143758458D02*
X256477919Y-143758458D01*
X256477919Y-143758458D02*
X256382681Y-143806077D01*
X256382681Y-143806077D02*
X256335062Y-143901315D01*
X256335062Y-143901315D02*
X256335062Y-144139410D01*
X256335062Y-144139410D02*
X256287443Y-144234648D01*
X256668396Y-145139410D02*
X256716015Y-145044172D01*
X256716015Y-145044172D02*
X256716015Y-144853696D01*
X256716015Y-144853696D02*
X256668396Y-144758458D01*
X256668396Y-144758458D02*
X256620776Y-144710839D01*
X256620776Y-144710839D02*
X256525538Y-144663220D01*
X256525538Y-144663220D02*
X256239824Y-144663220D01*
X256239824Y-144663220D02*
X256144586Y-144710839D01*
X256144586Y-144710839D02*
X256096967Y-144758458D01*
X256096967Y-144758458D02*
X256049348Y-144853696D01*
X256049348Y-144853696D02*
X256049348Y-145044172D01*
X256049348Y-145044172D02*
X256096967Y-145139410D01*
X256668396Y-145948934D02*
X256716015Y-145853696D01*
X256716015Y-145853696D02*
X256716015Y-145663220D01*
X256716015Y-145663220D02*
X256668396Y-145567982D01*
X256668396Y-145567982D02*
X256573157Y-145520363D01*
X256573157Y-145520363D02*
X256192205Y-145520363D01*
X256192205Y-145520363D02*
X256096967Y-145567982D01*
X256096967Y-145567982D02*
X256049348Y-145663220D01*
X256049348Y-145663220D02*
X256049348Y-145853696D01*
X256049348Y-145853696D02*
X256096967Y-145948934D01*
X256096967Y-145948934D02*
X256192205Y-145996553D01*
X256192205Y-145996553D02*
X256287443Y-145996553D01*
X256287443Y-145996553D02*
X256382681Y-145520363D01*
X255716015Y-147187030D02*
X256525538Y-147187030D01*
X256525538Y-147187030D02*
X256620776Y-147234649D01*
X256620776Y-147234649D02*
X256668396Y-147282268D01*
X256668396Y-147282268D02*
X256716015Y-147377506D01*
X256716015Y-147377506D02*
X256716015Y-147567982D01*
X256716015Y-147567982D02*
X256668396Y-147663220D01*
X256668396Y-147663220D02*
X256620776Y-147710839D01*
X256620776Y-147710839D02*
X256525538Y-147758458D01*
X256525538Y-147758458D02*
X255716015Y-147758458D01*
X256049348Y-148234649D02*
X257049348Y-148234649D01*
X256096967Y-148234649D02*
X256049348Y-148329887D01*
X256049348Y-148329887D02*
X256049348Y-148520363D01*
X256049348Y-148520363D02*
X256096967Y-148615601D01*
X256096967Y-148615601D02*
X256144586Y-148663220D01*
X256144586Y-148663220D02*
X256239824Y-148710839D01*
X256239824Y-148710839D02*
X256525538Y-148710839D01*
X256525538Y-148710839D02*
X256620776Y-148663220D01*
X256620776Y-148663220D02*
X256668396Y-148615601D01*
X256668396Y-148615601D02*
X256716015Y-148520363D01*
X256716015Y-148520363D02*
X256716015Y-148329887D01*
X256716015Y-148329887D02*
X256668396Y-148234649D01*
X248056433Y-127067434D02*
X248665957Y-127067434D01*
X248361195Y-127372196D02*
X248361195Y-126762672D01*
X260656433Y-127067434D02*
X261265957Y-127067434D01*
G36*
X253954226Y-130532858D02*
G01*
X253973225Y-130570853D01*
X253973225Y-130614043D01*
X253743635Y-130568125D01*
X253761268Y-130532859D01*
X253799263Y-130513862D01*
X253916233Y-130513862D01*
X253954226Y-130532858D01*
G37*
G36*
X255489511Y-130538596D02*
G01*
X255510394Y-130559479D01*
X255535130Y-130608948D01*
X255535130Y-130802109D01*
X255510394Y-130851579D01*
X255489511Y-130872462D01*
X255440044Y-130897196D01*
X255361168Y-130897196D01*
X255311699Y-130872462D01*
X255290816Y-130851578D01*
X255266082Y-130802110D01*
X255266082Y-130608948D01*
X255290816Y-130559480D01*
X255311699Y-130538596D01*
X255361168Y-130513862D01*
X255440043Y-130513862D01*
X255489511Y-130538596D01*
G37*
G36*
X256297034Y-130516243D02*
G01*
X256084977Y-130516243D01*
X256035509Y-130491509D01*
X256014626Y-130470626D01*
X255989891Y-130421156D01*
X255989891Y-130342282D01*
X256014626Y-130292812D01*
X256035509Y-130271930D01*
X256084977Y-130247196D01*
X256297034Y-130247196D01*
X256297034Y-130516243D01*
G37*
G36*
X256561320Y-131161482D02*
G01*
X252907697Y-131161482D01*
X252907697Y-130425838D01*
X253021983Y-130425838D01*
X253030892Y-130476362D01*
X253070192Y-130509339D01*
X253095844Y-130513862D01*
X253154329Y-130513862D01*
X253203798Y-130538597D01*
X253224681Y-130559480D01*
X253249415Y-130608948D01*
X253249415Y-130972196D01*
X253266962Y-131020405D01*
X253311391Y-131046057D01*
X253361915Y-131037148D01*
X253394892Y-130997848D01*
X253399415Y-130972196D01*
X253399415Y-130629339D01*
X253592272Y-130629339D01*
X253596510Y-130640983D01*
X253596227Y-130653373D01*
X253605012Y-130664343D01*
X253609819Y-130677548D01*
X253620550Y-130683743D01*
X253628297Y-130693417D01*
X253652563Y-130702883D01*
X253973225Y-130767014D01*
X253973225Y-130840204D01*
X253954227Y-130878199D01*
X253916234Y-130897196D01*
X253799263Y-130897196D01*
X253738908Y-130867019D01*
X253687941Y-130861154D01*
X253645128Y-130889421D01*
X253630502Y-130938595D01*
X253650905Y-130985666D01*
X253671826Y-131001183D01*
X253748017Y-131039278D01*
X253752470Y-131039790D01*
X253755906Y-131042673D01*
X253781558Y-131047196D01*
X253933939Y-131047196D01*
X253938152Y-131045662D01*
X253942513Y-131046704D01*
X253967480Y-131039278D01*
X254043670Y-131001183D01*
X254051390Y-130993028D01*
X254061693Y-130988563D01*
X254077211Y-130967642D01*
X254115307Y-130891452D01*
X254115819Y-130886997D01*
X254118702Y-130883562D01*
X254123225Y-130857910D01*
X254123225Y-130553148D01*
X254121691Y-130548933D01*
X254122733Y-130544572D01*
X254115306Y-130519606D01*
X254077211Y-130443416D01*
X254069056Y-130435695D01*
X254068130Y-130433558D01*
X254240079Y-130433558D01*
X254242777Y-130459466D01*
X254395158Y-130992800D01*
X254396072Y-130994061D01*
X254396024Y-130995619D01*
X254411034Y-131014695D01*
X254425274Y-131034334D01*
X254426784Y-131034712D01*
X254427748Y-131035937D01*
X254451503Y-131040900D01*
X254475040Y-131046793D01*
X254476441Y-131046111D01*
X254477967Y-131046430D01*
X254499355Y-131034962D01*
X254521173Y-131024347D01*
X254521808Y-131022924D01*
X254523181Y-131022188D01*
X254536908Y-131000050D01*
X254619653Y-130793187D01*
X254702398Y-131000050D01*
X254703437Y-131001212D01*
X254703548Y-131002767D01*
X254720423Y-131020209D01*
X254736595Y-131038295D01*
X254738136Y-131038517D01*
X254739220Y-131039637D01*
X254763352Y-131042150D01*
X254787373Y-131045611D01*
X254788697Y-131044789D01*
X254790247Y-131044951D01*
X254810357Y-131031358D01*
X254830974Y-131018575D01*
X254831460Y-131017096D01*
X254832752Y-131016223D01*
X254844148Y-130992800D01*
X254893572Y-130819815D01*
X255116082Y-130819815D01*
X255117615Y-130824028D01*
X255116574Y-130828389D01*
X255124000Y-130853356D01*
X255162095Y-130929546D01*
X255163283Y-130930671D01*
X255176143Y-130949037D01*
X255214238Y-130987133D01*
X255215719Y-130987823D01*
X255233731Y-131001183D01*
X255309922Y-131039278D01*
X255314375Y-131039790D01*
X255317811Y-131042673D01*
X255343463Y-131047196D01*
X255457749Y-131047196D01*
X255461962Y-131045662D01*
X255466323Y-131046704D01*
X255491290Y-131039278D01*
X255567480Y-131001183D01*
X255568604Y-130999995D01*
X255586973Y-130987133D01*
X255625068Y-130949037D01*
X255625759Y-130947553D01*
X255639116Y-130929547D01*
X255677211Y-130853357D01*
X255677723Y-130848903D01*
X255680607Y-130845467D01*
X255685130Y-130819815D01*
X255685130Y-130591243D01*
X255683596Y-130587028D01*
X255684638Y-130582667D01*
X255677211Y-130557701D01*
X255639116Y-130481511D01*
X255637924Y-130480383D01*
X255625067Y-130462020D01*
X255601909Y-130438862D01*
X255839891Y-130438862D01*
X255841424Y-130443075D01*
X255840383Y-130447437D01*
X255847809Y-130472403D01*
X255885905Y-130548594D01*
X255887094Y-130549719D01*
X255899954Y-130568086D01*
X255938049Y-130606181D01*
X255939530Y-130606872D01*
X255957541Y-130620230D01*
X256033731Y-130658325D01*
X256038184Y-130658837D01*
X256041620Y-130661720D01*
X256067272Y-130666243D01*
X256297034Y-130666243D01*
X256297034Y-130972196D01*
X256314581Y-131020405D01*
X256359010Y-131046057D01*
X256409534Y-131037148D01*
X256442511Y-130997848D01*
X256447034Y-130972196D01*
X256447034Y-130172196D01*
X256440370Y-130153887D01*
X256436986Y-130134696D01*
X256431801Y-130130345D01*
X256429487Y-130123987D01*
X256412613Y-130114244D01*
X256397686Y-130101719D01*
X256387943Y-130100001D01*
X256385058Y-130098335D01*
X256381775Y-130098913D01*
X256372034Y-130097196D01*
X256067272Y-130097196D01*
X256063058Y-130098729D01*
X256058698Y-130097688D01*
X256033731Y-130105114D01*
X255957541Y-130143209D01*
X255956415Y-130144398D01*
X255938049Y-130157258D01*
X255899954Y-130195353D01*
X255899261Y-130196837D01*
X255885905Y-130214845D01*
X255847809Y-130291036D01*
X255847296Y-130295489D01*
X255844414Y-130298925D01*
X255839891Y-130324577D01*
X255839891Y-130438862D01*
X255601909Y-130438862D01*
X255586972Y-130423925D01*
X255585487Y-130423232D01*
X255567480Y-130409876D01*
X255491291Y-130371780D01*
X255486836Y-130371267D01*
X255483401Y-130368385D01*
X255457749Y-130363862D01*
X255343463Y-130363862D01*
X255339249Y-130365395D01*
X255334888Y-130364354D01*
X255309921Y-130371780D01*
X255233731Y-130409876D01*
X255232605Y-130411065D01*
X255214239Y-130423925D01*
X255176144Y-130462020D01*
X255175453Y-130463501D01*
X255162095Y-130481512D01*
X255124000Y-130557702D01*
X255123487Y-130562155D01*
X255120605Y-130565591D01*
X255116082Y-130591243D01*
X255116082Y-130819815D01*
X254893572Y-130819815D01*
X254996529Y-130459466D01*
X254992902Y-130408291D01*
X254957229Y-130371421D01*
X254906202Y-130366107D01*
X254863697Y-130394835D01*
X254852301Y-130418258D01*
X254760190Y-130740643D01*
X254689289Y-130563389D01*
X254673675Y-130545928D01*
X254659177Y-130527502D01*
X254656745Y-130526993D01*
X254655092Y-130525145D01*
X254631907Y-130521804D01*
X254608958Y-130517009D01*
X254606770Y-130518181D01*
X254604314Y-130517828D01*
X254584402Y-130530174D01*
X254563744Y-130541251D01*
X254561997Y-130544067D01*
X254560713Y-130544864D01*
X254559820Y-130547578D01*
X254550017Y-130563389D01*
X254479115Y-130740643D01*
X254387005Y-130418258D01*
X254356889Y-130376724D01*
X254307123Y-130364265D01*
X254260990Y-130386711D01*
X254240079Y-130433558D01*
X254068130Y-130433558D01*
X254064591Y-130425394D01*
X254043670Y-130409876D01*
X253967481Y-130371780D01*
X253963026Y-130371267D01*
X253959591Y-130368385D01*
X253933939Y-130363862D01*
X253781558Y-130363862D01*
X253777344Y-130365395D01*
X253772983Y-130364354D01*
X253748016Y-130371780D01*
X253671826Y-130409876D01*
X253664106Y-130418029D01*
X253653802Y-130422496D01*
X253638285Y-130443417D01*
X253600190Y-130519607D01*
X253599677Y-130524060D01*
X253596795Y-130527496D01*
X253592272Y-130553148D01*
X253592272Y-130629339D01*
X253399415Y-130629339D01*
X253399415Y-130438862D01*
X253381868Y-130390653D01*
X253337439Y-130365001D01*
X253286915Y-130373910D01*
X253264133Y-130401059D01*
X253205575Y-130371780D01*
X253201121Y-130371267D01*
X253197686Y-130368385D01*
X253172034Y-130363862D01*
X253095844Y-130363862D01*
X253047635Y-130381409D01*
X253021983Y-130425838D01*
X252907697Y-130425838D01*
X252907697Y-129982910D01*
X256561320Y-129982910D01*
X256561320Y-131161482D01*
G37*
G36*
X253954226Y-130532858D02*
G01*
X253973225Y-130570853D01*
X253973225Y-130614043D01*
X253743635Y-130568125D01*
X253761268Y-130532859D01*
X253799263Y-130513862D01*
X253916233Y-130513862D01*
X253954226Y-130532858D01*
G37*
G36*
X255489511Y-130538596D02*
G01*
X255510394Y-130559479D01*
X255535130Y-130608948D01*
X255535130Y-130802109D01*
X255510394Y-130851579D01*
X255489511Y-130872462D01*
X255440044Y-130897196D01*
X255361168Y-130897196D01*
X255311699Y-130872462D01*
X255290816Y-130851578D01*
X255266082Y-130802110D01*
X255266082Y-130608948D01*
X255290816Y-130559480D01*
X255311699Y-130538596D01*
X255361168Y-130513862D01*
X255440043Y-130513862D01*
X255489511Y-130538596D01*
G37*
G36*
X256297034Y-130516243D02*
G01*
X256084977Y-130516243D01*
X256035509Y-130491509D01*
X256014626Y-130470626D01*
X255989891Y-130421156D01*
X255989891Y-130342282D01*
X256014626Y-130292812D01*
X256035509Y-130271930D01*
X256084977Y-130247196D01*
X256297034Y-130247196D01*
X256297034Y-130516243D01*
G37*
G36*
X256561320Y-131161482D02*
G01*
X252907697Y-131161482D01*
X252907697Y-130425838D01*
X253021983Y-130425838D01*
X253030892Y-130476362D01*
X253070192Y-130509339D01*
X253095844Y-130513862D01*
X253154329Y-130513862D01*
X253203798Y-130538597D01*
X253224681Y-130559480D01*
X253249415Y-130608948D01*
X253249415Y-130972196D01*
X253266962Y-131020405D01*
X253311391Y-131046057D01*
X253361915Y-131037148D01*
X253394892Y-130997848D01*
X253399415Y-130972196D01*
X253399415Y-130629339D01*
X253592272Y-130629339D01*
X253596510Y-130640983D01*
X253596227Y-130653373D01*
X253605012Y-130664343D01*
X253609819Y-130677548D01*
X253620550Y-130683743D01*
X253628297Y-130693417D01*
X253652563Y-130702883D01*
X253973225Y-130767014D01*
X253973225Y-130840204D01*
X253954227Y-130878199D01*
X253916234Y-130897196D01*
X253799263Y-130897196D01*
X253738908Y-130867019D01*
X253687941Y-130861154D01*
X253645128Y-130889421D01*
X253630502Y-130938595D01*
X253650905Y-130985666D01*
X253671826Y-131001183D01*
X253748017Y-131039278D01*
X253752470Y-131039790D01*
X253755906Y-131042673D01*
X253781558Y-131047196D01*
X253933939Y-131047196D01*
X253938152Y-131045662D01*
X253942513Y-131046704D01*
X253967480Y-131039278D01*
X254043670Y-131001183D01*
X254051390Y-130993028D01*
X254061693Y-130988563D01*
X254077211Y-130967642D01*
X254115307Y-130891452D01*
X254115819Y-130886997D01*
X254118702Y-130883562D01*
X254123225Y-130857910D01*
X254123225Y-130553148D01*
X254121691Y-130548933D01*
X254122733Y-130544572D01*
X254115306Y-130519606D01*
X254077211Y-130443416D01*
X254069056Y-130435695D01*
X254068130Y-130433558D01*
X254240079Y-130433558D01*
X254242777Y-130459466D01*
X254395158Y-130992800D01*
X254396072Y-130994061D01*
X254396024Y-130995619D01*
X254411034Y-131014695D01*
X254425274Y-131034334D01*
X254426784Y-131034712D01*
X254427748Y-131035937D01*
X254451503Y-131040900D01*
X254475040Y-131046793D01*
X254476441Y-131046111D01*
X254477967Y-131046430D01*
X254499355Y-131034962D01*
X254521173Y-131024347D01*
X254521808Y-131022924D01*
X254523181Y-131022188D01*
X254536908Y-131000050D01*
X254619653Y-130793187D01*
X254702398Y-131000050D01*
X254703437Y-131001212D01*
X254703548Y-131002767D01*
X254720423Y-131020209D01*
X254736595Y-131038295D01*
X254738136Y-131038517D01*
X254739220Y-131039637D01*
X254763352Y-131042150D01*
X254787373Y-131045611D01*
X254788697Y-131044789D01*
X254790247Y-131044951D01*
X254810357Y-131031358D01*
X254830974Y-131018575D01*
X254831460Y-131017096D01*
X254832752Y-131016223D01*
X254844148Y-130992800D01*
X254893572Y-130819815D01*
X255116082Y-130819815D01*
X255117615Y-130824028D01*
X255116574Y-130828389D01*
X255124000Y-130853356D01*
X255162095Y-130929546D01*
X255163283Y-130930671D01*
X255176143Y-130949037D01*
X255214238Y-130987133D01*
X255215719Y-130987823D01*
X255233731Y-131001183D01*
X255309922Y-131039278D01*
X255314375Y-131039790D01*
X255317811Y-131042673D01*
X255343463Y-131047196D01*
X255457749Y-131047196D01*
X255461962Y-131045662D01*
X255466323Y-131046704D01*
X255491290Y-131039278D01*
X255567480Y-131001183D01*
X255568604Y-130999995D01*
X255586973Y-130987133D01*
X255625068Y-130949037D01*
X255625759Y-130947553D01*
X255639116Y-130929547D01*
X255677211Y-130853357D01*
X255677723Y-130848903D01*
X255680607Y-130845467D01*
X255685130Y-130819815D01*
X255685130Y-130591243D01*
X255683596Y-130587028D01*
X255684638Y-130582667D01*
X255677211Y-130557701D01*
X255639116Y-130481511D01*
X255637924Y-130480383D01*
X255625067Y-130462020D01*
X255601909Y-130438862D01*
X255839891Y-130438862D01*
X255841424Y-130443075D01*
X255840383Y-130447437D01*
X255847809Y-130472403D01*
X255885905Y-130548594D01*
X255887094Y-130549719D01*
X255899954Y-130568086D01*
X255938049Y-130606181D01*
X255939530Y-130606872D01*
X255957541Y-130620230D01*
X256033731Y-130658325D01*
X256038184Y-130658837D01*
X256041620Y-130661720D01*
X256067272Y-130666243D01*
X256297034Y-130666243D01*
X256297034Y-130972196D01*
X256314581Y-131020405D01*
X256359010Y-131046057D01*
X256409534Y-131037148D01*
X256442511Y-130997848D01*
X256447034Y-130972196D01*
X256447034Y-130172196D01*
X256440370Y-130153887D01*
X256436986Y-130134696D01*
X256431801Y-130130345D01*
X256429487Y-130123987D01*
X256412613Y-130114244D01*
X256397686Y-130101719D01*
X256387943Y-130100001D01*
X256385058Y-130098335D01*
X256381775Y-130098913D01*
X256372034Y-130097196D01*
X256067272Y-130097196D01*
X256063058Y-130098729D01*
X256058698Y-130097688D01*
X256033731Y-130105114D01*
X255957541Y-130143209D01*
X255956415Y-130144398D01*
X255938049Y-130157258D01*
X255899954Y-130195353D01*
X255899261Y-130196837D01*
X255885905Y-130214845D01*
X255847809Y-130291036D01*
X255847296Y-130295489D01*
X255844414Y-130298925D01*
X255839891Y-130324577D01*
X255839891Y-130438862D01*
X255601909Y-130438862D01*
X255586972Y-130423925D01*
X255585487Y-130423232D01*
X255567480Y-130409876D01*
X255491291Y-130371780D01*
X255486836Y-130371267D01*
X255483401Y-130368385D01*
X255457749Y-130363862D01*
X255343463Y-130363862D01*
X255339249Y-130365395D01*
X255334888Y-130364354D01*
X255309921Y-130371780D01*
X255233731Y-130409876D01*
X255232605Y-130411065D01*
X255214239Y-130423925D01*
X255176144Y-130462020D01*
X255175453Y-130463501D01*
X255162095Y-130481512D01*
X255124000Y-130557702D01*
X255123487Y-130562155D01*
X255120605Y-130565591D01*
X255116082Y-130591243D01*
X255116082Y-130819815D01*
X254893572Y-130819815D01*
X254996529Y-130459466D01*
X254992902Y-130408291D01*
X254957229Y-130371421D01*
X254906202Y-130366107D01*
X254863697Y-130394835D01*
X254852301Y-130418258D01*
X254760190Y-130740643D01*
X254689289Y-130563389D01*
X254673675Y-130545928D01*
X254659177Y-130527502D01*
X254656745Y-130526993D01*
X254655092Y-130525145D01*
X254631907Y-130521804D01*
X254608958Y-130517009D01*
X254606770Y-130518181D01*
X254604314Y-130517828D01*
X254584402Y-130530174D01*
X254563744Y-130541251D01*
X254561997Y-130544067D01*
X254560713Y-130544864D01*
X254559820Y-130547578D01*
X254550017Y-130563389D01*
X254479115Y-130740643D01*
X254387005Y-130418258D01*
X254356889Y-130376724D01*
X254307123Y-130364265D01*
X254260990Y-130386711D01*
X254240079Y-130433558D01*
X254068130Y-130433558D01*
X254064591Y-130425394D01*
X254043670Y-130409876D01*
X253967481Y-130371780D01*
X253963026Y-130371267D01*
X253959591Y-130368385D01*
X253933939Y-130363862D01*
X253781558Y-130363862D01*
X253777344Y-130365395D01*
X253772983Y-130364354D01*
X253748016Y-130371780D01*
X253671826Y-130409876D01*
X253664106Y-130418029D01*
X253653802Y-130422496D01*
X253638285Y-130443417D01*
X253600190Y-130519607D01*
X253599677Y-130524060D01*
X253596795Y-130527496D01*
X253592272Y-130553148D01*
X253592272Y-130629339D01*
X253399415Y-130629339D01*
X253399415Y-130438862D01*
X253381868Y-130390653D01*
X253337439Y-130365001D01*
X253286915Y-130373910D01*
X253264133Y-130401059D01*
X253205575Y-130371780D01*
X253201121Y-130371267D01*
X253197686Y-130368385D01*
X253172034Y-130363862D01*
X253095844Y-130363862D01*
X253047635Y-130381409D01*
X253021983Y-130425838D01*
X252907697Y-130425838D01*
X252907697Y-129982910D01*
X256561320Y-129982910D01*
X256561320Y-131161482D01*
G37*
G36*
X254021603Y-168422957D02*
G01*
X254040602Y-168460952D01*
X254040602Y-168504142D01*
X253811012Y-168458224D01*
X253828645Y-168422958D01*
X253866640Y-168403961D01*
X253983610Y-168403961D01*
X254021603Y-168422957D01*
G37*
G36*
X255354936Y-168422957D02*
G01*
X255373935Y-168460952D01*
X255373935Y-168504142D01*
X255144345Y-168458224D01*
X255161978Y-168422958D01*
X255199973Y-168403961D01*
X255316943Y-168403961D01*
X255354936Y-168422957D01*
G37*
G36*
X256135839Y-168406342D02*
G01*
X255923782Y-168406342D01*
X255874314Y-168381608D01*
X255853431Y-168360725D01*
X255828696Y-168311255D01*
X255828696Y-168232381D01*
X255853431Y-168182911D01*
X255874314Y-168162029D01*
X255923782Y-168137295D01*
X256135839Y-168137295D01*
X256135839Y-168406342D01*
G37*
G36*
X256400125Y-169051581D02*
G01*
X253013169Y-169051581D01*
X253013169Y-168849271D01*
X253127455Y-168849271D01*
X253136364Y-168899795D01*
X253175664Y-168932772D01*
X253201316Y-168937295D01*
X253277507Y-168937295D01*
X253281720Y-168935761D01*
X253286081Y-168936803D01*
X253311048Y-168929377D01*
X253387238Y-168891282D01*
X253394957Y-168883128D01*
X253405262Y-168878662D01*
X253420779Y-168857741D01*
X253458874Y-168781550D01*
X253459386Y-168777096D01*
X253462269Y-168773661D01*
X253466792Y-168748009D01*
X253466792Y-168519438D01*
X253659649Y-168519438D01*
X253663887Y-168531082D01*
X253663604Y-168543472D01*
X253672389Y-168554442D01*
X253677196Y-168567647D01*
X253687927Y-168573842D01*
X253695674Y-168583516D01*
X253719940Y-168592982D01*
X254040602Y-168657113D01*
X254040602Y-168730303D01*
X254021604Y-168768298D01*
X253983611Y-168787295D01*
X253866640Y-168787295D01*
X253806285Y-168757118D01*
X253755318Y-168751253D01*
X253712505Y-168779520D01*
X253697879Y-168828694D01*
X253718282Y-168875765D01*
X253739203Y-168891282D01*
X253815394Y-168929377D01*
X253819847Y-168929889D01*
X253823283Y-168932772D01*
X253848935Y-168937295D01*
X254001316Y-168937295D01*
X254005529Y-168935761D01*
X254009890Y-168936803D01*
X254034857Y-168929377D01*
X254111047Y-168891282D01*
X254118767Y-168883127D01*
X254129070Y-168878662D01*
X254144588Y-168857741D01*
X254182684Y-168781551D01*
X254183196Y-168777096D01*
X254186079Y-168773661D01*
X254190602Y-168748009D01*
X254345363Y-168748009D01*
X254346896Y-168752222D01*
X254345855Y-168756584D01*
X254353281Y-168781550D01*
X254391377Y-168857741D01*
X254399530Y-168865460D01*
X254403997Y-168875765D01*
X254424918Y-168891282D01*
X254501108Y-168929377D01*
X254505561Y-168929889D01*
X254508997Y-168932772D01*
X254534649Y-168937295D01*
X254687030Y-168937295D01*
X254691242Y-168935761D01*
X254695604Y-168936804D01*
X254720571Y-168929377D01*
X254796762Y-168891282D01*
X254832034Y-168854028D01*
X254835109Y-168802818D01*
X254804546Y-168761612D01*
X254754647Y-168749691D01*
X254729680Y-168757118D01*
X254669325Y-168787295D01*
X254552354Y-168787295D01*
X254514360Y-168768298D01*
X254495363Y-168730303D01*
X254495363Y-168727619D01*
X254514360Y-168689624D01*
X254552354Y-168670628D01*
X254648935Y-168670628D01*
X254653148Y-168669094D01*
X254657509Y-168670136D01*
X254682476Y-168662710D01*
X254758666Y-168624615D01*
X254766386Y-168616460D01*
X254776689Y-168611995D01*
X254792207Y-168591074D01*
X254828026Y-168519438D01*
X254992982Y-168519438D01*
X254997220Y-168531082D01*
X254996937Y-168543472D01*
X255005722Y-168554442D01*
X255010529Y-168567647D01*
X255021260Y-168573842D01*
X255029007Y-168583516D01*
X255053273Y-168592982D01*
X255373935Y-168657113D01*
X255373935Y-168730303D01*
X255354937Y-168768298D01*
X255316944Y-168787295D01*
X255199973Y-168787295D01*
X255139618Y-168757118D01*
X255088651Y-168751253D01*
X255045838Y-168779520D01*
X255031212Y-168828694D01*
X255051615Y-168875765D01*
X255072536Y-168891282D01*
X255148727Y-168929377D01*
X255153180Y-168929889D01*
X255156616Y-168932772D01*
X255182268Y-168937295D01*
X255334649Y-168937295D01*
X255338862Y-168935761D01*
X255343223Y-168936803D01*
X255368190Y-168929377D01*
X255444380Y-168891282D01*
X255452100Y-168883127D01*
X255462403Y-168878662D01*
X255477921Y-168857741D01*
X255516017Y-168781551D01*
X255516529Y-168777096D01*
X255519412Y-168773661D01*
X255523935Y-168748009D01*
X255523935Y-168443247D01*
X255522401Y-168439032D01*
X255523443Y-168434671D01*
X255516016Y-168409705D01*
X255477921Y-168333515D01*
X255473111Y-168328961D01*
X255678696Y-168328961D01*
X255680229Y-168333174D01*
X255679188Y-168337536D01*
X255686614Y-168362502D01*
X255724710Y-168438693D01*
X255725899Y-168439818D01*
X255738759Y-168458185D01*
X255776854Y-168496280D01*
X255778335Y-168496971D01*
X255796346Y-168510329D01*
X255872536Y-168548424D01*
X255876989Y-168548936D01*
X255879829Y-168551319D01*
X255692254Y-168819285D01*
X255678983Y-168868842D01*
X255700670Y-168915336D01*
X255747170Y-168937011D01*
X255796723Y-168923726D01*
X255815138Y-168905305D01*
X256059412Y-168556342D01*
X256135839Y-168556342D01*
X256135839Y-168862295D01*
X256153386Y-168910504D01*
X256197815Y-168936156D01*
X256248339Y-168927247D01*
X256281316Y-168887947D01*
X256285839Y-168862295D01*
X256285839Y-168062295D01*
X256279175Y-168043986D01*
X256275791Y-168024795D01*
X256270606Y-168020444D01*
X256268292Y-168014086D01*
X256251418Y-168004343D01*
X256236491Y-167991818D01*
X256226748Y-167990100D01*
X256223863Y-167988434D01*
X256220580Y-167989012D01*
X256210839Y-167987295D01*
X255906077Y-167987295D01*
X255901863Y-167988828D01*
X255897503Y-167987787D01*
X255872536Y-167995213D01*
X255796346Y-168033308D01*
X255795220Y-168034497D01*
X255776854Y-168047357D01*
X255738759Y-168085452D01*
X255738066Y-168086936D01*
X255724710Y-168104944D01*
X255686614Y-168181135D01*
X255686101Y-168185588D01*
X255683219Y-168189024D01*
X255678696Y-168214676D01*
X255678696Y-168328961D01*
X255473111Y-168328961D01*
X255469766Y-168325794D01*
X255465301Y-168315493D01*
X255444380Y-168299975D01*
X255368191Y-168261879D01*
X255363736Y-168261366D01*
X255360301Y-168258484D01*
X255334649Y-168253961D01*
X255182268Y-168253961D01*
X255178054Y-168255494D01*
X255173693Y-168254453D01*
X255148726Y-168261879D01*
X255072536Y-168299975D01*
X255064816Y-168308128D01*
X255054512Y-168312595D01*
X255038995Y-168333516D01*
X255000900Y-168409706D01*
X255000387Y-168414159D01*
X254997505Y-168417595D01*
X254992982Y-168443247D01*
X254992982Y-168519438D01*
X254828026Y-168519438D01*
X254830303Y-168514884D01*
X254830815Y-168510429D01*
X254833698Y-168506994D01*
X254838221Y-168481342D01*
X254838221Y-168443247D01*
X254836687Y-168439032D01*
X254837729Y-168434671D01*
X254830302Y-168409705D01*
X254792207Y-168333515D01*
X254784052Y-168325794D01*
X254779587Y-168315493D01*
X254758666Y-168299975D01*
X254682477Y-168261879D01*
X254678022Y-168261366D01*
X254674587Y-168258484D01*
X254648935Y-168253961D01*
X254534649Y-168253961D01*
X254530434Y-168255494D01*
X254526073Y-168254453D01*
X254501107Y-168261880D01*
X254424917Y-168299975D01*
X254389645Y-168337230D01*
X254386571Y-168388440D01*
X254417135Y-168429646D01*
X254467034Y-168441565D01*
X254492001Y-168434139D01*
X254552355Y-168403961D01*
X254631229Y-168403961D01*
X254669222Y-168422957D01*
X254688221Y-168460952D01*
X254688221Y-168463636D01*
X254669223Y-168501631D01*
X254631230Y-168520628D01*
X254534649Y-168520628D01*
X254530435Y-168522161D01*
X254526075Y-168521120D01*
X254501108Y-168528546D01*
X254424918Y-168566641D01*
X254417197Y-168574795D01*
X254406895Y-168579261D01*
X254391377Y-168600182D01*
X254353281Y-168676373D01*
X254352768Y-168680826D01*
X254349886Y-168684262D01*
X254345363Y-168709914D01*
X254345363Y-168748009D01*
X254190602Y-168748009D01*
X254190602Y-168443247D01*
X254189068Y-168439032D01*
X254190110Y-168434671D01*
X254182683Y-168409705D01*
X254144588Y-168333515D01*
X254136433Y-168325794D01*
X254131968Y-168315493D01*
X254111047Y-168299975D01*
X254034858Y-168261879D01*
X254030403Y-168261366D01*
X254026968Y-168258484D01*
X254001316Y-168253961D01*
X253848935Y-168253961D01*
X253844721Y-168255494D01*
X253840360Y-168254453D01*
X253815393Y-168261879D01*
X253739203Y-168299975D01*
X253731483Y-168308128D01*
X253721179Y-168312595D01*
X253705662Y-168333516D01*
X253667567Y-168409706D01*
X253667054Y-168414159D01*
X253664172Y-168417595D01*
X253659649Y-168443247D01*
X253659649Y-168519438D01*
X253466792Y-168519438D01*
X253466792Y-168403961D01*
X253506078Y-168403961D01*
X253554287Y-168386414D01*
X253579939Y-168341985D01*
X253571030Y-168291461D01*
X253531730Y-168258484D01*
X253506078Y-168253961D01*
X253466792Y-168253961D01*
X253466792Y-168062295D01*
X253449245Y-168014086D01*
X253404816Y-167988434D01*
X253354292Y-167997343D01*
X253321315Y-168036643D01*
X253316792Y-168062295D01*
X253316792Y-168253961D01*
X253201316Y-168253961D01*
X253153107Y-168271508D01*
X253127455Y-168315937D01*
X253136364Y-168366461D01*
X253175664Y-168399438D01*
X253201316Y-168403961D01*
X253316792Y-168403961D01*
X253316792Y-168730304D01*
X253297795Y-168768298D01*
X253259802Y-168787295D01*
X253201316Y-168787295D01*
X253153107Y-168804842D01*
X253127455Y-168849271D01*
X253013169Y-168849271D01*
X253013169Y-167873009D01*
X256400125Y-167873009D01*
X256400125Y-169051581D01*
G37*
D12*
%TO.C,D1*%
X162752059Y-169782652D02*
X163248332Y-169721717D01*
X162800806Y-170179670D02*
X162156531Y-169855773D01*
X162703311Y-169385633D02*
X162800806Y-170179670D01*
X162156531Y-169855773D02*
X162703311Y-169385633D01*
X162156531Y-169855773D02*
X162223559Y-170401674D01*
X162156531Y-169855773D02*
X162089503Y-169309873D01*
X161759512Y-169904521D02*
X162156531Y-169855773D01*
%TO.C,D2*%
X160680277Y-152909369D02*
X161176550Y-152848434D01*
X160729024Y-153306387D02*
X160084749Y-152982490D01*
X160631529Y-152512350D02*
X160729024Y-153306387D01*
X160084749Y-152982490D02*
X160631529Y-152512350D01*
X160084749Y-152982490D02*
X160151777Y-153528391D01*
X160084749Y-152982490D02*
X160017721Y-152436590D01*
X159687730Y-153031238D02*
X160084749Y-152982490D01*
%TO.C,D3*%
X158608505Y-136036083D02*
X159104778Y-135975148D01*
X158657252Y-136433101D02*
X158012977Y-136109204D01*
X158559757Y-135639064D02*
X158657252Y-136433101D01*
X158012977Y-136109204D02*
X158559757Y-135639064D01*
X158012977Y-136109204D02*
X158080005Y-136655105D01*
X158012977Y-136109204D02*
X157945949Y-135563304D01*
X157615958Y-136157952D02*
X158012977Y-136109204D01*
%TO.C,D4*%
X180411196Y-153509899D02*
X180911196Y-153509899D01*
X180411196Y-153909899D02*
X179811196Y-153509899D01*
X180411196Y-153109899D02*
X180411196Y-153909899D01*
X179811196Y-153509899D02*
X180411196Y-153109899D01*
X179811196Y-153509899D02*
X179811196Y-154059899D01*
X179811196Y-153509899D02*
X179811196Y-152959899D01*
X179411196Y-153509899D02*
X179811196Y-153509899D01*
%TO.C,D5*%
X180411195Y-136509900D02*
X180911195Y-136509900D01*
X180411195Y-136909900D02*
X179811195Y-136509900D01*
X180411195Y-136109900D02*
X180411195Y-136909900D01*
X179811195Y-136509900D02*
X180411195Y-136109900D01*
X179811195Y-136509900D02*
X179811195Y-137059900D01*
X179811195Y-136509900D02*
X179811195Y-135959900D01*
X179411195Y-136509900D02*
X179811195Y-136509900D01*
%TO.C,D6*%
X180411194Y-119509898D02*
X180911194Y-119509898D01*
X180411194Y-119909898D02*
X179811194Y-119509898D01*
X180411194Y-119109898D02*
X180411194Y-119909898D01*
X179811194Y-119509898D02*
X180411194Y-119109898D01*
X179811194Y-119509898D02*
X179811194Y-120059898D01*
X179811194Y-119509898D02*
X179811194Y-118959898D01*
X179411194Y-119509898D02*
X179811194Y-119509898D01*
%TO.C,D7*%
X198411197Y-145509899D02*
X198911197Y-145509899D01*
X198411197Y-145909899D02*
X197811197Y-145509899D01*
X198411197Y-145109899D02*
X198411197Y-145909899D01*
X197811197Y-145509899D02*
X198411197Y-145109899D01*
X197811197Y-145509899D02*
X197811197Y-146059899D01*
X197811197Y-145509899D02*
X197811197Y-144959899D01*
X197411197Y-145509899D02*
X197811197Y-145509899D01*
%TO.C,D8*%
X198411199Y-128509898D02*
X198911199Y-128509898D01*
X198411199Y-128909898D02*
X197811199Y-128509898D01*
X198411199Y-128109898D02*
X198411199Y-128909898D01*
X197811199Y-128509898D02*
X198411199Y-128109898D01*
X197811199Y-128509898D02*
X197811199Y-129059898D01*
X197811199Y-128509898D02*
X197811199Y-127959898D01*
X197411199Y-128509898D02*
X197811199Y-128509898D01*
%TO.C,D9*%
X198411198Y-111509900D02*
X198911198Y-111509900D01*
X198411198Y-111909900D02*
X197811198Y-111509900D01*
X198411198Y-111109900D02*
X198411198Y-111909900D01*
X197811198Y-111509900D02*
X198411198Y-111109900D01*
X197811198Y-111509900D02*
X197811198Y-112059900D01*
X197811198Y-111509900D02*
X197811198Y-110959900D01*
X197411198Y-111509900D02*
X197811198Y-111509900D01*
%TO.C,D10*%
X216411192Y-155509899D02*
X216911192Y-155509899D01*
X216411192Y-155909899D02*
X215811192Y-155509899D01*
X216411192Y-155109899D02*
X216411192Y-155909899D01*
X215811192Y-155509899D02*
X216411192Y-155109899D01*
X215811192Y-155509899D02*
X215811192Y-156059899D01*
X215811192Y-155509899D02*
X215811192Y-154959899D01*
X215411192Y-155509899D02*
X215811192Y-155509899D01*
%TO.C,D11*%
X216411196Y-138509903D02*
X216911196Y-138509903D01*
X216411196Y-138909903D02*
X215811196Y-138509903D01*
X216411196Y-138109903D02*
X216411196Y-138909903D01*
X215811196Y-138509903D02*
X216411196Y-138109903D01*
X215811196Y-138509903D02*
X215811196Y-139059903D01*
X215811196Y-138509903D02*
X215811196Y-137959903D01*
X215411196Y-138509903D02*
X215811196Y-138509903D01*
%TO.C,D12*%
X216411197Y-121509905D02*
X216911197Y-121509905D01*
X216411197Y-121909905D02*
X215811197Y-121509905D01*
X216411197Y-121109905D02*
X216411197Y-121909905D01*
X215811197Y-121509905D02*
X216411197Y-121109905D01*
X215811197Y-121509905D02*
X215811197Y-122059905D01*
X215811197Y-121509905D02*
X215811197Y-120959905D01*
X215411197Y-121509905D02*
X215811197Y-121509905D01*
%TO.C,D13*%
X234411195Y-158509898D02*
X234911195Y-158509898D01*
X234411195Y-158909898D02*
X233811195Y-158509898D01*
X234411195Y-158109898D02*
X234411195Y-158909898D01*
X233811195Y-158509898D02*
X234411195Y-158109898D01*
X233811195Y-158509898D02*
X233811195Y-159059898D01*
X233811195Y-158509898D02*
X233811195Y-157959898D01*
X233411195Y-158509898D02*
X233811195Y-158509898D01*
%TO.C,D14*%
X234411199Y-141509905D02*
X234911199Y-141509905D01*
X234411199Y-141909905D02*
X233811199Y-141509905D01*
X234411199Y-141109905D02*
X234411199Y-141909905D01*
X233811199Y-141509905D02*
X234411199Y-141109905D01*
X233811199Y-141509905D02*
X233811199Y-142059905D01*
X233811199Y-141509905D02*
X233811199Y-140959905D01*
X233411199Y-141509905D02*
X233811199Y-141509905D01*
%TO.C,D15*%
X234411195Y-124509901D02*
X234911195Y-124509901D01*
X234411195Y-124909901D02*
X233811195Y-124509901D01*
X234411195Y-124109901D02*
X234411195Y-124909901D01*
X233811195Y-124509901D02*
X234411195Y-124109901D01*
X233811195Y-124509901D02*
X233811195Y-125059901D01*
X233811195Y-124509901D02*
X233811195Y-123959901D01*
X233411195Y-124509901D02*
X233811195Y-124509901D01*
%TO.C,D16*%
X227367400Y-177938305D02*
X227850363Y-178067714D01*
X227263873Y-178324675D02*
X226787845Y-177783013D01*
X227470928Y-177551934D02*
X227263873Y-178324675D01*
X226787845Y-177783013D02*
X227470928Y-177551934D01*
X226787845Y-177783013D02*
X226645494Y-178314273D01*
X226787845Y-177783013D02*
X226930195Y-177251754D01*
X226401475Y-177679486D02*
X226787845Y-177783013D01*
%TO.C,D17*%
X246610695Y-185944145D02*
X247056198Y-186171140D01*
X246429098Y-186300547D02*
X246076091Y-185671750D01*
X246792291Y-185587742D02*
X246429098Y-186300547D01*
X246076091Y-185671750D02*
X246792291Y-185587742D01*
X246076091Y-185671750D02*
X245826396Y-186161804D01*
X246076091Y-185671750D02*
X246325785Y-185181697D01*
X245719688Y-185490154D02*
X246076091Y-185671750D01*
D10*
%TO.C,T1*%
X256611195Y-125659901D02*
X252711195Y-125659901D01*
X254661195Y-125659901D02*
X251361195Y-125659901D01*
X251361195Y-125659901D02*
X251361195Y-128509901D01*
X251361195Y-128509901D02*
X257961195Y-128509901D01*
X257961195Y-128509901D02*
X257961195Y-125659901D01*
X254661195Y-125659901D02*
X257961195Y-125659901D01*
%TD*%
D13*
%TO.C,MCU1*%
X247041196Y-129539899D03*
X247041196Y-132079899D03*
X247041196Y-134619899D03*
X247041196Y-137159899D03*
X247041196Y-139699899D03*
X247041196Y-142239899D03*
X247041196Y-144779899D03*
X247041196Y-147319899D03*
X247041196Y-149859899D03*
X247041196Y-152399899D03*
X247041196Y-154939899D03*
X247041196Y-157479899D03*
X262281196Y-129539899D03*
X262281196Y-132079899D03*
X262281196Y-134619899D03*
X262281196Y-137159899D03*
X262281196Y-139699899D03*
X262281196Y-142239899D03*
X262281196Y-144779899D03*
X262281196Y-147319899D03*
X262281196Y-149859899D03*
X262281196Y-152399899D03*
X262281196Y-154939899D03*
X262281196Y-157479899D03*
%TD*%
D14*
%TO.C,*%
X246911195Y-127009901D03*
D15*
X262411195Y-127009901D03*
%TD*%
M02*
