%TF.GenerationSoftware,KiCad,Pcbnew,7.0.11*%
%TF.CreationDate,2024-03-03T11:22:05+13:00*%
%TF.ProjectId,socius-choc-v1,736f6369-7573-42d6-9368-6f632d76312e,v1.0.0*%
%TF.SameCoordinates,Original*%
%TF.FileFunction,Paste,Bot*%
%TF.FilePolarity,Positive*%
%FSLAX46Y46*%
G04 Gerber Fmt 4.6, Leading zero omitted, Abs format (unit mm)*
G04 Created by KiCad (PCBNEW 7.0.11) date 2024-03-03 11:22:05*
%MOMM*%
%LPD*%
G01*
G04 APERTURE LIST*
G04 Aperture macros list*
%AMRotRect*
0 Rectangle, with rotation*
0 The origin of the aperture is its center*
0 $1 length*
0 $2 width*
0 $3 Rotation angle, in degrees counterclockwise*
0 Add horizontal line*
21,1,$1,$2,0,0,$3*%
G04 Aperture macros list end*
%ADD10R,2.600000X2.600000*%
%ADD11RotRect,2.600000X2.600000X7.000000*%
%ADD12RotRect,2.600000X2.600000X345.000000*%
%ADD13RotRect,2.600000X2.600000X333.000000*%
%ADD14RotRect,0.900000X1.200000X7.000000*%
%ADD15R,0.900000X1.200000*%
%ADD16RotRect,0.900000X1.200000X345.000000*%
%ADD17RotRect,0.900000X1.200000X333.000000*%
%ADD18R,0.900000X0.900000*%
%ADD19R,0.900000X1.250000*%
%ADD20R,0.900000X1.700000*%
G04 APERTURE END LIST*
D10*
%TO.C,S14*%
X230886190Y-131559898D03*
X242436190Y-133759898D03*
%TD*%
D11*
%TO.C,S1*%
X158040731Y-160336402D03*
X169772751Y-161112413D03*
%TD*%
%TO.C,S2*%
X155968956Y-143463116D03*
X167700976Y-144239127D03*
%TD*%
%TO.C,S3*%
X153897178Y-126589834D03*
X165629198Y-127365845D03*
%TD*%
D10*
%TO.C,S4*%
X176886196Y-143559899D03*
X188436196Y-145759899D03*
%TD*%
%TO.C,S5*%
X176886198Y-126559899D03*
X188436198Y-128759899D03*
%TD*%
%TO.C,S6*%
X176886202Y-109559899D03*
X188436202Y-111759899D03*
%TD*%
%TO.C,S7*%
X194886198Y-135559898D03*
X206436198Y-137759898D03*
%TD*%
%TO.C,S8*%
X194886195Y-118559895D03*
X206436195Y-120759895D03*
%TD*%
%TO.C,S9*%
X194886196Y-101559897D03*
X206436196Y-103759897D03*
%TD*%
%TO.C,S10*%
X212886199Y-145559903D03*
X224436199Y-147759903D03*
%TD*%
%TO.C,S11*%
X212886199Y-128559900D03*
X224436199Y-130759900D03*
%TD*%
%TO.C,S12*%
X212886192Y-111559901D03*
X224436192Y-113759901D03*
%TD*%
%TO.C,S13*%
X230886196Y-148559900D03*
X242436196Y-150759900D03*
%TD*%
%TO.C,S15*%
X230886201Y-114559898D03*
X242436201Y-116759898D03*
%TD*%
D12*
%TO.C,S16*%
X226537762Y-167415010D03*
X237124804Y-172529407D03*
%TD*%
D13*
%TO.C,S17*%
X247987102Y-175478314D03*
X257279448Y-182682119D03*
%TD*%
D14*
%TO.C,D1*%
X164141623Y-169612035D03*
X160866221Y-170014203D03*
%TD*%
%TO.C,D2*%
X162069841Y-152738752D03*
X158794439Y-153140920D03*
%TD*%
%TO.C,D3*%
X159998069Y-135865466D03*
X156722667Y-136267634D03*
%TD*%
D15*
%TO.C,D4*%
X181811196Y-153509899D03*
X178511196Y-153509899D03*
%TD*%
%TO.C,D5*%
X181811195Y-136509900D03*
X178511195Y-136509900D03*
%TD*%
%TO.C,D6*%
X181811194Y-119509898D03*
X178511194Y-119509898D03*
%TD*%
%TO.C,D7*%
X199811197Y-145509899D03*
X196511197Y-145509899D03*
%TD*%
%TO.C,D8*%
X199811199Y-128509898D03*
X196511199Y-128509898D03*
%TD*%
%TO.C,D9*%
X199811198Y-111509900D03*
X196511198Y-111509900D03*
%TD*%
%TO.C,D10*%
X217811192Y-155509899D03*
X214511192Y-155509899D03*
%TD*%
%TO.C,D11*%
X217811196Y-138509903D03*
X214511196Y-138509903D03*
%TD*%
%TO.C,D12*%
X217811197Y-121509905D03*
X214511197Y-121509905D03*
%TD*%
%TO.C,D13*%
X235811195Y-158509898D03*
X232511195Y-158509898D03*
%TD*%
%TO.C,D14*%
X235811199Y-141509905D03*
X232511199Y-141509905D03*
%TD*%
%TO.C,D15*%
X235811195Y-124509901D03*
X232511195Y-124509901D03*
%TD*%
D16*
%TO.C,D16*%
X228719697Y-178300651D03*
X225532141Y-177446549D03*
%TD*%
D17*
%TO.C,D17*%
X247858104Y-186579731D03*
X244917782Y-185081563D03*
%TD*%
D18*
%TO.C,T1*%
X258361195Y-125909901D03*
X258361195Y-128109901D03*
X250961195Y-128109901D03*
X250961195Y-125909901D03*
D19*
X252411195Y-129084901D03*
X255411195Y-129084901D03*
X256911195Y-129084901D03*
%TD*%
D20*
%TO.C,*%
X256361199Y-165509899D03*
X252961199Y-165509899D03*
%TD*%
M02*
