%TF.GenerationSoftware,KiCad,Pcbnew,7.0.11*%
%TF.CreationDate,2024-03-03T11:22:05+13:00*%
%TF.ProjectId,socius-choc-v1,736f6369-7573-42d6-9368-6f632d76312e,v1.0.0*%
%TF.SameCoordinates,Original*%
%TF.FileFunction,Copper,L2,Bot*%
%TF.FilePolarity,Positive*%
%FSLAX46Y46*%
G04 Gerber Fmt 4.6, Leading zero omitted, Abs format (unit mm)*
G04 Created by KiCad (PCBNEW 7.0.11) date 2024-03-03 11:22:05*
%MOMM*%
%LPD*%
G01*
G04 APERTURE LIST*
G04 Aperture macros list*
%AMRotRect*
0 Rectangle, with rotation*
0 The origin of the aperture is its center*
0 $1 length*
0 $2 width*
0 $3 Rotation angle, in degrees counterclockwise*
0 Add horizontal line*
21,1,$1,$2,0,0,$3*%
G04 Aperture macros list end*
%TA.AperFunction,SMDPad,CuDef*%
%ADD10R,2.600000X2.600000*%
%TD*%
%TA.AperFunction,SMDPad,CuDef*%
%ADD11RotRect,2.600000X2.600000X7.000000*%
%TD*%
%TA.AperFunction,SMDPad,CuDef*%
%ADD12RotRect,2.600000X2.600000X345.000000*%
%TD*%
%TA.AperFunction,SMDPad,CuDef*%
%ADD13RotRect,2.600000X2.600000X333.000000*%
%TD*%
%TA.AperFunction,SMDPad,CuDef*%
%ADD14RotRect,0.900000X1.200000X7.000000*%
%TD*%
%TA.AperFunction,SMDPad,CuDef*%
%ADD15R,0.900000X1.200000*%
%TD*%
%TA.AperFunction,SMDPad,CuDef*%
%ADD16RotRect,0.900000X1.200000X345.000000*%
%TD*%
%TA.AperFunction,SMDPad,CuDef*%
%ADD17RotRect,0.900000X1.200000X333.000000*%
%TD*%
%TA.AperFunction,ComponentPad*%
%ADD18C,0.600000*%
%TD*%
%TA.AperFunction,ComponentPad*%
%ADD19C,1.752600*%
%TD*%
%TA.AperFunction,ComponentPad*%
%ADD20R,1.752600X1.752600*%
%TD*%
%TA.AperFunction,ComponentPad*%
%ADD21R,1.400000X1.400000*%
%TD*%
%TA.AperFunction,ComponentPad*%
%ADD22C,1.400000*%
%TD*%
%TA.AperFunction,WasherPad*%
%ADD23C,1.000000*%
%TD*%
%TA.AperFunction,SMDPad,CuDef*%
%ADD24R,0.900000X0.900000*%
%TD*%
%TA.AperFunction,SMDPad,CuDef*%
%ADD25R,0.900000X1.250000*%
%TD*%
%TA.AperFunction,SMDPad,CuDef*%
%ADD26R,0.900000X1.700000*%
%TD*%
%TA.AperFunction,Conductor*%
%ADD27C,0.250000*%
%TD*%
G04 APERTURE END LIST*
D10*
%TO.P,S14,1*%
%TO.N,COL4*%
X230886190Y-131559898D03*
%TO.P,S14,2*%
%TO.N,inner_home*%
X242436190Y-133759898D03*
%TD*%
D11*
%TO.P,S1,1*%
%TO.N,COL0*%
X158040731Y-160336402D03*
%TO.P,S1,2*%
%TO.N,pinky_bottom*%
X169772751Y-161112413D03*
%TD*%
%TO.P,S2,1*%
%TO.N,COL0*%
X155968956Y-143463116D03*
%TO.P,S2,2*%
%TO.N,pinky_home*%
X167700976Y-144239127D03*
%TD*%
%TO.P,S3,1*%
%TO.N,COL0*%
X153897178Y-126589834D03*
%TO.P,S3,2*%
%TO.N,pinky_top*%
X165629198Y-127365845D03*
%TD*%
D10*
%TO.P,S4,1*%
%TO.N,COL1*%
X176886196Y-143559899D03*
%TO.P,S4,2*%
%TO.N,ring_bottom*%
X188436196Y-145759899D03*
%TD*%
%TO.P,S5,1*%
%TO.N,COL1*%
X176886198Y-126559899D03*
%TO.P,S5,2*%
%TO.N,ring_home*%
X188436198Y-128759899D03*
%TD*%
%TO.P,S6,1*%
%TO.N,COL1*%
X176886202Y-109559899D03*
%TO.P,S6,2*%
%TO.N,ring_top*%
X188436202Y-111759899D03*
%TD*%
%TO.P,S7,1*%
%TO.N,COL2*%
X194886198Y-135559898D03*
%TO.P,S7,2*%
%TO.N,middle_bottom*%
X206436198Y-137759898D03*
%TD*%
%TO.P,S8,1*%
%TO.N,COL2*%
X194886195Y-118559895D03*
%TO.P,S8,2*%
%TO.N,middle_home*%
X206436195Y-120759895D03*
%TD*%
%TO.P,S9,1*%
%TO.N,COL2*%
X194886196Y-101559897D03*
%TO.P,S9,2*%
%TO.N,middle_top*%
X206436196Y-103759897D03*
%TD*%
%TO.P,S10,1*%
%TO.N,COL3*%
X212886199Y-145559903D03*
%TO.P,S10,2*%
%TO.N,index_bottom*%
X224436199Y-147759903D03*
%TD*%
%TO.P,S11,1*%
%TO.N,COL3*%
X212886199Y-128559900D03*
%TO.P,S11,2*%
%TO.N,index_home*%
X224436199Y-130759900D03*
%TD*%
%TO.P,S12,1*%
%TO.N,COL3*%
X212886192Y-111559901D03*
%TO.P,S12,2*%
%TO.N,index_top*%
X224436192Y-113759901D03*
%TD*%
%TO.P,S13,1*%
%TO.N,COL4*%
X230886196Y-148559900D03*
%TO.P,S13,2*%
%TO.N,inner_bottom*%
X242436196Y-150759900D03*
%TD*%
%TO.P,S15,1*%
%TO.N,COL4*%
X230886201Y-114559898D03*
%TO.P,S15,2*%
%TO.N,inner_top*%
X242436201Y-116759898D03*
%TD*%
D12*
%TO.P,S16,1*%
%TO.N,COL3*%
X226537762Y-167415010D03*
%TO.P,S16,2*%
%TO.N,inner_sole*%
X237124804Y-172529407D03*
%TD*%
D13*
%TO.P,S17,1*%
%TO.N,COL4*%
X247987102Y-175478314D03*
%TO.P,S17,2*%
%TO.N,outer_sole*%
X257279448Y-182682119D03*
%TD*%
D14*
%TO.P,D1,2*%
%TO.N,pinky_bottom*%
X164141623Y-169612035D03*
%TO.P,D1,1*%
%TO.N,ROW2*%
X160866221Y-170014203D03*
%TD*%
%TO.P,D2,2*%
%TO.N,pinky_home*%
X162069841Y-152738752D03*
%TO.P,D2,1*%
%TO.N,ROW1*%
X158794439Y-153140920D03*
%TD*%
%TO.P,D3,2*%
%TO.N,pinky_top*%
X159998069Y-135865466D03*
%TO.P,D3,1*%
%TO.N,ROW0*%
X156722667Y-136267634D03*
%TD*%
D15*
%TO.P,D4,2*%
%TO.N,ring_bottom*%
X181811196Y-153509899D03*
%TO.P,D4,1*%
%TO.N,ROW2*%
X178511196Y-153509899D03*
%TD*%
%TO.P,D5,2*%
%TO.N,ring_home*%
X181811195Y-136509900D03*
%TO.P,D5,1*%
%TO.N,ROW1*%
X178511195Y-136509900D03*
%TD*%
%TO.P,D6,2*%
%TO.N,ring_top*%
X181811194Y-119509898D03*
%TO.P,D6,1*%
%TO.N,ROW0*%
X178511194Y-119509898D03*
%TD*%
%TO.P,D7,2*%
%TO.N,middle_bottom*%
X199811197Y-145509899D03*
%TO.P,D7,1*%
%TO.N,ROW2*%
X196511197Y-145509899D03*
%TD*%
%TO.P,D8,2*%
%TO.N,middle_home*%
X199811199Y-128509898D03*
%TO.P,D8,1*%
%TO.N,ROW1*%
X196511199Y-128509898D03*
%TD*%
%TO.P,D9,2*%
%TO.N,middle_top*%
X199811198Y-111509900D03*
%TO.P,D9,1*%
%TO.N,ROW0*%
X196511198Y-111509900D03*
%TD*%
%TO.P,D10,2*%
%TO.N,index_bottom*%
X217811192Y-155509899D03*
%TO.P,D10,1*%
%TO.N,ROW2*%
X214511192Y-155509899D03*
%TD*%
%TO.P,D11,2*%
%TO.N,index_home*%
X217811196Y-138509903D03*
%TO.P,D11,1*%
%TO.N,ROW1*%
X214511196Y-138509903D03*
%TD*%
%TO.P,D12,2*%
%TO.N,index_top*%
X217811197Y-121509905D03*
%TO.P,D12,1*%
%TO.N,ROW0*%
X214511197Y-121509905D03*
%TD*%
%TO.P,D13,2*%
%TO.N,inner_bottom*%
X235811195Y-158509898D03*
%TO.P,D13,1*%
%TO.N,ROW2*%
X232511195Y-158509898D03*
%TD*%
%TO.P,D14,2*%
%TO.N,inner_home*%
X235811199Y-141509905D03*
%TO.P,D14,1*%
%TO.N,ROW1*%
X232511199Y-141509905D03*
%TD*%
%TO.P,D15,2*%
%TO.N,inner_top*%
X235811195Y-124509901D03*
%TO.P,D15,1*%
%TO.N,ROW0*%
X232511195Y-124509901D03*
%TD*%
D16*
%TO.P,D16,2*%
%TO.N,inner_sole*%
X228719697Y-178300651D03*
%TO.P,D16,1*%
%TO.N,ROW3*%
X225532141Y-177446549D03*
%TD*%
D17*
%TO.P,D17,2*%
%TO.N,outer_sole*%
X247858104Y-186579731D03*
%TO.P,D17,1*%
%TO.N,ROW3*%
X244917782Y-185081563D03*
%TD*%
D18*
%TO.P,REF\u002A\u002A,1*%
%TO.N,ROW2*%
X176161194Y-153509900D03*
%TD*%
%TO.P,REF\u002A\u002A,1*%
%TO.N,ROW1*%
X176161195Y-136509903D03*
%TD*%
%TO.P,REF\u002A\u002A,1*%
%TO.N,ROW0*%
X176161195Y-119509897D03*
%TD*%
%TO.P,REF\u002A\u002A,1*%
%TO.N,ROW2*%
X194161197Y-145509901D03*
%TD*%
%TO.P,REF\u002A\u002A,1*%
%TO.N,ROW1*%
X194161196Y-128509902D03*
%TD*%
%TO.P,REF\u002A\u002A,1*%
%TO.N,ROW0*%
X194161199Y-111509900D03*
%TD*%
%TO.P,REF\u002A\u002A,1*%
%TO.N,ROW2*%
X212161194Y-155509901D03*
%TD*%
%TO.P,REF\u002A\u002A,1*%
%TO.N,ROW1*%
X212161192Y-138509898D03*
%TD*%
%TO.P,REF\u002A\u002A,1*%
%TO.N,ROW0*%
X212161194Y-121509895D03*
%TD*%
%TO.P,REF\u002A\u002A,1*%
%TO.N,ROW2*%
X230161201Y-158509896D03*
%TD*%
%TO.P,REF\u002A\u002A,1*%
%TO.N,ROW1*%
X230161198Y-141509896D03*
%TD*%
%TO.P,REF\u002A\u002A,1*%
%TO.N,ROW0*%
X230161197Y-124509901D03*
%TD*%
%TO.P,REF\u002A\u002A,1*%
%TO.N,ROW3*%
X242823918Y-184014683D03*
%TD*%
%TO.P,REF\u002A\u002A,1*%
%TO.N,COL0*%
X158596552Y-164247818D03*
%TD*%
%TO.P,REF\u002A\u002A,1*%
%TO.N,COL0*%
X156524777Y-147374536D03*
%TD*%
%TO.P,REF\u002A\u002A,1*%
%TO.N,COL0*%
X154453000Y-130501253D03*
%TD*%
%TO.P,REF\u002A\u002A,1*%
%TO.N,COL1*%
X176961198Y-147509900D03*
%TD*%
%TO.P,REF\u002A\u002A,1*%
%TO.N,COL1*%
X176961199Y-130509902D03*
%TD*%
%TO.P,REF\u002A\u002A,1*%
%TO.N,COL1*%
X176961196Y-113509900D03*
%TD*%
%TO.P,REF\u002A\u002A,1*%
%TO.N,COL2*%
X194961200Y-139509899D03*
%TD*%
%TO.P,REF\u002A\u002A,1*%
%TO.N,COL2*%
X194961197Y-122509894D03*
%TD*%
%TO.P,REF\u002A\u002A,1*%
%TO.N,COL2*%
X194961192Y-105509895D03*
%TD*%
%TO.P,REF\u002A\u002A,1*%
%TO.N,COL3*%
X212961197Y-149509902D03*
%TD*%
%TO.P,REF\u002A\u002A,1*%
%TO.N,COL3*%
X212961199Y-132509903D03*
%TD*%
%TO.P,REF\u002A\u002A,1*%
%TO.N,COL3*%
X212961196Y-115509902D03*
%TD*%
%TO.P,REF\u002A\u002A,1*%
%TO.N,COL4*%
X230961195Y-152509903D03*
%TD*%
%TO.P,REF\u002A\u002A,1*%
%TO.N,COL4*%
X230961194Y-135509902D03*
%TD*%
%TO.P,REF\u002A\u002A,1*%
%TO.N,COL4*%
X230961195Y-118509900D03*
%TD*%
%TO.P,REF\u002A\u002A,1*%
%TO.N,COL3*%
X225587874Y-171249825D03*
%TD*%
%TO.P,REF\u002A\u002A,1*%
%TO.N,COL4*%
X246260662Y-179031834D03*
%TD*%
D19*
%TO.P,MCU1,1*%
%TO.N,RAW*%
X247041196Y-129539899D03*
%TO.P,MCU1,2*%
%TO.N,GND*%
X247041196Y-132079899D03*
%TO.P,MCU1,3*%
%TO.N,RST*%
X247041196Y-134619899D03*
%TO.P,MCU1,4*%
%TO.N,VCC*%
X247041196Y-137159899D03*
%TO.P,MCU1,5*%
%TO.N,P21*%
X247041196Y-139699899D03*
%TO.P,MCU1,6*%
%TO.N,P20*%
X247041196Y-142239899D03*
%TO.P,MCU1,7*%
%TO.N,P19*%
X247041196Y-144779899D03*
%TO.P,MCU1,8*%
%TO.N,COL0*%
X247041196Y-147319899D03*
%TO.P,MCU1,9*%
%TO.N,COL1*%
X247041196Y-149859899D03*
%TO.P,MCU1,10*%
%TO.N,COL2*%
X247041196Y-152399899D03*
%TO.P,MCU1,11*%
%TO.N,COL3*%
X247041196Y-154939899D03*
%TO.P,MCU1,12*%
%TO.N,COL4*%
X247041196Y-157479899D03*
%TO.P,MCU1,13*%
%TO.N,CS*%
X262281196Y-129539899D03*
%TO.P,MCU1,14*%
%TO.N,P0*%
X262281196Y-132079899D03*
%TO.P,MCU1,15*%
%TO.N,GND*%
X262281196Y-134619899D03*
%TO.P,MCU1,16*%
X262281196Y-137159899D03*
%TO.P,MCU1,17*%
%TO.N,MOSI*%
X262281196Y-139699899D03*
%TO.P,MCU1,18*%
%TO.N,SCK*%
X262281196Y-142239899D03*
%TO.P,MCU1,19*%
%TO.N,P4*%
X262281196Y-144779899D03*
%TO.P,MCU1,20*%
%TO.N,P5*%
X262281196Y-147319899D03*
%TO.P,MCU1,21*%
%TO.N,ROW0*%
X262281196Y-149859899D03*
%TO.P,MCU1,22*%
%TO.N,ROW1*%
X262281196Y-152399899D03*
%TO.P,MCU1,23*%
%TO.N,ROW2*%
X262281196Y-154939899D03*
%TO.P,MCU1,24*%
%TO.N,ROW3*%
X262281196Y-157479899D03*
D20*
%TO.P,MCU1,*%
%TO.N,CS*%
X262281196Y-129539899D03*
%TD*%
D21*
%TO.P,,1*%
%TO.N,POSITIVE*%
X246911195Y-127009901D03*
D22*
%TO.P,,2*%
%TO.N,GND*%
X262411195Y-127009901D03*
%TD*%
D23*
%TO.P,T1,*%
%TO.N,*%
X256161195Y-127009901D03*
X253161195Y-127009901D03*
D24*
X258361195Y-125909901D03*
X258361195Y-128109901D03*
X250961195Y-128109901D03*
X250961195Y-125909901D03*
D25*
%TO.P,T1,1*%
%TO.N,RAW*%
X252411195Y-129084901D03*
%TO.P,T1,2*%
%TO.N,POSITIVE*%
X255411195Y-129084901D03*
%TO.P,T1,3*%
%TO.N,N/C*%
X256911195Y-129084901D03*
%TD*%
D26*
%TO.P,,1*%
%TO.N,GND*%
X256361199Y-165509899D03*
%TO.P,,2*%
%TO.N,RST*%
X252961199Y-165509899D03*
%TD*%
D18*
%TO.P,REF\u002A\u002A,1*%
%TO.N,GND*%
X260461201Y-133309900D03*
%TD*%
%TO.P,REF\u002A\u002A,1*%
%TO.N,GND*%
X257261195Y-133309900D03*
%TD*%
%TO.P,REF\u002A\u002A,1*%
%TO.N,ROW0*%
X258961194Y-130989899D03*
%TD*%
%TO.P,REF\u002A\u002A,1*%
%TO.N,ROW0*%
X258961199Y-149809902D03*
%TD*%
%TO.P,REF\u002A\u002A,1*%
%TO.N,CS*%
X259661199Y-129509903D03*
%TD*%
%TO.P,REF\u002A\u002A,1*%
%TO.N,RAW*%
X251361197Y-129509901D03*
%TD*%
%TO.P,REF\u002A\u002A,1*%
%TO.N,VCC*%
X254661197Y-137209898D03*
%TD*%
%TO.P,REF\u002A\u002A,1*%
%TO.N,ROW1*%
X260461200Y-140909898D03*
%TD*%
%TO.P,REF\u002A\u002A,1*%
%TO.N,RST*%
X248261196Y-165509897D03*
%TD*%
D27*
%TO.N,ROW3*%
X258000000Y-161761095D02*
X258000000Y-166500000D01*
X262281196Y-157479899D02*
X258000000Y-161761095D01*
X246050264Y-173404818D02*
X242077469Y-177377613D01*
X258000000Y-166500000D02*
X251095182Y-173404818D01*
X251095182Y-173404818D02*
X246050264Y-173404818D01*
X242077469Y-177377613D02*
X242077469Y-183268234D01*
X242077469Y-183268234D02*
X242823918Y-184014683D01*
%TO.N,ROW2*%
X262281196Y-154939899D02*
X257136199Y-160084896D01*
X257136199Y-166684899D02*
X240686196Y-166684899D01*
X257136199Y-160084896D02*
X257136199Y-166684899D01*
X240686196Y-166684899D02*
X232511195Y-158509898D01*
%TO.N,ROW0*%
X258961194Y-130989899D02*
X258849894Y-130878599D01*
X258849894Y-130878599D02*
X238879893Y-130878599D01*
X238879893Y-130878599D02*
X232511195Y-124509901D01*
%TO.N,ROW1*%
X262281196Y-152399899D02*
X260461200Y-150579903D01*
X260461200Y-150579903D02*
X260461200Y-140909898D01*
%TO.N,GND*%
X262281196Y-134619899D02*
X262281196Y-137159899D01*
%TO.N,RST*%
X248261196Y-165509897D02*
X252961197Y-165509897D01*
X252961197Y-165509897D02*
X252961199Y-165509899D01*
%TO.N,GND*%
X256361199Y-165509899D02*
X256361199Y-134209896D01*
X256361199Y-134209896D02*
X257261195Y-133309900D01*
%TO.N,RST*%
X248261196Y-165509897D02*
X248261196Y-135839899D01*
X248261196Y-135839899D02*
X247041196Y-134619899D01*
%TO.N,ROW0*%
X258961194Y-130989899D02*
X258961194Y-149809897D01*
X258961194Y-149809897D02*
X258961199Y-149809902D01*
%TO.N,GND*%
X262411195Y-127009901D02*
X262408594Y-127009901D01*
X262408594Y-127009901D02*
X260461201Y-128957294D01*
X260461201Y-128957294D02*
X260461201Y-133309900D01*
%TO.N,RAW*%
X251361197Y-129509901D02*
X247071194Y-129509901D01*
X247071194Y-129509901D02*
X247041196Y-129539899D01*
X252411195Y-129084901D02*
X251786197Y-129084901D01*
X251786197Y-129084901D02*
X251361197Y-129509901D01*
%TO.N,POSITIVE*%
X246911195Y-127009901D02*
X251994469Y-127009901D01*
X251994469Y-127009901D02*
X254069469Y-129084901D01*
X254069469Y-129084901D02*
X255411195Y-129084901D01*
%TO.N,ROW3*%
X242823918Y-184014683D02*
X239707030Y-185027420D01*
X239707030Y-185027420D02*
X225671697Y-177876063D01*
X225671697Y-177876063D02*
X225532142Y-177446548D01*
%TO.N,outer_sole*%
X257279452Y-182682114D02*
X254757579Y-183501520D01*
X248736428Y-184855924D02*
X247858103Y-186579732D01*
X254757579Y-183501520D02*
X254036157Y-183133939D01*
X254036157Y-183133939D02*
X248736428Y-184855924D01*
%TO.N,COL4*%
X247987105Y-175478313D02*
X248150985Y-175982682D01*
X248150985Y-175982682D02*
X246664162Y-178900728D01*
X246664162Y-178900728D02*
X246260662Y-179031834D01*
%TO.N,inner_sole*%
X237124802Y-172529404D02*
X234033423Y-174314213D01*
X234033423Y-174314213D02*
X233300590Y-174117847D01*
X233300590Y-174117847D02*
X229207229Y-176481155D01*
X229207229Y-176481155D02*
X228719694Y-178300653D01*
%TO.N,COL3*%
X226537759Y-167415008D02*
X226643828Y-167598718D01*
X225679724Y-171196795D02*
X225587874Y-171249825D01*
X226643828Y-167598718D02*
X225679724Y-171196795D01*
%TO.N,COL0*%
X158040736Y-160336405D02*
X158207894Y-160467006D01*
X158207894Y-160467006D02*
X158661859Y-164164238D01*
X158661859Y-164164238D02*
X158596552Y-164247818D01*
%TO.N,ROW0*%
X176161195Y-119509897D02*
X162936604Y-136436601D01*
X162936604Y-136436601D02*
X157753498Y-137073013D01*
X157753498Y-137073013D02*
X156722662Y-136267634D01*
%TO.N,ROW1*%
X176161195Y-136509903D02*
X176228401Y-137057250D01*
X159825276Y-153946294D02*
X158794439Y-153140917D01*
X176228401Y-137057250D02*
X163373628Y-153510606D01*
X163373628Y-153510606D02*
X159825276Y-153946294D01*
%TO.N,ROW2*%
X176161194Y-153509900D02*
X176496330Y-156239355D01*
X176496330Y-156239355D02*
X165445411Y-170383894D01*
X165445411Y-170383894D02*
X161897055Y-170819578D01*
X161897055Y-170819578D02*
X160866217Y-170014201D01*
%TO.N,pinky_bottom*%
X169772749Y-161112417D02*
X167575077Y-163925307D01*
X166822051Y-164017773D02*
X163912061Y-167742393D01*
X167575077Y-163925307D02*
X166822051Y-164017773D01*
X163912061Y-167742393D02*
X164141620Y-169612033D01*
%TO.N,pinky_home*%
X167700977Y-144239134D02*
X165503301Y-147052024D01*
X165503301Y-147052024D02*
X164750267Y-147144486D01*
X164750267Y-147144486D02*
X161840283Y-150869105D01*
X161840283Y-150869105D02*
X162069842Y-152738746D01*
%TO.N,pinky_top*%
X165629198Y-127365847D02*
X163431526Y-130178743D01*
X159768501Y-133995826D02*
X159998065Y-135865463D01*
X163431526Y-130178743D02*
X162678493Y-130271208D01*
X162678493Y-130271208D02*
X159768501Y-133995826D01*
%TO.N,COL0*%
X156524777Y-147374536D02*
X158106029Y-160252823D01*
X158106029Y-160252823D02*
X158040736Y-160336405D01*
X155968952Y-143463118D02*
X156386864Y-143789625D01*
X156386864Y-143789625D02*
X156785979Y-147040209D01*
X156785979Y-147040209D02*
X156524777Y-147374536D01*
X154453000Y-130501253D02*
X156034254Y-143379537D01*
X156034254Y-143379537D02*
X155968952Y-143463118D01*
X153897178Y-126589837D02*
X154315080Y-126916339D01*
X154714198Y-130166928D02*
X154453000Y-130501253D01*
X154315080Y-126916339D02*
X154714198Y-130166928D01*
%TO.N,ROW0*%
X194161199Y-111509900D02*
X185236199Y-120434899D01*
X185236199Y-120434899D02*
X179436192Y-120434900D01*
X179436192Y-120434900D02*
X178511197Y-119509898D01*
X212161194Y-121509895D02*
X209786192Y-119134899D01*
X209786192Y-119134899D02*
X204136199Y-119134899D01*
X204136199Y-119134899D02*
X196511200Y-111509901D01*
%TO.N,ROW1*%
X194161196Y-128509902D02*
X185236189Y-137434896D01*
X185236189Y-137434896D02*
X179436195Y-137434899D01*
X179436195Y-137434899D02*
X178511200Y-136509902D01*
X212161192Y-138509898D02*
X209536192Y-135884902D01*
X209536192Y-135884902D02*
X203886197Y-135884894D01*
X203886197Y-135884894D02*
X196511196Y-128509897D01*
%TO.N,ROW2*%
X194161197Y-145509901D02*
X185236192Y-154434902D01*
X185236192Y-154434902D02*
X179436199Y-154434900D01*
X179436199Y-154434900D02*
X178511200Y-153509903D01*
X212161194Y-155509901D02*
X206511202Y-155509900D01*
X206511202Y-155509900D02*
X196511195Y-145509897D01*
X230161201Y-158509896D02*
X217511199Y-158509899D01*
X217511199Y-158509899D02*
X214511193Y-155509898D01*
%TO.N,ROW1*%
X230161198Y-141509896D02*
X217511193Y-141509900D01*
X217511193Y-141509900D02*
X214511202Y-138509903D01*
%TO.N,ROW0*%
X230161197Y-124509901D02*
X217511195Y-124509901D01*
X217511195Y-124509901D02*
X214511194Y-121509902D01*
%TO.N,ring_bottom*%
X188436201Y-145759900D02*
X185912097Y-148283997D01*
X185912097Y-148283997D02*
X184993019Y-148283996D01*
X181811199Y-151465829D02*
X181811195Y-153509900D01*
X184993019Y-148283996D02*
X181811199Y-151465829D01*
%TO.N,ring_home*%
X188436193Y-128759900D02*
X185912097Y-131284002D01*
X185912097Y-131284002D02*
X185153412Y-131284001D01*
X185153412Y-131284001D02*
X181811192Y-134626228D01*
X181811192Y-134626228D02*
X181811196Y-136509903D01*
%TO.N,ring_top*%
X188436195Y-111759899D02*
X185912098Y-114284000D01*
X185912098Y-114284000D02*
X185153415Y-114284000D01*
X185153415Y-114284000D02*
X181811195Y-117626223D01*
X181811195Y-117626223D02*
X181811200Y-119509897D01*
%TO.N,COL1*%
X176886195Y-143559897D02*
X177261201Y-143934899D01*
X177261201Y-143934899D02*
X177261199Y-147209902D01*
X177261199Y-147209902D02*
X176961198Y-147509900D01*
X176961199Y-130509902D02*
X176961198Y-143484896D01*
X176961198Y-143484896D02*
X176886195Y-143559897D01*
X176886199Y-126559904D02*
X177261193Y-126934900D01*
X177261193Y-126934900D02*
X177261197Y-130209899D01*
X177261197Y-130209899D02*
X176961199Y-130509902D01*
X176961196Y-113509900D02*
X176961199Y-126484902D01*
X176961199Y-126484902D02*
X176886199Y-126559904D01*
X176886194Y-109559900D02*
X177261194Y-109934899D01*
X177261194Y-109934899D02*
X177261197Y-113209900D01*
X177261197Y-113209900D02*
X176961196Y-113509900D01*
%TO.N,middle_bottom*%
X206436202Y-137759901D02*
X204561201Y-139634902D01*
X204561201Y-139634902D02*
X203642119Y-139634902D01*
X203642119Y-139634902D02*
X199811198Y-143465830D01*
X199811198Y-143465830D02*
X199811197Y-145509897D01*
%TO.N,middle_home*%
X206436199Y-120759900D02*
X203912098Y-123283999D01*
X203912098Y-123283999D02*
X203153416Y-123283997D01*
X199811198Y-126626212D02*
X199811195Y-128509897D01*
X203153416Y-123283997D02*
X199811198Y-126626212D01*
%TO.N,middle_top*%
X206436194Y-103759901D02*
X203912096Y-106284001D01*
X203912096Y-106284001D02*
X203153415Y-106283998D01*
X203153415Y-106283998D02*
X199811196Y-109626216D01*
X199811196Y-109626216D02*
X199811196Y-111509894D01*
%TO.N,COL2*%
X194886195Y-135559898D02*
X195261203Y-135934901D01*
X195261203Y-135934901D02*
X195261196Y-139209899D01*
X195261196Y-139209899D02*
X194961200Y-139509899D01*
X194961197Y-122509894D02*
X194961196Y-135484900D01*
X194961196Y-135484900D02*
X194886195Y-135559898D01*
X194886196Y-118559899D02*
X195261200Y-118934899D01*
X195261200Y-118934899D02*
X195261197Y-122209898D01*
X195261197Y-122209898D02*
X194961197Y-122509894D01*
X194961192Y-105509895D02*
X194961194Y-118484899D01*
X194961194Y-118484899D02*
X194886196Y-118559899D01*
X194886196Y-101559901D02*
X195261191Y-101934904D01*
X195261191Y-101934904D02*
X195261196Y-105209897D01*
X195261196Y-105209897D02*
X194961192Y-105509895D01*
%TO.N,COL3*%
X212886195Y-145559899D02*
X213036192Y-145709902D01*
X213036192Y-145709902D02*
X213036193Y-149434904D01*
X213036193Y-149434904D02*
X212961197Y-149509902D01*
X212961199Y-132509903D02*
X212961195Y-145484898D01*
X212961195Y-145484898D02*
X212886195Y-145559899D01*
X212886199Y-128559899D02*
X213261195Y-128934898D01*
X213261195Y-128934898D02*
X213261199Y-132209905D01*
X213261199Y-132209905D02*
X212961199Y-132509903D01*
X212961196Y-115509902D02*
X212961197Y-128484898D01*
X212961197Y-128484898D02*
X212886199Y-128559899D01*
X212886195Y-111559902D02*
X213261198Y-111934904D01*
X213261198Y-111934904D02*
X213261194Y-115209904D01*
X213261194Y-115209904D02*
X212961196Y-115509902D01*
%TO.N,index_bottom*%
X224436196Y-147759900D02*
X222561195Y-149634903D01*
X222561195Y-149634903D02*
X221802516Y-149634901D01*
X217811199Y-153626216D02*
X217811197Y-155509900D01*
X221802516Y-149634901D02*
X217811199Y-153626216D01*
%TO.N,index_home*%
X224436196Y-130759898D02*
X222561197Y-132634901D01*
X221802511Y-132634903D02*
X217811199Y-136626215D01*
X222561197Y-132634901D02*
X221802511Y-132634903D01*
X217811199Y-136626215D02*
X217811196Y-138509898D01*
%TO.N,index_top*%
X224436199Y-113759899D02*
X222561195Y-115634899D01*
X217811195Y-119465829D02*
X217811200Y-121509906D01*
X222561195Y-115634899D02*
X221642119Y-115634903D01*
X221642119Y-115634903D02*
X217811195Y-119465829D01*
%TO.N,inner_bottom*%
X242436196Y-150759900D02*
X239912100Y-153284000D01*
X239912100Y-153284000D02*
X239153412Y-153284001D01*
X235811194Y-156626213D02*
X235811198Y-158509894D01*
X239153412Y-153284001D02*
X235811194Y-156626213D01*
%TO.N,inner_home*%
X242436191Y-133759898D02*
X239912097Y-136284001D01*
X235811195Y-139626215D02*
X235811196Y-141509903D01*
X239912097Y-136284001D02*
X239153414Y-136284000D01*
X239153414Y-136284000D02*
X235811195Y-139626215D01*
%TO.N,inner_top*%
X242436196Y-116759899D02*
X240561196Y-118634902D01*
X240561196Y-118634902D02*
X239802514Y-118634898D01*
X239802514Y-118634898D02*
X235811201Y-122626211D01*
X235811201Y-122626211D02*
X235811193Y-124509904D01*
%TO.N,COL4*%
X230886196Y-148559900D02*
X231261197Y-148934897D01*
X231261196Y-152209902D02*
X230961195Y-152509903D01*
X231261197Y-148934897D02*
X231261196Y-152209902D01*
X230961194Y-135509902D02*
X230961191Y-148484900D01*
X230961191Y-148484900D02*
X230886196Y-148559900D01*
X230886192Y-131559899D02*
X231261194Y-131934901D01*
X231261194Y-131934901D02*
X231261196Y-135209898D01*
X231261196Y-135209898D02*
X230961194Y-135509902D01*
X230961195Y-118509900D02*
X230961199Y-131484900D01*
X230961199Y-131484900D02*
X230886192Y-131559899D01*
X230886196Y-114559900D02*
X231261197Y-114934902D01*
X231261197Y-114934902D02*
X231261196Y-118209897D01*
X231261196Y-118209897D02*
X230961195Y-118509900D01*
%TD*%
M02*
