%TF.GenerationSoftware,KiCad,Pcbnew,7.0.11*%
%TF.CreationDate,2024-03-03T17:55:26+13:00*%
%TF.ProjectId,socius-choc-v1,736f6369-7573-42d6-9368-6f632d76312e,v1.0.0*%
%TF.SameCoordinates,Original*%
%TF.FileFunction,Copper,L2,Bot*%
%TF.FilePolarity,Positive*%
%FSLAX46Y46*%
G04 Gerber Fmt 4.6, Leading zero omitted, Abs format (unit mm)*
G04 Created by KiCad (PCBNEW 7.0.11) date 2024-03-03 17:55:26*
%MOMM*%
%LPD*%
G01*
G04 APERTURE LIST*
G04 Aperture macros list*
%AMRotRect*
0 Rectangle, with rotation*
0 The origin of the aperture is its center*
0 $1 length*
0 $2 width*
0 $3 Rotation angle, in degrees counterclockwise*
0 Add horizontal line*
21,1,$1,$2,0,0,$3*%
G04 Aperture macros list end*
%TA.AperFunction,SMDPad,CuDef*%
%ADD10R,0.900000X0.900000*%
%TD*%
%TA.AperFunction,WasherPad*%
%ADD11C,1.000000*%
%TD*%
%TA.AperFunction,SMDPad,CuDef*%
%ADD12R,0.900000X1.250000*%
%TD*%
%TA.AperFunction,SMDPad,CuDef*%
%ADD13R,0.900000X1.200000*%
%TD*%
%TA.AperFunction,ComponentPad*%
%ADD14C,0.600000*%
%TD*%
%TA.AperFunction,SMDPad,CuDef*%
%ADD15RotRect,2.600000X2.600000X7.000000*%
%TD*%
%TA.AperFunction,SMDPad,CuDef*%
%ADD16R,0.900000X1.700000*%
%TD*%
%TA.AperFunction,ComponentPad*%
%ADD17R,1.752600X1.752600*%
%TD*%
%TA.AperFunction,ComponentPad*%
%ADD18C,1.752600*%
%TD*%
%TA.AperFunction,SMDPad,CuDef*%
%ADD19RotRect,0.900000X1.200000X333.000000*%
%TD*%
%TA.AperFunction,SMDPad,CuDef*%
%ADD20R,2.600000X2.600000*%
%TD*%
%TA.AperFunction,SMDPad,CuDef*%
%ADD21RotRect,0.900000X1.200000X345.000000*%
%TD*%
%TA.AperFunction,SMDPad,CuDef*%
%ADD22RotRect,0.900000X1.200000X7.000000*%
%TD*%
%TA.AperFunction,SMDPad,CuDef*%
%ADD23RotRect,2.600000X2.600000X333.000000*%
%TD*%
%TA.AperFunction,ComponentPad*%
%ADD24R,1.400000X1.400000*%
%TD*%
%TA.AperFunction,ComponentPad*%
%ADD25C,1.400000*%
%TD*%
%TA.AperFunction,SMDPad,CuDef*%
%ADD26RotRect,2.600000X2.600000X345.000000*%
%TD*%
%TA.AperFunction,Conductor*%
%ADD27C,0.250000*%
%TD*%
G04 APERTURE END LIST*
D10*
%TO.P,T1,*%
%TO.N,*%
X250910738Y-125904546D03*
X250910738Y-128104546D03*
D11*
X253110738Y-127004546D03*
X256110738Y-127004546D03*
D10*
X258310738Y-125904546D03*
X258310738Y-128104546D03*
D12*
%TO.P,T1,1*%
%TO.N,RAW*%
X252360738Y-129079546D03*
%TO.P,T1,2*%
%TO.N,POSITIVE*%
X255360738Y-129079546D03*
%TO.P,T1,3*%
%TO.N,N/C*%
X256860738Y-129079546D03*
%TD*%
D13*
%TO.P,D5,1*%
%TO.N,ROW1*%
X178460754Y-136504550D03*
%TO.P,D5,2*%
%TO.N,ring_home*%
X181760754Y-136504550D03*
%TD*%
%TO.P,D8,1*%
%TO.N,ROW1*%
X196460752Y-128504553D03*
%TO.P,D8,2*%
%TO.N,middle_home*%
X199760752Y-128504553D03*
%TD*%
D14*
%TO.P,REF\u002A\u002A,1*%
%TO.N,ROW2*%
X194110755Y-145504555D03*
%TD*%
D15*
%TO.P,S1,1*%
%TO.N,COL0*%
X157990285Y-160331052D03*
%TO.P,S1,2*%
%TO.N,pinky_bottom*%
X169722305Y-161107063D03*
%TD*%
D13*
%TO.P,D13,1*%
%TO.N,ROW2*%
X232460751Y-158504545D03*
%TO.P,D13,2*%
%TO.N,inner_bottom*%
X235760751Y-158504545D03*
%TD*%
D16*
%TO.P,,1*%
%TO.N,GND*%
X256310750Y-165504548D03*
%TO.P,,2*%
%TO.N,RST*%
X252910750Y-165504548D03*
%TD*%
D14*
%TO.P,REF\u002A\u002A,1*%
%TO.N,ROW0*%
X178510756Y-118004552D03*
%TD*%
%TO.P,REF\u002A\u002A,1*%
%TO.N,ring_home*%
X181710744Y-135004553D03*
%TD*%
D13*
%TO.P,D10,1*%
%TO.N,ROW2*%
X214460749Y-155504543D03*
%TO.P,D10,2*%
%TO.N,index_bottom*%
X217760749Y-155504543D03*
%TD*%
D14*
%TO.P,REF\u002A\u002A,1*%
%TO.N,ROW0*%
X258910748Y-130984547D03*
%TD*%
D13*
%TO.P,D14,1*%
%TO.N,ROW1*%
X232460743Y-141504549D03*
%TO.P,D14,2*%
%TO.N,inner_home*%
X235760743Y-141504549D03*
%TD*%
D17*
%TO.P,MCU1,*%
%TO.N,CS*%
X262230757Y-129534549D03*
D18*
%TO.P,MCU1,1*%
%TO.N,RAW*%
X246990757Y-129534549D03*
%TO.P,MCU1,2*%
%TO.N,GND*%
X246990757Y-132074549D03*
%TO.P,MCU1,3*%
%TO.N,RST*%
X246990757Y-134614549D03*
%TO.P,MCU1,4*%
%TO.N,VCC*%
X246990757Y-137154549D03*
%TO.P,MCU1,5*%
%TO.N,P21*%
X246990757Y-139694549D03*
%TO.P,MCU1,6*%
%TO.N,P20*%
X246990757Y-142234549D03*
%TO.P,MCU1,7*%
%TO.N,P19*%
X246990757Y-144774549D03*
%TO.P,MCU1,8*%
%TO.N,COL0*%
X246990757Y-147314549D03*
%TO.P,MCU1,9*%
%TO.N,COL1*%
X246990757Y-149854549D03*
%TO.P,MCU1,10*%
%TO.N,COL2*%
X246990757Y-152394549D03*
%TO.P,MCU1,11*%
%TO.N,COL3*%
X246990757Y-154934549D03*
%TO.P,MCU1,12*%
%TO.N,COL4*%
X246990757Y-157474549D03*
%TO.P,MCU1,13*%
%TO.N,CS*%
X262230757Y-129534549D03*
%TO.P,MCU1,14*%
%TO.N,P0*%
X262230757Y-132074549D03*
%TO.P,MCU1,15*%
%TO.N,GND*%
X262230757Y-134614549D03*
%TO.P,MCU1,16*%
X262230757Y-137154549D03*
%TO.P,MCU1,17*%
%TO.N,MOSI*%
X262230757Y-139694549D03*
%TO.P,MCU1,18*%
%TO.N,SCK*%
X262230757Y-142234549D03*
%TO.P,MCU1,19*%
%TO.N,P4*%
X262230757Y-144774549D03*
%TO.P,MCU1,20*%
%TO.N,P5*%
X262230757Y-147314549D03*
%TO.P,MCU1,21*%
%TO.N,ROW0*%
X262230757Y-149854549D03*
%TO.P,MCU1,22*%
%TO.N,ROW1*%
X262230757Y-152394549D03*
%TO.P,MCU1,23*%
%TO.N,ROW2*%
X262230757Y-154934549D03*
%TO.P,MCU1,24*%
%TO.N,ROW3*%
X262230757Y-157474549D03*
%TD*%
D14*
%TO.P,REF\u002A\u002A,1*%
%TO.N,middle_home*%
X199710754Y-127004547D03*
%TD*%
D19*
%TO.P,D17,1*%
%TO.N,ROW3*%
X244867333Y-185076203D03*
%TO.P,D17,2*%
%TO.N,outer_sole*%
X247807655Y-186574371D03*
%TD*%
D14*
%TO.P,REF\u002A\u002A,1*%
%TO.N,COL0*%
X154402564Y-130495903D03*
%TD*%
D20*
%TO.P,S15,1*%
%TO.N,COL4*%
X230835753Y-114554547D03*
%TO.P,S15,2*%
%TO.N,inner_top*%
X242385753Y-116754547D03*
%TD*%
D14*
%TO.P,REF\u002A\u002A,1*%
%TO.N,COL3*%
X212910754Y-115504554D03*
%TD*%
D13*
%TO.P,D9,1*%
%TO.N,ROW0*%
X196460752Y-111504549D03*
%TO.P,D9,2*%
%TO.N,middle_top*%
X199760752Y-111504549D03*
%TD*%
D14*
%TO.P,REF\u002A\u002A,1*%
%TO.N,ROW2*%
X160682601Y-168513946D03*
%TD*%
%TO.P,REF\u002A\u002A,1*%
%TO.N,ROW3*%
X242773473Y-184009335D03*
%TD*%
%TO.P,REF\u002A\u002A,1*%
%TO.N,ROW2*%
X158483292Y-170295248D03*
%TD*%
%TO.P,REF\u002A\u002A,1*%
%TO.N,middle_top*%
X199710757Y-110004545D03*
%TD*%
D13*
%TO.P,D12,1*%
%TO.N,ROW0*%
X214460752Y-121504556D03*
%TO.P,D12,2*%
%TO.N,index_top*%
X217760752Y-121504556D03*
%TD*%
D14*
%TO.P,REF\u002A\u002A,1*%
%TO.N,ROW1*%
X232510757Y-140004549D03*
%TD*%
%TO.P,REF\u002A\u002A,1*%
%TO.N,COL1*%
X176910746Y-130504549D03*
%TD*%
D20*
%TO.P,S6,1*%
%TO.N,COL1*%
X176835754Y-109554549D03*
%TO.P,S6,2*%
%TO.N,ring_top*%
X188385754Y-111754549D03*
%TD*%
D15*
%TO.P,S2,1*%
%TO.N,COL0*%
X155918512Y-143457765D03*
%TO.P,S2,2*%
%TO.N,pinky_home*%
X167650532Y-144233776D03*
%TD*%
D14*
%TO.P,REF\u002A\u002A,1*%
%TO.N,inner_top*%
X235710749Y-123004550D03*
%TD*%
%TO.P,REF\u002A\u002A,1*%
%TO.N,outer_sole*%
X248444094Y-185215175D03*
%TD*%
%TO.P,REF\u002A\u002A,1*%
%TO.N,COL2*%
X194910749Y-122504546D03*
%TD*%
D21*
%TO.P,D16,1*%
%TO.N,ROW3*%
X225481695Y-177441203D03*
%TO.P,D16,2*%
%TO.N,inner_sole*%
X228669251Y-178295305D03*
%TD*%
D14*
%TO.P,REF\u002A\u002A,1*%
%TO.N,ROW1*%
X176110748Y-136504551D03*
%TD*%
D20*
%TO.P,S8,1*%
%TO.N,COL2*%
X194835750Y-118554543D03*
%TO.P,S8,2*%
%TO.N,middle_home*%
X206385750Y-120754543D03*
%TD*%
D13*
%TO.P,D4,1*%
%TO.N,ROW2*%
X178460757Y-153504551D03*
%TO.P,D4,2*%
%TO.N,ring_bottom*%
X181760757Y-153504551D03*
%TD*%
D22*
%TO.P,D2,1*%
%TO.N,ROW1*%
X158743997Y-153135564D03*
%TO.P,D2,2*%
%TO.N,pinky_home*%
X162019399Y-152733396D03*
%TD*%
D20*
%TO.P,S7,1*%
%TO.N,COL2*%
X194835752Y-135554545D03*
%TO.P,S7,2*%
%TO.N,middle_bottom*%
X206385752Y-137754545D03*
%TD*%
D14*
%TO.P,REF\u002A\u002A,1*%
%TO.N,ROW0*%
X232510753Y-123004549D03*
%TD*%
%TO.P,REF\u002A\u002A,1*%
%TO.N,COL4*%
X230910749Y-118504549D03*
%TD*%
%TO.P,REF\u002A\u002A,1*%
%TO.N,ROW3*%
X225918223Y-176005252D03*
%TD*%
%TO.P,REF\u002A\u002A,1*%
%TO.N,inner_bottom*%
X235710750Y-157004541D03*
%TD*%
%TO.P,REF\u002A\u002A,1*%
%TO.N,ROW0*%
X214510752Y-120004551D03*
%TD*%
D22*
%TO.P,D3,1*%
%TO.N,ROW0*%
X156672218Y-136262284D03*
%TO.P,D3,2*%
%TO.N,pinky_top*%
X159947620Y-135860116D03*
%TD*%
D14*
%TO.P,REF\u002A\u002A,1*%
%TO.N,ROW2*%
X214510752Y-154004549D03*
%TD*%
%TO.P,REF\u002A\u002A,1*%
%TO.N,COL0*%
X158546115Y-164242471D03*
%TD*%
D13*
%TO.P,D6,1*%
%TO.N,ROW0*%
X178460751Y-119504549D03*
%TO.P,D6,2*%
%TO.N,ring_top*%
X181760751Y-119504549D03*
%TD*%
D20*
%TO.P,S5,1*%
%TO.N,COL1*%
X176835756Y-126554549D03*
%TO.P,S5,2*%
%TO.N,ring_home*%
X188385756Y-128754549D03*
%TD*%
D14*
%TO.P,REF\u002A\u002A,1*%
%TO.N,GND*%
X259924737Y-165504549D03*
%TD*%
D20*
%TO.P,S11,1*%
%TO.N,COL3*%
X212835747Y-128554548D03*
%TO.P,S11,2*%
%TO.N,index_home*%
X224385747Y-130754548D03*
%TD*%
D14*
%TO.P,REF\u002A\u002A,1*%
%TO.N,ROW0*%
X156539038Y-134767372D03*
%TD*%
%TO.P,REF\u002A\u002A,1*%
%TO.N,COL4*%
X230910753Y-152504553D03*
%TD*%
%TO.P,REF\u002A\u002A,1*%
%TO.N,ROW1*%
X214510752Y-137004542D03*
%TD*%
D20*
%TO.P,S13,1*%
%TO.N,COL4*%
X230835749Y-148554545D03*
%TO.P,S13,2*%
%TO.N,inner_bottom*%
X242385749Y-150754545D03*
%TD*%
D23*
%TO.P,S17,1*%
%TO.N,COL4*%
X247936658Y-175472962D03*
%TO.P,S17,2*%
%TO.N,outer_sole*%
X257229004Y-182676767D03*
%TD*%
D14*
%TO.P,REF\u002A\u002A,1*%
%TO.N,ROW1*%
X194110755Y-128504552D03*
%TD*%
%TO.P,REF\u002A\u002A,1*%
%TO.N,ROW0*%
X176110752Y-119504544D03*
%TD*%
D24*
%TO.P,,1*%
%TO.N,POSITIVE*%
X246860738Y-127004546D03*
D25*
%TO.P,,2*%
%TO.N,GND*%
X262360738Y-127004546D03*
%TD*%
D14*
%TO.P,REF\u002A\u002A,1*%
%TO.N,COL2*%
X194910756Y-139504549D03*
%TD*%
%TO.P,REF\u002A\u002A,1*%
%TO.N,COL1*%
X176910754Y-147504546D03*
%TD*%
%TO.P,REF\u002A\u002A,1*%
%TO.N,ROW1*%
X260410755Y-140904549D03*
%TD*%
%TO.P,REF\u002A\u002A,1*%
%TO.N,pinky_home*%
X161786963Y-151250671D03*
%TD*%
%TO.P,REF\u002A\u002A,1*%
%TO.N,ROW1*%
X178510743Y-135004545D03*
%TD*%
%TO.P,REF\u002A\u002A,1*%
%TO.N,index_home*%
X217710750Y-137004544D03*
%TD*%
%TO.P,REF\u002A\u002A,1*%
%TO.N,ROW2*%
X178510751Y-152004544D03*
%TD*%
D20*
%TO.P,S14,1*%
%TO.N,COL4*%
X230835751Y-131554549D03*
%TO.P,S14,2*%
%TO.N,inner_home*%
X242385751Y-133754549D03*
%TD*%
D15*
%TO.P,S3,1*%
%TO.N,COL0*%
X153846731Y-126584483D03*
%TO.P,S3,2*%
%TO.N,pinky_top*%
X165578751Y-127360494D03*
%TD*%
D14*
%TO.P,REF\u002A\u002A,1*%
%TO.N,COL3*%
X212910756Y-149504549D03*
%TD*%
%TO.P,REF\u002A\u002A,1*%
%TO.N,RST*%
X248210747Y-165504548D03*
%TD*%
%TO.P,REF\u002A\u002A,1*%
%TO.N,ROW0*%
X154339740Y-136548671D03*
%TD*%
%TO.P,REF\u002A\u002A,1*%
%TO.N,middle_bottom*%
X199710751Y-144004544D03*
%TD*%
%TO.P,REF\u002A\u002A,1*%
%TO.N,COL3*%
X225537425Y-171244470D03*
%TD*%
%TO.P,REF\u002A\u002A,1*%
%TO.N,pinky_bottom*%
X163858749Y-168123956D03*
%TD*%
%TO.P,REF\u002A\u002A,1*%
%TO.N,GND*%
X260410760Y-133304548D03*
%TD*%
%TO.P,REF\u002A\u002A,1*%
%TO.N,ROW2*%
X196510747Y-144004552D03*
%TD*%
%TO.P,REF\u002A\u002A,1*%
%TO.N,ROW1*%
X156411521Y-153421958D03*
%TD*%
%TO.P,REF\u002A\u002A,1*%
%TO.N,COL4*%
X246210228Y-179026488D03*
%TD*%
D13*
%TO.P,D11,1*%
%TO.N,ROW1*%
X214460751Y-138504549D03*
%TO.P,D11,2*%
%TO.N,index_home*%
X217760751Y-138504549D03*
%TD*%
%TO.P,D15,1*%
%TO.N,ROW0*%
X232460753Y-124504551D03*
%TO.P,D15,2*%
%TO.N,inner_top*%
X235760753Y-124504551D03*
%TD*%
D14*
%TO.P,REF\u002A\u002A,1*%
%TO.N,ring_top*%
X181710756Y-118004552D03*
%TD*%
%TO.P,REF\u002A\u002A,1*%
%TO.N,ROW2*%
X176110750Y-153504553D03*
%TD*%
%TO.P,REF\u002A\u002A,1*%
%TO.N,ROW2*%
X232510753Y-157004550D03*
%TD*%
%TO.P,REF\u002A\u002A,1*%
%TO.N,ROW1*%
X212110743Y-138504552D03*
%TD*%
%TO.P,REF\u002A\u002A,1*%
%TO.N,ROW0*%
X212110754Y-121504553D03*
%TD*%
%TO.P,REF\u002A\u002A,1*%
%TO.N,ROW1*%
X158610819Y-151640655D03*
%TD*%
D20*
%TO.P,S12,1*%
%TO.N,COL3*%
X212835757Y-111554550D03*
%TO.P,S12,2*%
%TO.N,index_top*%
X224385757Y-113754550D03*
%TD*%
D14*
%TO.P,REF\u002A\u002A,1*%
%TO.N,ring_bottom*%
X181710753Y-152004553D03*
%TD*%
D26*
%TO.P,S16,1*%
%TO.N,COL3*%
X226487323Y-167409653D03*
%TO.P,S16,2*%
%TO.N,inner_sole*%
X237074365Y-172524050D03*
%TD*%
D14*
%TO.P,REF\u002A\u002A,1*%
%TO.N,GND*%
X257210757Y-133304552D03*
%TD*%
%TO.P,REF\u002A\u002A,1*%
%TO.N,ROW1*%
X230110756Y-141504545D03*
%TD*%
%TO.P,REF\u002A\u002A,1*%
%TO.N,COL0*%
X156474339Y-147369187D03*
%TD*%
D13*
%TO.P,D7,1*%
%TO.N,ROW2*%
X196460757Y-145504552D03*
%TO.P,D7,2*%
%TO.N,middle_bottom*%
X199760757Y-145504552D03*
%TD*%
D22*
%TO.P,D1,1*%
%TO.N,ROW2*%
X160815783Y-170008847D03*
%TO.P,D1,2*%
%TO.N,pinky_bottom*%
X164091185Y-169606679D03*
%TD*%
D14*
%TO.P,REF\u002A\u002A,1*%
%TO.N,index_top*%
X217710751Y-120004548D03*
%TD*%
%TO.P,REF\u002A\u002A,1*%
%TO.N,ROW3*%
X245592873Y-183762400D03*
%TD*%
%TO.P,REF\u002A\u002A,1*%
%TO.N,ROW2*%
X230110754Y-158504549D03*
%TD*%
%TO.P,REF\u002A\u002A,1*%
%TO.N,ROW0*%
X196510755Y-110004546D03*
%TD*%
%TO.P,REF\u002A\u002A,1*%
%TO.N,index_bottom*%
X217710752Y-154004551D03*
%TD*%
D20*
%TO.P,S9,1*%
%TO.N,COL2*%
X194835750Y-101554552D03*
%TO.P,S9,2*%
%TO.N,middle_top*%
X206385750Y-103754552D03*
%TD*%
D14*
%TO.P,REF\u002A\u002A,1*%
%TO.N,COL2*%
X194910759Y-105504542D03*
%TD*%
%TO.P,REF\u002A\u002A,1*%
%TO.N,inner_sole*%
X229009188Y-176833470D03*
%TD*%
%TO.P,REF\u002A\u002A,1*%
%TO.N,COL1*%
X176910752Y-113504545D03*
%TD*%
%TO.P,REF\u002A\u002A,1*%
%TO.N,COL4*%
X230910757Y-135504554D03*
%TD*%
%TO.P,REF\u002A\u002A,1*%
%TO.N,COL3*%
X212910752Y-132504555D03*
%TD*%
%TO.P,REF\u002A\u002A,1*%
%TO.N,ROW0*%
X194110752Y-111504547D03*
%TD*%
%TO.P,REF\u002A\u002A,1*%
%TO.N,ROW3*%
X223211764Y-176832974D03*
%TD*%
D20*
%TO.P,S4,1*%
%TO.N,COL1*%
X176835751Y-143554544D03*
%TO.P,S4,2*%
%TO.N,ring_bottom*%
X188385751Y-145754544D03*
%TD*%
%TO.P,S10,1*%
%TO.N,COL3*%
X212835752Y-145554552D03*
%TO.P,S10,2*%
%TO.N,index_bottom*%
X224385752Y-147754552D03*
%TD*%
D14*
%TO.P,REF\u002A\u002A,1*%
%TO.N,ROW0*%
X230110755Y-124504549D03*
%TD*%
%TO.P,REF\u002A\u002A,1*%
%TO.N,ROW0*%
X258910759Y-149804548D03*
%TD*%
%TO.P,REF\u002A\u002A,1*%
%TO.N,ROW1*%
X196510747Y-127004553D03*
%TD*%
%TO.P,REF\u002A\u002A,1*%
%TO.N,ROW2*%
X212110751Y-155504549D03*
%TD*%
%TO.P,REF\u002A\u002A,1*%
%TO.N,inner_home*%
X235710759Y-140004546D03*
%TD*%
%TO.P,REF\u002A\u002A,1*%
%TO.N,pinky_top*%
X159715188Y-134377385D03*
%TD*%
D27*
%TO.N,COL0*%
X158157449Y-160461660D02*
X158611415Y-164158884D01*
X154264637Y-126910986D02*
X154663757Y-130161572D01*
X154402564Y-130495903D02*
X155983813Y-143374184D01*
X154663757Y-130161572D02*
X154402564Y-130495903D01*
X155918511Y-143457767D02*
X156336412Y-143784275D01*
X157990285Y-160331057D02*
X158157449Y-160461660D01*
X158611415Y-164158884D02*
X158546115Y-164242471D01*
X153846732Y-126584482D02*
X154264637Y-126910986D01*
X156336412Y-143784275D02*
X156735528Y-147034858D01*
X155983813Y-143374184D02*
X155918511Y-143457767D01*
X156474339Y-147369187D02*
X158055589Y-160247470D01*
X158055589Y-160247470D02*
X157990285Y-160331057D01*
X156735528Y-147034858D02*
X156474339Y-147369187D01*
%TO.N,pinky_bottom*%
X167524629Y-163919963D02*
X166502903Y-164045414D01*
X163785090Y-167524052D02*
X163858749Y-168123956D01*
X163858749Y-168123956D02*
X164035458Y-169563140D01*
X164035458Y-169563140D02*
X164091186Y-169606680D01*
X169722307Y-161107069D02*
X167524629Y-163919963D01*
X166502903Y-164045414D02*
X163785090Y-167524052D01*
%TO.N,pinky_home*%
X167650525Y-144233778D02*
X165452855Y-147046675D01*
X164431129Y-147172127D02*
X161713310Y-150650776D01*
X161963674Y-152689857D02*
X162019399Y-152733395D01*
X161713310Y-150650776D02*
X161786963Y-151250671D01*
X161786963Y-151250671D02*
X161963674Y-152689857D01*
X165452855Y-147046675D02*
X164431129Y-147172127D01*
%TO.N,pinky_top*%
X159674521Y-134046191D02*
X159715188Y-134377385D01*
X162628050Y-130265853D02*
X159674521Y-134046191D01*
X163381075Y-130173395D02*
X162628050Y-130265853D01*
X159891898Y-135816583D02*
X159947621Y-135860117D01*
X159715188Y-134377385D02*
X159891898Y-135816583D01*
X165578753Y-127360495D02*
X163381075Y-130173395D01*
%TO.N,COL1*%
X177210757Y-143929551D02*
X177210758Y-147204553D01*
X176985757Y-130429551D02*
X176910746Y-130504549D01*
X177210758Y-147204553D02*
X176910754Y-147504546D01*
X176910752Y-113504545D02*
X176910763Y-126479550D01*
X176835749Y-126554548D02*
X176985750Y-126704555D01*
X176835752Y-143554543D02*
X177210757Y-143929551D01*
X176835751Y-109554544D02*
X177210753Y-109929543D01*
X176910754Y-143479550D02*
X176835752Y-143554543D01*
X176910763Y-126479550D02*
X176835749Y-126554548D01*
X176910746Y-130504549D02*
X176910754Y-143479550D01*
X176985750Y-126704555D02*
X176985757Y-130429551D01*
X177210753Y-109929543D02*
X177210753Y-113204548D01*
X177210753Y-113204548D02*
X176910752Y-113504545D01*
%TO.N,ring_bottom*%
X185591680Y-147629551D02*
X181710755Y-151510471D01*
X181760755Y-151727521D02*
X181760754Y-153504548D01*
X186510746Y-147629549D02*
X185591680Y-147629551D01*
X188385749Y-145754551D02*
X186510746Y-147629549D01*
X181710751Y-151677527D02*
X181710753Y-152004553D01*
X181710755Y-151510471D02*
X181710751Y-151677527D01*
X181710751Y-151677527D02*
X181760755Y-151727521D01*
%TO.N,ring_home*%
X185102971Y-131278647D02*
X181710750Y-134670864D01*
X181710752Y-136454551D02*
X181760757Y-136504552D01*
X181710744Y-135004553D02*
X181710752Y-136454551D01*
X188385749Y-128754546D02*
X185861654Y-131278648D01*
X181710750Y-134670864D02*
X181710744Y-135004553D01*
X185861654Y-131278648D02*
X185102971Y-131278647D01*
%TO.N,ring_top*%
X181710754Y-117670859D02*
X181710756Y-118004552D01*
X186510751Y-113629553D02*
X185752067Y-113629553D01*
X181710750Y-119454549D02*
X181760759Y-119504542D01*
X188385757Y-111754546D02*
X186510751Y-113629553D01*
X181710756Y-118004552D02*
X181710750Y-119454549D01*
X185752067Y-113629553D02*
X181710754Y-117670859D01*
%TO.N,COL2*%
X195210757Y-139204549D02*
X194910756Y-139504549D01*
X194910749Y-135479549D02*
X194835747Y-135554546D01*
X194910759Y-105504542D02*
X194910749Y-118479544D01*
X194835747Y-135554546D02*
X195210754Y-135929548D01*
X194985756Y-118704542D02*
X194985748Y-122429550D01*
X194910749Y-118479544D02*
X194835752Y-118554555D01*
X195210754Y-135929548D02*
X195210757Y-139204549D01*
X194835752Y-118554555D02*
X194985756Y-118704542D01*
X195210752Y-105204548D02*
X194910759Y-105504542D01*
X194835758Y-101554548D02*
X195210745Y-101929553D01*
X194985748Y-122429550D02*
X194910749Y-122504546D01*
X195210745Y-101929553D02*
X195210752Y-105204548D01*
X194910749Y-122504546D02*
X194910749Y-135479549D01*
%TO.N,middle_bottom*%
X202942584Y-140278649D02*
X199710757Y-143510476D01*
X206385754Y-137754549D02*
X203861651Y-140278644D01*
X203861651Y-140278644D02*
X202942584Y-140278649D01*
X199710751Y-144004544D02*
X199710749Y-145454554D01*
X199710749Y-145454554D02*
X199760747Y-145504548D01*
X199710757Y-143510476D02*
X199710751Y-144004544D01*
%TO.N,middle_home*%
X199710759Y-126580285D02*
X199710754Y-127004547D01*
X206385757Y-120754547D02*
X204510747Y-122629545D01*
X199710754Y-128454547D02*
X199760748Y-128504543D01*
X199710754Y-127004547D02*
X199710754Y-128454547D01*
X203661486Y-122629551D02*
X199710759Y-126580285D01*
X204510747Y-122629545D02*
X203661486Y-122629551D01*
%TO.N,middle_top*%
X203752068Y-105629545D02*
X199710758Y-109670862D01*
X199710744Y-111454555D02*
X199760753Y-111504541D01*
X204510754Y-105629552D02*
X203752068Y-105629545D01*
X199710758Y-109670862D02*
X199710757Y-110004545D01*
X199710757Y-110004545D02*
X199710744Y-111454555D01*
X206385748Y-103754550D02*
X204510754Y-105629552D01*
%TO.N,COL3*%
X228783719Y-166083830D02*
X226487314Y-167409657D01*
X230192795Y-166461392D02*
X228783719Y-166083830D01*
X212910756Y-149504549D02*
X212910752Y-157981846D01*
X212835752Y-111554552D02*
X213210751Y-111929550D01*
X212835759Y-145554552D02*
X213210758Y-145929553D01*
X225629292Y-171191442D02*
X225537425Y-171244470D01*
X230983684Y-162054780D02*
X230983678Y-166004776D01*
X213210751Y-111929550D02*
X213210747Y-115204546D01*
X213210745Y-132204553D02*
X212910752Y-132504555D01*
X212910754Y-115504554D02*
X212910745Y-128479545D01*
X213210758Y-128929547D02*
X213210745Y-132204553D01*
X226487312Y-167409660D02*
X226593383Y-167593369D01*
X213210750Y-149204545D02*
X212910756Y-149504549D01*
X228933679Y-160004778D02*
X230983684Y-162054780D01*
X212910745Y-128479545D02*
X212835758Y-128554551D01*
X212835758Y-128554551D02*
X213210758Y-128929547D01*
X212910752Y-157981846D02*
X214933678Y-160004777D01*
X213210747Y-115204546D02*
X212910754Y-115504554D01*
X226593383Y-167593369D02*
X225629292Y-171191442D01*
X230983678Y-166004776D02*
X230192795Y-166461392D01*
X213210758Y-145929553D02*
X213210750Y-149204545D01*
X214933678Y-160004777D02*
X228933679Y-160004778D01*
X212910749Y-145479553D02*
X212835759Y-145554552D01*
X212910752Y-132504555D02*
X212910749Y-145479553D01*
%TO.N,index_bottom*%
X217710750Y-155454547D02*
X217760754Y-155504545D01*
X217710752Y-154004551D02*
X217710750Y-155454547D01*
X224385752Y-147754548D02*
X221861654Y-150278647D01*
X221102961Y-150278648D02*
X217710755Y-153670862D01*
X221861654Y-150278647D02*
X221102961Y-150278648D01*
X217710755Y-153670862D02*
X217710752Y-154004551D01*
%TO.N,index_home*%
X217710746Y-138454545D02*
X217760741Y-138504552D01*
X221752067Y-132629550D02*
X217710749Y-136670870D01*
X222510763Y-132629549D02*
X221752067Y-132629550D01*
X224385746Y-130754545D02*
X222510763Y-132629549D01*
X217710750Y-137004544D02*
X217710746Y-138454545D01*
X217710749Y-136670870D02*
X217710750Y-137004544D01*
%TO.N,index_top*%
X224385746Y-113754546D02*
X221861650Y-116278650D01*
X221861650Y-116278650D02*
X221102966Y-116278650D01*
X217710751Y-120004548D02*
X217710749Y-121454551D01*
X217710749Y-121454551D02*
X217760756Y-121504553D01*
X221102966Y-116278650D02*
X217710754Y-119670871D01*
X217710754Y-119670871D02*
X217710751Y-120004548D01*
%TO.N,COL4*%
X231210747Y-152204553D02*
X230910753Y-152504553D01*
X230910749Y-118504549D02*
X230910751Y-131479546D01*
X230910756Y-148479546D02*
X230835754Y-148554548D01*
X230985751Y-131704542D02*
X230985748Y-135429549D01*
X231651538Y-167175279D02*
X231433675Y-166504779D01*
X231210759Y-118204546D02*
X230910749Y-118504549D01*
X231433681Y-154461156D02*
X230910757Y-153938226D01*
X230910751Y-131479546D02*
X230835753Y-131554548D01*
X248100542Y-175977341D02*
X246613728Y-178895386D01*
X247936657Y-175472964D02*
X248100542Y-175977341D01*
X230910757Y-135504554D02*
X230910756Y-148479546D01*
X246613728Y-178895386D02*
X246210228Y-179026488D01*
X231433675Y-166504779D02*
X231433681Y-154461156D01*
X231210750Y-114929549D02*
X231210759Y-118204546D01*
X230910757Y-153938226D02*
X230910753Y-152504553D01*
X230835753Y-114554552D02*
X231210750Y-114929549D01*
X231210749Y-148929548D02*
X231210747Y-152204553D01*
X230985748Y-135429549D02*
X230910757Y-135504554D01*
X230835754Y-148554548D02*
X231210749Y-148929548D01*
X247936658Y-175472960D02*
X231651538Y-167175279D01*
X230835753Y-131554548D02*
X230985751Y-131704542D01*
%TO.N,inner_bottom*%
X235710750Y-157004541D02*
X235710756Y-158454542D01*
X235710755Y-156670869D02*
X235710750Y-157004541D01*
X239102971Y-153278647D02*
X235710755Y-156670869D01*
X242385757Y-150754544D02*
X239861658Y-153278645D01*
X239861658Y-153278645D02*
X239102971Y-153278647D01*
X235710756Y-158454542D02*
X235760756Y-158504546D01*
%TO.N,inner_home*%
X239861651Y-136278650D02*
X239102972Y-136278653D01*
X235710759Y-140004546D02*
X235710756Y-141454549D01*
X242385749Y-133754554D02*
X239861651Y-136278650D01*
X235710756Y-141454549D02*
X235760752Y-141504545D01*
X239102972Y-136278653D02*
X235710763Y-139670863D01*
X235710763Y-139670863D02*
X235710759Y-140004546D01*
%TO.N,inner_top*%
X235710749Y-123004550D02*
X235710758Y-124454541D01*
X238442579Y-119278642D02*
X235710755Y-122010478D01*
X239861656Y-119278645D02*
X238442579Y-119278642D01*
X235710758Y-124454541D02*
X235760749Y-124504557D01*
X235710755Y-122010478D02*
X235710749Y-123004550D01*
X242385750Y-116754546D02*
X239861656Y-119278645D01*
%TO.N,inner_sole*%
X233982983Y-174308860D02*
X233013382Y-174049056D01*
X229158994Y-176274388D02*
X229009188Y-176833470D01*
X229009188Y-176833470D02*
X228633894Y-178234074D01*
X228633894Y-178234074D02*
X228669247Y-178295307D01*
X237074357Y-172524049D02*
X233982983Y-174308860D01*
X233013382Y-174049056D02*
X229158994Y-176274388D01*
%TO.N,outer_sole*%
X248595585Y-184917854D02*
X248444094Y-185215175D01*
X253158110Y-183435402D02*
X248595585Y-184917854D01*
X248444094Y-185215175D02*
X247785808Y-186507130D01*
X253834100Y-183779838D02*
X253158110Y-183435402D01*
X257229001Y-182676767D02*
X253834100Y-183779838D01*
X247785808Y-186507130D02*
X247807655Y-186574379D01*
%TO.N,ROW2*%
X232510755Y-158454549D02*
X232460754Y-158504551D01*
X214510748Y-155454541D02*
X214460745Y-155504548D01*
X178510752Y-153454545D02*
X178460759Y-153504547D01*
X196510749Y-145454549D02*
X196460756Y-145504545D01*
X232510753Y-157004550D02*
X232510755Y-158454549D01*
X160859310Y-169953134D02*
X160815783Y-170008847D01*
X178510751Y-152004544D02*
X178510752Y-153454545D01*
X196510747Y-144004552D02*
X196510749Y-145454549D01*
X214510752Y-154004549D02*
X214510748Y-155454541D01*
X160682601Y-168513946D02*
X160859310Y-169953134D01*
%TO.N,ROW1*%
X196510747Y-127004553D02*
X196510751Y-128454551D01*
X178510754Y-136454550D02*
X178460754Y-136504552D01*
X260410755Y-140904549D02*
X260410750Y-150574551D01*
X232510758Y-141454551D02*
X232460749Y-141504554D01*
X232510757Y-140004549D02*
X232510758Y-141454551D01*
X196510751Y-128454551D02*
X196460750Y-128504544D01*
X214510752Y-137004542D02*
X214510754Y-138454547D01*
X178510743Y-135004545D02*
X178510754Y-136454550D01*
X260410750Y-150574551D02*
X262230752Y-152394547D01*
X214510754Y-138454547D02*
X214460748Y-138504551D01*
X158787529Y-153079845D02*
X158743996Y-153135564D01*
X158610819Y-151640655D02*
X158787529Y-153079845D01*
%TO.N,ROW0*%
X258910748Y-130984547D02*
X258910759Y-149804548D01*
X156715750Y-136206569D02*
X156672218Y-136262285D01*
X178510756Y-118004552D02*
X178510750Y-119454546D01*
X214510752Y-121454543D02*
X214460754Y-121504556D01*
X196510747Y-111454549D02*
X196460751Y-111504553D01*
X156539038Y-134767372D02*
X156715750Y-136206569D01*
X232510753Y-123004549D02*
X232510754Y-124454554D01*
X196510755Y-110004546D02*
X196510747Y-111454549D01*
X178510750Y-119454546D02*
X178460750Y-119504549D01*
X214510752Y-120004551D02*
X214510752Y-121454543D01*
X232510754Y-124454554D02*
X232460756Y-124504547D01*
%TO.N,ROW3*%
X225918223Y-176005252D02*
X225542938Y-177405846D01*
X245592873Y-183762400D02*
X244934591Y-185054357D01*
X245592873Y-183762400D02*
X247423892Y-184695353D01*
X254196707Y-176748095D02*
X262230754Y-168714044D01*
X250687714Y-183634868D02*
X254196707Y-176748095D01*
X225542938Y-177405846D02*
X225481697Y-177441197D01*
X247423892Y-184695353D02*
X250687714Y-183634868D01*
X244934591Y-185054357D02*
X244867333Y-185076207D01*
X262230754Y-168714044D02*
X262230756Y-157474546D01*
%TO.N,RAW*%
X251905753Y-129534550D02*
X252360748Y-129079544D01*
X246990752Y-129534543D02*
X251905753Y-129534550D01*
%TO.N,GND*%
X262360749Y-127004549D02*
X262216679Y-127004558D01*
X259785753Y-133929545D02*
X259785754Y-165365562D01*
X260410758Y-128810480D02*
X260410760Y-133304548D01*
X262216679Y-127004558D02*
X260410758Y-128810480D01*
X260410760Y-133304548D02*
X259785753Y-133929545D01*
X259785754Y-165365562D02*
X259924737Y-165504549D01*
X262230760Y-134614552D02*
X262230752Y-137154545D01*
X256310753Y-165504549D02*
X259924737Y-165504549D01*
%TO.N,RST*%
X248210747Y-165504548D02*
X252910747Y-165504545D01*
X248210746Y-135834545D02*
X248210747Y-165504548D01*
X246990751Y-134614552D02*
X248210746Y-135834545D01*
X252910747Y-165504545D02*
X252910746Y-165504549D01*
%TO.N,POSITIVE*%
X254019031Y-129079545D02*
X255360757Y-129079549D01*
X246860754Y-127004551D02*
X251944018Y-127004549D01*
X251944018Y-127004549D02*
X254019031Y-129079545D01*
%TD*%
M02*
