%TF.GenerationSoftware,KiCad,Pcbnew,7.0.11*%
%TF.CreationDate,2024-03-03T17:55:26+13:00*%
%TF.ProjectId,socius-choc-v1,736f6369-7573-42d6-9368-6f632d76312e,v1.0.0*%
%TF.SameCoordinates,Original*%
%TF.FileFunction,Paste,Bot*%
%TF.FilePolarity,Positive*%
%FSLAX46Y46*%
G04 Gerber Fmt 4.6, Leading zero omitted, Abs format (unit mm)*
G04 Created by KiCad (PCBNEW 7.0.11) date 2024-03-03 17:55:26*
%MOMM*%
%LPD*%
G01*
G04 APERTURE LIST*
G04 Aperture macros list*
%AMRotRect*
0 Rectangle, with rotation*
0 The origin of the aperture is its center*
0 $1 length*
0 $2 width*
0 $3 Rotation angle, in degrees counterclockwise*
0 Add horizontal line*
21,1,$1,$2,0,0,$3*%
G04 Aperture macros list end*
%ADD10R,0.900000X0.900000*%
%ADD11R,0.900000X1.250000*%
%ADD12R,0.900000X1.200000*%
%ADD13RotRect,2.600000X2.600000X7.000000*%
%ADD14R,0.900000X1.700000*%
%ADD15RotRect,0.900000X1.200000X333.000000*%
%ADD16R,2.600000X2.600000*%
%ADD17RotRect,0.900000X1.200000X345.000000*%
%ADD18RotRect,0.900000X1.200000X7.000000*%
%ADD19RotRect,2.600000X2.600000X333.000000*%
%ADD20RotRect,2.600000X2.600000X345.000000*%
G04 APERTURE END LIST*
D10*
%TO.C,T1*%
X250910738Y-125904546D03*
X250910738Y-128104546D03*
X258310738Y-125904546D03*
X258310738Y-128104546D03*
D11*
X252360738Y-129079546D03*
X255360738Y-129079546D03*
X256860738Y-129079546D03*
%TD*%
D12*
%TO.C,D5*%
X178460754Y-136504550D03*
X181760754Y-136504550D03*
%TD*%
%TO.C,D8*%
X196460752Y-128504553D03*
X199760752Y-128504553D03*
%TD*%
D13*
%TO.C,S1*%
X157990285Y-160331052D03*
X169722305Y-161107063D03*
%TD*%
D12*
%TO.C,D13*%
X232460751Y-158504545D03*
X235760751Y-158504545D03*
%TD*%
D14*
%TO.C,*%
X256310750Y-165504548D03*
X252910750Y-165504548D03*
%TD*%
D12*
%TO.C,D10*%
X214460749Y-155504543D03*
X217760749Y-155504543D03*
%TD*%
%TO.C,D14*%
X232460743Y-141504549D03*
X235760743Y-141504549D03*
%TD*%
D15*
%TO.C,D17*%
X244867333Y-185076203D03*
X247807655Y-186574371D03*
%TD*%
D16*
%TO.C,S15*%
X230835753Y-114554547D03*
X242385753Y-116754547D03*
%TD*%
D12*
%TO.C,D9*%
X196460752Y-111504549D03*
X199760752Y-111504549D03*
%TD*%
%TO.C,D12*%
X214460752Y-121504556D03*
X217760752Y-121504556D03*
%TD*%
D16*
%TO.C,S6*%
X176835754Y-109554549D03*
X188385754Y-111754549D03*
%TD*%
D13*
%TO.C,S2*%
X155918512Y-143457765D03*
X167650532Y-144233776D03*
%TD*%
D17*
%TO.C,D16*%
X225481695Y-177441203D03*
X228669251Y-178295305D03*
%TD*%
D16*
%TO.C,S8*%
X194835750Y-118554543D03*
X206385750Y-120754543D03*
%TD*%
D12*
%TO.C,D4*%
X178460757Y-153504551D03*
X181760757Y-153504551D03*
%TD*%
D18*
%TO.C,D2*%
X158743997Y-153135564D03*
X162019399Y-152733396D03*
%TD*%
D16*
%TO.C,S7*%
X194835752Y-135554545D03*
X206385752Y-137754545D03*
%TD*%
D18*
%TO.C,D3*%
X156672218Y-136262284D03*
X159947620Y-135860116D03*
%TD*%
D12*
%TO.C,D6*%
X178460751Y-119504549D03*
X181760751Y-119504549D03*
%TD*%
D16*
%TO.C,S5*%
X176835756Y-126554549D03*
X188385756Y-128754549D03*
%TD*%
%TO.C,S11*%
X212835747Y-128554548D03*
X224385747Y-130754548D03*
%TD*%
%TO.C,S13*%
X230835749Y-148554545D03*
X242385749Y-150754545D03*
%TD*%
D19*
%TO.C,S17*%
X247936658Y-175472962D03*
X257229004Y-182676767D03*
%TD*%
D16*
%TO.C,S14*%
X230835751Y-131554549D03*
X242385751Y-133754549D03*
%TD*%
D13*
%TO.C,S3*%
X153846731Y-126584483D03*
X165578751Y-127360494D03*
%TD*%
D12*
%TO.C,D11*%
X214460751Y-138504549D03*
X217760751Y-138504549D03*
%TD*%
%TO.C,D15*%
X232460753Y-124504551D03*
X235760753Y-124504551D03*
%TD*%
D16*
%TO.C,S12*%
X212835757Y-111554550D03*
X224385757Y-113754550D03*
%TD*%
D20*
%TO.C,S16*%
X226487323Y-167409653D03*
X237074365Y-172524050D03*
%TD*%
D12*
%TO.C,D7*%
X196460757Y-145504552D03*
X199760757Y-145504552D03*
%TD*%
D18*
%TO.C,D1*%
X160815783Y-170008847D03*
X164091185Y-169606679D03*
%TD*%
D16*
%TO.C,S9*%
X194835750Y-101554552D03*
X206385750Y-103754552D03*
%TD*%
%TO.C,S4*%
X176835751Y-143554544D03*
X188385751Y-145754544D03*
%TD*%
%TO.C,S10*%
X212835752Y-145554552D03*
X224385752Y-147754552D03*
%TD*%
M02*
