%TF.GenerationSoftware,KiCad,Pcbnew,7.0.11*%
%TF.CreationDate,2024-03-03T17:55:26+13:00*%
%TF.ProjectId,socius-choc-v1,736f6369-7573-42d6-9368-6f632d76312e,v1.0.0*%
%TF.SameCoordinates,Original*%
%TF.FileFunction,Soldermask,Bot*%
%TF.FilePolarity,Negative*%
%FSLAX46Y46*%
G04 Gerber Fmt 4.6, Leading zero omitted, Abs format (unit mm)*
G04 Created by KiCad (PCBNEW 7.0.11) date 2024-03-03 17:55:26*
%MOMM*%
%LPD*%
G01*
G04 APERTURE LIST*
G04 Aperture macros list*
%AMRoundRect*
0 Rectangle with rounded corners*
0 $1 Rounding radius*
0 $2 $3 $4 $5 $6 $7 $8 $9 X,Y pos of 4 corners*
0 Add a 4 corners polygon primitive as box body*
4,1,4,$2,$3,$4,$5,$6,$7,$8,$9,$2,$3,0*
0 Add four circle primitives for the rounded corners*
1,1,$1+$1,$2,$3*
1,1,$1+$1,$4,$5*
1,1,$1+$1,$6,$7*
1,1,$1+$1,$8,$9*
0 Add four rect primitives between the rounded corners*
20,1,$1+$1,$2,$3,$4,$5,0*
20,1,$1+$1,$4,$5,$6,$7,0*
20,1,$1+$1,$6,$7,$8,$9,0*
20,1,$1+$1,$8,$9,$2,$3,0*%
G04 Aperture macros list end*
%ADD10RoundRect,0.050000X-0.450000X-0.450000X0.450000X-0.450000X0.450000X0.450000X-0.450000X0.450000X0*%
%ADD11C,1.100000*%
%ADD12RoundRect,0.050000X-0.450000X-0.625000X0.450000X-0.625000X0.450000X0.625000X-0.450000X0.625000X0*%
%ADD13RoundRect,0.050000X-0.450000X-0.600000X0.450000X-0.600000X0.450000X0.600000X-0.450000X0.600000X0*%
%ADD14C,1.801800*%
%ADD15C,3.100000*%
%ADD16C,3.529000*%
%ADD17RoundRect,0.050000X-1.131880X-1.448740X1.448740X-1.131880X1.131880X1.448740X-1.448740X1.131880X0*%
%ADD18RoundRect,0.050000X0.450000X0.850000X-0.450000X0.850000X-0.450000X-0.850000X0.450000X-0.850000X0*%
%ADD19RoundRect,0.050000X-0.876300X0.876300X-0.876300X-0.876300X0.876300X-0.876300X0.876300X0.876300X0*%
%ADD20C,1.852600*%
%ADD21RoundRect,0.050000X-0.673347X-0.330308X0.128559X-0.738900X0.673347X0.330308X-0.128559X0.738900X0*%
%ADD22RoundRect,0.050000X-1.300000X-1.300000X1.300000X-1.300000X1.300000X1.300000X-1.300000X1.300000X0*%
%ADD23RoundRect,0.050000X-0.589958X-0.463087X0.279375X-0.696024X0.589958X0.463087X-0.279375X0.696024X0*%
%ADD24RoundRect,0.050000X-0.373524X-0.650369X0.519767X-0.540686X0.373524X0.650369X-0.519767X0.540686X0*%
%ADD25RoundRect,0.050000X-1.748496X-0.568121X0.568121X-1.748496X1.748496X0.568121X-0.568121X1.748496X0*%
%ADD26RoundRect,0.050000X-0.700000X0.700000X-0.700000X-0.700000X0.700000X-0.700000X0.700000X0.700000X0*%
%ADD27C,1.500000*%
%ADD28RoundRect,0.050000X-1.592168X-0.919239X0.919239X-1.592168X1.592168X0.919239X-0.919239X1.592168X0*%
G04 APERTURE END LIST*
D10*
%TO.C,T1*%
X250910738Y-125904546D03*
X250910738Y-128104546D03*
D11*
X253110738Y-127004546D03*
X256110738Y-127004546D03*
D10*
X258310738Y-125904546D03*
X258310738Y-128104546D03*
D12*
X252360738Y-129079546D03*
X255360738Y-129079546D03*
X256860738Y-129079546D03*
%TD*%
D13*
%TO.C,D5*%
X178460754Y-136504550D03*
X181760754Y-136504550D03*
%TD*%
%TO.C,D8*%
X196460752Y-128504553D03*
X199760752Y-128504553D03*
%TD*%
D14*
%TO.C,S1*%
X156506992Y-166507861D03*
D15*
X156546255Y-162724879D03*
X161240873Y-159931930D03*
X161240873Y-159931930D03*
D16*
X161965996Y-165837580D03*
D15*
X166471717Y-161506185D03*
D14*
X167425000Y-165167299D03*
D17*
X157990285Y-160331052D03*
X169722305Y-161107063D03*
%TD*%
D13*
%TO.C,D13*%
X232460751Y-158504545D03*
X235760751Y-158504545D03*
%TD*%
D18*
%TO.C,*%
X256310750Y-165504548D03*
X252910750Y-165504548D03*
%TD*%
D13*
%TO.C,D10*%
X214460749Y-155504543D03*
X217760749Y-155504543D03*
%TD*%
%TO.C,D14*%
X232460743Y-141504549D03*
X235760743Y-141504549D03*
%TD*%
D19*
%TO.C,MCU1*%
X262230757Y-129534549D03*
D20*
X246990757Y-129534549D03*
X246990757Y-132074549D03*
X246990757Y-134614549D03*
X246990757Y-137154549D03*
X246990757Y-139694549D03*
X246990757Y-142234549D03*
X246990757Y-144774549D03*
X246990757Y-147314549D03*
X246990757Y-149854549D03*
X246990757Y-152394549D03*
X246990757Y-154934549D03*
X246990757Y-157474549D03*
X262230757Y-129534549D03*
X262230757Y-132074549D03*
X262230757Y-134614549D03*
X262230757Y-137154549D03*
X262230757Y-139694549D03*
X262230757Y-142234549D03*
X262230757Y-144774549D03*
X262230757Y-147314549D03*
X262230757Y-149854549D03*
X262230757Y-152394549D03*
X262230757Y-154934549D03*
X262230757Y-157474549D03*
%TD*%
D21*
%TO.C,D17*%
X244867333Y-185076203D03*
X247807655Y-186574371D03*
%TD*%
D14*
%TO.C,S15*%
X228610753Y-120504547D03*
D15*
X229110753Y-116754547D03*
X234110753Y-114554547D03*
X234110753Y-114554547D03*
D16*
X234110753Y-120504547D03*
D15*
X239110753Y-116754547D03*
D14*
X239610753Y-120504547D03*
D22*
X230835753Y-114554547D03*
X242385753Y-116754547D03*
%TD*%
D13*
%TO.C,D9*%
X196460752Y-111504549D03*
X199760752Y-111504549D03*
%TD*%
%TO.C,D12*%
X214460752Y-121504556D03*
X217760752Y-121504556D03*
%TD*%
D14*
%TO.C,S6*%
X174610754Y-115504549D03*
D15*
X175110754Y-111754549D03*
X180110754Y-109554549D03*
X180110754Y-109554549D03*
D16*
X180110754Y-115504549D03*
D15*
X185110754Y-111754549D03*
D14*
X185610754Y-115504549D03*
D22*
X176835754Y-109554549D03*
X188385754Y-111754549D03*
%TD*%
D14*
%TO.C,S2*%
X154435219Y-149634574D03*
D15*
X154474482Y-145851592D03*
X159169100Y-143058643D03*
X159169100Y-143058643D03*
D16*
X159894223Y-148964293D03*
D15*
X164399944Y-144632898D03*
D14*
X165353227Y-148294012D03*
D17*
X155918512Y-143457765D03*
X167650532Y-144233776D03*
%TD*%
D23*
%TO.C,D16*%
X225481695Y-177441203D03*
X228669251Y-178295305D03*
%TD*%
D14*
%TO.C,S8*%
X192610750Y-124504543D03*
D15*
X193110750Y-120754543D03*
X198110750Y-118554543D03*
X198110750Y-118554543D03*
D16*
X198110750Y-124504543D03*
D15*
X203110750Y-120754543D03*
D14*
X203610750Y-124504543D03*
D22*
X194835750Y-118554543D03*
X206385750Y-120754543D03*
%TD*%
D13*
%TO.C,D4*%
X178460757Y-153504551D03*
X181760757Y-153504551D03*
%TD*%
D24*
%TO.C,D2*%
X158743997Y-153135564D03*
X162019399Y-152733396D03*
%TD*%
D14*
%TO.C,S7*%
X192610752Y-141504545D03*
D15*
X193110752Y-137754545D03*
X198110752Y-135554545D03*
X198110752Y-135554545D03*
D16*
X198110752Y-141504545D03*
D15*
X203110752Y-137754545D03*
D14*
X203610752Y-141504545D03*
D22*
X194835752Y-135554545D03*
X206385752Y-137754545D03*
%TD*%
D24*
%TO.C,D3*%
X156672218Y-136262284D03*
X159947620Y-135860116D03*
%TD*%
D13*
%TO.C,D6*%
X178460751Y-119504549D03*
X181760751Y-119504549D03*
%TD*%
D14*
%TO.C,S5*%
X174610756Y-132504549D03*
D15*
X175110756Y-128754549D03*
X180110756Y-126554549D03*
X180110756Y-126554549D03*
D16*
X180110756Y-132504549D03*
D15*
X185110756Y-128754549D03*
D14*
X185610756Y-132504549D03*
D22*
X176835756Y-126554549D03*
X188385756Y-128754549D03*
%TD*%
D14*
%TO.C,S11*%
X210610747Y-134504548D03*
D15*
X211110747Y-130754548D03*
X216110747Y-128554548D03*
X216110747Y-128554548D03*
D16*
X216110747Y-134504548D03*
D15*
X221110747Y-130754548D03*
D14*
X221610747Y-134504548D03*
D22*
X212835747Y-128554548D03*
X224385747Y-130754548D03*
%TD*%
D14*
%TO.C,S13*%
X228610749Y-154504545D03*
D15*
X229110749Y-150754545D03*
X234110749Y-148554545D03*
X234110749Y-148554545D03*
D16*
X234110749Y-154504545D03*
D15*
X239110749Y-150754545D03*
D14*
X239610749Y-154504545D03*
D22*
X230835749Y-148554545D03*
X242385749Y-150754545D03*
%TD*%
D14*
%TO.C,S17*%
X243252925Y-179764322D03*
D15*
X245400893Y-176650043D03*
X250854704Y-176959781D03*
X250854704Y-176959781D03*
D16*
X248153461Y-182261270D03*
D15*
X254310958Y-181189948D03*
D14*
X253053997Y-184758218D03*
D25*
X247936658Y-175472962D03*
X257229004Y-182676767D03*
%TD*%
D26*
%TO.C,*%
X246860738Y-127004546D03*
D27*
X262360738Y-127004546D03*
%TD*%
D14*
%TO.C,S14*%
X228610751Y-137504549D03*
D15*
X229110751Y-133754549D03*
X234110751Y-131554549D03*
X234110751Y-131554549D03*
D16*
X234110751Y-137504549D03*
D15*
X239110751Y-133754549D03*
D14*
X239610751Y-137504549D03*
D22*
X230835751Y-131554549D03*
X242385751Y-133754549D03*
%TD*%
D14*
%TO.C,S3*%
X152363438Y-132761292D03*
D15*
X152402701Y-128978310D03*
X157097319Y-126185361D03*
X157097319Y-126185361D03*
D16*
X157822442Y-132091011D03*
D15*
X162328163Y-127759616D03*
D14*
X163281446Y-131420730D03*
D17*
X153846731Y-126584483D03*
X165578751Y-127360494D03*
%TD*%
D13*
%TO.C,D11*%
X214460751Y-138504549D03*
X217760751Y-138504549D03*
%TD*%
%TO.C,D15*%
X232460753Y-124504551D03*
X235760753Y-124504551D03*
%TD*%
D14*
%TO.C,S12*%
X210610757Y-117504550D03*
D15*
X211110757Y-113754550D03*
X216110757Y-111554550D03*
X216110757Y-111554550D03*
D16*
X216110757Y-117504550D03*
D15*
X221110757Y-113754550D03*
D14*
X221610757Y-117504550D03*
D22*
X212835757Y-111554550D03*
X224385757Y-113754550D03*
%TD*%
D14*
%TO.C,S16*%
X222798165Y-172581039D03*
D15*
X224251699Y-169088227D03*
X229650730Y-168257285D03*
X229650730Y-168257285D03*
D16*
X228110757Y-174004544D03*
D15*
X233910958Y-171676417D03*
D14*
X233423349Y-175428049D03*
D28*
X226487323Y-167409653D03*
X237074365Y-172524050D03*
%TD*%
D13*
%TO.C,D7*%
X196460757Y-145504552D03*
X199760757Y-145504552D03*
%TD*%
D24*
%TO.C,D1*%
X160815783Y-170008847D03*
X164091185Y-169606679D03*
%TD*%
D14*
%TO.C,S9*%
X192610750Y-107504552D03*
D15*
X193110750Y-103754552D03*
X198110750Y-101554552D03*
X198110750Y-101554552D03*
D16*
X198110750Y-107504552D03*
D15*
X203110750Y-103754552D03*
D14*
X203610750Y-107504552D03*
D22*
X194835750Y-101554552D03*
X206385750Y-103754552D03*
%TD*%
D14*
%TO.C,S4*%
X174610751Y-149504544D03*
D15*
X175110751Y-145754544D03*
X180110751Y-143554544D03*
X180110751Y-143554544D03*
D16*
X180110751Y-149504544D03*
D15*
X185110751Y-145754544D03*
D14*
X185610751Y-149504544D03*
D22*
X176835751Y-143554544D03*
X188385751Y-145754544D03*
%TD*%
D14*
%TO.C,S10*%
X210610752Y-151504552D03*
D15*
X211110752Y-147754552D03*
X216110752Y-145554552D03*
X216110752Y-145554552D03*
D16*
X216110752Y-151504552D03*
D15*
X221110752Y-147754552D03*
D14*
X221610752Y-151504552D03*
D22*
X212835752Y-145554552D03*
X224385752Y-147754552D03*
%TD*%
M02*
