0
SECTION
2
HEADER
9
$INSUNITS
70
4
0
ENDSEC
0
SECTION
2
TABLES
0
TABLE
2
LTYPE
0
LTYPE
72
65
70
64
2
CONTINUOUS
3
______
73
0
40
0
0
ENDTAB
0
TABLE
2
LAYER
0
ENDTAB
0
ENDSEC
0
SECTION
2
ENTITIES
0
LINE
8
0
10
153.1085549
20
-170.5434451
11
170.7159994
21
-168.3815228
0
LINE
8
0
10
144.8167241
20
-119.4229205
11
150.879724
21
-168.8020915
0
ARC
8
0
10
152.8648163
20
-168.5583528
40
2
50
187
51
277
0
LINE
8
0
10
146.5580777
20
-117.1940895
11
169.1165763
21
-114.4242542
0
ARC
8
0
10
146.8018164
20
-119.1791818
40
2
50
97
51
187
0
LINE
8
0
10
189.3665763
20
-114.5348313
11
189.3665763
21
-110.4748824
0
ARC
8
0
10
187.3665763
20
-110.4748824
40
2
50
0
51
90
0
LINE
8
0
10
187.3665763
20
-108.4748824
11
171.1165763
21
-108.4748824
0
ARC
8
0
10
171.1165763
20
-110.4748824
40
2
50
90
51
180
0
LINE
8
0
10
169.1165763
20
-110.4748824
11
169.1165763
21
-114.4242542
0
LINE
8
0
10
210.7948518
20
-111.0713275
11
211.0573525
21
-106.0625148
0
ARC
8
0
10
209.0600934
20
-105.9578428
40
2
50
357
51
87
0
LINE
8
0
10
209.1647653
20
-103.9605838
11
192.9370354
21
-103.1101245
0
ARC
8
0
10
192.8323635
20
-105.1073836
40
2
50
87
51
177
0
LINE
8
0
10
190.8351044
20
-105.0027116
11
190.3219358
21
-114.7945525
0
LINE
8
0
10
229.1133112
20
-115.0197662
11
229.1656472
21
-114.0211367
0
ARC
8
0
10
227.1683881
20
-113.9164647
40
2
50
357
51
87
0
LINE
8
0
10
227.27306
20
-111.9192057
11
211.0453301
21
-111.0687464
0
ARC
8
0
10
210.9406582
20
-113.0660055
40
2
50
87
51
94.1807547
0
LINE
8
0
10
246.5983653
20
-130.0936967
11
247.2336283
21
-117.9721565
0
ARC
8
0
10
245.2363692
20
-117.8674845
40
2
50
357
51
87
0
LINE
8
0
10
245.3410411
20
-115.8702255
11
229.1133112
21
-115.0197662
0
LINE
8
0
10
217.8105292
20
-186.4690263
11
233.6440428
21
-190.1244809
0
ARC
8
0
10
234.0939449
20
-188.1757408
40
2
50
257
51
265.0936468
0
ARC
8
0
10
218.2604313
20
-184.5202861
40
2
50
254.4039183
51
257
0
LINE
8
0
10
235.2502133
20
-190.5348376
11
251.2913062
21
-198.7081827
0
ARC
8
0
10
252.1992872
20
-196.9261697
40
2
50
243
51
333
0
LINE
8
0
10
253.9813003
20
-197.8341507
11
260.9046554
21
-184.2463012
0
ARC
8
0
10
259.1226424
20
-183.3383202
40
2
50
333
51
333.0181195
0
LINE
8
0
10
189.3665763
20
-114.5348313
11
190.3219358
21
-114.7945525
0
LINE
8
0
10
246.5983653
20
-130.0936967
11
248.6134024
21
-130.6414987
0
LINE
8
0
10
249.0334018
20
-130.7088045
11
265.0475334
21
-131.5480696
0
LINE
8
0
10
266.9401205
20
-133.6500007
11
265.0597996
21
-169.5286606
0
LINE
8
0
10
265.000944
20
-169.9165247
11
261.867636
21
-182.2478341
0
LINE
8
0
10
261.7112455
20
-182.6632789
11
260.9049425
21
-184.2457376
0
LINE
8
0
10
234.7900393
20
-190.367628
11
233.9228901
21
-190.1684124
0
LINE
8
0
10
217.7227234
20
-186.446648
11
216.0098963
21
-186.0531497
0
LINE
8
0
10
215.7205233
20
-185.9631112
11
171.696918
21
-168.507431
0
ARC
8
0
10
249.1380738
20
-128.7115454
40
2
50
254.7913008
51
266.9999974
0
ARC
8
0
10
264.9428614
20
-133.5453287
40
2
50
356.9999974
51
86.9999974
0
ARC
8
0
10
263.0625405
20
-169.4239886
40
2
50
345.7432139
51
356.9999974
0
ARC
8
0
10
259.9292325
20
-181.7552979
40
2
50
332.9999994
51
345.7432139
0
ARC
8
0
10
234.3422323
20
-192.3168506
40
2
50
62.9999994
51
77.0615914
0
ARC
8
0
10
216.4577033
20
-184.1039271
40
2
50
248.3713155
51
257.0615914
0
ARC
8
0
10
170.959738
20
-170.3666151
40
2
50
68.3713155
51
96.9999972
0
ENDSEC
0
EOF