0
SECTION
2
HEADER
9
$INSUNITS
70
4
0
ENDSEC
0
SECTION
2
TABLES
0
TABLE
2
LTYPE
0
LTYPE
72
65
70
64
2
CONTINUOUS
3
______
73
0
40
0
0
ENDTAB
0
TABLE
2
LAYER
0
ENDTAB
0
ENDSEC
0
SECTION
2
ENTITIES
0
LINE
8
0
10
153.2173895
20
-170.4041432
11
170.8101461
21
-168.2440243
0
LINE
8
0
10
145.0169608
20
-120.0280281
11
150.9885586
21
-168.6627896
0
ARC
8
0
10
152.9736509
20
-168.4190509
40
2
50
187
51
277
0
LINE
8
0
10
146.7583144
20
-117.7991971
11
168.1447522
21
-115.1732727
0
ARC
8
0
10
147.0020531
20
-119.7842894
40
2
50
97
51
187
0
LINE
8
0
10
186.1447522
20
-100.166967
11
170.1447522
21
-100.166967
0
ARC
8
0
10
170.1447522
20
-102.166967
40
2
50
90
51
180
0
LINE
8
0
10
168.1447522
20
-102.166967
11
168.1447522
21
-115.1732727
0
LINE
8
0
10
206.1447523
20
-102.166967
11
206.1447522
21
-94.166967
0
ARC
8
0
10
204.1447522
20
-94.166967
40
2
50
0
51
90
0
LINE
8
0
10
204.1447522
20
-92.166967
11
188.1447522
21
-92.166967
0
ARC
8
0
10
188.1447522
20
-94.166967
40
2
50
90
51
180
0
LINE
8
0
10
186.1447522
20
-94.166967
11
186.1447522
21
-100.166967
0
LINE
8
0
10
224.1447522
20
-105.166967
11
224.1447523
21
-104.166967
0
ARC
8
0
10
222.1447523
20
-104.166967
40
2
50
0
51
90
0
LINE
8
0
10
222.1447523
20
-102.166967
11
206.1447523
21
-102.166967
0
LINE
8
0
10
242.1447522
20
-119.4153747
11
242.1447522
21
-107.166967
0
ARC
8
0
10
240.1447522
20
-107.166967
40
2
50
0
51
90
0
LINE
8
0
10
240.1447522
20
-105.166967
11
224.1447522
21
-105.166967
0
LINE
8
0
10
233.1289448
20
-180.4321371
11
249.0026046
21
-188.5201708
0
ARC
8
0
10
249.9105856
20
-186.7381577
40
2
50
243
51
333
0
LINE
8
0
10
251.6925987
20
-187.6461387
11
259.2901895
21
-172.7350273
0
LINE
8
0
10
242.1447522
20
-119.4153747
11
244.5448733
21
-119.6569155
0
LINE
8
0
10
244.7451357
20
-119.666967
11
260.6447522
21
-119.666967
0
LINE
8
0
10
262.6447522
20
-121.666967
11
262.6447522
21
-156.9583121
0
LINE
8
0
10
262.601684
20
-157.3711291
11
259.4651082
21
-172.2398633
0
LINE
8
0
10
232.7874714
20
-180.2960602
11
214.1572956
21
-174.7936395
0
LINE
8
0
10
213.8921084
20
-174.7345582
11
171.3552051
21
-168.2519454
0
ARC
8
0
10
244.7451357
20
-117.666967
40
2
50
264.2532742
51
270
0
ARC
8
0
10
260.6447522
20
-121.666967
40
2
50
0
51
90
0
ARC
8
0
10
260.6447522
20
-156.9583121
40
2
50
348.0880362
51
0
0
ARC
8
0
10
257.5081765
20
-171.8270463
40
2
50
332.9999994
51
348.0880362
0
ARC
8
0
10
232.2209638
20
-182.2141501
40
2
50
62.9999994
51
73.5455022
0
ARC
8
0
10
213.590788
20
-176.7117294
40
2
50
73.5455022
51
81.3348119
0
ARC
8
0
10
171.0538847
20
-170.2291166
40
2
50
81.3348119
51
96.9999972
0
ENDSEC
0
EOF