0
SECTION
2
HEADER
9
$INSUNITS
70
4
0
ENDSEC
0
SECTION
2
TABLES
0
TABLE
2
LTYPE
0
LTYPE
72
65
70
64
2
CONTINUOUS
3
______
73
0
40
0
0
ENDTAB
0
TABLE
2
LAYER
0
ENDTAB
0
ENDSEC
0
SECTION
2
ENTITIES
0
LINE
8
0
10
222
20
-169.5
11
239.6672239
21
-169.5
0
LINE
8
0
10
220
20
-167.5
11
220
21
-118.5
0
ARC
8
0
10
222
20
-167.5
40
2
50
180
51
270
0
LINE
8
0
10
222
20
-116.5
11
243.5470462
21
-116.5
0
ARC
8
0
10
222
20
-118.5
40
2
50
90
51
180
0
LINE
8
0
10
263.2416856
20
-103.7991971
11
247.3609471
21
-101.8492876
0
ARC
8
0
10
247.1172085
20
-103.8343799
40
2
50
83
51
173
0
LINE
8
0
10
245.1321162
20
-103.5906412
11
243.5470462
21
-116.5
0
LINE
8
0
10
282.8488699
20
-108.2216763
11
283.8238247
21
-100.2813071
0
ARC
8
0
10
281.8387324
20
-100.0375684
40
2
50
353
51
83
0
LINE
8
0
10
282.0824711
20
-98.0524761
11
266.2017326
21
-96.1025666
0
ARC
8
0
10
265.957994
20
-98.0876589
40
2
50
83
51
173
0
LINE
8
0
10
263.9729017
20
-97.8439202
11
263.2416856
21
-103.7991971
0
LINE
8
0
10
300.3490926
20
-113.3929629
11
300.470962
21
-112.4004168
0
ARC
8
0
10
298.4858697
20
-112.1566781
40
2
50
353
51
83
0
LINE
8
0
10
298.7296084
20
-110.1715858
11
282.8488699
21
-108.2216763
0
LINE
8
0
10
317.0633167
20
-124.9656943
11
317.9711847
21
-117.5717034
0
ARC
8
0
10
315.9860924
20
-117.3279647
40
2
50
353
51
83
0
LINE
8
0
10
316.2298311
20
-115.3428724
11
300.3490926
21
-113.3929629
0
LINE
8
0
10
301.2941836
20
-192.6885538
11
314.5587848
21
-201.6356403
0
ARC
8
0
10
315.6771706
20
-199.9775651
40
2
50
236
51
326
0
LINE
8
0
10
317.3352457
20
-201.0959509
11
326.6771774
21
-187.2459677
0
ARC
8
0
10
302.4125694
20
-191.0304787
40
2
50
235.9818811
51
236
0
LINE
8
0
10
196.3327761
20
-169.5
11
214
21
-169.5
0
ARC
8
0
10
214
20
-167.5
40
2
50
270
51
360
0
LINE
8
0
10
216
20
-167.5
11
216
21
-118.5
0
ARC
8
0
10
214
20
-118.5
40
2
50
0
51
90
0
LINE
8
0
10
192.4529538
20
-116.5
11
214
21
-116.5
0
LINE
8
0
10
192.4529538
20
-116.5
11
190.8678838
21
-103.5906412
0
ARC
8
0
10
188.8827915
20
-103.8343799
40
2
50
7
51
97
0
LINE
8
0
10
188.6390529
20
-101.8492876
11
172.7583144
21
-103.7991971
0
LINE
8
0
10
172.7583144
20
-103.7991971
11
172.0270983
21
-97.8439202
0
ARC
8
0
10
170.042006
20
-98.0876589
40
2
50
7
51
97
0
LINE
8
0
10
169.7982674
20
-96.1025666
11
153.9175289
21
-98.0524761
0
ARC
8
0
10
154.1612676
20
-100.0375684
40
2
50
97
51
187
0
LINE
8
0
10
152.1761753
20
-100.2813071
11
153.15113
21
-108.2216763
0
LINE
8
0
10
153.1511301
20
-108.2216763
11
137.2703916
21
-110.1715858
0
ARC
8
0
10
137.5141303
20
-112.1566781
40
2
50
97
51
187
0
LINE
8
0
10
135.529038
20
-112.4004168
11
135.6509073
21
-113.3929629
0
LINE
8
0
10
135.6509074
20
-113.3929629
11
119.7701689
21
-115.3428724
0
ARC
8
0
10
120.0139076
20
-117.3279647
40
2
50
97
51
187
0
LINE
8
0
10
118.0288153
20
-117.5717034
11
118.9366833
21
-124.9656943
0
LINE
8
0
10
121.4412152
20
-201.6356403
11
134.7058164
21
-192.6885538
0
ARC
8
0
10
133.5874306
20
-191.0304787
40
2
50
304
51
304.0181189
0
LINE
8
0
10
109.3228226
20
-187.2459677
11
118.6647543
21
-201.0959509
0
ARC
8
0
10
120.3228294
20
-199.9775651
40
2
50
214
51
304
0
LINE
8
0
10
317.0633167
20
-124.9656943
11
319.5185432
21
-125.3176081
0
LINE
8
0
10
319.5585696
20
-125.3229335
11
335.4192684
21
-127.2703824
0
LINE
8
0
10
337.1606221
20
-129.4992133
11
332.2468391
21
-169.5187649
0
LINE
8
0
10
332.1714722
20
-169.8691209
11
326.9288278
21
-186.7216765
0
LINE
8
0
10
301.2941836
20
-192.6885538
11
301.2936593
21
-192.6882001
0
LINE
8
0
10
301.2936593
20
-192.6882001
11
299.7891284
21
-191.6733812
0
LINE
8
0
10
299.4667841
20
-191.4967035
11
281.594207
21
-183.742356
0
LINE
8
0
10
281.445788
20
-183.6848654
11
240.3148464
21
-169.6077565
0
ARC
8
0
10
319.8023082
20
-123.3378411
40
2
50
261.8432069
51
263.0000028
0
ARC
8
0
10
335.1755298
20
-129.2554747
40
2
50
353.0000028
51
83.0000028
0
ARC
8
0
10
330.2617467
20
-169.2750263
40
2
50
342.7196575
51
353.0000028
0
ARC
8
0
10
325.0191023
20
-186.1275819
40
2
50
326.000001
51
342.7196575
0
ARC
8
0
10
298.6707427
20
-193.3314564
40
2
50
56.000001
51
66.5454982
0
ARC
8
0
10
280.7981655
20
-185.5771089
40
2
50
66.5454982
51
71.1064322
0
ARC
8
0
10
239.6672239
20
-171.5
40
2
50
71.1064322
51
90
0
LINE
8
0
10
118.9366833
20
-124.9656943
11
116.4814568
21
-125.3176081
0
LINE
8
0
10
116.4414304
20
-125.3229335
11
100.5807316
21
-127.2703824
0
LINE
8
0
10
98.8393779
20
-129.4992133
11
103.7531609
21
-169.5187649
0
LINE
8
0
10
103.8285278
20
-169.8691209
11
109.0711722
21
-186.7216765
0
LINE
8
0
10
134.7058164
20
-192.6885538
11
134.7063407
21
-192.6882001
0
LINE
8
0
10
134.7063407
20
-192.6882001
11
136.2108716
21
-191.6733812
0
LINE
8
0
10
136.5332159
20
-191.4967035
11
154.405793
21
-183.742356
0
LINE
8
0
10
154.554212
20
-183.6848654
11
195.6851536
21
-169.6077565
0
ARC
8
0
10
116.1976918
20
-123.3378411
40
2
50
276.9999972
51
278.1567931
0
ARC
8
0
10
100.8244702
20
-129.2554747
40
2
50
96.9999972
51
186.9999972
0
ARC
8
0
10
105.7382533
20
-169.2750263
40
2
50
186.9999972
51
197.2803425
0
ARC
8
0
10
110.9808977
20
-186.1275819
40
2
50
197.2803425
51
213.999999
0
ARC
8
0
10
137.3292573
20
-193.3314564
40
2
50
113.4545018
51
123.999999
0
ARC
8
0
10
155.2018345
20
-185.5771089
40
2
50
108.8935678
51
113.4545018
0
ARC
8
0
10
196.3327761
20
-171.5
40
2
50
90
51
108.8935678
0
ENDSEC
0
EOF