0
SECTION
2
HEADER
9
$INSUNITS
70
4
0
ENDSEC
0
SECTION
2
TABLES
0
TABLE
2
LTYPE
0
LTYPE
72
65
70
64
2
CONTINUOUS
3
______
73
0
40
0
0
ENDTAB
0
TABLE
2
LAYER
0
ENDTAB
0
ENDSEC
0
SECTION
2
ENTITIES
0
LINE
8
0
10
152
20
-169.5
11
169.7248748
21
-169.5
0
LINE
8
0
10
150
20
-167.5
11
150
21
-118.5
0
ARC
8
0
10
152
20
-167.5
40
2
50
180
51
270
0
LINE
8
0
10
152
20
-116.5
11
173.5470462
21
-116.5
0
ARC
8
0
10
152
20
-118.5
40
2
50
90
51
180
0
LINE
8
0
10
193.2416856
20
-103.7991971
11
177.3609471
21
-101.8492876
0
ARC
8
0
10
177.1172085
20
-103.8343799
40
2
50
83
51
173
0
LINE
8
0
10
175.1321162
20
-103.5906412
11
173.5470462
21
-116.5
0
LINE
8
0
10
212.8488699
20
-108.2216763
11
213.8238247
21
-100.2813071
0
ARC
8
0
10
211.8387324
20
-100.0375684
40
2
50
353
51
83
0
LINE
8
0
10
212.0824711
20
-98.0524761
11
196.2017326
21
-96.1025666
0
ARC
8
0
10
195.957994
20
-98.0876589
40
2
50
83
51
173
0
LINE
8
0
10
193.9729017
20
-97.8439202
11
193.2416856
21
-103.7991971
0
LINE
8
0
10
230.3490926
20
-113.3929629
11
230.470962
21
-112.4004168
0
ARC
8
0
10
228.4858697
20
-112.1566781
40
2
50
353
51
83
0
LINE
8
0
10
228.7296084
20
-110.1715858
11
212.8488699
21
-108.2216763
0
LINE
8
0
10
246.4784793
20
-129.7288133
11
247.9711847
21
-117.5717034
0
ARC
8
0
10
245.9860924
20
-117.3279647
40
2
50
353
51
83
0
LINE
8
0
10
246.2298311
20
-115.3428724
11
230.3490926
21
-113.3929629
0
LINE
8
0
10
231.598857
20
-190.2071884
11
244.8634582
21
-199.1542749
0
ARC
8
0
10
245.981844
20
-197.4961997
40
2
50
236
51
326
0
LINE
8
0
10
247.6399191
20
-198.6145855
11
256.998086
21
-184.7405326
0
ARC
8
0
10
232.7172428
20
-188.5491133
40
2
50
235.9818811
51
236
0
LINE
8
0
10
246.4784793
20
-129.7288133
11
248.8312739
21
-130.261055
0
LINE
8
0
10
249.0288187
20
-130.2954374
11
264.8099216
21
-132.2331132
0
LINE
8
0
10
266.5512753
20
-134.4619441
11
262.2503423
21
-169.4902329
0
LINE
8
0
10
262.1572854
20
-169.8947241
11
257.2320463
21
-184.2703766
0
LINE
8
0
10
231.598857
20
-190.2071884
11
231.5983327
21
-190.2068347
0
LINE
8
0
10
231.5983327
20
-190.2068347
11
230.0938018
21
-189.1920158
0
LINE
8
0
10
229.7714575
20
-189.0153381
11
211.9507242
21
-181.283484
0
LINE
8
0
10
211.6947137
20
-181.1925249
11
170.2649058
21
-169.574288
0
ARC
8
0
10
249.2725573
20
-128.3103451
40
2
50
257.2532737
51
263.0000028
0
ARC
8
0
10
264.566183
20
-134.2182055
40
2
50
353.0000028
51
83.0000028
0
ARC
8
0
10
260.26525
20
-169.2464943
40
2
50
341.0880395
51
353.0000028
0
ARC
8
0
10
255.3400109
20
-183.6221468
40
2
50
326.000001
51
341.0880395
0
ARC
8
0
10
228.9754161
20
-190.850091
40
2
50
56.000001
51
66.5454982
0
ARC
8
0
10
211.1546827
20
-183.1182368
40
2
50
66.5454982
51
74.3348112
0
ARC
8
0
10
169.7248748
20
-171.5
40
2
50
74.3348112
51
90
0
ENDSEC
0
EOF