0
SECTION
2
HEADER
9
$INSUNITS
70
4
0
ENDSEC
0
SECTION
2
TABLES
0
TABLE
2
LTYPE
0
LTYPE
72
65
70
64
2
CONTINUOUS
3
______
73
0
40
0
0
ENDTAB
0
TABLE
2
LAYER
0
ENDTAB
0
ENDSEC
0
SECTION
2
ENTITIES
0
LINE
8
0
10
220.5
20
-171
11
241.1549252
21
-171
0
LINE
8
0
10
218.5
20
-169
11
218.5
21
-117
0
ARC
8
0
10
220.5
20
-169
40
2
50
180
51
270
0
LINE
8
0
10
220.5
20
-115
11
242.2199584
21
-115
0
ARC
8
0
10
220.5
20
-117
40
2
50
90
51
180
0
LINE
8
0
10
261.9356704
20
-102.1275739
11
246.0549319
21
-100.1776644
0
ARC
8
0
10
245.8111933
20
-102.1627567
40
2
50
83
51
173
0
LINE
8
0
10
243.8261009
20
-101.919018
11
242.2199584
21
-115
0
LINE
8
0
10
284.5204932
20
-106.9156611
11
285.4954479
21
-98.9752919
0
ARC
8
0
10
283.5103556
20
-98.7315532
40
2
50
353
51
83
0
LINE
8
0
10
283.7540943
20
-96.7464609
11
264.8957174
21
-94.4309434
0
ARC
8
0
10
264.6519788
20
-96.4160357
40
2
50
83
51
173
0
LINE
8
0
10
262.6668864
20
-96.172297
11
261.9356704
21
-102.1275739
0
LINE
8
0
10
302.0207159
20
-112.0869477
11
302.1425852
21
-111.0944016
0
ARC
8
0
10
300.1574929
20
-110.8506629
40
2
50
353
51
83
0
LINE
8
0
10
300.4012316
20
-108.8655706
11
284.5204932
21
-106.9156611
0
LINE
8
0
10
318.5602854
20
-125.0821267
11
319.6428079
21
-116.2656882
0
ARC
8
0
10
317.6577156
20
-116.0219495
40
2
50
353
51
83
0
LINE
8
0
10
317.9014543
20
-114.0368572
11
302.0207159
21
-112.0869477
0
LINE
8
0
10
299.2118379
20
-193.0933208
11
314.9635518
21
-203.717986
0
ARC
8
0
10
316.0819376
20
-202.0599108
40
2
50
236
51
326
0
LINE
8
0
10
317.7400128
20
-203.1782966
11
328.7466161
21
-186.8603361
0
ARC
8
0
10
300.3302237
20
-191.4352457
40
2
50
235.9818811
51
236
0
LINE
8
0
10
191.2450748
20
-171
11
211.9
21
-171
0
ARC
8
0
10
211.9
20
-169
40
2
50
270
51
360
0
LINE
8
0
10
213.9
20
-169
11
213.9
21
-117
0
ARC
8
0
10
211.9
20
-117
40
2
50
0
51
90
0
LINE
8
0
10
190.1800417
20
-115
11
211.9
21
-115
0
LINE
8
0
10
188.5738991
20
-101.919018
11
190.1800417
21
-115
0
ARC
8
0
10
186.5888067
20
-102.1627567
40
2
50
7
51
97
0
LINE
8
0
10
186.3450681
20
-100.1776644
11
170.4643296
21
-102.1275739
0
LINE
8
0
10
170.4643296
20
-102.1275739
11
169.7331136
21
-96.172297
0
ARC
8
0
10
167.7480212
20
-96.4160357
40
2
50
7
51
97
0
LINE
8
0
10
167.5042826
20
-94.4309434
11
148.6459057
21
-96.7464609
0
ARC
8
0
10
148.8896444
20
-98.7315532
40
2
50
97
51
187
0
LINE
8
0
10
146.9045521
20
-98.9752919
11
147.8795068
21
-106.9156611
0
LINE
8
0
10
147.8795068
20
-106.9156611
11
131.9987684
21
-108.8655706
0
ARC
8
0
10
132.2425071
20
-110.8506629
40
2
50
97
51
187
0
LINE
8
0
10
130.2574148
20
-111.0944016
11
130.3792841
21
-112.0869477
0
LINE
8
0
10
112.7571921
20
-116.2656882
11
113.8397146
21
-125.0821267
0
LINE
8
0
10
130.3792841
20
-112.0869477
11
114.4985457
21
-114.0368572
0
ARC
8
0
10
114.7422844
20
-116.0219495
40
2
50
97
51
187
0
LINE
8
0
10
117.4364482
20
-203.717986
11
133.1881621
21
-193.0933208
0
ARC
8
0
10
132.0697763
20
-191.4352457
40
2
50
304
51
304.0181189
0
LINE
8
0
10
103.6533839
20
-186.8603361
11
114.6599872
21
-203.1782966
0
ARC
8
0
10
116.3180624
20
-202.0599108
40
2
50
214
51
304
0
LINE
8
0
10
318.5602854
20
-125.0821267
11
320.9811046
21
-125.4953825
0
LINE
8
0
10
321.0739156
20
-125.5089945
11
336.9080876
21
-127.4531864
0
LINE
8
0
10
338.6494413
20
-129.6820173
11
333.73289
21
-169.7241147
0
LINE
8
0
10
333.6704362
20
-170.0312494
11
329.0111795
21
-186.2928236
0
LINE
8
0
10
299.2118379
20
-193.0933208
11
299.2113136
21
-193.0929671
0
LINE
8
0
10
299.2113136
20
-193.0929671
11
297.7212926
21
-192.0879353
0
LINE
8
0
10
297.3670153
20
-191.8977306
11
279.6149576
21
-184.5587457
0
LINE
8
0
10
279.5210474
20
-184.5226597
11
241.8251234
21
-171.1156342
0
ARC
8
0
10
321.3176542
20
-123.5239022
40
2
50
260.3124724
51
263.0000028
0
ARC
8
0
10
336.664349
20
-129.4382787
40
2
50
353.0000028
51
83.0000028
0
ARC
8
0
10
331.7477977
20
-169.4803762
40
2
50
344.011965
51
353.0000028
0
ARC
8
0
10
327.088541
20
-185.7419503
40
2
50
326.000001
51
344.011965
0
ARC
8
0
10
296.6029069
20
-193.7460104
40
2
50
56.000001
51
67.5390169
0
ARC
8
0
10
278.8508492
20
-186.4070255
40
2
50
67.5390169
51
70.421436
0
ARC
8
0
10
241.1549252
20
-173
40
2
50
70.421436
51
90
0
LINE
8
0
10
113.8397146
20
-125.0821267
11
111.4188954
21
-125.4953825
0
LINE
8
0
10
111.3260844
20
-125.5089945
11
95.4919124
21
-127.4531864
0
LINE
8
0
10
93.7505587
20
-129.6820173
11
98.66711
21
-169.7241147
0
LINE
8
0
10
98.7295638
20
-170.0312494
11
103.3888205
21
-186.2928236
0
LINE
8
0
10
133.1881621
20
-193.0933208
11
133.1886864
21
-193.0929671
0
LINE
8
0
10
133.1886864
20
-193.0929671
11
134.6787074
21
-192.0879353
0
LINE
8
0
10
135.0329847
20
-191.8977306
11
152.7850424
21
-184.5587457
0
LINE
8
0
10
152.8789526
20
-184.5226597
11
190.5748766
21
-171.1156342
0
ARC
8
0
10
111.0823458
20
-123.5239022
40
2
50
276.9999972
51
279.6875276
0
ARC
8
0
10
95.735651
20
-129.4382787
40
2
50
96.9999972
51
186.9999972
0
ARC
8
0
10
100.6522023
20
-169.4803762
40
2
50
186.9999972
51
195.988035
0
ARC
8
0
10
105.311459
20
-185.7419503
40
2
50
195.988035
51
213.999999
0
ARC
8
0
10
135.7970931
20
-193.7460104
40
2
50
112.4609831
51
123.999999
0
ARC
8
0
10
153.5491508
20
-186.4070255
40
2
50
109.578564
51
112.4609831
0
ARC
8
0
10
191.2450748
20
-173
40
2
50
90
51
109.578564
0
ENDSEC
0
EOF