0
SECTION
2
HEADER
9
$INSUNITS
70
4
0
ENDSEC
0
SECTION
2
TABLES
0
TABLE
2
LTYPE
0
LTYPE
72
65
70
64
2
CONTINUOUS
3
______
73
0
40
0
0
ENDTAB
0
TABLE
2
LAYER
0
ENDTAB
0
ENDSEC
0
SECTION
2
ENTITIES
0
LINE
8
0
10
222
20
-169.5
11
239.7248748
21
-169.5
0
LINE
8
0
10
220
20
-167.5
11
220
21
-118.5
0
ARC
8
0
10
222
20
-167.5
40
2
50
180
51
270
0
LINE
8
0
10
222
20
-116.5
11
243.5470462
21
-116.5
0
ARC
8
0
10
222
20
-118.5
40
2
50
90
51
180
0
LINE
8
0
10
263.2416856
20
-103.7991971
11
247.3609471
21
-101.8492876
0
ARC
8
0
10
247.1172085
20
-103.8343799
40
2
50
83
51
173
0
LINE
8
0
10
245.1321162
20
-103.5906412
11
243.5470462
21
-116.5
0
LINE
8
0
10
282.8488699
20
-108.2216763
11
283.8238247
21
-100.2813071
0
ARC
8
0
10
281.8387324
20
-100.0375684
40
2
50
353
51
83
0
LINE
8
0
10
282.0824711
20
-98.0524761
11
266.2017326
21
-96.1025666
0
ARC
8
0
10
265.957994
20
-98.0876589
40
2
50
83
51
173
0
LINE
8
0
10
263.9729017
20
-97.8439202
11
263.2416856
21
-103.7991971
0
LINE
8
0
10
300.3490926
20
-113.3929629
11
300.470962
21
-112.4004168
0
ARC
8
0
10
298.4858697
20
-112.1566781
40
2
50
353
51
83
0
LINE
8
0
10
298.7296084
20
-110.1715858
11
282.8488699
21
-108.2216763
0
LINE
8
0
10
316.4784793
20
-129.7288133
11
317.9711847
21
-117.5717034
0
ARC
8
0
10
315.9860924
20
-117.3279647
40
2
50
353
51
83
0
LINE
8
0
10
316.2298311
20
-115.3428724
11
300.3490926
21
-113.3929629
0
LINE
8
0
10
196.2751252
20
-169.5
11
214
21
-169.5
0
ARC
8
0
10
214
20
-167.5
40
2
50
270
51
360
0
LINE
8
0
10
216
20
-167.5
11
216
21
-118.5
0
ARC
8
0
10
214
20
-118.5
40
2
50
0
51
90
0
LINE
8
0
10
192.4529538
20
-116.5
11
214
21
-116.5
0
LINE
8
0
10
192.4529538
20
-116.5
11
190.8678838
21
-103.5906412
0
ARC
8
0
10
188.8827915
20
-103.8343799
40
2
50
7
51
97
0
LINE
8
0
10
188.6390529
20
-101.8492876
11
172.7583144
21
-103.7991971
0
LINE
8
0
10
172.7583144
20
-103.7991971
11
172.0270983
21
-97.8439202
0
ARC
8
0
10
170.042006
20
-98.0876589
40
2
50
7
51
97
0
LINE
8
0
10
169.7982674
20
-96.1025666
11
153.9175289
21
-98.0524761
0
ARC
8
0
10
154.1612676
20
-100.0375684
40
2
50
97
51
187
0
LINE
8
0
10
152.1761753
20
-100.2813071
11
153.15113
21
-108.2216763
0
LINE
8
0
10
153.1511301
20
-108.2216763
11
137.2703916
21
-110.1715858
0
ARC
8
0
10
137.5141303
20
-112.1566781
40
2
50
97
51
187
0
LINE
8
0
10
135.529038
20
-112.4004168
11
135.6509073
21
-113.3929629
0
LINE
8
0
10
135.6509074
20
-113.3929629
11
119.7701689
21
-115.3428724
0
ARC
8
0
10
120.0139076
20
-117.3279647
40
2
50
97
51
187
0
LINE
8
0
10
118.0288153
20
-117.5717034
11
119.5215207
21
-129.7288133
0
LINE
8
0
10
301.598857
20
-190.2071884
11
314.8634582
21
-199.1542749
0
ARC
8
0
10
315.981844
20
-197.4961997
40
2
50
236
51
326
0
LINE
8
0
10
317.6399191
20
-198.6145855
11
326.998086
21
-184.7405326
0
ARC
8
0
10
302.7172428
20
-188.5491133
40
2
50
235.9818811
51
236
0
LINE
8
0
10
121.1365418
20
-199.1542749
11
134.401143
21
-190.2071884
0
ARC
8
0
10
133.2827572
20
-188.5491133
40
2
50
304
51
304.0181189
0
LINE
8
0
10
109.001914
20
-184.7405326
11
118.3600809
21
-198.6145855
0
ARC
8
0
10
120.018156
20
-197.4961997
40
2
50
214
51
304
0
LINE
8
0
10
316.4784793
20
-129.7288133
11
318.8312739
21
-130.261055
0
LINE
8
0
10
319.0288187
20
-130.2954374
11
334.8099216
21
-132.2331132
0
LINE
8
0
10
336.5512753
20
-134.4619441
11
332.2503423
21
-169.4902329
0
LINE
8
0
10
332.1572854
20
-169.8947241
11
327.2320463
21
-184.2703766
0
LINE
8
0
10
301.5983327
20
-190.2068347
11
300.0938018
21
-189.1920158
0
LINE
8
0
10
299.7714575
20
-189.0153381
11
281.9507242
21
-181.283484
0
LINE
8
0
10
281.6947137
20
-181.1925249
11
240.2649058
21
-169.574288
0
ARC
8
0
10
319.2725573
20
-128.3103451
40
2
50
257.2532737
51
263.0000028
0
ARC
8
0
10
334.566183
20
-134.2182055
40
2
50
353.0000028
51
83.0000028
0
ARC
8
0
10
330.26525
20
-169.2464943
40
2
50
341.0880395
51
353.0000028
0
ARC
8
0
10
325.3400109
20
-183.6221468
40
2
50
326.000001
51
341.0880395
0
ARC
8
0
10
298.9754161
20
-190.850091
40
2
50
56.000001
51
66.5454982
0
ARC
8
0
10
281.1546827
20
-183.1182368
40
2
50
66.5454982
51
74.3348112
0
ARC
8
0
10
239.7248748
20
-171.5
40
2
50
74.3348112
51
90
0
LINE
8
0
10
119.5215207
20
-129.7288133
11
117.1687261
21
-130.261055
0
LINE
8
0
10
116.9711813
20
-130.2954374
11
101.1900784
21
-132.2331132
0
LINE
8
0
10
99.4487247
20
-134.4619441
11
103.7496577
21
-169.4902329
0
LINE
8
0
10
103.8427146
20
-169.8947241
11
108.7679537
21
-184.2703766
0
LINE
8
0
10
134.4016673
20
-190.2068347
11
135.9061982
21
-189.1920158
0
LINE
8
0
10
136.2285425
20
-189.0153381
11
154.0492758
21
-181.283484
0
LINE
8
0
10
154.3052863
20
-181.1925249
11
195.7350942
21
-169.574288
0
ARC
8
0
10
116.7274427
20
-128.3103451
40
2
50
276.9999972
51
282.7467263
0
ARC
8
0
10
101.433817
20
-134.2182055
40
2
50
96.9999972
51
186.9999972
0
ARC
8
0
10
105.73475
20
-169.2464943
40
2
50
186.9999972
51
198.9119605
0
ARC
8
0
10
110.6599891
20
-183.6221468
40
2
50
198.9119605
51
213.999999
0
ARC
8
0
10
137.0245839
20
-190.850091
40
2
50
113.4545018
51
123.999999
0
ARC
8
0
10
154.8453173
20
-183.1182368
40
2
50
105.6651888
51
113.4545018
0
ARC
8
0
10
196.2751252
20
-171.5
40
2
50
90
51
105.6651888
0
ENDSEC
0
EOF