0
SECTION
2
HEADER
9
$INSUNITS
70
4
0
ENDSEC
0
SECTION
2
TABLES
0
TABLE
2
LTYPE
0
LTYPE
72
65
70
64
2
CONTINUOUS
3
______
73
0
40
0
0
ENDTAB
0
TABLE
2
LAYER
0
ENDTAB
0
ENDSEC
0
SECTION
2
ENTITIES
0
LINE
8
0
10
153.1085549
20
-170.5434451
11
170.7159994
21
-168.3815228
0
LINE
8
0
10
144.8167241
20
-119.4229205
11
150.879724
21
-168.8020915
0
ARC
8
0
10
152.8648163
20
-168.5583528
40
2
50
187
51
277
0
LINE
8
0
10
146.5580777
20
-117.1940895
11
169.1165763
21
-114.4242542
0
ARC
8
0
10
146.8018164
20
-119.1791818
40
2
50
97
51
187
0
LINE
8
0
10
189.3665763
20
-114.5348313
11
189.3665763
21
-110.4748824
0
ARC
8
0
10
187.3665763
20
-110.4748824
40
2
50
0
51
90
0
LINE
8
0
10
187.3665763
20
-108.4748824
11
171.1165763
21
-108.4748824
0
ARC
8
0
10
171.1165763
20
-110.4748824
40
2
50
90
51
180
0
LINE
8
0
10
169.1165763
20
-110.4748824
11
169.1165763
21
-114.4242542
0
LINE
8
0
10
210.7948518
20
-111.0713275
11
211.0573525
21
-106.0625148
0
ARC
8
0
10
209.0600934
20
-105.9578428
40
2
50
357
51
87
0
LINE
8
0
10
209.1647653
20
-103.9605838
11
192.9370354
21
-103.1101245
0
ARC
8
0
10
192.8323635
20
-105.1073836
40
2
50
87
51
177
0
LINE
8
0
10
190.8351044
20
-105.0027116
11
190.3219358
21
-114.7945525
0
LINE
8
0
10
229.1133112
20
-115.0197662
11
229.1656472
21
-114.0211367
0
ARC
8
0
10
227.1683881
20
-113.9164647
40
2
50
357
51
87
0
LINE
8
0
10
227.27306
20
-111.9192057
11
211.0453301
21
-111.0687464
0
ARC
8
0
10
210.9406582
20
-113.0660055
40
2
50
87
51
94.1807547
0
LINE
8
0
10
246.5983653
20
-130.0936967
11
247.2336283
21
-117.9721565
0
ARC
8
0
10
245.2363692
20
-117.8674845
40
2
50
357
51
87
0
LINE
8
0
10
245.3410411
20
-115.8702255
11
229.1133112
21
-115.0197662
0
LINE
8
0
10
217.8105292
20
-186.4690263
11
233.6440428
21
-190.1244809
0
ARC
8
0
10
234.0939449
20
-188.1757408
40
2
50
257
51
265.0936468
0
ARC
8
0
10
218.2604313
20
-184.5202861
40
2
50
254.4039183
51
257
0
LINE
8
0
10
235.2502133
20
-190.5348376
11
251.2913062
21
-198.7081827
0
ARC
8
0
10
252.1992872
20
-196.9261697
40
2
50
243
51
333
0
LINE
8
0
10
253.9813003
20
-197.8341507
11
260.9046554
21
-184.2463012
0
ARC
8
0
10
259.1226424
20
-183.3383202
40
2
50
333
51
333.0181195
0
LINE
8
0
10
189.3665763
20
-114.5348313
11
190.3219358
21
-114.7945525
0
LINE
8
0
10
246.5983653
20
-130.0936967
11
248.6134024
21
-130.6414987
0
LINE
8
0
10
249.0334018
20
-130.7088045
11
265.0475334
21
-131.5480696
0
LINE
8
0
10
266.9401205
20
-133.6500007
11
265.0597996
21
-169.5286606
0
LINE
8
0
10
265.000944
20
-169.9165247
11
261.867636
21
-182.2478341
0
LINE
8
0
10
261.7112455
20
-182.6632789
11
260.9049425
21
-184.2457376
0
LINE
8
0
10
234.7900393
20
-190.367628
11
233.9228901
21
-190.1684124
0
LINE
8
0
10
217.7227234
20
-186.446648
11
216.0098963
21
-186.0531497
0
LINE
8
0
10
215.7205233
20
-185.9631112
11
171.696918
21
-168.507431
0
ARC
8
0
10
249.1380738
20
-128.7115454
40
2
50
254.7913008
51
266.9999974
0
ARC
8
0
10
264.9428614
20
-133.5453287
40
2
50
356.9999974
51
86.9999974
0
ARC
8
0
10
263.0625405
20
-169.4239886
40
2
50
345.7432139
51
356.9999974
0
ARC
8
0
10
259.9292325
20
-181.7552979
40
2
50
332.9999994
51
345.7432139
0
ARC
8
0
10
234.3422323
20
-192.3168506
40
2
50
62.9999994
51
77.0615914
0
ARC
8
0
10
216.4577033
20
-184.1039271
40
2
50
248.3713155
51
257.0615914
0
ARC
8
0
10
170.959738
20
-170.3666151
40
2
50
68.3713155
51
96.9999972
0
LINE
8
0
10
152.2118087
20
-169.3941644
11
169.8295028
21
-167.2309836
0
LINE
8
0
10
169.8295028
20
-167.2309836
11
167.7881913
21
-150.6058356
0
LINE
8
0
10
167.7881913
20
-150.6058356
11
150.1704972
21
-152.7690164
0
LINE
8
0
10
150.1704972
20
-152.7690164
11
152.2118087
21
-169.3941644
0
LINE
8
0
10
150.1095625
20
-152.2727433
11
167.7272566
21
-150.1095625
0
LINE
8
0
10
167.7272566
20
-150.1095625
11
165.6859451
21
-133.4844145
0
LINE
8
0
10
165.6859451
20
-133.4844145
11
148.068251
21
-135.6475953
0
LINE
8
0
10
148.068251
20
-135.6475953
11
150.1095625
21
-152.2727433
0
LINE
8
0
10
148.0073163
20
-135.1513222
11
165.6250104
21
-132.9881414
0
LINE
8
0
10
165.6250104
20
-132.9881414
11
163.5836989
21
-116.3629934
0
LINE
8
0
10
163.5836989
20
-116.3629934
11
145.9660048
21
-118.5261742
0
LINE
8
0
10
145.9660048
20
-118.5261742
11
148.0073163
21
-135.1513222
0
LINE
8
0
10
170.3665763
20
-160.9748824
11
188.1165763
21
-160.9748824
0
LINE
8
0
10
188.1165763
20
-160.9748824
11
188.1165763
21
-144.2248824
0
LINE
8
0
10
188.1165763
20
-144.2248824
11
170.3665763
21
-144.2248824
0
LINE
8
0
10
170.3665763
20
-144.2248824
11
170.3665763
21
-160.9748824
0
LINE
8
0
10
170.3665763
20
-143.7248824
11
188.1165763
21
-143.7248824
0
LINE
8
0
10
188.1165763
20
-143.7248824
11
188.1165763
21
-126.9748824
0
LINE
8
0
10
188.1165763
20
-126.9748824
11
170.3665763
21
-126.9748824
0
LINE
8
0
10
170.3665763
20
-126.9748824
11
170.3665763
21
-143.7248824
0
LINE
8
0
10
170.3665763
20
-126.4748824
11
188.1165763
21
-126.4748824
0
LINE
8
0
10
188.1165763
20
-126.4748824
11
188.1165763
21
-109.7248824
0
LINE
8
0
10
188.1165763
20
-109.7248824
11
170.3665763
21
-109.7248824
0
LINE
8
0
10
170.3665763
20
-109.7248824
11
170.3665763
21
-126.4748824
0
LINE
8
0
10
189.4404256
20
-155.4989231
11
207.1660999
21
-156.4278864
0
LINE
8
0
10
207.1660999
20
-156.4278864
11
208.0427272
21
-139.7008417
0
LINE
8
0
10
208.0427272
20
-139.7008417
11
190.3170529
21
-138.7718784
0
LINE
8
0
10
190.3170529
20
-138.7718784
11
189.4404256
21
-155.4989231
0
LINE
8
0
10
190.3432208
20
-138.2725636
11
208.0688951
21
-139.2015269
0
LINE
8
0
10
208.0688951
20
-139.2015269
11
208.9455224
21
-122.4744822
0
LINE
8
0
10
208.9455224
20
-122.4744822
11
191.2198481
21
-121.5455189
0
LINE
8
0
10
191.2198481
20
-121.5455189
11
190.3432208
21
-138.2725636
0
LINE
8
0
10
191.246016
20
-121.0462041
11
208.9716903
21
-121.9751674
0
LINE
8
0
10
208.9716903
20
-121.9751674
11
209.8483176
21
-105.2481227
0
LINE
8
0
10
209.8483176
20
-105.2481227
11
192.1226433
21
-104.3191594
0
LINE
8
0
10
192.1226433
20
-104.3191594
11
191.246016
21
-121.0462041
0
LINE
8
0
10
207.5487203
20
-163.457545
11
225.2743946
21
-164.3865083
0
LINE
8
0
10
225.2743946
20
-164.3865083
11
226.1510219
21
-147.6594636
0
LINE
8
0
10
226.1510219
20
-147.6594636
11
208.4253476
21
-146.7305003
0
LINE
8
0
10
208.4253476
20
-146.7305003
11
207.5487203
21
-163.457545
0
LINE
8
0
10
208.4515155
20
-146.2311855
11
226.1771898
21
-147.1601488
0
LINE
8
0
10
226.1771898
20
-147.1601488
11
227.0538171
21
-130.4331041
0
LINE
8
0
10
227.0538171
20
-130.4331041
11
209.3281428
21
-129.5041408
0
LINE
8
0
10
209.3281428
20
-129.5041408
11
208.4515155
21
-146.2311855
0
LINE
8
0
10
209.3543107
20
-129.004826
11
227.079985
21
-129.9337893
0
LINE
8
0
10
227.079985
20
-129.9337893
11
227.9566123
21
-113.2067446
0
LINE
8
0
10
227.9566123
20
-113.2067446
11
210.230938
21
-112.2777813
0
LINE
8
0
10
210.230938
20
-112.2777813
11
209.3543107
21
-129.004826
0
LINE
8
0
10
225.6167014
20
-167.4085648
11
243.3423757
21
-168.3375281
0
LINE
8
0
10
243.3423757
20
-168.3375281
11
244.219003
21
-151.6104834
0
LINE
8
0
10
244.219003
20
-151.6104834
11
226.4933287
21
-150.6815201
0
LINE
8
0
10
226.4933287
20
-150.6815201
11
225.6167014
21
-167.4085648
0
LINE
8
0
10
226.5194966
20
-150.1822053
11
244.2451709
21
-151.1111686
0
LINE
8
0
10
244.2451709
20
-151.1111686
11
245.1217982
21
-134.3841239
0
LINE
8
0
10
245.1217982
20
-134.3841239
11
227.3961239
21
-133.4551606
0
LINE
8
0
10
227.3961239
20
-133.4551606
11
226.5194966
21
-150.1822053
0
LINE
8
0
10
227.4222918
20
-132.9558458
11
245.1479661
21
-133.8848091
0
LINE
8
0
10
245.1479661
20
-133.8848091
11
246.0245934
21
-117.1577644
0
LINE
8
0
10
246.0245934
20
-117.1577644
11
228.2989191
21
-116.2288011
0
LINE
8
0
10
228.2989191
20
-116.2288011
11
227.4222918
21
-132.9558458
0
LINE
8
0
10
217.3609405
20
-185.0823504
11
234.6560091
21
-189.0752316
0
LINE
8
0
10
234.6560091
20
-189.0752316
11
238.4239393
21
-172.754533
0
LINE
8
0
10
238.4239393
20
-172.754533
11
221.1288707
21
-168.7616518
0
LINE
8
0
10
221.1288707
20
-168.7616518
11
217.3609405
21
-185.0823504
0
LINE
8
0
10
236.7116835
20
-189.8765861
11
252.5270493
21
-197.9349174
0
LINE
8
0
10
252.5270493
20
-197.9349174
11
260.1313901
21
-183.0105581
0
LINE
8
0
10
260.1313901
20
-183.0105581
11
244.3160243
21
-174.9522268
0
LINE
8
0
10
244.3160243
20
-174.9522268
11
236.7116835
21
-189.8765861
0
ENDSEC
0
EOF