0
SECTION
2
HEADER
9
$INSUNITS
70
4
0
ENDSEC
0
SECTION
2
TABLES
0
TABLE
2
LTYPE
0
LTYPE
72
65
70
64
2
CONTINUOUS
3
______
73
0
40
0
0
ENDTAB
0
TABLE
2
LAYER
0
ENDTAB
0
ENDSEC
0
SECTION
2
ENTITIES
0
LINE
8
0
10
153.1085549
20
-170.5434451
11
170.9475657
21
-168.35309
0
LINE
8
0
10
144.8167241
20
-119.4229205
11
150.879724
21
-168.8020915
0
ARC
8
0
10
152.8648163
20
-168.5583528
40
2
50
187
51
277
0
LINE
8
0
10
146.5580777
20
-117.1940895
11
168.0197522
21
-114.5589272
0
ARC
8
0
10
146.8018164
20
-119.1791818
40
2
50
97
51
187
0
ARC
8
0
10
186.2697522
20
-101.541967
40
2
50
82.8192414
51
90
0
LINE
8
0
10
186.2697522
20
-99.541967
11
170.0197522
21
-99.541967
0
ARC
8
0
10
170.0197522
20
-101.541967
40
2
50
90
51
180
0
LINE
8
0
10
168.0197522
20
-101.541967
11
168.0197522
21
-114.5589272
0
LINE
8
0
10
206.7697523
20
-101.5576535
11
206.7697523
21
-95.541967
0
ARC
8
0
10
204.7697523
20
-95.541967
40
2
50
0
51
90
0
LINE
8
0
10
204.7697523
20
-93.541967
11
188.5197523
21
-93.541967
0
ARC
8
0
10
188.5197523
20
-95.541967
40
2
50
90
51
180
0
LINE
8
0
10
186.5197523
20
-95.541967
11
186.5197523
21
-99.5576535
0
LINE
8
0
10
225.2697522
20
-104.541967
11
225.2697522
21
-103.541967
0
ARC
8
0
10
223.2697522
20
-103.541967
40
2
50
0
51
90
0
LINE
8
0
10
223.2697522
20
-101.541967
11
207.0197522
21
-101.541967
0
ARC
8
0
10
207.0197522
20
-103.541967
40
2
50
90
51
97.1807529
0
LINE
8
0
10
243.5197522
20
-118.9375825
11
243.5197522
21
-106.541967
0
ARC
8
0
10
241.5197522
20
-106.541967
40
2
50
0
51
90
0
LINE
8
0
10
241.5197522
20
-104.541967
11
225.2697522
21
-104.541967
0
LINE
8
0
10
234.4538526
20
-180.8022592
11
250.548713
21
-189.0030002
0
ARC
8
0
10
251.456694
20
-187.2209872
40
2
50
243
51
333
0
LINE
8
0
10
253.2387071
20
-188.1289682
11
260.1620622
21
-174.5411187
0
ARC
8
0
10
258.3800492
20
-173.6331377
40
2
50
333
51
333.0181195
0
LINE
8
0
10
243.5197522
20
-118.9375825
11
245.6685914
21
-119.1566538
0
LINE
8
0
10
245.8714374
20
-119.166967
11
262.0197522
21
-119.166967
0
LINE
8
0
10
264.0197522
20
-121.166967
11
264.0197522
21
-157.1029622
0
LINE
8
0
10
263.9843455
20
-157.4776262
11
261.1233754
21
-172.4794523
0
LINE
8
0
10
260.9407951
20
-173.0127693
11
260.1623493
21
-174.5405551
0
LINE
8
0
10
234.1090683
20
-180.6652075
11
215.2508121
21
-175.1307879
0
LINE
8
0
10
214.9926143
20
-175.0732455
11
171.4963033
21
-168.3615752
0
ARC
8
0
10
245.8714374
20
-117.166967
40
2
50
264.178881
51
270
0
ARC
8
0
10
262.0197522
20
-121.166967
40
2
50
0
51
90
0
ARC
8
0
10
262.0197522
20
-157.1029622
40
2
50
349.2028769
51
0
0
ARC
8
0
10
259.1587821
20
-172.1047883
40
2
50
332.9999994
51
349.2028769
0
ARC
8
0
10
233.5458716
20
-182.5842722
40
2
50
62.9999994
51
73.6443753
0
ARC
8
0
10
214.6876153
20
-177.0498526
40
2
50
73.6443753
51
81.2281955
0
ARC
8
0
10
171.1913043
20
-170.3381823
40
2
50
81.2281955
51
96.9999972
0
LINE
8
0
10
152.2118087
20
-169.3941644
11
169.8295028
21
-167.2309836
0
LINE
8
0
10
169.8295028
20
-167.2309836
11
167.7881913
21
-150.6058356
0
LINE
8
0
10
167.7881913
20
-150.6058356
11
150.1704972
21
-152.7690164
0
LINE
8
0
10
150.1704972
20
-152.7690164
11
152.2118087
21
-169.3941644
0
LINE
8
0
10
150.1095625
20
-152.2727433
11
167.7272566
21
-150.1095625
0
LINE
8
0
10
167.7272566
20
-150.1095625
11
165.6859451
21
-133.4844145
0
LINE
8
0
10
165.6859451
20
-133.4844145
11
148.068251
21
-135.6475953
0
LINE
8
0
10
148.068251
20
-135.6475953
11
150.1095625
21
-152.2727433
0
LINE
8
0
10
148.0073163
20
-135.1513222
11
165.6250104
21
-132.9881414
0
LINE
8
0
10
165.6250104
20
-132.9881414
11
163.5836989
21
-116.3629934
0
LINE
8
0
10
163.5836989
20
-116.3629934
11
145.9660048
21
-118.5261742
0
LINE
8
0
10
145.9660048
20
-118.5261742
11
148.0073163
21
-135.1513222
0
LINE
8
0
10
169.2697522
20
-152.041967
11
187.0197522
21
-152.041967
0
LINE
8
0
10
187.0197522
20
-152.041967
11
187.0197522
21
-135.291967
0
LINE
8
0
10
187.0197522
20
-135.291967
11
169.2697522
21
-135.291967
0
LINE
8
0
10
169.2697522
20
-135.291967
11
169.2697522
21
-152.041967
0
LINE
8
0
10
169.2697522
20
-134.791967
11
187.0197522
21
-134.791967
0
LINE
8
0
10
187.0197522
20
-134.791967
11
187.0197522
21
-118.041967
0
LINE
8
0
10
187.0197522
20
-118.041967
11
169.2697522
21
-118.041967
0
LINE
8
0
10
169.2697522
20
-118.041967
11
169.2697522
21
-134.791967
0
LINE
8
0
10
169.2697522
20
-117.541967
11
187.0197522
21
-117.541967
0
LINE
8
0
10
187.0197522
20
-117.541967
11
187.0197522
21
-100.791967
0
LINE
8
0
10
187.0197522
20
-100.791967
11
169.2697522
21
-100.791967
0
LINE
8
0
10
169.2697522
20
-100.791967
11
169.2697522
21
-117.541967
0
LINE
8
0
10
187.7697523
20
-146.041967
11
205.5197523
21
-146.041967
0
LINE
8
0
10
205.5197523
20
-146.041967
11
205.5197523
21
-129.291967
0
LINE
8
0
10
205.5197523
20
-129.291967
11
187.7697523
21
-129.291967
0
LINE
8
0
10
187.7697523
20
-129.291967
11
187.7697523
21
-146.041967
0
LINE
8
0
10
187.7697523
20
-128.791967
11
205.5197523
21
-128.791967
0
LINE
8
0
10
205.5197523
20
-128.791967
11
205.5197523
21
-112.041967
0
LINE
8
0
10
205.5197523
20
-112.041967
11
187.7697523
21
-112.041967
0
LINE
8
0
10
187.7697523
20
-112.041967
11
187.7697523
21
-128.791967
0
LINE
8
0
10
187.7697523
20
-111.541967
11
205.5197523
21
-111.541967
0
LINE
8
0
10
205.5197523
20
-111.541967
11
205.5197523
21
-94.791967
0
LINE
8
0
10
205.5197523
20
-94.791967
11
187.7697523
21
-94.791967
0
LINE
8
0
10
187.7697523
20
-94.791967
11
187.7697523
21
-111.541967
0
LINE
8
0
10
206.2697522
20
-154.041967
11
224.0197522
21
-154.041967
0
LINE
8
0
10
224.0197522
20
-154.041967
11
224.0197522
21
-137.291967
0
LINE
8
0
10
224.0197522
20
-137.291967
11
206.2697522
21
-137.291967
0
LINE
8
0
10
206.2697522
20
-137.291967
11
206.2697522
21
-154.041967
0
LINE
8
0
10
206.2697522
20
-136.791967
11
224.0197522
21
-136.791967
0
LINE
8
0
10
224.0197522
20
-136.791967
11
224.0197522
21
-120.041967
0
LINE
8
0
10
224.0197522
20
-120.041967
11
206.2697522
21
-120.041967
0
LINE
8
0
10
206.2697522
20
-120.041967
11
206.2697522
21
-136.791967
0
LINE
8
0
10
206.2697522
20
-119.541967
11
224.0197522
21
-119.541967
0
LINE
8
0
10
224.0197522
20
-119.541967
11
224.0197522
21
-102.791967
0
LINE
8
0
10
224.0197522
20
-102.791967
11
206.2697522
21
-102.791967
0
LINE
8
0
10
206.2697522
20
-102.791967
11
206.2697522
21
-119.541967
0
LINE
8
0
10
224.5197522
20
-157.041967
11
242.2697522
21
-157.041967
0
LINE
8
0
10
242.2697522
20
-157.041967
11
242.2697522
21
-140.291967
0
LINE
8
0
10
242.2697522
20
-140.291967
11
224.5197522
21
-140.291967
0
LINE
8
0
10
224.5197522
20
-140.291967
11
224.5197522
21
-157.041967
0
LINE
8
0
10
224.5197522
20
-139.791967
11
242.2697522
21
-139.791967
0
LINE
8
0
10
242.2697522
20
-139.791967
11
242.2697522
21
-123.041967
0
LINE
8
0
10
242.2697522
20
-123.041967
11
224.5197522
21
-123.041967
0
LINE
8
0
10
224.5197522
20
-123.041967
11
224.5197522
21
-139.791967
0
LINE
8
0
10
224.5197522
20
-122.541967
11
242.2697522
21
-122.541967
0
LINE
8
0
10
242.2697522
20
-122.541967
11
242.2697522
21
-105.791967
0
LINE
8
0
10
242.2697522
20
-105.791967
11
224.5197522
21
-105.791967
0
LINE
8
0
10
224.5197522
20
-105.791967
11
224.5197522
21
-122.541967
0
LINE
8
0
10
216.654551
20
-174.2095768
11
233.7997344
21
-178.8036148
0
LINE
8
0
10
233.7997344
20
-178.8036148
11
238.1349534
21
-162.6243572
0
LINE
8
0
10
238.1349534
20
-162.6243572
11
220.98977
21
-158.0303192
0
LINE
8
0
10
220.98977
20
-158.0303192
11
216.654551
21
-174.2095768
0
LINE
8
0
10
235.9690903
20
-180.1714036
11
251.7844561
21
-188.2297349
0
LINE
8
0
10
251.7844561
20
-188.2297349
11
259.3887969
21
-173.3053756
0
LINE
8
0
10
259.3887969
20
-173.3053756
11
243.5734311
21
-165.2470443
0
LINE
8
0
10
243.5734311
20
-165.2470443
11
235.9690903
21
-180.1714036
0
ENDSEC
0
EOF