0
SECTION
2
HEADER
9
$INSUNITS
70
4
0
ENDSEC
0
SECTION
2
TABLES
0
TABLE
2
LTYPE
0
LTYPE
72
65
70
64
2
CONTINUOUS
3
______
73
0
40
0
0
ENDTAB
0
TABLE
2
LAYER
0
ENDTAB
0
ENDSEC
0
SECTION
2
ENTITIES
0
LINE
8
0
10
222
20
-169.5
11
239.6672239
21
-169.5
0
LINE
8
0
10
220
20
-167.5
11
220
21
-118.5
0
ARC
8
0
10
222
20
-167.5
40
2
50
180
51
270
0
LINE
8
0
10
222
20
-116.5
11
243.5470462
21
-116.5
0
ARC
8
0
10
222
20
-118.5
40
2
50
90
51
180
0
LINE
8
0
10
263.2416856
20
-103.7991971
11
247.3609471
21
-101.8492876
0
ARC
8
0
10
247.1172085
20
-103.8343799
40
2
50
83
51
173
0
LINE
8
0
10
245.1321162
20
-103.5906412
11
243.5470462
21
-116.5
0
LINE
8
0
10
282.8488699
20
-108.2216763
11
283.8238247
21
-100.2813071
0
ARC
8
0
10
281.8387324
20
-100.0375684
40
2
50
353
51
83
0
LINE
8
0
10
282.0824711
20
-98.0524761
11
266.2017326
21
-96.1025666
0
ARC
8
0
10
265.957994
20
-98.0876589
40
2
50
83
51
173
0
LINE
8
0
10
263.9729017
20
-97.8439202
11
263.2416856
21
-103.7991971
0
LINE
8
0
10
300.3490926
20
-113.3929629
11
300.470962
21
-112.4004168
0
ARC
8
0
10
298.4858697
20
-112.1566781
40
2
50
353
51
83
0
LINE
8
0
10
298.7296084
20
-110.1715858
11
282.8488699
21
-108.2216763
0
LINE
8
0
10
317.0633167
20
-124.9656943
11
317.9711847
21
-117.5717034
0
ARC
8
0
10
315.9860924
20
-117.3279647
40
2
50
353
51
83
0
LINE
8
0
10
316.2298311
20
-115.3428724
11
300.3490926
21
-113.3929629
0
LINE
8
0
10
301.2941836
20
-192.6885538
11
314.5587848
21
-201.6356403
0
ARC
8
0
10
315.6771706
20
-199.9775651
40
2
50
236
51
326
0
LINE
8
0
10
317.3352457
20
-201.0959509
11
326.6771774
21
-187.2459677
0
ARC
8
0
10
302.4125694
20
-191.0304787
40
2
50
235.9818811
51
236
0
LINE
8
0
10
196.3327761
20
-169.5
11
214
21
-169.5
0
ARC
8
0
10
214
20
-167.5
40
2
50
270
51
360
0
LINE
8
0
10
216
20
-167.5
11
216
21
-118.5
0
ARC
8
0
10
214
20
-118.5
40
2
50
0
51
90
0
LINE
8
0
10
192.4529538
20
-116.5
11
214
21
-116.5
0
LINE
8
0
10
192.4529538
20
-116.5
11
190.8678838
21
-103.5906412
0
ARC
8
0
10
188.8827915
20
-103.8343799
40
2
50
7
51
97
0
LINE
8
0
10
188.6390529
20
-101.8492876
11
172.7583144
21
-103.7991971
0
LINE
8
0
10
172.7583144
20
-103.7991971
11
172.0270983
21
-97.8439202
0
ARC
8
0
10
170.042006
20
-98.0876589
40
2
50
7
51
97
0
LINE
8
0
10
169.7982674
20
-96.1025666
11
153.9175289
21
-98.0524761
0
ARC
8
0
10
154.1612676
20
-100.0375684
40
2
50
97
51
187
0
LINE
8
0
10
152.1761753
20
-100.2813071
11
153.15113
21
-108.2216763
0
LINE
8
0
10
153.1511301
20
-108.2216763
11
137.2703916
21
-110.1715858
0
ARC
8
0
10
137.5141303
20
-112.1566781
40
2
50
97
51
187
0
LINE
8
0
10
135.529038
20
-112.4004168
11
135.6509073
21
-113.3929629
0
LINE
8
0
10
135.6509074
20
-113.3929629
11
119.7701689
21
-115.3428724
0
ARC
8
0
10
120.0139076
20
-117.3279647
40
2
50
97
51
187
0
LINE
8
0
10
118.0288153
20
-117.5717034
11
118.9366833
21
-124.9656943
0
LINE
8
0
10
121.4412152
20
-201.6356403
11
134.7058164
21
-192.6885538
0
ARC
8
0
10
133.5874306
20
-191.0304787
40
2
50
304
51
304.0181189
0
LINE
8
0
10
109.3228226
20
-187.2459677
11
118.6647543
21
-201.0959509
0
ARC
8
0
10
120.3228294
20
-199.9775651
40
2
50
214
51
304
0
LINE
8
0
10
317.0633167
20
-124.9656943
11
319.5185432
21
-125.3176081
0
LINE
8
0
10
319.5585696
20
-125.3229335
11
335.4192684
21
-127.2703824
0
LINE
8
0
10
337.1606221
20
-129.4992133
11
332.2468391
21
-169.5187649
0
LINE
8
0
10
332.1714722
20
-169.8691209
11
326.9288278
21
-186.7216765
0
LINE
8
0
10
301.2941836
20
-192.6885538
11
301.2936593
21
-192.6882001
0
LINE
8
0
10
301.2936593
20
-192.6882001
11
299.7891284
21
-191.6733812
0
LINE
8
0
10
299.4667841
20
-191.4967035
11
281.594207
21
-183.742356
0
LINE
8
0
10
281.445788
20
-183.6848654
11
240.3148464
21
-169.6077565
0
ARC
8
0
10
319.8023082
20
-123.3378411
40
2
50
261.8432069
51
263.0000028
0
ARC
8
0
10
335.1755298
20
-129.2554747
40
2
50
353.0000028
51
83.0000028
0
ARC
8
0
10
330.2617467
20
-169.2750263
40
2
50
342.7196575
51
353.0000028
0
ARC
8
0
10
325.0191023
20
-186.1275819
40
2
50
326.000001
51
342.7196575
0
ARC
8
0
10
298.6707427
20
-193.3314564
40
2
50
56.000001
51
66.5454982
0
ARC
8
0
10
280.7981655
20
-185.5771089
40
2
50
66.5454982
51
71.1064322
0
ARC
8
0
10
239.6672239
20
-171.5
40
2
50
71.1064322
51
90
0
LINE
8
0
10
118.9366833
20
-124.9656943
11
116.4814568
21
-125.3176081
0
LINE
8
0
10
116.4414304
20
-125.3229335
11
100.5807316
21
-127.2703824
0
LINE
8
0
10
98.8393779
20
-129.4992133
11
103.7531609
21
-169.5187649
0
LINE
8
0
10
103.8285278
20
-169.8691209
11
109.0711722
21
-186.7216765
0
LINE
8
0
10
134.7058164
20
-192.6885538
11
134.7063407
21
-192.6882001
0
LINE
8
0
10
134.7063407
20
-192.6882001
11
136.2108716
21
-191.6733812
0
LINE
8
0
10
136.5332159
20
-191.4967035
11
154.405793
21
-183.742356
0
LINE
8
0
10
154.554212
20
-183.6848654
11
195.6851536
21
-169.6077565
0
ARC
8
0
10
116.1976918
20
-123.3378411
40
2
50
276.9999972
51
278.1567931
0
ARC
8
0
10
100.8244702
20
-129.2554747
40
2
50
96.9999972
51
186.9999972
0
ARC
8
0
10
105.7382533
20
-169.2750263
40
2
50
186.9999972
51
197.2803425
0
ARC
8
0
10
110.9808977
20
-186.1275819
40
2
50
197.2803425
51
213.999999
0
ARC
8
0
10
137.3292573
20
-193.3314564
40
2
50
113.4545018
51
123.999999
0
ARC
8
0
10
155.2018345
20
-185.5771089
40
2
50
108.8935678
51
113.4545018
0
ARC
8
0
10
196.3327761
20
-171.5
40
2
50
90
51
108.8935678
0
LINE
8
0
10
221.25
20
-168.25
11
238.75
21
-168.25
0
LINE
8
0
10
238.75
20
-168.25
11
238.75
21
-151.75
0
LINE
8
0
10
238.75
20
-151.75
11
221.25
21
-151.75
0
LINE
8
0
10
221.25
20
-151.75
11
221.25
21
-168.25
0
LINE
8
0
10
221.25
20
-151.25
11
238.75
21
-151.25
0
LINE
8
0
10
238.75
20
-151.25
11
238.75
21
-134.75
0
LINE
8
0
10
238.75
20
-134.75
11
221.25
21
-134.75
0
LINE
8
0
10
221.25
20
-134.75
11
221.25
21
-151.25
0
LINE
8
0
10
221.25
20
-134.25
11
238.75
21
-134.25
0
LINE
8
0
10
238.75
20
-134.25
11
238.75
21
-117.75
0
LINE
8
0
10
238.75
20
-117.75
11
221.25
21
-117.75
0
LINE
8
0
10
221.25
20
-117.75
11
221.25
21
-134.25
0
LINE
8
0
10
240.3097991
20
-153.122149
11
257.6793567
21
-155.2548625
0
LINE
8
0
10
257.6793567
20
-155.2548625
11
259.6902009
21
-138.877851
0
LINE
8
0
10
259.6902009
20
-138.877851
11
242.3206433
21
-136.7451375
0
LINE
8
0
10
242.3206433
20
-136.7451375
11
240.3097991
21
-153.122149
0
LINE
8
0
10
242.3815779
20
-136.2488644
11
259.7511355
21
-138.3815779
0
LINE
8
0
10
259.7511355
20
-138.3815779
11
261.7619797
21
-122.0045664
0
LINE
8
0
10
261.7619797
20
-122.0045664
11
244.3924221
21
-119.8718529
0
LINE
8
0
10
244.3924221
20
-119.8718529
11
242.3815779
21
-136.2488644
0
LINE
8
0
10
244.4533567
20
-119.3755798
11
261.8229143
21
-121.5082933
0
LINE
8
0
10
261.8229143
20
-121.5082933
11
263.8337585
21
-105.1312818
0
LINE
8
0
10
263.8337585
20
-105.1312818
11
246.4642009
21
-102.9985683
0
LINE
8
0
10
246.4642009
20
-102.9985683
11
244.4533567
21
-119.3755798
0
LINE
8
0
10
259.1505846
20
-147.375428
11
276.5201422
21
-149.5081415
0
LINE
8
0
10
276.5201422
20
-149.5081415
11
278.5309864
21
-133.13113
0
LINE
8
0
10
278.5309864
20
-133.13113
11
261.1614288
21
-130.9984165
0
LINE
8
0
10
261.1614288
20
-130.9984165
11
259.1505846
21
-147.375428
0
LINE
8
0
10
261.2223634
20
-130.5021434
11
278.591921
21
-132.6348569
0
LINE
8
0
10
278.591921
20
-132.6348569
11
280.6027652
21
-116.2578454
0
LINE
8
0
10
280.6027652
20
-116.2578454
11
263.2332076
21
-114.1251319
0
LINE
8
0
10
263.2332076
20
-114.1251319
11
261.2223634
21
-130.5021434
0
LINE
8
0
10
263.2941422
20
-113.6288588
11
280.6636998
21
-115.7615723
0
LINE
8
0
10
280.6636998
20
-115.7615723
11
282.674544
21
-99.3845608
0
LINE
8
0
10
282.674544
20
-99.3845608
11
265.3049864
21
-97.2518473
0
LINE
8
0
10
265.3049864
20
-97.2518473
11
263.2941422
21
-113.6288588
0
LINE
8
0
10
275.7977219
20
-159.4945377
11
293.1672795
21
-161.6272512
0
LINE
8
0
10
293.1672795
20
-161.6272512
11
295.1781237
21
-145.2502397
0
LINE
8
0
10
295.1781237
20
-145.2502397
11
277.8085661
21
-143.1175262
0
LINE
8
0
10
277.8085661
20
-143.1175262
11
275.7977219
21
-159.4945377
0
LINE
8
0
10
277.8695007
20
-142.6212531
11
295.2390583
21
-144.7539666
0
LINE
8
0
10
295.2390583
20
-144.7539666
11
297.2499025
21
-128.3769551
0
LINE
8
0
10
297.2499025
20
-128.3769551
11
279.8803449
21
-126.2442416
0
LINE
8
0
10
279.8803449
20
-126.2442416
11
277.8695007
21
-142.6212531
0
LINE
8
0
10
279.9412795
20
-125.7479685
11
297.3108371
21
-127.880682
0
LINE
8
0
10
297.3108371
20
-127.880682
11
299.3216813
21
-111.5036705
0
LINE
8
0
10
299.3216813
20
-111.5036705
11
281.9521237
21
-109.370957
0
LINE
8
0
10
281.9521237
20
-109.370957
11
279.9412795
21
-125.7479685
0
LINE
8
0
10
293.2979446
20
-164.6658243
11
310.6675022
21
-166.7985378
0
LINE
8
0
10
310.6675022
20
-166.7985378
11
312.6783464
21
-150.4215263
0
LINE
8
0
10
312.6783464
20
-150.4215263
11
295.3087888
21
-148.2888128
0
LINE
8
0
10
295.3087888
20
-148.2888128
11
293.2979446
21
-164.6658243
0
LINE
8
0
10
295.3697234
20
-147.7925397
11
312.739281
21
-149.9252532
0
LINE
8
0
10
312.739281
20
-149.9252532
11
314.7501252
21
-133.5482417
0
LINE
8
0
10
314.7501252
20
-133.5482417
11
297.3805676
21
-131.4155282
0
LINE
8
0
10
297.3805676
20
-131.4155282
11
295.3697234
21
-147.7925397
0
LINE
8
0
10
297.4415022
20
-130.9192551
11
314.8110598
21
-133.0519686
0
LINE
8
0
10
314.8110598
20
-133.0519686
11
316.821904
21
-116.6749571
0
LINE
8
0
10
316.821904
20
-116.6749571
11
299.4523464
21
-114.5422436
0
LINE
8
0
10
299.4523464
20
-114.5422436
11
297.4415022
21
-130.9192551
0
LINE
8
0
10
283.1483799
20
-183.0199337
11
299.3740973
21
-189.5755491
0
LINE
8
0
10
299.3740973
20
-189.5755491
11
305.5551061
21
-174.2770155
0
LINE
8
0
10
305.5551061
20
-174.2770155
11
289.3293887
21
-167.7214001
0
LINE
8
0
10
289.3293887
20
-167.7214001
11
283.1483799
21
-183.0199337
0
LINE
8
0
10
301.3713966
20
-191.2328622
11
315.8795541
21
-201.018738
0
LINE
8
0
10
315.8795541
20
-201.018738
11
325.106237
21
-187.339618
0
LINE
8
0
10
325.106237
20
-187.339618
11
310.5980795
21
-177.5537422
0
LINE
8
0
10
310.5980795
20
-177.5537422
11
301.3713966
21
-191.2328622
0
LINE
8
0
10
197.25
20
-168.25
11
214.75
21
-168.25
0
LINE
8
0
10
214.75
20
-168.25
11
214.75
21
-151.75
0
LINE
8
0
10
214.75
20
-151.75
11
197.25
21
-151.75
0
LINE
8
0
10
197.25
20
-151.75
11
197.25
21
-168.25
0
LINE
8
0
10
197.25
20
-151.25
11
214.75
21
-151.25
0
LINE
8
0
10
214.75
20
-151.25
11
214.75
21
-134.75
0
LINE
8
0
10
214.75
20
-134.75
11
197.25
21
-134.75
0
LINE
8
0
10
197.25
20
-134.75
11
197.25
21
-151.25
0
LINE
8
0
10
197.25
20
-134.25
11
214.75
21
-134.25
0
LINE
8
0
10
214.75
20
-134.25
11
214.75
21
-117.75
0
LINE
8
0
10
214.75
20
-117.75
11
197.25
21
-117.75
0
LINE
8
0
10
197.25
20
-117.75
11
197.25
21
-134.25
0
LINE
8
0
10
178.3206433
20
-155.2548625
11
195.6902009
21
-153.122149
0
LINE
8
0
10
195.6902009
20
-153.122149
11
193.6793567
21
-136.7451375
0
LINE
8
0
10
193.6793567
20
-136.7451375
11
176.3097991
21
-138.877851
0
LINE
8
0
10
176.3097991
20
-138.877851
11
178.3206433
21
-155.2548625
0
LINE
8
0
10
176.2488645
20
-138.3815779
11
193.6184221
21
-136.2488644
0
LINE
8
0
10
193.6184221
20
-136.2488644
11
191.6075779
21
-119.8718529
0
LINE
8
0
10
191.6075779
20
-119.8718529
11
174.2380203
21
-122.0045664
0
LINE
8
0
10
174.2380203
20
-122.0045664
11
176.2488645
21
-138.3815779
0
LINE
8
0
10
174.1770857
20
-121.5082933
11
191.5466433
21
-119.3755798
0
LINE
8
0
10
191.5466433
20
-119.3755798
11
189.5357991
21
-102.9985683
0
LINE
8
0
10
189.5357991
20
-102.9985683
11
172.1662415
21
-105.1312818
0
LINE
8
0
10
172.1662415
20
-105.1312818
11
174.1770857
21
-121.5082933
0
LINE
8
0
10
159.4798578
20
-149.5081415
11
176.8494154
21
-147.375428
0
LINE
8
0
10
176.8494154
20
-147.375428
11
174.8385712
21
-130.9984165
0
LINE
8
0
10
174.8385712
20
-130.9984165
11
157.4690136
21
-133.13113
0
LINE
8
0
10
157.4690136
20
-133.13113
11
159.4798578
21
-149.5081415
0
LINE
8
0
10
157.408079
20
-132.6348569
11
174.7776366
21
-130.5021434
0
LINE
8
0
10
174.7776366
20
-130.5021434
11
172.7667924
21
-114.1251319
0
LINE
8
0
10
172.7667924
20
-114.1251319
11
155.3972348
21
-116.2578454
0
LINE
8
0
10
155.3972348
20
-116.2578454
11
157.408079
21
-132.6348569
0
LINE
8
0
10
155.3363002
20
-115.7615723
11
172.7058578
21
-113.6288588
0
LINE
8
0
10
172.7058578
20
-113.6288588
11
170.6950136
21
-97.2518473
0
LINE
8
0
10
170.6950136
20
-97.2518473
11
153.325456
21
-99.3845608
0
LINE
8
0
10
153.325456
20
-99.3845608
11
155.3363002
21
-115.7615723
0
LINE
8
0
10
142.8327205
20
-161.6272512
11
160.2022781
21
-159.4945377
0
LINE
8
0
10
160.2022781
20
-159.4945377
11
158.1914339
21
-143.1175262
0
LINE
8
0
10
158.1914339
20
-143.1175262
11
140.8218763
21
-145.2502397
0
LINE
8
0
10
140.8218763
20
-145.2502397
11
142.8327205
21
-161.6272512
0
LINE
8
0
10
140.7609417
20
-144.7539666
11
158.1304993
21
-142.6212531
0
LINE
8
0
10
158.1304993
20
-142.6212531
11
156.1196551
21
-126.2442416
0
LINE
8
0
10
156.1196551
20
-126.2442416
11
138.7500975
21
-128.3769551
0
LINE
8
0
10
138.7500975
20
-128.3769551
11
140.7609417
21
-144.7539666
0
LINE
8
0
10
138.6891629
20
-127.880682
11
156.0587205
21
-125.7479685
0
LINE
8
0
10
156.0587205
20
-125.7479685
11
154.0478763
21
-109.370957
0
LINE
8
0
10
154.0478763
20
-109.370957
11
136.6783187
21
-111.5036705
0
LINE
8
0
10
136.6783187
20
-111.5036705
11
138.6891629
21
-127.880682
0
LINE
8
0
10
125.3324978
20
-166.7985378
11
142.7020554
21
-164.6658243
0
LINE
8
0
10
142.7020554
20
-164.6658243
11
140.6912112
21
-148.2888128
0
LINE
8
0
10
140.6912112
20
-148.2888128
11
123.3216536
21
-150.4215263
0
LINE
8
0
10
123.3216536
20
-150.4215263
11
125.3324978
21
-166.7985378
0
LINE
8
0
10
123.260719
20
-149.9252532
11
140.6302766
21
-147.7925397
0
LINE
8
0
10
140.6302766
20
-147.7925397
11
138.6194324
21
-131.4155282
0
LINE
8
0
10
138.6194324
20
-131.4155282
11
121.2498748
21
-133.5482417
0
LINE
8
0
10
121.2498748
20
-133.5482417
11
123.260719
21
-149.9252532
0
LINE
8
0
10
121.1889402
20
-133.0519686
11
138.5584978
21
-130.9192551
0
LINE
8
0
10
138.5584978
20
-130.9192551
11
136.5476536
21
-114.5422436
0
LINE
8
0
10
136.5476536
20
-114.5422436
11
119.178096
21
-116.6749571
0
LINE
8
0
10
119.178096
20
-116.6749571
11
121.1889402
21
-133.0519686
0
LINE
8
0
10
136.6259027
20
-189.5755491
11
152.8516201
21
-183.0199337
0
LINE
8
0
10
152.8516201
20
-183.0199337
11
146.6706113
21
-167.7214001
0
LINE
8
0
10
146.6706113
20
-167.7214001
11
130.4448939
21
-174.2770155
0
LINE
8
0
10
130.4448939
20
-174.2770155
11
136.6259027
21
-189.5755491
0
LINE
8
0
10
120.1204459
20
-201.018738
11
134.6286034
21
-191.2328622
0
LINE
8
0
10
134.6286034
20
-191.2328622
11
125.4019205
21
-177.5537422
0
LINE
8
0
10
125.4019205
20
-177.5537422
11
110.893763
21
-187.339618
0
LINE
8
0
10
110.893763
20
-187.339618
11
120.1204459
21
-201.018738
0
ENDSEC
0
EOF