0
SECTION
2
HEADER
9
$INSUNITS
70
4
0
ENDSEC
0
SECTION
2
TABLES
0
TABLE
2
LTYPE
0
LTYPE
72
65
70
64
2
CONTINUOUS
3
______
73
0
40
0
0
ENDTAB
0
TABLE
2
LAYER
0
ENDTAB
0
ENDSEC
0
SECTION
2
ENTITIES
0
LINE
8
0
10
220
20
-167.5
11
220
21
-118.5
0
LINE
8
0
10
222
20
-116.5
11
257.8573963
21
-116.5
0
LINE
8
0
10
258.1411613
20
-116.520233
11
319.5185432
21
-125.3176081
0
LINE
8
0
10
319.5585696
20
-125.3229335
11
335.4192684
21
-127.2703824
0
LINE
8
0
10
337.1606221
20
-129.4992133
11
332.2468391
21
-169.5187649
0
LINE
8
0
10
332.1714722
20
-169.8691209
11
326.9288278
21
-186.7216765
0
LINE
8
0
10
326.6771774
20
-187.2459677
11
317.3352457
21
-201.095951
0
LINE
8
0
10
314.5587848
20
-201.6356403
11
299.7891284
21
-191.6733812
0
LINE
8
0
10
299.4667841
20
-191.4967035
11
281.594207
21
-183.742356
0
LINE
8
0
10
281.445788
20
-183.6848654
11
240.3148464
21
-169.6077565
0
LINE
8
0
10
239.6672239
20
-169.5
11
222
21
-169.5
0
ARC
8
0
10
222
20
-118.5
40
2
50
90
51
180
0
ARC
8
0
10
257.8573963
20
-118.5
40
2
50
81.8432069
51
90
0
ARC
8
0
10
319.8023082
20
-123.3378411
40
2
50
261.8432069
51
263.0000028
0
ARC
8
0
10
335.1755298
20
-129.2554747
40
2
50
353.0000028
51
83.0000028
0
ARC
8
0
10
330.2617467
20
-169.2750263
40
2
50
342.7196575
51
353.0000028
0
ARC
8
0
10
325.0191023
20
-186.1275819
40
2
50
326.000001
51
342.7196575
0
ARC
8
0
10
315.6771706
20
-199.9775652
40
2
50
236.000001
51
326.000001
0
ARC
8
0
10
298.6707427
20
-193.3314564
40
2
50
56.000001
51
66.5454982
0
ARC
8
0
10
280.7981655
20
-185.5771089
40
2
50
66.5454982
51
71.1064322
0
ARC
8
0
10
239.6672239
20
-171.5
40
2
50
71.1064322
51
90
0
ARC
8
0
10
222
20
-167.5
40
2
50
180
51
270
0
LINE
8
0
10
216
20
-167.5
11
216
21
-118.5
0
LINE
8
0
10
214
20
-116.5
11
178.1426037
21
-116.5
0
LINE
8
0
10
177.8588387
20
-116.520233
11
116.4814568
21
-125.3176081
0
LINE
8
0
10
116.4414304
20
-125.3229335
11
100.5807316
21
-127.2703824
0
LINE
8
0
10
98.8393779
20
-129.4992133
11
103.7531609
21
-169.5187649
0
LINE
8
0
10
103.8285278
20
-169.8691209
11
109.0711722
21
-186.7216765
0
LINE
8
0
10
109.3228226
20
-187.2459677
11
118.6647543
21
-201.095951
0
LINE
8
0
10
121.4412152
20
-201.6356403
11
136.2108716
21
-191.6733812
0
LINE
8
0
10
136.5332159
20
-191.4967035
11
154.405793
21
-183.742356
0
LINE
8
0
10
154.554212
20
-183.6848654
11
195.6851536
21
-169.6077565
0
LINE
8
0
10
196.3327761
20
-169.5
11
214
21
-169.5
0
ARC
8
0
10
214
20
-118.5
40
2
50
0
51
90
0
ARC
8
0
10
178.1426037
20
-118.5
40
2
50
90
51
98.1567931
0
ARC
8
0
10
116.1976918
20
-123.3378411
40
2
50
276.9999972
51
278.1567931
0
ARC
8
0
10
100.8244702
20
-129.2554747
40
2
50
96.9999972
51
186.9999972
0
ARC
8
0
10
105.7382533
20
-169.2750263
40
2
50
186.9999972
51
197.2803425
0
ARC
8
0
10
110.9808977
20
-186.1275819
40
2
50
197.2803425
51
213.999999
0
ARC
8
0
10
120.3228294
20
-199.9775652
40
2
50
213.999999
51
303.999999
0
ARC
8
0
10
137.3292573
20
-193.3314564
40
2
50
113.4545018
51
123.999999
0
ARC
8
0
10
155.2018345
20
-185.5771089
40
2
50
108.8935678
51
113.4545018
0
ARC
8
0
10
196.3327761
20
-171.5
40
2
50
90
51
108.8935678
0
ARC
8
0
10
214
20
-167.5
40
2
50
270
51
0
0
ENDSEC
0
EOF