0
SECTION
2
HEADER
9
$INSUNITS
70
4
0
ENDSEC
0
SECTION
2
TABLES
0
TABLE
2
LTYPE
0
LTYPE
72
65
70
64
2
CONTINUOUS
3
______
73
0
40
0
0
ENDTAB
0
TABLE
2
LAYER
0
ENDTAB
0
ENDSEC
0
SECTION
2
ENTITIES
0
LINE
8
0
10
220
20
-167.5
11
220
21
-118.5
0
LINE
8
0
10
222
20
-116.5
11
257.7766055
21
-116.5
0
LINE
8
0
10
258.2178889
20
-116.5492901
11
318.8312739
21
-130.261055
0
LINE
8
0
10
319.0288187
20
-130.2954374
11
334.8099216
21
-132.2331132
0
LINE
8
0
10
336.5512753
20
-134.4619441
11
332.2503423
21
-169.4902329
0
LINE
8
0
10
332.1572854
20
-169.8947241
11
327.2320463
21
-184.2703766
0
LINE
8
0
10
326.998086
20
-184.7405326
11
317.6399191
21
-198.6145856
0
LINE
8
0
10
314.8634582
20
-199.1542749
11
300.0938018
21
-189.1920158
0
LINE
8
0
10
299.7714575
20
-189.0153381
11
281.9507242
21
-181.283484
0
LINE
8
0
10
281.6947137
20
-181.1925249
11
240.2649058
21
-169.574288
0
LINE
8
0
10
239.7248748
20
-169.5
11
222
21
-169.5
0
ARC
8
0
10
222
20
-118.5
40
2
50
90
51
180
0
ARC
8
0
10
257.7766055
20
-118.5
40
2
50
77.2532737
51
90
0
ARC
8
0
10
319.2725573
20
-128.3103451
40
2
50
257.2532737
51
263.0000028
0
ARC
8
0
10
334.566183
20
-134.2182055
40
2
50
353.0000028
51
83.0000028
0
ARC
8
0
10
330.26525
20
-169.2464943
40
2
50
341.0880395
51
353.0000028
0
ARC
8
0
10
325.3400109
20
-183.6221468
40
2
50
326.000001
51
341.0880395
0
ARC
8
0
10
315.981844
20
-197.4961998
40
2
50
236.000001
51
326.000001
0
ARC
8
0
10
298.9754161
20
-190.850091
40
2
50
56.000001
51
66.5454982
0
ARC
8
0
10
281.1546827
20
-183.1182368
40
2
50
66.5454982
51
74.3348112
0
ARC
8
0
10
239.7248748
20
-171.5
40
2
50
74.3348112
51
90
0
ARC
8
0
10
222
20
-167.5
40
2
50
180
51
270
0
LINE
8
0
10
216
20
-167.5
11
216
21
-118.5
0
LINE
8
0
10
214
20
-116.5
11
178.2233945
21
-116.5
0
LINE
8
0
10
177.7821111
20
-116.5492901
11
117.1687261
21
-130.261055
0
LINE
8
0
10
116.9711813
20
-130.2954374
11
101.1900784
21
-132.2331132
0
LINE
8
0
10
99.4487247
20
-134.4619441
11
103.7496577
21
-169.4902329
0
LINE
8
0
10
103.8427146
20
-169.8947241
11
108.7679537
21
-184.2703766
0
LINE
8
0
10
109.001914
20
-184.7405326
11
118.3600809
21
-198.6145856
0
LINE
8
0
10
121.1365418
20
-199.1542749
11
135.9061982
21
-189.1920158
0
LINE
8
0
10
136.2285425
20
-189.0153381
11
154.0492758
21
-181.283484
0
LINE
8
0
10
154.3052863
20
-181.1925249
11
195.7350942
21
-169.574288
0
LINE
8
0
10
196.2751252
20
-169.5
11
214
21
-169.5
0
ARC
8
0
10
214
20
-118.5
40
2
50
0
51
90
0
ARC
8
0
10
178.2233945
20
-118.5
40
2
50
90
51
102.7467263
0
ARC
8
0
10
116.7274427
20
-128.3103451
40
2
50
276.9999972
51
282.7467263
0
ARC
8
0
10
101.433817
20
-134.2182055
40
2
50
96.9999972
51
186.9999972
0
ARC
8
0
10
105.73475
20
-169.2464943
40
2
50
186.9999972
51
198.9119605
0
ARC
8
0
10
110.6599891
20
-183.6221468
40
2
50
198.9119605
51
213.999999
0
ARC
8
0
10
120.018156
20
-197.4961998
40
2
50
213.999999
51
303.999999
0
ARC
8
0
10
137.0245839
20
-190.850091
40
2
50
113.4545018
51
123.999999
0
ARC
8
0
10
154.8453173
20
-183.1182368
40
2
50
105.6651888
51
113.4545018
0
ARC
8
0
10
196.2751252
20
-171.5
40
2
50
90
51
105.6651888
0
ARC
8
0
10
214
20
-167.5
40
2
50
270
51
0
0
ENDSEC
0
EOF