0
SECTION
2
HEADER
9
$INSUNITS
70
4
0
ENDSEC
0
SECTION
2
TABLES
0
TABLE
2
LTYPE
0
LTYPE
72
65
70
64
2
CONTINUOUS
3
______
73
0
40
0
0
ENDTAB
0
TABLE
2
LAYER
0
ENDTAB
0
ENDSEC
0
SECTION
2
ENTITIES
0
LINE
8
0
10
153.1085549
20
-170.5434451
11
169.2374299
21
-168.5630683
0
ARC
8
0
10
168.9936912
20
-166.577976
40
2
50
277
51
7
0
LINE
8
0
10
170.9787835
20
-166.3342373
11
170.4606352
21
-162.1142583
0
ARC
8
0
10
167.1351837
20
-151.4416472
40
2
50
7.8217292
51
37.0000016
0
ARC
8
0
10
151.0063088
20
-153.422024
40
2
50
157.0000014
51
187
0
LINE
8
0
10
149.0212165
20
-153.6657627
11
150.879724
21
-168.8020915
0
ARC
8
0
10
152.8648163
20
-168.5583528
40
2
50
187
51
277
0
ARC
8
0
10
166.891445
20
-149.4565549
40
2
50
337.0000014
51
7
0
LINE
8
0
10
168.8765373
20
-149.2128162
11
167.0180298
21
-134.0764874
0
ARC
8
0
10
165.0329375
20
-134.3202261
40
2
50
7
51
37.0000016
0
ARC
8
0
10
148.9040626
20
-136.3006029
40
2
50
157.0000014
51
187
0
LINE
8
0
10
146.9189703
20
-136.5443416
11
148.7774778
21
-151.6806704
0
ARC
8
0
10
150.7625701
20
-151.4369317
40
2
50
187
51
217.0000016
0
ARC
8
0
10
164.7891988
20
-132.3351338
40
2
50
337.0000014
51
7
0
LINE
8
0
10
166.7742911
20
-132.0913951
11
164.9157836
21
-116.9550663
0
ARC
8
0
10
162.9306913
20
-117.198805
40
2
50
7
51
97
0
LINE
8
0
10
162.6869527
20
-115.2137127
11
146.5580777
21
-117.1940895
0
ARC
8
0
10
146.8018164
20
-119.1791818
40
2
50
97
51
187
0
LINE
8
0
10
144.8167241
20
-119.4229205
11
146.6752316
21
-134.5592493
0
ARC
8
0
10
148.6603239
20
-134.3155106
40
2
50
187
51
217.0000016
0
LINE
8
0
10
171.1165763
20
-162.2248824
11
187.3665763
21
-162.2248824
0
ARC
8
0
10
187.3665763
20
-160.2248824
40
2
50
270
51
360
0
LINE
8
0
10
189.3665763
20
-160.2248824
11
189.3665763
21
-156.5938717
0
ARC
8
0
10
171.1165763
20
-144.9748824
40
2
50
149.9999999
51
180
0
LINE
8
0
10
169.1165763
20
-144.9748824
11
169.1165763
21
-151.1694646
0
ARC
8
0
10
171.1165763
20
-160.2248824
40
2
50
250.8543577
51
270
0
LINE
8
0
10
189.3665763
20
-133.0238983
11
189.3665763
21
-127.7248824
0
ARC
8
0
10
187.3665763
20
-127.7248824
40
2
50
0
51
30.0000001
0
ARC
8
0
10
171.1165763
20
-127.7248824
40
2
50
149.9999999
51
180
0
LINE
8
0
10
169.1165763
20
-127.7248824
11
169.1165763
21
-142.9748824
0
ARC
8
0
10
171.1165763
20
-142.9748824
40
2
50
180
51
210.0000001
0
ARC
8
0
10
187.3665763
20
-125.7248824
40
2
50
329.9999999
51
360
0
LINE
8
0
10
189.3665763
20
-125.7248824
11
189.3665763
21
-110.4748824
0
ARC
8
0
10
187.3665763
20
-110.4748824
40
2
50
0
51
90
0
LINE
8
0
10
187.3665763
20
-108.4748824
11
171.1165763
21
-108.4748824
0
ARC
8
0
10
171.1165763
20
-110.4748824
40
2
50
90
51
180
0
LINE
8
0
10
169.1165763
20
-110.4748824
11
169.1165763
21
-125.7248824
0
ARC
8
0
10
171.1165763
20
-125.7248824
40
2
50
180
51
210.0000001
0
LINE
8
0
10
190.1239779
20
-156.786462
11
206.3517078
21
-157.6369213
0
ARC
8
0
10
206.4563797
20
-155.6396622
40
2
50
267
51
274.1807547
0
ARC
8
0
10
190.2286498
20
-154.789203
40
2
50
244.4666265
51
267
0
ARC
8
0
10
191.9295683
20
-122.3337431
40
2
50
146.9999987
51
177
0
LINE
8
0
10
189.9323092
20
-122.2290711
11
189.3665763
21
-133.0238983
0
LINE
8
0
10
210.7948518
20
-111.0713275
11
211.0573525
21
-106.0625148
0
ARC
8
0
10
209.0600934
20
-105.9578428
40
2
50
357
51
87
0
LINE
8
0
10
209.1647653
20
-103.9605838
11
192.9370354
21
-103.1101245
0
ARC
8
0
10
192.8323635
20
-105.1073836
40
2
50
87
51
177
0
LINE
8
0
10
190.8351044
20
-105.0027116
11
190.0369811
21
-120.231812
0
ARC
8
0
10
192.0342402
20
-120.336484
40
2
50
177
51
207.0000006
0
LINE
8
0
10
208.2322726
20
-164.7450839
11
224.4600025
21
-165.5955432
0
LINE
8
0
10
206.6021861
20
-157.6343402
11
206.3396854
21
-162.6431529
0
ARC
8
0
10
208.3369445
20
-162.7478249
40
2
50
177
51
267
0
LINE
8
0
10
229.1133112
20
-115.0197662
11
229.1656472
21
-114.0211367
0
ARC
8
0
10
227.1683881
20
-113.9164647
40
2
50
357
51
87
0
LINE
8
0
10
227.27306
20
-111.9192057
11
211.0453301
21
-111.0687464
0
ARC
8
0
10
210.9406582
20
-113.0660055
40
2
50
87
51
94.1807547
0
LINE
8
0
10
226.4315108
20
-168.7029826
11
242.5279836
21
-169.546563
0
ARC
8
0
10
242.6326555
20
-167.5493039
40
2
50
267
51
357
0
LINE
8
0
10
244.6299146
20
-167.6539759
11
245.4280379
21
-152.4248755
0
ARC
8
0
10
243.4307788
20
-152.3202035
40
2
50
357
51
387.0000006
0
LINE
8
0
10
224.4600025
20
-165.5955432
11
224.4076665
21
-166.5941727
0
ARC
8
0
10
226.4049256
20
-166.6988447
40
2
50
177
51
243.7541354
0
ARC
8
0
10
243.5354507
20
-150.3229444
40
2
50
326.9999987
51
357
0
LINE
8
0
10
245.5327098
20
-150.4276164
11
246.3308331
21
-135.198516
0
ARC
8
0
10
244.333574
20
-135.093844
40
2
50
357
51
387.0000006
0
ARC
8
0
10
244.4382459
20
-133.0965849
40
2
50
326.9999987
51
357
0
LINE
8
0
10
246.435505
20
-133.2012569
11
247.2336283
21
-117.9721565
0
ARC
8
0
10
245.2363692
20
-117.8674845
40
2
50
357
51
87
0
LINE
8
0
10
245.3410411
20
-115.8702255
11
229.1133112
21
-115.0197662
0
LINE
8
0
10
217.8105292
20
-186.4690263
11
233.6440428
21
-190.1244809
0
ARC
8
0
10
234.0939449
20
-188.1757408
40
2
50
257
51
325.058791
0
LINE
8
0
10
236.1226537
20
-188.2792605
11
239.4731886
21
-173.7664994
0
ARC
8
0
10
237.5244485
20
-173.3165973
40
2
50
347
51
77
0
LINE
8
0
10
237.9743506
20
-171.3678571
11
226.4315108
21
-168.7029826
0
LINE
8
0
10
225.5204777
20
-168.492654
11
222.140837
21
-167.7124025
0
ARC
8
0
10
221.6909349
20
-169.6611426
40
2
50
77
51
167
0
LINE
8
0
10
219.7421948
20
-169.2112405
11
216.3116912
21
-184.070384
0
ARC
8
0
10
218.2604313
20
-184.5202861
40
2
50
167
51
257
0
LINE
8
0
10
236.8124502
20
-191.3308371
11
251.2913062
21
-198.7081827
0
ARC
8
0
10
252.1992872
20
-196.9261697
40
2
50
243
51
333
0
LINE
8
0
10
253.9813003
20
-197.8341507
11
260.9046554
21
-184.2463012
0
ARC
8
0
10
259.1226424
20
-183.3383202
40
2
50
333
51
63
0
LINE
8
0
10
260.0306234
20
-181.5563071
11
245.5517674
21
-174.1789615
0
ARC
8
0
10
244.6437864
20
-175.9609745
40
2
50
63
51
153
0
LINE
8
0
10
242.8617733
20
-175.0529935
11
236.1226537
21
-188.2792605
0
ARC
8
0
10
237.7204312
20
-189.548824
40
2
50
173.4652383
51
243
0
ENDSEC
0
EOF