0
SECTION
2
HEADER
9
$INSUNITS
70
4
0
ENDSEC
0
SECTION
2
TABLES
0
TABLE
2
LTYPE
0
LTYPE
72
65
70
64
2
CONTINUOUS
3
______
73
0
40
0
0
ENDTAB
0
TABLE
2
LAYER
0
ENDTAB
0
ENDSEC
0
SECTION
2
ENTITIES
0
LINE
8
0
10
152.2118087
20
-169.3941644
11
169.8295028
21
-167.2309836
0
LINE
8
0
10
169.8295028
20
-167.2309836
11
167.7881913
21
-150.6058356
0
LINE
8
0
10
167.7881913
20
-150.6058356
11
150.1704972
21
-152.7690164
0
LINE
8
0
10
150.1704972
20
-152.7690164
11
152.2118087
21
-169.3941644
0
LINE
8
0
10
150.1095625
20
-152.2727433
11
167.7272566
21
-150.1095625
0
LINE
8
0
10
167.7272566
20
-150.1095625
11
165.6859451
21
-133.4844145
0
LINE
8
0
10
165.6859451
20
-133.4844145
11
148.068251
21
-135.6475953
0
LINE
8
0
10
148.068251
20
-135.6475953
11
150.1095625
21
-152.2727433
0
LINE
8
0
10
148.0073163
20
-135.1513222
11
165.6250104
21
-132.9881414
0
LINE
8
0
10
165.6250104
20
-132.9881414
11
163.5836989
21
-116.3629934
0
LINE
8
0
10
163.5836989
20
-116.3629934
11
145.9660048
21
-118.5261742
0
LINE
8
0
10
145.9660048
20
-118.5261742
11
148.0073163
21
-135.1513222
0
LINE
8
0
10
169.2697522
20
-152.041967
11
187.0197522
21
-152.041967
0
LINE
8
0
10
187.0197522
20
-152.041967
11
187.0197522
21
-135.291967
0
LINE
8
0
10
187.0197522
20
-135.291967
11
169.2697522
21
-135.291967
0
LINE
8
0
10
169.2697522
20
-135.291967
11
169.2697522
21
-152.041967
0
LINE
8
0
10
169.2697522
20
-134.791967
11
187.0197522
21
-134.791967
0
LINE
8
0
10
187.0197522
20
-134.791967
11
187.0197522
21
-118.041967
0
LINE
8
0
10
187.0197522
20
-118.041967
11
169.2697522
21
-118.041967
0
LINE
8
0
10
169.2697522
20
-118.041967
11
169.2697522
21
-134.791967
0
LINE
8
0
10
169.2697522
20
-117.541967
11
187.0197522
21
-117.541967
0
LINE
8
0
10
187.0197522
20
-117.541967
11
187.0197522
21
-100.791967
0
LINE
8
0
10
187.0197522
20
-100.791967
11
169.2697522
21
-100.791967
0
LINE
8
0
10
169.2697522
20
-100.791967
11
169.2697522
21
-117.541967
0
LINE
8
0
10
187.7697523
20
-146.041967
11
205.5197523
21
-146.041967
0
LINE
8
0
10
205.5197523
20
-146.041967
11
205.5197523
21
-129.291967
0
LINE
8
0
10
205.5197523
20
-129.291967
11
187.7697523
21
-129.291967
0
LINE
8
0
10
187.7697523
20
-129.291967
11
187.7697523
21
-146.041967
0
LINE
8
0
10
187.7697523
20
-128.791967
11
205.5197523
21
-128.791967
0
LINE
8
0
10
205.5197523
20
-128.791967
11
205.5197523
21
-112.041967
0
LINE
8
0
10
205.5197523
20
-112.041967
11
187.7697523
21
-112.041967
0
LINE
8
0
10
187.7697523
20
-112.041967
11
187.7697523
21
-128.791967
0
LINE
8
0
10
187.7697523
20
-111.541967
11
205.5197523
21
-111.541967
0
LINE
8
0
10
205.5197523
20
-111.541967
11
205.5197523
21
-94.791967
0
LINE
8
0
10
205.5197523
20
-94.791967
11
187.7697523
21
-94.791967
0
LINE
8
0
10
187.7697523
20
-94.791967
11
187.7697523
21
-111.541967
0
LINE
8
0
10
206.2697522
20
-154.041967
11
224.0197522
21
-154.041967
0
LINE
8
0
10
224.0197522
20
-154.041967
11
224.0197522
21
-137.291967
0
LINE
8
0
10
224.0197522
20
-137.291967
11
206.2697522
21
-137.291967
0
LINE
8
0
10
206.2697522
20
-137.291967
11
206.2697522
21
-154.041967
0
LINE
8
0
10
206.2697522
20
-136.791967
11
224.0197522
21
-136.791967
0
LINE
8
0
10
224.0197522
20
-136.791967
11
224.0197522
21
-120.041967
0
LINE
8
0
10
224.0197522
20
-120.041967
11
206.2697522
21
-120.041967
0
LINE
8
0
10
206.2697522
20
-120.041967
11
206.2697522
21
-136.791967
0
LINE
8
0
10
206.2697522
20
-119.541967
11
224.0197522
21
-119.541967
0
LINE
8
0
10
224.0197522
20
-119.541967
11
224.0197522
21
-102.791967
0
LINE
8
0
10
224.0197522
20
-102.791967
11
206.2697522
21
-102.791967
0
LINE
8
0
10
206.2697522
20
-102.791967
11
206.2697522
21
-119.541967
0
LINE
8
0
10
224.5197522
20
-157.041967
11
242.2697522
21
-157.041967
0
LINE
8
0
10
242.2697522
20
-157.041967
11
242.2697522
21
-140.291967
0
LINE
8
0
10
242.2697522
20
-140.291967
11
224.5197522
21
-140.291967
0
LINE
8
0
10
224.5197522
20
-140.291967
11
224.5197522
21
-157.041967
0
LINE
8
0
10
224.5197522
20
-139.791967
11
242.2697522
21
-139.791967
0
LINE
8
0
10
242.2697522
20
-139.791967
11
242.2697522
21
-123.041967
0
LINE
8
0
10
242.2697522
20
-123.041967
11
224.5197522
21
-123.041967
0
LINE
8
0
10
224.5197522
20
-123.041967
11
224.5197522
21
-139.791967
0
LINE
8
0
10
224.5197522
20
-122.541967
11
242.2697522
21
-122.541967
0
LINE
8
0
10
242.2697522
20
-122.541967
11
242.2697522
21
-105.791967
0
LINE
8
0
10
242.2697522
20
-105.791967
11
224.5197522
21
-105.791967
0
LINE
8
0
10
224.5197522
20
-105.791967
11
224.5197522
21
-122.541967
0
LINE
8
0
10
216.654551
20
-174.2095768
11
233.7997344
21
-178.8036148
0
LINE
8
0
10
233.7997344
20
-178.8036148
11
238.1349534
21
-162.6243572
0
LINE
8
0
10
238.1349534
20
-162.6243572
11
220.98977
21
-158.0303192
0
LINE
8
0
10
220.98977
20
-158.0303192
11
216.654551
21
-174.2095768
0
LINE
8
0
10
235.9690903
20
-180.1714036
11
251.7844561
21
-188.2297349
0
LINE
8
0
10
251.7844561
20
-188.2297349
11
259.3887969
21
-173.3053756
0
LINE
8
0
10
259.3887969
20
-173.3053756
11
243.5734311
21
-165.2470443
0
LINE
8
0
10
243.5734311
20
-165.2470443
11
235.9690903
21
-180.1714036
0
ENDSEC
0
EOF