0
SECTION
2
HEADER
9
$INSUNITS
70
4
0
ENDSEC
0
SECTION
2
TABLES
0
TABLE
2
LTYPE
0
LTYPE
72
65
70
64
2
CONTINUOUS
3
______
73
0
40
0
0
ENDTAB
0
TABLE
2
LAYER
0
ENDTAB
0
ENDSEC
0
SECTION
2
ENTITIES
0
LINE
8
0
10
153.1085549
20
-170.5434451
11
169.2374299
21
-168.5630683
0
ARC
8
0
10
168.9936912
20
-166.577976
40
2
50
277
51
7
0
LINE
8
0
10
170.9787835
20
-166.3342373
11
169.3638111
21
-153.1813429
0
ARC
8
0
10
151.0063088
20
-153.422024
40
2
50
157.0000014
51
187
0
LINE
8
0
10
149.0212165
20
-153.6657627
11
150.879724
21
-168.8020915
0
ARC
8
0
10
152.8648163
20
-168.5583528
40
2
50
187
51
277
0
LINE
8
0
10
168.0197522
20
-142.2348616
11
167.0180298
21
-134.0764874
0
ARC
8
0
10
165.0329375
20
-134.3202261
40
2
50
7
51
37.0000016
0
ARC
8
0
10
148.9040626
20
-136.3006029
40
2
50
157.0000014
51
187
0
LINE
8
0
10
146.9189703
20
-136.5443416
11
148.7774778
21
-151.6806704
0
ARC
8
0
10
150.7625701
20
-151.4369317
40
2
50
187
51
217.0000016
0
ARC
8
0
10
164.7891988
20
-132.3351338
40
2
50
337.0000014
51
7
0
LINE
8
0
10
166.7742911
20
-132.0913951
11
164.9157836
21
-116.9550663
0
ARC
8
0
10
162.9306913
20
-117.198805
40
2
50
7
51
97
0
LINE
8
0
10
162.6869527
20
-115.2137127
11
146.5580777
21
-117.1940895
0
ARC
8
0
10
146.8018164
20
-119.1791818
40
2
50
97
51
187
0
LINE
8
0
10
144.8167241
20
-119.4229205
11
146.6752316
21
-134.5592493
0
ARC
8
0
10
148.6603239
20
-134.3155106
40
2
50
187
51
217.0000016
0
LINE
8
0
10
170.0197522
20
-153.291967
11
186.2697522
21
-153.291967
0
ARC
8
0
10
186.2697522
20
-151.291967
40
2
50
270
51
360
0
LINE
8
0
10
188.2697522
20
-151.291967
11
188.2697522
21
-147.2762805
0
ARC
8
0
10
170.0197522
20
-136.041967
40
2
50
149.9999999
51
180
0
LINE
8
0
10
168.0197522
20
-136.041967
11
168.0197522
21
-142.2348616
0
ARC
8
0
10
170.0197522
20
-151.291967
40
2
50
250.8543577
51
270
0
ARC
8
0
10
170.0197522
20
-118.791967
40
2
50
149.9999999
51
180
0
LINE
8
0
10
168.0197522
20
-118.791967
11
168.0197522
21
-134.041967
0
ARC
8
0
10
170.0197522
20
-134.041967
40
2
50
180
51
210.0000001
0
ARC
8
0
10
186.2697522
20
-101.541967
40
2
50
82.8192414
51
90
0
LINE
8
0
10
186.2697522
20
-99.541967
11
170.0197522
21
-99.541967
0
ARC
8
0
10
170.0197522
20
-101.541967
40
2
50
90
51
180
0
LINE
8
0
10
168.0197522
20
-101.541967
11
168.0197522
21
-116.791967
0
ARC
8
0
10
170.0197522
20
-116.791967
40
2
50
180
51
210.0000001
0
LINE
8
0
10
188.5197523
20
-147.291967
11
204.7697523
21
-147.291967
0
ARC
8
0
10
204.7697523
20
-145.291967
40
2
50
270
51
277.1807529
0
ARC
8
0
10
188.5197523
20
-145.291967
40
2
50
262.8192414
51
270
0
LINE
8
0
10
206.7697523
20
-101.5576535
11
206.7697523
21
-95.541967
0
ARC
8
0
10
204.7697523
20
-95.541967
40
2
50
0
51
90
0
LINE
8
0
10
204.7697523
20
-93.541967
11
188.5197523
21
-93.541967
0
ARC
8
0
10
188.5197523
20
-95.541967
40
2
50
90
51
180
0
LINE
8
0
10
186.5197523
20
-95.541967
11
186.5197523
21
-99.5576535
0
LINE
8
0
10
207.0197522
20
-155.291967
11
223.2697522
21
-155.291967
0
LINE
8
0
10
205.0197522
20
-147.2762805
11
205.0197522
21
-153.291967
0
ARC
8
0
10
207.0197522
20
-153.291967
40
2
50
180
51
270
0
LINE
8
0
10
225.2697522
20
-104.541967
11
225.2697522
21
-103.541967
0
ARC
8
0
10
223.2697522
20
-103.541967
40
2
50
0
51
90
0
LINE
8
0
10
223.2697522
20
-101.541967
11
207.0197522
21
-101.541967
0
ARC
8
0
10
207.0197522
20
-103.541967
40
2
50
90
51
97.1807529
0
LINE
8
0
10
226.795882
20
-158.291967
11
241.5197522
21
-158.291967
0
ARC
8
0
10
241.5197522
20
-156.291967
40
2
50
270
51
360
0
LINE
8
0
10
243.5197522
20
-156.291967
11
243.5197522
21
-141.041967
0
ARC
8
0
10
241.5197522
20
-141.041967
40
2
50
0
51
30.0000001
0
LINE
8
0
10
223.2697522
20
-155.291967
11
223.2697522
21
-156.291967
0
ARC
8
0
10
225.2697522
20
-156.291967
40
2
50
180
51
215.2131226
0
ARC
8
0
10
241.5197522
20
-139.041967
40
2
50
329.9999999
51
360
0
LINE
8
0
10
243.5197522
20
-139.041967
11
243.5197522
21
-123.791967
0
ARC
8
0
10
241.5197522
20
-123.791967
40
2
50
0
51
30.0000001
0
ARC
8
0
10
241.5197522
20
-121.791967
40
2
50
329.9999999
51
360
0
LINE
8
0
10
243.5197522
20
-121.791967
11
243.5197522
21
-106.541967
0
ARC
8
0
10
241.5197522
20
-106.541967
40
2
50
0
51
90
0
LINE
8
0
10
241.5197522
20
-104.541967
11
225.2697522
21
-104.541967
0
LINE
8
0
10
217.0554716
20
-175.6110983
11
232.7517662
21
-179.8169078
0
ARC
8
0
10
233.2694043
20
-177.8850562
40
2
50
255
51
345
0
LINE
8
0
10
235.201256
20
-178.4026943
11
239.1482464
21
-163.6723254
0
ARC
8
0
10
237.2163948
20
-163.1546873
40
2
50
345
51
75
0
LINE
8
0
10
237.7340328
20
-161.2228357
11
226.795882
21
-158.291967
0
LINE
8
0
10
223.6357265
20
-157.4452059
11
222.0377382
21
-157.0170262
0
ARC
8
0
10
221.5201001
20
-158.9488778
40
2
50
75
51
165
0
LINE
8
0
10
219.5882484
20
-158.4312397
11
215.641258
21
-173.1616086
0
ARC
8
0
10
217.5731096
20
-173.6792467
40
2
50
165
51
255
0
LINE
8
0
10
236.069857
20
-181.6256546
11
250.548713
21
-189.0030002
0
ARC
8
0
10
251.456694
20
-187.2209872
40
2
50
243
51
333
0
LINE
8
0
10
253.2387071
20
-188.1289682
11
260.1620622
21
-174.5411187
0
ARC
8
0
10
258.3800492
20
-173.6331377
40
2
50
333
51
63
0
LINE
8
0
10
259.2880302
20
-171.8511246
11
244.8091742
21
-164.473779
0
ARC
8
0
10
243.9011932
20
-166.255792
40
2
50
63
51
153
0
LINE
8
0
10
242.1191801
20
-165.347811
11
235.195825
21
-178.9356605
0
ARC
8
0
10
236.977838
20
-179.8436415
40
2
50
153
51
243
0
ENDSEC
0
EOF