0
SECTION
2
HEADER
9
$INSUNITS
70
4
0
ENDSEC
0
SECTION
2
TABLES
0
TABLE
2
LTYPE
0
LTYPE
72
65
70
64
2
CONTINUOUS
3
______
73
0
40
0
0
ENDTAB
0
TABLE
2
LAYER
0
ENDTAB
0
ENDSEC
0
SECTION
2
ENTITIES
0
LINE
8
0
10
151.25
20
-168.25
11
168.75
21
-168.25
0
LINE
8
0
10
168.75
20
-168.25
11
168.75
21
-151.75
0
LINE
8
0
10
168.75
20
-151.75
11
151.25
21
-151.75
0
LINE
8
0
10
151.25
20
-151.75
11
151.25
21
-168.25
0
LINE
8
0
10
151.25
20
-151.25
11
168.75
21
-151.25
0
LINE
8
0
10
168.75
20
-151.25
11
168.75
21
-134.75
0
LINE
8
0
10
168.75
20
-134.75
11
151.25
21
-134.75
0
LINE
8
0
10
151.25
20
-134.75
11
151.25
21
-151.25
0
LINE
8
0
10
151.25
20
-134.25
11
168.75
21
-134.25
0
LINE
8
0
10
168.75
20
-134.25
11
168.75
21
-117.75
0
LINE
8
0
10
168.75
20
-117.75
11
151.25
21
-117.75
0
LINE
8
0
10
151.25
20
-117.75
11
151.25
21
-134.25
0
LINE
8
0
10
170.3097991
20
-153.122149
11
187.6793567
21
-155.2548625
0
LINE
8
0
10
187.6793567
20
-155.2548625
11
189.6902009
21
-138.877851
0
LINE
8
0
10
189.6902009
20
-138.877851
11
172.3206433
21
-136.7451375
0
LINE
8
0
10
172.3206433
20
-136.7451375
11
170.3097991
21
-153.122149
0
LINE
8
0
10
172.3815779
20
-136.2488644
11
189.7511355
21
-138.3815779
0
LINE
8
0
10
189.7511355
20
-138.3815779
11
191.7619797
21
-122.0045664
0
LINE
8
0
10
191.7619797
20
-122.0045664
11
174.3924221
21
-119.8718529
0
LINE
8
0
10
174.3924221
20
-119.8718529
11
172.3815779
21
-136.2488644
0
LINE
8
0
10
174.4533567
20
-119.3755798
11
191.8229143
21
-121.5082933
0
LINE
8
0
10
191.8229143
20
-121.5082933
11
193.8337585
21
-105.1312818
0
LINE
8
0
10
193.8337585
20
-105.1312818
11
176.4642009
21
-102.9985683
0
LINE
8
0
10
176.4642009
20
-102.9985683
11
174.4533567
21
-119.3755798
0
LINE
8
0
10
189.1505846
20
-147.375428
11
206.5201422
21
-149.5081415
0
LINE
8
0
10
206.5201422
20
-149.5081415
11
208.5309864
21
-133.13113
0
LINE
8
0
10
208.5309864
20
-133.13113
11
191.1614288
21
-130.9984165
0
LINE
8
0
10
191.1614288
20
-130.9984165
11
189.1505846
21
-147.375428
0
LINE
8
0
10
191.2223634
20
-130.5021434
11
208.591921
21
-132.6348569
0
LINE
8
0
10
208.591921
20
-132.6348569
11
210.6027652
21
-116.2578454
0
LINE
8
0
10
210.6027652
20
-116.2578454
11
193.2332076
21
-114.1251319
0
LINE
8
0
10
193.2332076
20
-114.1251319
11
191.2223634
21
-130.5021434
0
LINE
8
0
10
193.2941422
20
-113.6288588
11
210.6636998
21
-115.7615723
0
LINE
8
0
10
210.6636998
20
-115.7615723
11
212.674544
21
-99.3845608
0
LINE
8
0
10
212.674544
20
-99.3845608
11
195.3049864
21
-97.2518473
0
LINE
8
0
10
195.3049864
20
-97.2518473
11
193.2941422
21
-113.6288588
0
LINE
8
0
10
205.7977219
20
-159.4945377
11
223.1672795
21
-161.6272512
0
LINE
8
0
10
223.1672795
20
-161.6272512
11
225.1781237
21
-145.2502397
0
LINE
8
0
10
225.1781237
20
-145.2502397
11
207.8085661
21
-143.1175262
0
LINE
8
0
10
207.8085661
20
-143.1175262
11
205.7977219
21
-159.4945377
0
LINE
8
0
10
207.8695007
20
-142.6212531
11
225.2390583
21
-144.7539666
0
LINE
8
0
10
225.2390583
20
-144.7539666
11
227.2499025
21
-128.3769551
0
LINE
8
0
10
227.2499025
20
-128.3769551
11
209.8803449
21
-126.2442416
0
LINE
8
0
10
209.8803449
20
-126.2442416
11
207.8695007
21
-142.6212531
0
LINE
8
0
10
209.9412795
20
-125.7479685
11
227.3108371
21
-127.880682
0
LINE
8
0
10
227.3108371
20
-127.880682
11
229.3216813
21
-111.5036705
0
LINE
8
0
10
229.3216813
20
-111.5036705
11
211.9521237
21
-109.370957
0
LINE
8
0
10
211.9521237
20
-109.370957
11
209.9412795
21
-125.7479685
0
LINE
8
0
10
223.2979446
20
-164.6658243
11
240.6675022
21
-166.7985378
0
LINE
8
0
10
240.6675022
20
-166.7985378
11
242.6783464
21
-150.4215263
0
LINE
8
0
10
242.6783464
20
-150.4215263
11
225.3087888
21
-148.2888128
0
LINE
8
0
10
225.3087888
20
-148.2888128
11
223.2979446
21
-164.6658243
0
LINE
8
0
10
225.3697234
20
-147.7925397
11
242.739281
21
-149.9252532
0
LINE
8
0
10
242.739281
20
-149.9252532
11
244.7501252
21
-133.5482417
0
LINE
8
0
10
244.7501252
20
-133.5482417
11
227.3805676
21
-131.4155282
0
LINE
8
0
10
227.3805676
20
-131.4155282
11
225.3697234
21
-147.7925397
0
LINE
8
0
10
227.4415022
20
-130.9192551
11
244.8110598
21
-133.0519686
0
LINE
8
0
10
244.8110598
20
-133.0519686
11
246.821904
21
-116.6749571
0
LINE
8
0
10
246.821904
20
-116.6749571
11
229.4523464
21
-114.5422436
0
LINE
8
0
10
229.4523464
20
-114.5422436
11
227.4415022
21
-130.9192551
0
LINE
8
0
10
213.4530533
20
-180.5385683
11
229.6787707
21
-187.0941837
0
LINE
8
0
10
229.6787707
20
-187.0941837
11
235.8597795
21
-171.7956501
0
LINE
8
0
10
235.8597795
20
-171.7956501
11
219.6340621
21
-165.2400347
0
LINE
8
0
10
219.6340621
20
-165.2400347
11
213.4530533
21
-180.5385683
0
LINE
8
0
10
231.67607
20
-188.7514968
11
246.1842275
21
-198.5373726
0
LINE
8
0
10
246.1842275
20
-198.5373726
11
255.4109104
21
-184.8582526
0
LINE
8
0
10
255.4109104
20
-184.8582526
11
240.9027529
21
-175.0723768
0
LINE
8
0
10
240.9027529
20
-175.0723768
11
231.67607
21
-188.7514968
0
ENDSEC
0
EOF