0
SECTION
2
HEADER
9
$INSUNITS
70
4
0
ENDSEC
0
SECTION
2
TABLES
0
TABLE
2
LTYPE
0
LTYPE
72
65
70
64
2
CONTINUOUS
3
______
73
0
40
0
0
ENDTAB
0
TABLE
2
LAYER
0
ENDTAB
0
ENDSEC
0
SECTION
2
ENTITIES
0
LINE
8
0
10
222
20
-169.5
11
238
21
-169.5
0
ARC
8
0
10
238
20
-167.5
40
2
50
270
51
360
0
LINE
8
0
10
240
20
-167.5
11
240
21
-154.1085242
0
ARC
8
0
10
222
20
-152.5
40
2
50
149.9999999
51
180
0
LINE
8
0
10
220
20
-152.5
11
220
21
-167.5
0
ARC
8
0
10
222
20
-167.5
40
2
50
180
51
270
0
LINE
8
0
10
240
20
-145.3883739
11
240
21
-135.5
0
ARC
8
0
10
238
20
-135.5
40
2
50
0
51
30.0000001
0
ARC
8
0
10
222
20
-135.5
40
2
50
149.9999999
51
180
0
LINE
8
0
10
220
20
-135.5
11
220
21
-150.5
0
ARC
8
0
10
222
20
-150.5
40
2
50
180
51
210.0000001
0
ARC
8
0
10
238
20
-133.5
40
2
50
329.9999999
51
360
0
LINE
8
0
10
240
20
-133.5
11
240
21
-118.5
0
ARC
8
0
10
238
20
-118.5
40
2
50
0
51
90
0
LINE
8
0
10
238
20
-116.5
11
222
21
-116.5
0
ARC
8
0
10
222
20
-118.5
40
2
50
90
51
180
0
LINE
8
0
10
220
20
-118.5
11
220
21
-133.5
0
ARC
8
0
10
222
20
-133.5
40
2
50
180
51
210.0000001
0
LINE
8
0
10
240.901872
20
-154.4542337
11
256.7826105
21
-156.4041432
0
ARC
8
0
10
257.0263491
20
-154.4190509
40
2
50
263
51
353
0
LINE
8
0
10
259.0114414
20
-154.6627896
11
259.7426575
21
-148.7075127
0
ARC
8
0
10
242.9736509
20
-137.5809491
40
2
50
143.0000024
51
173
0
LINE
8
0
10
240.9885586
20
-137.3372104
11
240
21
-145.3883739
0
ARC
8
0
10
241.1456107
20
-152.4691414
40
2
50
235.0539153
51
263
0
ARC
8
0
10
245.0454297
20
-120.7076645
40
2
50
143.0000024
51
173
0
LINE
8
0
10
243.0603374
20
-120.4639258
11
241.2322972
21
-135.3521181
0
ARC
8
0
10
243.2173895
20
-135.5958568
40
2
50
173
51
203.0000012
0
LINE
8
0
10
263.2416856
20
-103.7991971
11
247.3609471
21
-101.8492876
0
ARC
8
0
10
247.1172085
20
-103.8343799
40
2
50
83
51
173
0
LINE
8
0
10
245.1321162
20
-103.5906412
11
243.304076
21
-118.4788335
0
ARC
8
0
10
245.2891683
20
-118.7225722
40
2
50
173
51
203.0000012
0
LINE
8
0
10
259.7426575
20
-148.7075127
11
275.623396
21
-150.6574222
0
LINE
8
0
10
282.8488699
20
-108.2216763
11
283.8238247
21
-100.2813071
0
ARC
8
0
10
281.8387324
20
-100.0375684
40
2
50
353
51
83
0
LINE
8
0
10
282.0824711
20
-98.0524761
11
266.2017326
21
-96.1025666
0
ARC
8
0
10
265.957994
20
-98.0876589
40
2
50
83
51
173
0
LINE
8
0
10
263.9729017
20
-97.8439202
11
263.2416856
21
-103.7991971
0
LINE
8
0
10
276.3897948
20
-160.8266224
11
292.2705333
21
-162.7765319
0
LINE
8
0
10
275.623396
20
-150.6574222
11
274.6484412
21
-158.5977914
0
ARC
8
0
10
276.6335335
20
-158.8415301
40
2
50
173
51
263
0
LINE
8
0
10
300.3490926
20
-113.3929629
11
300.470962
21
-112.4004168
0
ARC
8
0
10
298.4858697
20
-112.1566781
40
2
50
353
51
83
0
LINE
8
0
10
298.7296084
20
-110.1715858
11
282.8488699
21
-108.2216763
0
LINE
8
0
10
295.2643699
20
-166.1666583
11
309.770756
21
-167.9478185
0
ARC
8
0
10
310.0144946
20
-165.9627262
40
2
50
263
51
353
0
LINE
8
0
10
311.9995869
20
-166.2064649
11
313.8276271
21
-151.3182726
0
ARC
8
0
10
311.8425348
20
-151.0745339
40
2
50
353
51
383.0000012
0
LINE
8
0
10
292.2705333
20
-162.7765319
11
292.1486639
21
-163.769078
0
ARC
8
0
10
294.1337562
20
-164.0128167
40
2
50
173
51
209.8815128
0
ARC
8
0
10
312.0862734
20
-149.0894416
40
2
50
323.0000024
51
353
0
LINE
8
0
10
314.0713657
20
-149.3331803
11
315.8994059
21
-134.444988
0
ARC
8
0
10
313.9143136
20
-134.2012493
40
2
50
353
51
383.0000012
0
ARC
8
0
10
314.1580522
20
-132.216157
40
2
50
323.0000024
51
353
0
LINE
8
0
10
316.1431445
20
-132.4598957
11
317.9711847
21
-117.5717034
0
ARC
8
0
10
315.9860924
20
-117.3279647
40
2
50
353
51
83
0
LINE
8
0
10
316.2298311
20
-115.3428724
11
300.3490926
21
-113.3929629
0
LINE
8
0
10
198
20
-169.5
11
214
21
-169.5
0
ARC
8
0
10
214
20
-167.5
40
2
50
270
51
360
0
LINE
8
0
10
216
20
-167.5
11
216
21
-152.5
0
ARC
8
0
10
214
20
-152.5
40
2
50
0
51
30.0000001
0
LINE
8
0
10
196
20
-154.1085242
11
196
21
-167.5
0
ARC
8
0
10
198
20
-167.5
40
2
50
180
51
270
0
ARC
8
0
10
214
20
-150.5
40
2
50
329.9999999
51
360
0
LINE
8
0
10
216
20
-150.5
11
216
21
-135.5
0
ARC
8
0
10
214
20
-135.5
40
2
50
0
51
30.0000001
0
ARC
8
0
10
198
20
-135.5
40
2
50
149.9999999
51
180
0
LINE
8
0
10
196
20
-135.5
11
196
21
-145.3883739
0
ARC
8
0
10
214
20
-133.5
40
2
50
329.9999999
51
360
0
LINE
8
0
10
216
20
-133.5
11
216
21
-118.5
0
ARC
8
0
10
214
20
-118.5
40
2
50
0
51
90
0
LINE
8
0
10
214
20
-116.5
11
198
21
-116.5
0
ARC
8
0
10
198
20
-118.5
40
2
50
90
51
180
0
LINE
8
0
10
196
20
-118.5
11
196
21
-133.5
0
ARC
8
0
10
198
20
-133.5
40
2
50
180
51
210.0000001
0
LINE
8
0
10
179.2173895
20
-156.4041432
11
195.098128
21
-154.4542337
0
ARC
8
0
10
194.8543893
20
-152.4691414
40
2
50
277
51
304.9460847
0
LINE
8
0
10
196
20
-145.3883739
11
195.0114414
21
-137.3372104
0
ARC
8
0
10
193.0263491
20
-137.5809491
40
2
50
7
51
36.9999976
0
LINE
8
0
10
176.2573425
20
-148.7075127
11
176.9885586
21
-154.6627896
0
ARC
8
0
10
178.9736509
20
-154.4190509
40
2
50
187
51
277
0
ARC
8
0
10
192.7826105
20
-135.5958568
40
2
50
336.9999988
51
7
0
LINE
8
0
10
194.7677028
20
-135.3521181
11
192.9396626
21
-120.4639258
0
ARC
8
0
10
190.9545703
20
-120.7076645
40
2
50
7
51
36.9999976
0
ARC
8
0
10
190.7108317
20
-118.7225722
40
2
50
336.9999988
51
7
0
LINE
8
0
10
192.695924
20
-118.4788335
11
190.8678838
21
-103.5906412
0
ARC
8
0
10
188.8827915
20
-103.8343799
40
2
50
7
51
97
0
LINE
8
0
10
188.6390529
20
-101.8492876
11
172.7583144
21
-103.7991971
0
LINE
8
0
10
160.376604
20
-150.6574222
11
176.2573425
21
-148.7075127
0
LINE
8
0
10
172.7583144
20
-103.7991971
11
172.0270983
21
-97.8439202
0
ARC
8
0
10
170.042006
20
-98.0876589
40
2
50
7
51
97
0
LINE
8
0
10
169.7982674
20
-96.1025666
11
153.9175289
21
-98.0524761
0
ARC
8
0
10
154.1612676
20
-100.0375684
40
2
50
97
51
187
0
LINE
8
0
10
152.1761753
20
-100.2813071
11
153.15113
21
-108.2216763
0
LINE
8
0
10
143.7294667
20
-162.7765319
11
159.6102052
21
-160.8266224
0
ARC
8
0
10
159.3664665
20
-158.8415301
40
2
50
277
51
7
0
LINE
8
0
10
161.3515588
20
-158.5977914
11
160.376604
21
-150.6574222
0
LINE
8
0
10
153.1511301
20
-108.2216763
11
137.2703916
21
-110.1715858
0
ARC
8
0
10
137.5141303
20
-112.1566781
40
2
50
97
51
187
0
LINE
8
0
10
135.529038
20
-112.4004168
11
135.6509073
21
-113.3929629
0
LINE
8
0
10
126.229244
20
-167.9478185
11
140.7356301
21
-166.1666583
0
ARC
8
0
10
141.8662438
20
-164.0128167
40
2
50
330.1184872
51
7
0
LINE
8
0
10
143.8513361
20
-163.769078
11
143.7294667
21
-162.7765319
0
ARC
8
0
10
124.1574652
20
-151.0745339
40
2
50
156.9999988
51
187
0
LINE
8
0
10
122.1723729
20
-151.3182726
11
124.0004131
21
-166.2064649
0
ARC
8
0
10
125.9855054
20
-165.9627262
40
2
50
187
51
277
0
ARC
8
0
10
122.0856864
20
-134.2012493
40
2
50
156.9999988
51
187
0
LINE
8
0
10
120.1005941
20
-134.444988
11
121.9286343
21
-149.3331803
0
ARC
8
0
10
123.9137266
20
-149.0894416
40
2
50
187
51
216.9999976
0
LINE
8
0
10
135.6509074
20
-113.3929629
11
119.7701689
21
-115.3428724
0
ARC
8
0
10
120.0139076
20
-117.3279647
40
2
50
97
51
187
0
LINE
8
0
10
118.0288153
20
-117.5717034
11
119.8568555
21
-132.4598957
0
ARC
8
0
10
121.8419478
20
-132.216157
40
2
50
187
51
216.9999976
0
LINE
8
0
10
283.6801829
20
-181.9785031
11
298.5151246
21
-187.9722086
0
ARC
8
0
10
299.2643378
20
-186.1178409
40
2
50
248
51
338
0
LINE
8
0
10
301.1187055
20
-186.867054
11
306.7378044
21
-172.9592962
0
ARC
8
0
10
304.8834367
20
-172.210083
40
2
50
338
51
68
0
LINE
8
0
10
305.6326499
20
-170.3557153
11
295.2643699
21
-166.1666583
0
LINE
8
0
10
292.3996411
20
-165.0092327
11
290.7977082
21
-164.3620098
0
ARC
8
0
10
290.048495
20
-166.2163775
40
2
50
68
51
158
0
LINE
8
0
10
288.1941273
20
-165.4671644
11
282.5750284
21
-179.3749222
0
ARC
8
0
10
284.4293961
20
-180.1241354
40
2
50
158
51
248
0
LINE
8
0
10
301.598857
20
-190.2071884
11
314.8634582
21
-199.1542749
0
ARC
8
0
10
315.981844
20
-197.4961997
40
2
50
236
51
326
0
LINE
8
0
10
317.6399191
20
-198.6145855
11
326.0278127
21
-186.1790219
0
ARC
8
0
10
324.3697376
20
-185.0606361
40
2
50
326
51
56
0
LINE
8
0
10
325.4881234
20
-183.402561
11
312.2235222
21
-174.4554745
0
ARC
8
0
10
311.1051364
20
-176.1135497
40
2
50
56
51
146
0
LINE
8
0
10
309.4470613
20
-174.9951639
11
301.0591677
21
-187.4307275
0
ARC
8
0
10
302.7172428
20
-188.5491133
40
2
50
146
51
236
0
LINE
8
0
10
137.4848754
20
-187.9722086
11
152.3198171
21
-181.9785031
0
ARC
8
0
10
151.5706039
20
-180.1241354
40
2
50
292
51
22
0
LINE
8
0
10
153.4249716
20
-179.3749222
11
147.8058727
21
-165.4671644
0
ARC
8
0
10
145.951505
20
-166.2163775
40
2
50
22
51
112
0
LINE
8
0
10
145.2022918
20
-164.3620098
11
143.6003589
21
-165.0092327
0
LINE
8
0
10
140.7356301
20
-166.1666583
11
130.3673501
21
-170.3557153
0
ARC
8
0
10
131.1165633
20
-172.210083
40
2
50
112
51
202
0
LINE
8
0
10
129.2621956
20
-172.9592962
11
134.8812945
21
-186.867054
0
ARC
8
0
10
136.7356622
20
-186.1178409
40
2
50
202
51
292
0
LINE
8
0
10
121.1365418
20
-199.1542749
11
134.401143
21
-190.2071884
0
ARC
8
0
10
133.2827572
20
-188.5491133
40
2
50
304
51
34
0
LINE
8
0
10
134.9408323
20
-187.4307275
11
126.5529387
21
-174.9951639
0
ARC
8
0
10
124.8948636
20
-176.1135497
40
2
50
34
51
124
0
LINE
8
0
10
123.7764778
20
-174.4554745
11
110.5118766
21
-183.402561
0
ARC
8
0
10
111.6302624
20
-185.0606361
40
2
50
124
51
214
0
LINE
8
0
10
109.9721873
20
-186.1790219
11
118.3600809
21
-198.6145855
0
ARC
8
0
10
120.018156
20
-197.4961997
40
2
50
214
51
304
0
ENDSEC
0
EOF