0
SECTION
2
HEADER
9
$INSUNITS
70
4
0
ENDSEC
0
SECTION
2
TABLES
0
TABLE
2
LTYPE
0
LTYPE
72
65
70
64
2
CONTINUOUS
3
______
73
0
40
0
0
ENDTAB
0
TABLE
2
LAYER
0
ENDTAB
0
ENDSEC
0
SECTION
2
ENTITIES
0
LINE
8
0
10
152
20
-169.5
11
168
21
-169.5
0
ARC
8
0
10
168
20
-167.5
40
2
50
270
51
360
0
LINE
8
0
10
170
20
-167.5
11
170
21
-154.1085242
0
ARC
8
0
10
152
20
-152.5
40
2
50
149.9999999
51
180
0
LINE
8
0
10
150
20
-152.5
11
150
21
-167.5
0
ARC
8
0
10
152
20
-167.5
40
2
50
180
51
270
0
LINE
8
0
10
170
20
-145.3883739
11
170
21
-135.5
0
ARC
8
0
10
168
20
-135.5
40
2
50
0
51
30.0000001
0
ARC
8
0
10
152
20
-135.5
40
2
50
149.9999999
51
180
0
LINE
8
0
10
150
20
-135.5
11
150
21
-150.5
0
ARC
8
0
10
152
20
-150.5
40
2
50
180
51
210.0000001
0
ARC
8
0
10
168
20
-133.5
40
2
50
329.9999999
51
360
0
LINE
8
0
10
170
20
-133.5
11
170
21
-118.5
0
ARC
8
0
10
168
20
-118.5
40
2
50
0
51
90
0
LINE
8
0
10
168
20
-116.5
11
152
21
-116.5
0
ARC
8
0
10
152
20
-118.5
40
2
50
90
51
180
0
LINE
8
0
10
150
20
-118.5
11
150
21
-133.5
0
ARC
8
0
10
152
20
-133.5
40
2
50
180
51
210.0000001
0
LINE
8
0
10
170.901872
20
-154.4542337
11
186.7826105
21
-156.4041432
0
ARC
8
0
10
187.0263491
20
-154.4190509
40
2
50
263
51
353
0
LINE
8
0
10
189.0114414
20
-154.6627896
11
189.7426575
21
-148.7075127
0
ARC
8
0
10
172.9736509
20
-137.5809491
40
2
50
143.0000024
51
173
0
LINE
8
0
10
170.9885586
20
-137.3372104
11
170
21
-145.3883739
0
ARC
8
0
10
171.1456107
20
-152.4691414
40
2
50
235.0539153
51
263
0
ARC
8
0
10
175.0454297
20
-120.7076645
40
2
50
143.0000024
51
173
0
LINE
8
0
10
173.0603374
20
-120.4639258
11
171.2322972
21
-135.3521181
0
ARC
8
0
10
173.2173895
20
-135.5958568
40
2
50
173
51
203.0000012
0
LINE
8
0
10
193.2416856
20
-103.7991971
11
177.3609471
21
-101.8492876
0
ARC
8
0
10
177.1172085
20
-103.8343799
40
2
50
83
51
173
0
LINE
8
0
10
175.1321162
20
-103.5906412
11
173.304076
21
-118.4788335
0
ARC
8
0
10
175.2891683
20
-118.7225722
40
2
50
173
51
203.0000012
0
LINE
8
0
10
189.7426575
20
-148.7075127
11
205.623396
21
-150.6574222
0
LINE
8
0
10
212.8488699
20
-108.2216763
11
213.8238247
21
-100.2813071
0
ARC
8
0
10
211.8387324
20
-100.0375684
40
2
50
353
51
83
0
LINE
8
0
10
212.0824711
20
-98.0524761
11
196.2017326
21
-96.1025666
0
ARC
8
0
10
195.957994
20
-98.0876589
40
2
50
83
51
173
0
LINE
8
0
10
193.9729017
20
-97.8439202
11
193.2416856
21
-103.7991971
0
LINE
8
0
10
206.3897948
20
-160.8266224
11
222.2705333
21
-162.7765319
0
LINE
8
0
10
205.623396
20
-150.6574222
11
204.6484412
21
-158.5977914
0
ARC
8
0
10
206.6335335
20
-158.8415301
40
2
50
173
51
263
0
LINE
8
0
10
230.3490926
20
-113.3929629
11
230.470962
21
-112.4004168
0
ARC
8
0
10
228.4858697
20
-112.1566781
40
2
50
353
51
83
0
LINE
8
0
10
228.7296084
20
-110.1715858
11
212.8488699
21
-108.2216763
0
LINE
8
0
10
225.2643699
20
-166.1666583
11
239.770756
21
-167.9478185
0
ARC
8
0
10
240.0144946
20
-165.9627262
40
2
50
263
51
353
0
LINE
8
0
10
241.9995869
20
-166.2064649
11
243.8276271
21
-151.3182726
0
ARC
8
0
10
241.8425348
20
-151.0745339
40
2
50
353
51
383.0000012
0
LINE
8
0
10
222.2705333
20
-162.7765319
11
222.1486639
21
-163.769078
0
ARC
8
0
10
224.1337562
20
-164.0128167
40
2
50
173
51
209.8815128
0
ARC
8
0
10
242.0862734
20
-149.0894416
40
2
50
323.0000024
51
353
0
LINE
8
0
10
244.0713657
20
-149.3331803
11
245.8994059
21
-134.444988
0
ARC
8
0
10
243.9143136
20
-134.2012493
40
2
50
353
51
383.0000012
0
ARC
8
0
10
244.1580522
20
-132.216157
40
2
50
323.0000024
51
353
0
LINE
8
0
10
246.1431445
20
-132.4598957
11
247.9711847
21
-117.5717034
0
ARC
8
0
10
245.9860924
20
-117.3279647
40
2
50
353
51
83
0
LINE
8
0
10
246.2298311
20
-115.3428724
11
230.3490926
21
-113.3929629
0
LINE
8
0
10
213.6801829
20
-181.9785031
11
228.5151246
21
-187.9722086
0
ARC
8
0
10
229.2643378
20
-186.1178409
40
2
50
248
51
338
0
LINE
8
0
10
231.1187055
20
-186.867054
11
236.7378044
21
-172.9592962
0
ARC
8
0
10
234.8834367
20
-172.210083
40
2
50
338
51
68
0
LINE
8
0
10
235.6326499
20
-170.3557153
11
225.2643699
21
-166.1666583
0
LINE
8
0
10
222.3996411
20
-165.0092327
11
220.7977082
21
-164.3620098
0
ARC
8
0
10
220.048495
20
-166.2163775
40
2
50
68
51
158
0
LINE
8
0
10
218.1941273
20
-165.4671644
11
212.5750284
21
-179.3749222
0
ARC
8
0
10
214.4293961
20
-180.1241354
40
2
50
158
51
248
0
LINE
8
0
10
231.598857
20
-190.2071884
11
244.8634582
21
-199.1542749
0
ARC
8
0
10
245.981844
20
-197.4961997
40
2
50
236
51
326
0
LINE
8
0
10
247.6399191
20
-198.6145855
11
256.0278127
21
-186.1790219
0
ARC
8
0
10
254.3697376
20
-185.0606361
40
2
50
326
51
56
0
LINE
8
0
10
255.4881234
20
-183.402561
11
242.2235222
21
-174.4554745
0
ARC
8
0
10
241.1051364
20
-176.1135497
40
2
50
56
51
146
0
LINE
8
0
10
239.4470613
20
-174.9951639
11
231.0591677
21
-187.4307275
0
ARC
8
0
10
232.7172428
20
-188.5491133
40
2
50
146
51
236
0
ENDSEC
0
EOF