0
SECTION
2
HEADER
9
$INSUNITS
70
4
0
ENDSEC
0
SECTION
2
TABLES
0
TABLE
2
LTYPE
0
LTYPE
72
65
70
64
2
CONTINUOUS
3
______
73
0
40
0
0
ENDTAB
0
TABLE
2
LAYER
0
ENDTAB
0
ENDSEC
0
SECTION
2
ENTITIES
0
LINE
8
0
10
152.3206433
20
-169.2548625
11
169.6902009
21
-167.122149
0
LINE
8
0
10
169.6902009
20
-167.122149
11
167.6793567
21
-150.7451375
0
LINE
8
0
10
167.6793567
20
-150.7451375
11
150.3097991
21
-152.877851
0
LINE
8
0
10
150.3097991
20
-152.877851
11
152.3206433
21
-169.2548625
0
LINE
8
0
10
150.2488645
20
-152.3815779
11
167.6184221
21
-150.2488644
0
LINE
8
0
10
167.6184221
20
-150.2488644
11
165.6075779
21
-133.8718529
0
LINE
8
0
10
165.6075779
20
-133.8718529
11
148.2380203
21
-136.0045664
0
LINE
8
0
10
148.2380203
20
-136.0045664
11
150.2488645
21
-152.3815779
0
LINE
8
0
10
148.1770857
20
-135.5082933
11
165.5466433
21
-133.3755798
0
LINE
8
0
10
165.5466433
20
-133.3755798
11
163.5357991
21
-116.9985683
0
LINE
8
0
10
163.5357991
20
-116.9985683
11
146.1662415
21
-119.1312818
0
LINE
8
0
10
146.1662415
20
-119.1312818
11
148.1770857
21
-135.5082933
0
LINE
8
0
10
169.3947522
20
-151.916967
11
186.8947522
21
-151.916967
0
LINE
8
0
10
186.8947522
20
-151.916967
11
186.8947522
21
-135.416967
0
LINE
8
0
10
186.8947522
20
-135.416967
11
169.3947522
21
-135.416967
0
LINE
8
0
10
169.3947522
20
-135.416967
11
169.3947522
21
-151.916967
0
LINE
8
0
10
169.3947522
20
-134.916967
11
186.8947522
21
-134.916967
0
LINE
8
0
10
186.8947522
20
-134.916967
11
186.8947522
21
-118.416967
0
LINE
8
0
10
186.8947522
20
-118.416967
11
169.3947522
21
-118.416967
0
LINE
8
0
10
169.3947522
20
-118.416967
11
169.3947522
21
-134.916967
0
LINE
8
0
10
169.3947522
20
-117.916967
11
186.8947522
21
-117.916967
0
LINE
8
0
10
186.8947522
20
-117.916967
11
186.8947522
21
-101.416967
0
LINE
8
0
10
186.8947522
20
-101.416967
11
169.3947522
21
-101.416967
0
LINE
8
0
10
169.3947522
20
-101.416967
11
169.3947522
21
-117.916967
0
LINE
8
0
10
187.3947522
20
-143.916967
11
204.8947522
21
-143.916967
0
LINE
8
0
10
204.8947522
20
-143.916967
11
204.8947522
21
-127.416967
0
LINE
8
0
10
204.8947522
20
-127.416967
11
187.3947522
21
-127.416967
0
LINE
8
0
10
187.3947522
20
-127.416967
11
187.3947522
21
-143.916967
0
LINE
8
0
10
187.3947522
20
-126.916967
11
204.8947522
21
-126.916967
0
LINE
8
0
10
204.8947522
20
-126.916967
11
204.8947522
21
-110.416967
0
LINE
8
0
10
204.8947522
20
-110.416967
11
187.3947522
21
-110.416967
0
LINE
8
0
10
187.3947522
20
-110.416967
11
187.3947522
21
-126.916967
0
LINE
8
0
10
187.3947522
20
-109.916967
11
204.8947522
21
-109.916967
0
LINE
8
0
10
204.8947522
20
-109.916967
11
204.8947522
21
-93.416967
0
LINE
8
0
10
204.8947522
20
-93.416967
11
187.3947522
21
-93.416967
0
LINE
8
0
10
187.3947522
20
-93.416967
11
187.3947522
21
-109.916967
0
LINE
8
0
10
205.3947523
20
-153.916967
11
222.8947523
21
-153.916967
0
LINE
8
0
10
222.8947523
20
-153.916967
11
222.8947523
21
-137.416967
0
LINE
8
0
10
222.8947523
20
-137.416967
11
205.3947523
21
-137.416967
0
LINE
8
0
10
205.3947523
20
-137.416967
11
205.3947523
21
-153.916967
0
LINE
8
0
10
205.3947523
20
-136.916967
11
222.8947523
21
-136.916967
0
LINE
8
0
10
222.8947523
20
-136.916967
11
222.8947523
21
-120.416967
0
LINE
8
0
10
222.8947523
20
-120.416967
11
205.3947523
21
-120.416967
0
LINE
8
0
10
205.3947523
20
-120.416967
11
205.3947523
21
-136.916967
0
LINE
8
0
10
205.3947523
20
-119.916967
11
222.8947523
21
-119.916967
0
LINE
8
0
10
222.8947523
20
-119.916967
11
222.8947523
21
-103.416967
0
LINE
8
0
10
222.8947523
20
-103.416967
11
205.3947523
21
-103.416967
0
LINE
8
0
10
205.3947523
20
-103.416967
11
205.3947523
21
-119.916967
0
LINE
8
0
10
223.3947522
20
-156.916967
11
240.8947522
21
-156.916967
0
LINE
8
0
10
240.8947522
20
-156.916967
11
240.8947522
21
-140.416967
0
LINE
8
0
10
240.8947522
20
-140.416967
11
223.3947522
21
-140.416967
0
LINE
8
0
10
223.3947522
20
-140.416967
11
223.3947522
21
-156.916967
0
LINE
8
0
10
223.3947522
20
-139.916967
11
240.8947522
21
-139.916967
0
LINE
8
0
10
240.8947522
20
-139.916967
11
240.8947522
21
-123.416967
0
LINE
8
0
10
240.8947522
20
-123.416967
11
223.3947522
21
-123.416967
0
LINE
8
0
10
223.3947522
20
-123.416967
11
223.3947522
21
-139.916967
0
LINE
8
0
10
223.3947522
20
-122.916967
11
240.8947522
21
-122.916967
0
LINE
8
0
10
240.8947522
20
-122.916967
11
240.8947522
21
-106.416967
0
LINE
8
0
10
240.8947522
20
-106.416967
11
223.3947522
21
-106.416967
0
LINE
8
0
10
223.3947522
20
-106.416967
11
223.3947522
21
-122.916967
0
LINE
8
0
10
215.5576441
20
-173.8711884
11
232.4613461
21
-178.4005217
0
LINE
8
0
10
232.4613461
20
-178.4005217
11
236.7318603
21
-162.4627456
0
LINE
8
0
10
236.7318603
20
-162.4627456
11
219.8281583
21
-157.9334123
0
LINE
8
0
10
219.8281583
20
-157.9334123
11
215.5576441
21
-173.8711884
0
LINE
8
0
10
234.6457335
20
-179.8020718
11
250.2383477
21
-187.7469055
0
LINE
8
0
10
250.2383477
20
-187.7469055
11
257.7291909
21
-173.0452978
0
LINE
8
0
10
257.7291909
20
-173.0452978
11
242.1365767
21
-165.1004641
0
LINE
8
0
10
242.1365767
20
-165.1004641
11
234.6457335
21
-179.8020718
0
ENDSEC
0
EOF