0
SECTION
2
HEADER
9
$INSUNITS
70
4
0
ENDSEC
0
SECTION
2
TABLES
0
TABLE
2
LTYPE
0
LTYPE
72
65
70
64
2
CONTINUOUS
3
______
73
0
40
0
0
ENDTAB
0
TABLE
2
LAYER
0
ENDTAB
0
ENDSEC
0
SECTION
2
ENTITIES
0
LINE
8
0
10
152.2118087
20
-169.3941644
11
169.8295028
21
-167.2309836
0
LINE
8
0
10
169.8295028
20
-167.2309836
11
167.7881913
21
-150.6058356
0
LINE
8
0
10
167.7881913
20
-150.6058356
11
150.1704972
21
-152.7690164
0
LINE
8
0
10
150.1704972
20
-152.7690164
11
152.2118087
21
-169.3941644
0
LINE
8
0
10
150.1095625
20
-152.2727433
11
167.7272566
21
-150.1095625
0
LINE
8
0
10
167.7272566
20
-150.1095625
11
165.6859451
21
-133.4844145
0
LINE
8
0
10
165.6859451
20
-133.4844145
11
148.068251
21
-135.6475953
0
LINE
8
0
10
148.068251
20
-135.6475953
11
150.1095625
21
-152.2727433
0
LINE
8
0
10
148.0073163
20
-135.1513222
11
165.6250104
21
-132.9881414
0
LINE
8
0
10
165.6250104
20
-132.9881414
11
163.5836989
21
-116.3629934
0
LINE
8
0
10
163.5836989
20
-116.3629934
11
145.9660048
21
-118.5261742
0
LINE
8
0
10
145.9660048
20
-118.5261742
11
148.0073163
21
-135.1513222
0
LINE
8
0
10
170.3665763
20
-160.9748824
11
188.1165763
21
-160.9748824
0
LINE
8
0
10
188.1165763
20
-160.9748824
11
188.1165763
21
-144.2248824
0
LINE
8
0
10
188.1165763
20
-144.2248824
11
170.3665763
21
-144.2248824
0
LINE
8
0
10
170.3665763
20
-144.2248824
11
170.3665763
21
-160.9748824
0
LINE
8
0
10
170.3665763
20
-143.7248824
11
188.1165763
21
-143.7248824
0
LINE
8
0
10
188.1165763
20
-143.7248824
11
188.1165763
21
-126.9748824
0
LINE
8
0
10
188.1165763
20
-126.9748824
11
170.3665763
21
-126.9748824
0
LINE
8
0
10
170.3665763
20
-126.9748824
11
170.3665763
21
-143.7248824
0
LINE
8
0
10
170.3665763
20
-126.4748824
11
188.1165763
21
-126.4748824
0
LINE
8
0
10
188.1165763
20
-126.4748824
11
188.1165763
21
-109.7248824
0
LINE
8
0
10
188.1165763
20
-109.7248824
11
170.3665763
21
-109.7248824
0
LINE
8
0
10
170.3665763
20
-109.7248824
11
170.3665763
21
-126.4748824
0
LINE
8
0
10
189.4404256
20
-155.4989231
11
207.1660999
21
-156.4278864
0
LINE
8
0
10
207.1660999
20
-156.4278864
11
208.0427272
21
-139.7008417
0
LINE
8
0
10
208.0427272
20
-139.7008417
11
190.3170529
21
-138.7718784
0
LINE
8
0
10
190.3170529
20
-138.7718784
11
189.4404256
21
-155.4989231
0
LINE
8
0
10
190.3432208
20
-138.2725636
11
208.0688951
21
-139.2015269
0
LINE
8
0
10
208.0688951
20
-139.2015269
11
208.9455224
21
-122.4744822
0
LINE
8
0
10
208.9455224
20
-122.4744822
11
191.2198481
21
-121.5455189
0
LINE
8
0
10
191.2198481
20
-121.5455189
11
190.3432208
21
-138.2725636
0
LINE
8
0
10
191.246016
20
-121.0462041
11
208.9716903
21
-121.9751674
0
LINE
8
0
10
208.9716903
20
-121.9751674
11
209.8483176
21
-105.2481227
0
LINE
8
0
10
209.8483176
20
-105.2481227
11
192.1226433
21
-104.3191594
0
LINE
8
0
10
192.1226433
20
-104.3191594
11
191.246016
21
-121.0462041
0
LINE
8
0
10
207.5487203
20
-163.457545
11
225.2743946
21
-164.3865083
0
LINE
8
0
10
225.2743946
20
-164.3865083
11
226.1510219
21
-147.6594636
0
LINE
8
0
10
226.1510219
20
-147.6594636
11
208.4253476
21
-146.7305003
0
LINE
8
0
10
208.4253476
20
-146.7305003
11
207.5487203
21
-163.457545
0
LINE
8
0
10
208.4515155
20
-146.2311855
11
226.1771898
21
-147.1601488
0
LINE
8
0
10
226.1771898
20
-147.1601488
11
227.0538171
21
-130.4331041
0
LINE
8
0
10
227.0538171
20
-130.4331041
11
209.3281428
21
-129.5041408
0
LINE
8
0
10
209.3281428
20
-129.5041408
11
208.4515155
21
-146.2311855
0
LINE
8
0
10
209.3543107
20
-129.004826
11
227.079985
21
-129.9337893
0
LINE
8
0
10
227.079985
20
-129.9337893
11
227.9566123
21
-113.2067446
0
LINE
8
0
10
227.9566123
20
-113.2067446
11
210.230938
21
-112.2777813
0
LINE
8
0
10
210.230938
20
-112.2777813
11
209.3543107
21
-129.004826
0
LINE
8
0
10
225.6167014
20
-167.4085648
11
243.3423757
21
-168.3375281
0
LINE
8
0
10
243.3423757
20
-168.3375281
11
244.219003
21
-151.6104834
0
LINE
8
0
10
244.219003
20
-151.6104834
11
226.4933287
21
-150.6815201
0
LINE
8
0
10
226.4933287
20
-150.6815201
11
225.6167014
21
-167.4085648
0
LINE
8
0
10
226.5194966
20
-150.1822053
11
244.2451709
21
-151.1111686
0
LINE
8
0
10
244.2451709
20
-151.1111686
11
245.1217982
21
-134.3841239
0
LINE
8
0
10
245.1217982
20
-134.3841239
11
227.3961239
21
-133.4551606
0
LINE
8
0
10
227.3961239
20
-133.4551606
11
226.5194966
21
-150.1822053
0
LINE
8
0
10
227.4222918
20
-132.9558458
11
245.1479661
21
-133.8848091
0
LINE
8
0
10
245.1479661
20
-133.8848091
11
246.0245934
21
-117.1577644
0
LINE
8
0
10
246.0245934
20
-117.1577644
11
228.2989191
21
-116.2288011
0
LINE
8
0
10
228.2989191
20
-116.2288011
11
227.4222918
21
-132.9558458
0
LINE
8
0
10
217.3609405
20
-185.0823504
11
234.6560091
21
-189.0752316
0
LINE
8
0
10
234.6560091
20
-189.0752316
11
238.4239393
21
-172.754533
0
LINE
8
0
10
238.4239393
20
-172.754533
11
221.1288707
21
-168.7616518
0
LINE
8
0
10
221.1288707
20
-168.7616518
11
217.3609405
21
-185.0823504
0
LINE
8
0
10
236.7116835
20
-189.8765861
11
252.5270493
21
-197.9349174
0
LINE
8
0
10
252.5270493
20
-197.9349174
11
260.1313901
21
-183.0105581
0
LINE
8
0
10
260.1313901
20
-183.0105581
11
244.3160243
21
-174.9522268
0
LINE
8
0
10
244.3160243
20
-174.9522268
11
236.7116835
21
-189.8765861
0
ENDSEC
0
EOF