0
SECTION
2
HEADER
9
$INSUNITS
70
4
0
ENDSEC
0
SECTION
2
TABLES
0
TABLE
2
LTYPE
0
LTYPE
72
65
70
64
2
CONTINUOUS
3
______
73
0
40
0
0
ENDTAB
0
TABLE
2
LAYER
0
ENDTAB
0
ENDSEC
0
SECTION
2
ENTITIES
0
LINE
8
0
10
153.2173895
20
-170.4041432
11
169.098128
21
-168.4542337
0
ARC
8
0
10
168.8543893
20
-166.4691414
40
2
50
277
51
7
0
LINE
8
0
10
170.8394816
20
-166.2254027
11
169.2074712
21
-152.933745
0
ARC
8
0
10
151.1456107
20
-153.5308586
40
2
50
156.9999988
51
187
0
LINE
8
0
10
149.1605184
20
-153.7745973
11
150.9885586
21
-168.6627896
0
ARC
8
0
10
152.9736509
20
-168.4190509
40
2
50
187
51
277
0
LINE
8
0
10
168.1447522
20
-144.2785927
11
166.9396626
21
-134.4639258
0
ARC
8
0
10
164.9545703
20
-134.7076645
40
2
50
7
51
36.9999976
0
ARC
8
0
10
149.0738319
20
-136.657574
40
2
50
156.9999988
51
187
0
LINE
8
0
10
147.0887396
20
-136.9013127
11
148.9167798
21
-151.789505
0
ARC
8
0
10
150.9018721
20
-151.5457663
40
2
50
187
51
216.9999976
0
ARC
8
0
10
164.7108317
20
-132.7225722
40
2
50
336.9999988
51
7
0
LINE
8
0
10
166.695924
20
-132.4788335
11
164.8678838
21
-117.5906412
0
ARC
8
0
10
162.8827915
20
-117.8343799
40
2
50
7
51
97
0
LINE
8
0
10
162.6390529
20
-115.8492876
11
146.7583144
21
-117.7991971
0
ARC
8
0
10
147.0020531
20
-119.7842894
40
2
50
97
51
187
0
LINE
8
0
10
145.0169608
20
-120.0280281
11
146.845001
21
-134.9162204
0
ARC
8
0
10
148.8300933
20
-134.6724817
40
2
50
187
51
216.9999976
0
LINE
8
0
10
170.1447522
20
-153.166967
11
186.1447522
21
-153.166967
0
ARC
8
0
10
186.1447522
20
-151.166967
40
2
50
270
51
360
0
LINE
8
0
10
188.1447522
20
-151.166967
11
188.1447522
21
-145.166967
0
ARC
8
0
10
170.1447522
20
-136.166967
40
2
50
149.9999999
51
180
0
LINE
8
0
10
168.1447522
20
-136.166967
11
168.1447522
21
-144.2785927
0
ARC
8
0
10
170.1447522
20
-151.166967
40
2
50
242.0539161
51
270
0
ARC
8
0
10
170.1447522
20
-119.166967
40
2
50
149.9999999
51
180
0
LINE
8
0
10
168.1447522
20
-119.166967
11
168.1447522
21
-134.166967
0
ARC
8
0
10
170.1447522
20
-134.166967
40
2
50
180
51
210.0000001
0
LINE
8
0
10
186.1447522
20
-100.166967
11
170.1447522
21
-100.166967
0
ARC
8
0
10
170.1447522
20
-102.166967
40
2
50
90
51
180
0
LINE
8
0
10
168.1447522
20
-102.166967
11
168.1447522
21
-117.166967
0
ARC
8
0
10
170.1447522
20
-117.166967
40
2
50
180
51
210.0000001
0
LINE
8
0
10
188.1447522
20
-145.166967
11
204.1447522
21
-145.166967
0
LINE
8
0
10
206.1447523
20
-102.166967
11
206.1447522
21
-94.166967
0
ARC
8
0
10
204.1447522
20
-94.166967
40
2
50
0
51
90
0
LINE
8
0
10
204.1447522
20
-92.166967
11
188.1447522
21
-92.166967
0
ARC
8
0
10
188.1447522
20
-94.166967
40
2
50
90
51
180
0
LINE
8
0
10
186.1447522
20
-94.166967
11
186.1447522
21
-100.166967
0
LINE
8
0
10
206.1447523
20
-155.166967
11
222.1447523
21
-155.166967
0
LINE
8
0
10
204.1447522
20
-145.166967
11
204.1447523
21
-153.166967
0
ARC
8
0
10
206.1447523
20
-153.166967
40
2
50
180
51
270
0
LINE
8
0
10
224.1447522
20
-105.166967
11
224.1447523
21
-104.166967
0
ARC
8
0
10
222.1447523
20
-104.166967
40
2
50
0
51
90
0
LINE
8
0
10
222.1447523
20
-102.166967
11
206.1447523
21
-102.166967
0
LINE
8
0
10
225.5294255
20
-158.166967
11
240.1447522
21
-158.166967
0
ARC
8
0
10
240.1447522
20
-156.166967
40
2
50
270
51
360
0
LINE
8
0
10
242.1447522
20
-156.166967
11
242.1447522
21
-141.166967
0
ARC
8
0
10
240.1447522
20
-141.166967
40
2
50
0
51
30.0000001
0
LINE
8
0
10
222.1447523
20
-155.166967
11
222.1447522
21
-156.166967
0
ARC
8
0
10
224.1447522
20
-156.166967
40
2
50
180
51
216.8815144
0
ARC
8
0
10
240.1447522
20
-139.166967
40
2
50
329.9999999
51
360
0
LINE
8
0
10
242.1447522
20
-139.166967
11
242.1447522
21
-124.166967
0
ARC
8
0
10
240.1447522
20
-124.166967
40
2
50
0
51
30.0000001
0
ARC
8
0
10
240.1447522
20
-122.166967
40
2
50
329.9999999
51
360
0
LINE
8
0
10
242.1447522
20
-122.166967
11
242.1447522
21
-107.166967
0
ARC
8
0
10
240.1447522
20
-107.166967
40
2
50
0
51
90
0
LINE
8
0
10
240.1447522
20
-105.166967
11
224.1447522
21
-105.166967
0
LINE
8
0
10
215.9585647
20
-175.27271
11
231.4133779
21
-179.4138147
0
ARC
8
0
10
231.931016
20
-177.4819631
40
2
50
255
51
345
0
LINE
8
0
10
233.8628676
20
-177.9996011
11
237.7451533
21
-163.5107138
0
ARC
8
0
10
235.8133016
20
-162.9930757
40
2
50
345
51
75
0
LINE
8
0
10
236.3309397
20
-161.061224
11
225.5294255
21
-158.166967
0
LINE
8
0
10
222.5449955
20
-157.3672914
11
220.8761265
21
-156.9201193
0
ARC
8
0
10
220.3584884
20
-158.8519709
40
2
50
75
51
165
0
LINE
8
0
10
218.4266368
20
-158.3343329
11
214.5443511
21
-172.8232202
0
ARC
8
0
10
216.4762028
20
-173.3408583
40
2
50
165
51
255
0
LINE
8
0
10
234.7465003
20
-181.2563228
11
249.0026046
21
-188.5201708
0
ARC
8
0
10
249.9105856
20
-186.7381577
40
2
50
243
51
333
0
LINE
8
0
10
251.6925987
20
-187.6461387
11
258.5024562
21
-174.2810409
0
ARC
8
0
10
256.7204431
20
-173.3730599
40
2
50
333
51
63
0
LINE
8
0
10
257.6284241
20
-171.5910468
11
243.3723198
21
-164.3271988
0
ARC
8
0
10
242.4643388
20
-166.1092119
40
2
50
63
51
153
0
LINE
8
0
10
240.6823257
20
-165.2012309
11
233.8724682
21
-178.5663287
0
ARC
8
0
10
235.6544813
20
-179.4743097
40
2
50
153
51
243
0
ENDSEC
0
EOF