0
SECTION
2
HEADER
9
$INSUNITS
70
4
0
ENDSEC
0
SECTION
2
TABLES
0
TABLE
2
LTYPE
0
LTYPE
72
65
70
64
2
CONTINUOUS
3
______
73
0
40
0
0
ENDTAB
0
TABLE
2
LAYER
0
ENDTAB
0
ENDSEC
0
SECTION
2
ENTITIES
0
LINE
8
0
10
221.25
20
-168.25
11
238.75
21
-168.25
0
LINE
8
0
10
238.75
20
-168.25
11
238.75
21
-151.75
0
LINE
8
0
10
238.75
20
-151.75
11
221.25
21
-151.75
0
LINE
8
0
10
221.25
20
-151.75
11
221.25
21
-168.25
0
LINE
8
0
10
221.25
20
-151.25
11
238.75
21
-151.25
0
LINE
8
0
10
238.75
20
-151.25
11
238.75
21
-134.75
0
LINE
8
0
10
238.75
20
-134.75
11
221.25
21
-134.75
0
LINE
8
0
10
221.25
20
-134.75
11
221.25
21
-151.25
0
LINE
8
0
10
221.25
20
-134.25
11
238.75
21
-134.25
0
LINE
8
0
10
238.75
20
-134.25
11
238.75
21
-117.75
0
LINE
8
0
10
238.75
20
-117.75
11
221.25
21
-117.75
0
LINE
8
0
10
221.25
20
-117.75
11
221.25
21
-134.25
0
LINE
8
0
10
240.3097991
20
-153.122149
11
257.6793567
21
-155.2548625
0
LINE
8
0
10
257.6793567
20
-155.2548625
11
259.6902009
21
-138.877851
0
LINE
8
0
10
259.6902009
20
-138.877851
11
242.3206433
21
-136.7451375
0
LINE
8
0
10
242.3206433
20
-136.7451375
11
240.3097991
21
-153.122149
0
LINE
8
0
10
242.3815779
20
-136.2488644
11
259.7511355
21
-138.3815779
0
LINE
8
0
10
259.7511355
20
-138.3815779
11
261.7619797
21
-122.0045664
0
LINE
8
0
10
261.7619797
20
-122.0045664
11
244.3924221
21
-119.8718529
0
LINE
8
0
10
244.3924221
20
-119.8718529
11
242.3815779
21
-136.2488644
0
LINE
8
0
10
244.4533567
20
-119.3755798
11
261.8229143
21
-121.5082933
0
LINE
8
0
10
261.8229143
20
-121.5082933
11
263.8337585
21
-105.1312818
0
LINE
8
0
10
263.8337585
20
-105.1312818
11
246.4642009
21
-102.9985683
0
LINE
8
0
10
246.4642009
20
-102.9985683
11
244.4533567
21
-119.3755798
0
LINE
8
0
10
259.1505846
20
-147.375428
11
276.5201422
21
-149.5081415
0
LINE
8
0
10
276.5201422
20
-149.5081415
11
278.5309864
21
-133.13113
0
LINE
8
0
10
278.5309864
20
-133.13113
11
261.1614288
21
-130.9984165
0
LINE
8
0
10
261.1614288
20
-130.9984165
11
259.1505846
21
-147.375428
0
LINE
8
0
10
261.2223634
20
-130.5021434
11
278.591921
21
-132.6348569
0
LINE
8
0
10
278.591921
20
-132.6348569
11
280.6027652
21
-116.2578454
0
LINE
8
0
10
280.6027652
20
-116.2578454
11
263.2332076
21
-114.1251319
0
LINE
8
0
10
263.2332076
20
-114.1251319
11
261.2223634
21
-130.5021434
0
LINE
8
0
10
263.2941422
20
-113.6288588
11
280.6636998
21
-115.7615723
0
LINE
8
0
10
280.6636998
20
-115.7615723
11
282.674544
21
-99.3845608
0
LINE
8
0
10
282.674544
20
-99.3845608
11
265.3049864
21
-97.2518473
0
LINE
8
0
10
265.3049864
20
-97.2518473
11
263.2941422
21
-113.6288588
0
LINE
8
0
10
275.7977219
20
-159.4945377
11
293.1672795
21
-161.6272512
0
LINE
8
0
10
293.1672795
20
-161.6272512
11
295.1781237
21
-145.2502397
0
LINE
8
0
10
295.1781237
20
-145.2502397
11
277.8085661
21
-143.1175262
0
LINE
8
0
10
277.8085661
20
-143.1175262
11
275.7977219
21
-159.4945377
0
LINE
8
0
10
277.8695007
20
-142.6212531
11
295.2390583
21
-144.7539666
0
LINE
8
0
10
295.2390583
20
-144.7539666
11
297.2499025
21
-128.3769551
0
LINE
8
0
10
297.2499025
20
-128.3769551
11
279.8803449
21
-126.2442416
0
LINE
8
0
10
279.8803449
20
-126.2442416
11
277.8695007
21
-142.6212531
0
LINE
8
0
10
279.9412795
20
-125.7479685
11
297.3108371
21
-127.880682
0
LINE
8
0
10
297.3108371
20
-127.880682
11
299.3216813
21
-111.5036705
0
LINE
8
0
10
299.3216813
20
-111.5036705
11
281.9521237
21
-109.370957
0
LINE
8
0
10
281.9521237
20
-109.370957
11
279.9412795
21
-125.7479685
0
LINE
8
0
10
293.2979446
20
-164.6658243
11
310.6675022
21
-166.7985378
0
LINE
8
0
10
310.6675022
20
-166.7985378
11
312.6783464
21
-150.4215263
0
LINE
8
0
10
312.6783464
20
-150.4215263
11
295.3087888
21
-148.2888128
0
LINE
8
0
10
295.3087888
20
-148.2888128
11
293.2979446
21
-164.6658243
0
LINE
8
0
10
295.3697234
20
-147.7925397
11
312.739281
21
-149.9252532
0
LINE
8
0
10
312.739281
20
-149.9252532
11
314.7501252
21
-133.5482417
0
LINE
8
0
10
314.7501252
20
-133.5482417
11
297.3805676
21
-131.4155282
0
LINE
8
0
10
297.3805676
20
-131.4155282
11
295.3697234
21
-147.7925397
0
LINE
8
0
10
297.4415022
20
-130.9192551
11
314.8110598
21
-133.0519686
0
LINE
8
0
10
314.8110598
20
-133.0519686
11
316.821904
21
-116.6749571
0
LINE
8
0
10
316.821904
20
-116.6749571
11
299.4523464
21
-114.5422436
0
LINE
8
0
10
299.4523464
20
-114.5422436
11
297.4415022
21
-130.9192551
0
LINE
8
0
10
283.1483799
20
-183.0199337
11
299.3740973
21
-189.5755491
0
LINE
8
0
10
299.3740973
20
-189.5755491
11
305.5551061
21
-174.2770155
0
LINE
8
0
10
305.5551061
20
-174.2770155
11
289.3293887
21
-167.7214001
0
LINE
8
0
10
289.3293887
20
-167.7214001
11
283.1483799
21
-183.0199337
0
LINE
8
0
10
301.3713966
20
-191.2328622
11
315.8795541
21
-201.018738
0
LINE
8
0
10
315.8795541
20
-201.018738
11
325.106237
21
-187.339618
0
LINE
8
0
10
325.106237
20
-187.339618
11
310.5980795
21
-177.5537422
0
LINE
8
0
10
310.5980795
20
-177.5537422
11
301.3713966
21
-191.2328622
0
LINE
8
0
10
193.65
20
-168.25
11
211.15
21
-168.25
0
LINE
8
0
10
211.15
20
-168.25
11
211.15
21
-151.75
0
LINE
8
0
10
211.15
20
-151.75
11
193.65
21
-151.75
0
LINE
8
0
10
193.65
20
-151.75
11
193.65
21
-168.25
0
LINE
8
0
10
193.65
20
-151.25
11
211.15
21
-151.25
0
LINE
8
0
10
211.15
20
-151.25
11
211.15
21
-134.75
0
LINE
8
0
10
211.15
20
-134.75
11
193.65
21
-134.75
0
LINE
8
0
10
193.65
20
-134.75
11
193.65
21
-151.25
0
LINE
8
0
10
193.65
20
-134.25
11
211.15
21
-134.25
0
LINE
8
0
10
211.15
20
-134.25
11
211.15
21
-117.75
0
LINE
8
0
10
211.15
20
-117.75
11
193.65
21
-117.75
0
LINE
8
0
10
193.65
20
-117.75
11
193.65
21
-134.25
0
LINE
8
0
10
174.7206433
20
-155.2548625
11
192.0902009
21
-153.122149
0
LINE
8
0
10
192.0902009
20
-153.122149
11
190.0793567
21
-136.7451375
0
LINE
8
0
10
190.0793567
20
-136.7451375
11
172.7097991
21
-138.877851
0
LINE
8
0
10
172.7097991
20
-138.877851
11
174.7206433
21
-155.2548625
0
LINE
8
0
10
172.6488645
20
-138.3815779
11
190.0184221
21
-136.2488644
0
LINE
8
0
10
190.0184221
20
-136.2488644
11
188.0075779
21
-119.8718529
0
LINE
8
0
10
188.0075779
20
-119.8718529
11
170.6380203
21
-122.0045664
0
LINE
8
0
10
170.6380203
20
-122.0045664
11
172.6488645
21
-138.3815779
0
LINE
8
0
10
170.5770857
20
-121.5082933
11
187.9466433
21
-119.3755798
0
LINE
8
0
10
187.9466433
20
-119.3755798
11
185.9357991
21
-102.9985683
0
LINE
8
0
10
185.9357991
20
-102.9985683
11
168.5662415
21
-105.1312818
0
LINE
8
0
10
168.5662415
20
-105.1312818
11
170.5770857
21
-121.5082933
0
LINE
8
0
10
155.8798578
20
-149.5081415
11
173.2494154
21
-147.375428
0
LINE
8
0
10
173.2494154
20
-147.375428
11
171.2385712
21
-130.9984165
0
LINE
8
0
10
171.2385712
20
-130.9984165
11
153.8690136
21
-133.13113
0
LINE
8
0
10
153.8690136
20
-133.13113
11
155.8798578
21
-149.5081415
0
LINE
8
0
10
153.808079
20
-132.6348569
11
171.1776366
21
-130.5021434
0
LINE
8
0
10
171.1776366
20
-130.5021434
11
169.1667924
21
-114.1251319
0
LINE
8
0
10
169.1667924
20
-114.1251319
11
151.7972348
21
-116.2578454
0
LINE
8
0
10
151.7972348
20
-116.2578454
11
153.808079
21
-132.6348569
0
LINE
8
0
10
151.7363002
20
-115.7615723
11
169.1058578
21
-113.6288588
0
LINE
8
0
10
169.1058578
20
-113.6288588
11
167.0950136
21
-97.2518473
0
LINE
8
0
10
167.0950136
20
-97.2518473
11
149.725456
21
-99.3845608
0
LINE
8
0
10
149.725456
20
-99.3845608
11
151.7363002
21
-115.7615723
0
LINE
8
0
10
139.2327205
20
-161.6272512
11
156.6022781
21
-159.4945377
0
LINE
8
0
10
156.6022781
20
-159.4945377
11
154.5914339
21
-143.1175262
0
LINE
8
0
10
154.5914339
20
-143.1175262
11
137.2218763
21
-145.2502397
0
LINE
8
0
10
137.2218763
20
-145.2502397
11
139.2327205
21
-161.6272512
0
LINE
8
0
10
137.1609417
20
-144.7539666
11
154.5304993
21
-142.6212531
0
LINE
8
0
10
154.5304993
20
-142.6212531
11
152.5196551
21
-126.2442416
0
LINE
8
0
10
152.5196551
20
-126.2442416
11
135.1500975
21
-128.3769551
0
LINE
8
0
10
135.1500975
20
-128.3769551
11
137.1609417
21
-144.7539666
0
LINE
8
0
10
135.0891629
20
-127.880682
11
152.4587205
21
-125.7479685
0
LINE
8
0
10
152.4587205
20
-125.7479685
11
150.4478763
21
-109.370957
0
LINE
8
0
10
150.4478763
20
-109.370957
11
133.0783187
21
-111.5036705
0
LINE
8
0
10
133.0783187
20
-111.5036705
11
135.0891629
21
-127.880682
0
LINE
8
0
10
121.7324978
20
-166.7985378
11
139.1020554
21
-164.6658243
0
LINE
8
0
10
139.1020554
20
-164.6658243
11
137.0912112
21
-148.2888128
0
LINE
8
0
10
137.0912112
20
-148.2888128
11
119.7216536
21
-150.4215263
0
LINE
8
0
10
119.7216536
20
-150.4215263
11
121.7324978
21
-166.7985378
0
LINE
8
0
10
119.660719
20
-149.9252532
11
137.0302766
21
-147.7925397
0
LINE
8
0
10
137.0302766
20
-147.7925397
11
135.0194324
21
-131.4155282
0
LINE
8
0
10
135.0194324
20
-131.4155282
11
117.6498748
21
-133.5482417
0
LINE
8
0
10
117.6498748
20
-133.5482417
11
119.660719
21
-149.9252532
0
LINE
8
0
10
117.5889402
20
-133.0519686
11
134.9584978
21
-130.9192551
0
LINE
8
0
10
134.9584978
20
-130.9192551
11
132.9476536
21
-114.5422436
0
LINE
8
0
10
132.9476536
20
-114.5422436
11
115.578096
21
-116.6749571
0
LINE
8
0
10
115.578096
20
-116.6749571
11
117.5889402
21
-133.0519686
0
LINE
8
0
10
133.0259027
20
-189.5755491
11
149.2516201
21
-183.0199337
0
LINE
8
0
10
149.2516201
20
-183.0199337
11
143.0706113
21
-167.7214001
0
LINE
8
0
10
143.0706113
20
-167.7214001
11
126.8448939
21
-174.2770155
0
LINE
8
0
10
126.8448939
20
-174.2770155
11
133.0259027
21
-189.5755491
0
LINE
8
0
10
116.5204459
20
-201.018738
11
131.0286034
21
-191.2328622
0
LINE
8
0
10
131.0286034
20
-191.2328622
11
121.8019205
21
-177.5537422
0
LINE
8
0
10
121.8019205
20
-177.5537422
11
107.293763
21
-187.339618
0
LINE
8
0
10
107.293763
20
-187.339618
11
116.5204459
21
-201.018738
0
ENDSEC
0
EOF