0
SECTION
2
HEADER
9
$INSUNITS
70
4
0
ENDSEC
0
SECTION
2
TABLES
0
TABLE
2
LTYPE
0
LTYPE
72
65
70
64
2
CONTINUOUS
3
______
73
0
40
0
0
ENDTAB
0
TABLE
2
LAYER
0
ENDTAB
0
ENDSEC
0
SECTION
2
ENTITIES
0
LINE
8
0
10
220.5
20
-171
11
239.5
21
-171
0
ARC
8
0
10
239.5
20
-169
40
2
50
270
51
360
0
LINE
8
0
10
241.5
20
-169
11
241.5
21
-156.0389393
0
LINE
8
0
10
218.5
20
-169
11
218.5
21
-117
0
ARC
8
0
10
220.5
20
-169
40
2
50
180
51
270
0
LINE
8
0
10
241.5
20
-120.86359
11
241.5
21
-117
0
ARC
8
0
10
239.5
20
-117
40
2
50
0
51
90
0
LINE
8
0
10
239.5
20
-115
11
220.5
21
-115
0
ARC
8
0
10
220.5
20
-117
40
2
50
90
51
180
0
LINE
8
0
10
241.5
20
-156.0389393
11
258.0886257
21
-158.0757664
0
ARC
8
0
10
258.3323643
20
-156.0906741
40
2
50
263
51
353
0
LINE
8
0
10
260.3174567
20
-156.3344128
11
261.0486727
21
-150.3791359
0
LINE
8
0
10
241.5
20
-120.86359
11
241.7543221
21
-118.7923026
0
LINE
8
0
10
261.9356704
20
-102.1275739
11
246.0549319
21
-100.1776644
0
ARC
8
0
10
245.8111933
20
-102.1627567
40
2
50
83
51
173
0
LINE
8
0
10
243.8261009
20
-101.919018
11
241.7543222
21
-118.7923026
0
LINE
8
0
10
261.0486727
20
-150.3791359
11
273.9517727
21
-151.9634374
0
LINE
8
0
10
284.5204932
20
-106.9156611
11
285.4954479
21
-98.9752919
0
ARC
8
0
10
283.5103556
20
-98.7315532
40
2
50
353
51
83
0
LINE
8
0
10
283.7540943
20
-96.7464609
11
264.8957174
21
-94.4309434
0
ARC
8
0
10
264.6519788
20
-96.4160357
40
2
50
83
51
173
0
LINE
8
0
10
262.6668864
20
-96.172297
11
261.9356704
21
-102.1275739
0
LINE
8
0
10
274.7181716
20
-162.1326376
11
290.59891
21
-164.0825471
0
LINE
8
0
10
273.9517727
20
-151.9634374
11
272.976818
21
-159.9038066
0
ARC
8
0
10
274.9619103
20
-160.1475453
40
2
50
173
51
263
0
LINE
8
0
10
302.0207159
20
-112.0869477
11
302.1425852
21
-111.0944016
0
ARC
8
0
10
300.1574929
20
-110.8506629
40
2
50
353
51
83
0
LINE
8
0
10
300.4012316
20
-108.8655706
11
284.5204932
21
-106.9156611
0
LINE
8
0
10
297.1296885
20
-167.9069553
11
311.0767712
21
-169.6194417
0
ARC
8
0
10
311.3205098
20
-167.6343494
40
2
50
263
51
353
0
LINE
8
0
10
313.3056022
20
-167.8780881
11
319.6428079
21
-116.2656882
0
LINE
8
0
10
290.59891
20
-164.0825471
11
290.4770407
21
-165.0750932
0
ARC
8
0
10
292.462133
20
-165.3188319
40
2
50
173
51
177.0009958
0
ARC
8
0
10
317.6577156
20
-116.0219495
40
2
50
353
51
83
0
LINE
8
0
10
317.9014543
20
-114.0368572
11
302.0207159
21
-112.0869477
0
LINE
8
0
10
281.4228239
20
-185.2887344
11
298.4730485
21
-192.1774722
0
LINE
8
0
10
307.0720384
20
-177.863511
11
308.3858167
21
-174.6117957
0
ARC
8
0
10
306.531449
20
-173.8625825
40
2
50
338
51
68
0
LINE
8
0
10
307.2806621
20
-172.0082148
11
297.1296885
21
-167.9069553
0
LINE
8
0
10
290.4648721
20
-165.2141947
11
289.6641689
21
-164.8906896
0
ARC
8
0
10
288.9149557
20
-166.7450573
40
2
50
68
51
158
0
LINE
8
0
10
287.060588
20
-165.9958441
11
280.3176693
21
-182.6851535
0
ARC
8
0
10
282.172037
20
-183.4343667
40
2
50
158
51
248
0
LINE
8
0
10
299.2118379
20
-193.0933208
11
314.9635518
21
-203.717986
0
ARC
8
0
10
316.0819376
20
-202.0599108
40
2
50
236
51
326
0
LINE
8
0
10
317.7400128
20
-203.1782966
11
327.805485
21
-188.2556203
0
ARC
8
0
10
326.1474099
20
-187.1372345
40
2
50
326
51
56
0
LINE
8
0
10
327.2657957
20
-185.4791594
11
311.5140818
21
-174.8544942
0
ARC
8
0
10
310.395696
20
-176.5125694
40
2
50
56
51
146
0
LINE
8
0
10
308.7376208
20
-175.3941836
11
307.0720384
21
-177.863511
0
ARC
8
0
10
300.3302237
20
-191.4352457
40
2
50
201.784291
51
236
0
LINE
8
0
10
192.9
20
-171
11
211.9
21
-171
0
ARC
8
0
10
211.9
20
-169
40
2
50
270
51
360
0
LINE
8
0
10
213.9
20
-169
11
213.9
21
-117
0
LINE
8
0
10
190.9
20
-156.0389393
11
190.9
21
-169
0
ARC
8
0
10
192.9
20
-169
40
2
50
180
51
270
0
ARC
8
0
10
211.9
20
-117
40
2
50
0
51
90
0
LINE
8
0
10
211.9
20
-115
11
192.9
21
-115
0
ARC
8
0
10
192.9
20
-117
40
2
50
90
51
180
0
LINE
8
0
10
190.9
20
-117
11
190.9
21
-120.86359
0
LINE
8
0
10
174.3113743
20
-158.0757664
11
190.9
21
-156.0389393
0
LINE
8
0
10
171.3513273
20
-150.3791359
11
172.0825433
21
-156.3344128
0
ARC
8
0
10
174.0676357
20
-156.0906741
40
2
50
187
51
277
0
LINE
8
0
10
188.5738991
20
-101.919018
11
190.9
21
-120.86359
0
ARC
8
0
10
186.5888067
20
-102.1627567
40
2
50
7
51
97
0
LINE
8
0
10
186.3450681
20
-100.1776644
11
170.4643296
21
-102.1275739
0
LINE
8
0
10
158.4482273
20
-151.9634374
11
171.3513273
21
-150.3791359
0
LINE
8
0
10
170.4643296
20
-102.1275739
11
169.7331136
21
-96.172297
0
ARC
8
0
10
167.7480212
20
-96.4160357
40
2
50
7
51
97
0
LINE
8
0
10
167.5042826
20
-94.4309434
11
148.6459057
21
-96.7464609
0
ARC
8
0
10
148.8896444
20
-98.7315532
40
2
50
97
51
187
0
LINE
8
0
10
146.9045521
20
-98.9752919
11
147.8795068
21
-106.9156611
0
LINE
8
0
10
141.80109
20
-164.0825471
11
157.6818284
21
-162.1326376
0
ARC
8
0
10
157.4380897
20
-160.1475453
40
2
50
277
51
7
0
LINE
8
0
10
159.423182
20
-159.9038066
11
158.4482273
21
-151.9634374
0
LINE
8
0
10
147.8795068
20
-106.9156611
11
131.9987684
21
-108.8655706
0
ARC
8
0
10
132.2425071
20
-110.8506629
40
2
50
97
51
187
0
LINE
8
0
10
130.2574148
20
-111.0944016
11
130.3792841
21
-112.0869477
0
LINE
8
0
10
121.3232288
20
-169.6194417
11
135.2703115
21
-167.9069553
0
ARC
8
0
10
139.937867
20
-165.3188319
40
2
50
362.9990042
51
7
0
LINE
8
0
10
141.9229593
20
-165.0750932
11
141.80109
21
-164.0825471
0
LINE
8
0
10
112.7571921
20
-116.2656882
11
119.0943978
21
-167.8780881
0
ARC
8
0
10
121.0794902
20
-167.6343494
40
2
50
187
51
277
0
LINE
8
0
10
130.3792841
20
-112.0869477
11
114.4985457
21
-114.0368572
0
ARC
8
0
10
114.7422844
20
-116.0219495
40
2
50
97
51
187
0
LINE
8
0
10
133.9269515
20
-192.1774722
11
150.9771761
21
-185.2887344
0
ARC
8
0
10
150.227963
20
-183.4343667
40
2
50
292
51
22
0
LINE
8
0
10
152.0823307
20
-182.6851535
11
145.339412
21
-165.9958441
0
ARC
8
0
10
143.4850443
20
-166.7450573
40
2
50
22
51
112
0
LINE
8
0
10
142.7358311
20
-164.8906896
11
141.9351279
21
-165.2141947
0
LINE
8
0
10
135.2703115
20
-167.9069553
11
125.1193379
21
-172.0082148
0
ARC
8
0
10
125.868551
20
-173.8625825
40
2
50
112
51
202
0
LINE
8
0
10
124.0141833
20
-174.6117957
11
125.3279616
21
-177.863511
0
LINE
8
0
10
117.4364482
20
-203.717986
11
133.1881621
21
-193.0933208
0
ARC
8
0
10
132.0697763
20
-191.4352457
40
2
50
304
51
338.215709
0
LINE
8
0
10
125.3279616
20
-177.863511
11
123.6623792
21
-175.3941836
0
ARC
8
0
10
122.004304
20
-176.5125694
40
2
50
34
51
124
0
LINE
8
0
10
120.8859182
20
-174.8544942
11
105.1342043
21
-185.4791594
0
ARC
8
0
10
106.2525901
20
-187.1372345
40
2
50
124
51
214
0
LINE
8
0
10
104.594515
20
-188.2556203
11
114.6599872
21
-203.1782966
0
ARC
8
0
10
116.3180624
20
-202.0599108
40
2
50
214
51
304
0
ENDSEC
0
EOF