0
SECTION
2
HEADER
9
$INSUNITS
70
4
0
ENDSEC
0
SECTION
2
TABLES
0
TABLE
2
LTYPE
0
LTYPE
72
65
70
64
2
CONTINUOUS
3
______
73
0
40
0
0
ENDTAB
0
TABLE
2
LAYER
0
ENDTAB
0
ENDSEC
0
SECTION
2
ENTITIES
0
LINE
8
0
10
222
20
-169.5
11
238
21
-169.5
0
ARC
8
0
10
238
20
-167.5
40
2
50
270
51
360
0
LINE
8
0
10
240
20
-167.5
11
240
21
-154.1085242
0
ARC
8
0
10
222
20
-152.5
40
2
50
149.9999999
51
180
0
LINE
8
0
10
220
20
-152.5
11
220
21
-167.5
0
ARC
8
0
10
222
20
-167.5
40
2
50
180
51
270
0
LINE
8
0
10
240
20
-145.3883739
11
240
21
-135.5
0
ARC
8
0
10
238
20
-135.5
40
2
50
0
51
30.0000001
0
ARC
8
0
10
222
20
-135.5
40
2
50
149.9999999
51
180
0
LINE
8
0
10
220
20
-135.5
11
220
21
-150.5
0
ARC
8
0
10
222
20
-150.5
40
2
50
180
51
210.0000001
0
ARC
8
0
10
238
20
-133.5
40
2
50
329.9999999
51
360
0
LINE
8
0
10
240
20
-133.5
11
240
21
-118.5
0
ARC
8
0
10
238
20
-118.5
40
2
50
0
51
90
0
LINE
8
0
10
238
20
-116.5
11
222
21
-116.5
0
ARC
8
0
10
222
20
-118.5
40
2
50
90
51
180
0
LINE
8
0
10
220
20
-118.5
11
220
21
-133.5
0
ARC
8
0
10
222
20
-133.5
40
2
50
180
51
210.0000001
0
LINE
8
0
10
240.901872
20
-154.4542337
11
256.7826105
21
-156.4041432
0
ARC
8
0
10
257.0263491
20
-154.4190509
40
2
50
263
51
353
0
LINE
8
0
10
259.0114414
20
-154.6627896
11
259.7426575
21
-148.7075127
0
ARC
8
0
10
242.9736509
20
-137.5809491
40
2
50
143.0000024
51
173
0
LINE
8
0
10
240.9885586
20
-137.3372104
11
240
21
-145.3883739
0
ARC
8
0
10
241.1456107
20
-152.4691414
40
2
50
235.0539153
51
263
0
ARC
8
0
10
245.0454297
20
-120.7076645
40
2
50
143.0000024
51
173
0
LINE
8
0
10
243.0603374
20
-120.4639258
11
241.2322972
21
-135.3521181
0
ARC
8
0
10
243.2173895
20
-135.5958568
40
2
50
173
51
203.0000012
0
LINE
8
0
10
263.2416856
20
-103.7991971
11
247.3609471
21
-101.8492876
0
ARC
8
0
10
247.1172085
20
-103.8343799
40
2
50
83
51
173
0
LINE
8
0
10
245.1321162
20
-103.5906412
11
243.304076
21
-118.4788335
0
ARC
8
0
10
245.2891683
20
-118.7225722
40
2
50
173
51
203.0000012
0
LINE
8
0
10
259.7426575
20
-148.7075127
11
275.623396
21
-150.6574222
0
LINE
8
0
10
282.8488699
20
-108.2216763
11
283.8238247
21
-100.2813071
0
ARC
8
0
10
281.8387324
20
-100.0375684
40
2
50
353
51
83
0
LINE
8
0
10
282.0824711
20
-98.0524761
11
266.2017326
21
-96.1025666
0
ARC
8
0
10
265.957994
20
-98.0876589
40
2
50
83
51
173
0
LINE
8
0
10
263.9729017
20
-97.8439202
11
263.2416856
21
-103.7991971
0
LINE
8
0
10
276.3897948
20
-160.8266224
11
292.2705333
21
-162.7765319
0
LINE
8
0
10
275.623396
20
-150.6574222
11
274.6484412
21
-158.5977914
0
ARC
8
0
10
276.6335335
20
-158.8415301
40
2
50
173
51
263
0
LINE
8
0
10
300.3490926
20
-113.3929629
11
300.470962
21
-112.4004168
0
ARC
8
0
10
298.4858697
20
-112.1566781
40
2
50
353
51
83
0
LINE
8
0
10
298.7296084
20
-110.1715858
11
282.8488699
21
-108.2216763
0
LINE
8
0
10
293.8900175
20
-165.997909
11
309.770756
21
-167.9478185
0
ARC
8
0
10
310.0144946
20
-165.9627262
40
2
50
263
51
353
0
LINE
8
0
10
311.9995869
20
-166.2064649
11
313.8276271
21
-151.3182726
0
ARC
8
0
10
311.8425348
20
-151.0745339
40
2
50
353
51
383.0000012
0
LINE
8
0
10
292.2705333
20
-162.7765319
11
292.1486639
21
-163.769078
0
ARC
8
0
10
294.1337562
20
-164.0128167
40
2
50
173
51
263
0
ARC
8
0
10
312.0862734
20
-149.0894416
40
2
50
323.0000024
51
353
0
LINE
8
0
10
314.0713657
20
-149.3331803
11
315.8994059
21
-134.444988
0
ARC
8
0
10
313.9143136
20
-134.2012493
40
2
50
353
51
383.0000012
0
ARC
8
0
10
314.1580522
20
-132.216157
40
2
50
323.0000024
51
353
0
LINE
8
0
10
316.1431445
20
-132.4598957
11
317.9711847
21
-117.5717034
0
ARC
8
0
10
315.9860924
20
-117.3279647
40
2
50
353
51
83
0
LINE
8
0
10
316.2298311
20
-115.3428724
11
300.3490926
21
-113.3929629
0
LINE
8
0
10
283.3755095
20
-184.4598685
11
298.2104512
21
-190.453574
0
ARC
8
0
10
298.9596644
20
-188.5992063
40
2
50
248
51
338
0
LINE
8
0
10
300.8140321
20
-189.3484194
11
306.433131
21
-175.4406616
0
ARC
8
0
10
304.5787633
20
-174.6914484
40
2
50
338
51
68
0
LINE
8
0
10
305.3279765
20
-172.8370807
11
290.4930348
21
-166.8433752
0
ARC
8
0
10
289.7438216
20
-168.6977429
40
2
50
68
51
158
0
LINE
8
0
10
287.8894539
20
-167.9485298
11
282.270355
21
-181.8562876
0
ARC
8
0
10
284.1247227
20
-182.6055008
40
2
50
158
51
248
0
LINE
8
0
10
301.2941836
20
-192.6885538
11
314.5587848
21
-201.6356403
0
ARC
8
0
10
315.6771706
20
-199.9775651
40
2
50
236
51
326
0
LINE
8
0
10
317.3352457
20
-201.0959509
11
325.7231393
21
-188.6603873
0
ARC
8
0
10
324.0650642
20
-187.5420015
40
2
50
326
51
56
0
LINE
8
0
10
325.18345
20
-185.8839264
11
311.9188488
21
-176.9368399
0
ARC
8
0
10
310.800463
20
-178.5949151
40
2
50
56
51
146
0
LINE
8
0
10
309.1423879
20
-177.4765293
11
300.7544943
21
-189.9120929
0
ARC
8
0
10
302.4125694
20
-191.0304787
40
2
50
146
51
236
0
LINE
8
0
10
198
20
-169.5
11
214
21
-169.5
0
ARC
8
0
10
214
20
-167.5
40
2
50
270
51
360
0
LINE
8
0
10
216
20
-167.5
11
216
21
-152.5
0
ARC
8
0
10
214
20
-152.5
40
2
50
0
51
30.0000001
0
LINE
8
0
10
196
20
-154.1085242
11
196
21
-167.5
0
ARC
8
0
10
198
20
-167.5
40
2
50
180
51
270
0
ARC
8
0
10
214
20
-150.5
40
2
50
329.9999999
51
360
0
LINE
8
0
10
216
20
-150.5
11
216
21
-135.5
0
ARC
8
0
10
214
20
-135.5
40
2
50
0
51
30.0000001
0
ARC
8
0
10
198
20
-135.5
40
2
50
149.9999999
51
180
0
LINE
8
0
10
196
20
-135.5
11
196
21
-145.3883739
0
ARC
8
0
10
214
20
-133.5
40
2
50
329.9999999
51
360
0
LINE
8
0
10
216
20
-133.5
11
216
21
-118.5
0
ARC
8
0
10
214
20
-118.5
40
2
50
0
51
90
0
LINE
8
0
10
214
20
-116.5
11
198
21
-116.5
0
ARC
8
0
10
198
20
-118.5
40
2
50
90
51
180
0
LINE
8
0
10
196
20
-118.5
11
196
21
-133.5
0
ARC
8
0
10
198
20
-133.5
40
2
50
180
51
210.0000001
0
LINE
8
0
10
179.2173895
20
-156.4041432
11
195.098128
21
-154.4542337
0
ARC
8
0
10
194.8543893
20
-152.4691414
40
2
50
277
51
304.9460847
0
LINE
8
0
10
196
20
-145.3883739
11
195.0114414
21
-137.3372104
0
ARC
8
0
10
193.0263491
20
-137.5809491
40
2
50
7
51
36.9999976
0
LINE
8
0
10
176.2573425
20
-148.7075127
11
176.9885586
21
-154.6627896
0
ARC
8
0
10
178.9736509
20
-154.4190509
40
2
50
187
51
277
0
ARC
8
0
10
192.7826105
20
-135.5958568
40
2
50
336.9999988
51
7
0
LINE
8
0
10
194.7677028
20
-135.3521181
11
192.9396626
21
-120.4639258
0
ARC
8
0
10
190.9545703
20
-120.7076645
40
2
50
7
51
36.9999976
0
ARC
8
0
10
190.7108317
20
-118.7225722
40
2
50
336.9999988
51
7
0
LINE
8
0
10
192.695924
20
-118.4788335
11
190.8678838
21
-103.5906412
0
ARC
8
0
10
188.8827915
20
-103.8343799
40
2
50
7
51
97
0
LINE
8
0
10
188.6390529
20
-101.8492876
11
172.7583144
21
-103.7991971
0
LINE
8
0
10
160.376604
20
-150.6574222
11
176.2573425
21
-148.7075127
0
LINE
8
0
10
172.7583144
20
-103.7991971
11
172.0270983
21
-97.8439202
0
ARC
8
0
10
170.042006
20
-98.0876589
40
2
50
7
51
97
0
LINE
8
0
10
169.7982674
20
-96.1025666
11
153.9175289
21
-98.0524761
0
ARC
8
0
10
154.1612676
20
-100.0375684
40
2
50
97
51
187
0
LINE
8
0
10
152.1761753
20
-100.2813071
11
153.15113
21
-108.2216763
0
LINE
8
0
10
143.7294667
20
-162.7765319
11
159.6102052
21
-160.8266224
0
ARC
8
0
10
159.3664665
20
-158.8415301
40
2
50
277
51
7
0
LINE
8
0
10
161.3515588
20
-158.5977914
11
160.376604
21
-150.6574222
0
LINE
8
0
10
153.1511301
20
-108.2216763
11
137.2703916
21
-110.1715858
0
ARC
8
0
10
137.5141303
20
-112.1566781
40
2
50
97
51
187
0
LINE
8
0
10
135.529038
20
-112.4004168
11
135.6509073
21
-113.3929629
0
LINE
8
0
10
126.229244
20
-167.9478185
11
142.1099825
21
-165.997909
0
ARC
8
0
10
141.8662438
20
-164.0128167
40
2
50
277
51
7
0
LINE
8
0
10
143.8513361
20
-163.769078
11
143.7294667
21
-162.7765319
0
ARC
8
0
10
124.1574652
20
-151.0745339
40
2
50
156.9999988
51
187
0
LINE
8
0
10
122.1723729
20
-151.3182726
11
124.0004131
21
-166.2064649
0
ARC
8
0
10
125.9855054
20
-165.9627262
40
2
50
187
51
277
0
ARC
8
0
10
122.0856864
20
-134.2012493
40
2
50
156.9999988
51
187
0
LINE
8
0
10
120.1005941
20
-134.444988
11
121.9286343
21
-149.3331803
0
ARC
8
0
10
123.9137266
20
-149.0894416
40
2
50
187
51
216.9999976
0
LINE
8
0
10
135.6509074
20
-113.3929629
11
119.7701689
21
-115.3428724
0
ARC
8
0
10
120.0139076
20
-117.3279647
40
2
50
97
51
187
0
LINE
8
0
10
118.0288153
20
-117.5717034
11
119.8568555
21
-132.4598957
0
ARC
8
0
10
121.8419478
20
-132.216157
40
2
50
187
51
216.9999976
0
LINE
8
0
10
137.7895488
20
-190.453574
11
152.6244905
21
-184.4598685
0
ARC
8
0
10
151.8752773
20
-182.6055008
40
2
50
292
51
22
0
LINE
8
0
10
153.729645
20
-181.8562876
11
148.1105461
21
-167.9485298
0
ARC
8
0
10
146.2561784
20
-168.6977429
40
2
50
22
51
112
0
LINE
8
0
10
145.5069652
20
-166.8433752
11
130.6720235
21
-172.8370807
0
ARC
8
0
10
131.4212367
20
-174.6914484
40
2
50
112
51
202
0
LINE
8
0
10
129.566869
20
-175.4406616
11
135.1859679
21
-189.3484194
0
ARC
8
0
10
137.0403356
20
-188.5992063
40
2
50
202
51
292
0
LINE
8
0
10
121.4412152
20
-201.6356403
11
134.7058164
21
-192.6885538
0
ARC
8
0
10
133.5874306
20
-191.0304787
40
2
50
304
51
34
0
LINE
8
0
10
135.2455057
20
-189.9120929
11
126.8576121
21
-177.4765293
0
ARC
8
0
10
125.199537
20
-178.5949151
40
2
50
34
51
124
0
LINE
8
0
10
124.0811512
20
-176.9368399
11
110.81655
21
-185.8839264
0
ARC
8
0
10
111.9349358
20
-187.5420015
40
2
50
124
51
214
0
LINE
8
0
10
110.2768607
20
-188.6603873
11
118.6647543
21
-201.0959509
0
ARC
8
0
10
120.3228294
20
-199.9775651
40
2
50
214
51
304
0
ENDSEC
0
EOF