0
SECTION
2
HEADER
9
$INSUNITS
70
4
0
ENDSEC
0
SECTION
2
TABLES
0
TABLE
2
LTYPE
0
LTYPE
72
65
70
64
2
CONTINUOUS
3
______
73
0
40
0
0
ENDTAB
0
TABLE
2
LAYER
0
ENDTAB
0
ENDSEC
0
SECTION
2
ENTITIES
0
LINE
8
0
10
158.911654
20
-161.3930194
11
161.3930194
21
-161.088346
0
LINE
8
0
10
161.3930194
20
-161.088346
11
161.088346
21
-158.6069806
0
LINE
8
0
10
161.088346
20
-158.6069806
11
158.6069806
21
-158.911654
0
LINE
8
0
10
158.6069806
20
-158.911654
11
158.911654
21
-161.3930194
0
LINE
8
0
10
156.8094078
20
-144.2715983
11
159.2907732
21
-143.9669249
0
LINE
8
0
10
159.2907732
20
-143.9669249
11
158.9860998
21
-141.4855595
0
LINE
8
0
10
158.9860998
20
-141.4855595
11
156.5047344
21
-141.7902329
0
LINE
8
0
10
156.5047344
20
-141.7902329
11
156.8094078
21
-144.2715983
0
LINE
8
0
10
154.7071616
20
-127.1501772
11
157.188527
21
-126.8455038
0
LINE
8
0
10
157.188527
20
-126.8455038
11
156.8838536
21
-124.3641384
0
LINE
8
0
10
156.8838536
20
-124.3641384
11
154.4024882
21
-124.6688118
0
LINE
8
0
10
154.4024882
20
-124.6688118
11
154.7071616
21
-127.1501772
0
LINE
8
0
10
176.8947522
20
-144.916967
11
179.3947522
21
-144.916967
0
LINE
8
0
10
179.3947522
20
-144.916967
11
179.3947522
21
-142.416967
0
LINE
8
0
10
179.3947522
20
-142.416967
11
176.8947522
21
-142.416967
0
LINE
8
0
10
176.8947522
20
-142.416967
11
176.8947522
21
-144.916967
0
LINE
8
0
10
176.8947522
20
-127.666967
11
179.3947522
21
-127.666967
0
LINE
8
0
10
179.3947522
20
-127.666967
11
179.3947522
21
-125.166967
0
LINE
8
0
10
179.3947522
20
-125.166967
11
176.8947522
21
-125.166967
0
LINE
8
0
10
176.8947522
20
-125.166967
11
176.8947522
21
-127.666967
0
LINE
8
0
10
176.8947522
20
-110.416967
11
179.3947522
21
-110.416967
0
LINE
8
0
10
179.3947522
20
-110.416967
11
179.3947522
21
-107.916967
0
LINE
8
0
10
179.3947522
20
-107.916967
11
176.8947522
21
-107.916967
0
LINE
8
0
10
176.8947522
20
-107.916967
11
176.8947522
21
-110.416967
0
LINE
8
0
10
195.3947523
20
-138.916967
11
197.8947523
21
-138.916967
0
LINE
8
0
10
197.8947523
20
-138.916967
11
197.8947523
21
-136.416967
0
LINE
8
0
10
197.8947523
20
-136.416967
11
195.3947523
21
-136.416967
0
LINE
8
0
10
195.3947523
20
-136.416967
11
195.3947523
21
-138.916967
0
LINE
8
0
10
195.3947523
20
-121.666967
11
197.8947523
21
-121.666967
0
LINE
8
0
10
197.8947523
20
-121.666967
11
197.8947523
21
-119.166967
0
LINE
8
0
10
197.8947523
20
-119.166967
11
195.3947523
21
-119.166967
0
LINE
8
0
10
195.3947523
20
-119.166967
11
195.3947523
21
-121.666967
0
LINE
8
0
10
195.3947523
20
-104.416967
11
197.8947523
21
-104.416967
0
LINE
8
0
10
197.8947523
20
-104.416967
11
197.8947523
21
-101.916967
0
LINE
8
0
10
197.8947523
20
-101.916967
11
195.3947523
21
-101.916967
0
LINE
8
0
10
195.3947523
20
-101.916967
11
195.3947523
21
-104.416967
0
LINE
8
0
10
213.8947522
20
-146.916967
11
216.3947522
21
-146.916967
0
LINE
8
0
10
216.3947522
20
-146.916967
11
216.3947522
21
-144.416967
0
LINE
8
0
10
216.3947522
20
-144.416967
11
213.8947522
21
-144.416967
0
LINE
8
0
10
213.8947522
20
-144.416967
11
213.8947522
21
-146.916967
0
LINE
8
0
10
213.8947522
20
-129.666967
11
216.3947522
21
-129.666967
0
LINE
8
0
10
216.3947522
20
-129.666967
11
216.3947522
21
-127.166967
0
LINE
8
0
10
216.3947522
20
-127.166967
11
213.8947522
21
-127.166967
0
LINE
8
0
10
213.8947522
20
-127.166967
11
213.8947522
21
-129.666967
0
LINE
8
0
10
213.8947522
20
-112.416967
11
216.3947522
21
-112.416967
0
LINE
8
0
10
216.3947522
20
-112.416967
11
216.3947522
21
-109.916967
0
LINE
8
0
10
216.3947522
20
-109.916967
11
213.8947522
21
-109.916967
0
LINE
8
0
10
213.8947522
20
-109.916967
11
213.8947522
21
-112.416967
0
LINE
8
0
10
232.1447522
20
-149.916967
11
234.6447522
21
-149.916967
0
LINE
8
0
10
234.6447522
20
-149.916967
11
234.6447522
21
-147.416967
0
LINE
8
0
10
234.6447522
20
-147.416967
11
232.1447522
21
-147.416967
0
LINE
8
0
10
232.1447522
20
-147.416967
11
232.1447522
21
-149.916967
0
LINE
8
0
10
232.1447522
20
-132.666967
11
234.6447522
21
-132.666967
0
LINE
8
0
10
234.6447522
20
-132.666967
11
234.6447522
21
-130.166967
0
LINE
8
0
10
234.6447522
20
-130.166967
11
232.1447522
21
-130.166967
0
LINE
8
0
10
232.1447522
20
-130.166967
11
232.1447522
21
-132.666967
0
LINE
8
0
10
232.1447522
20
-115.416967
11
234.6447522
21
-115.416967
0
LINE
8
0
10
234.6447522
20
-115.416967
11
234.6447522
21
-112.916967
0
LINE
8
0
10
234.6447522
20
-112.916967
11
232.1447522
21
-112.916967
0
LINE
8
0
10
232.1447522
20
-112.916967
11
232.1447522
21
-115.416967
0
LINE
8
0
10
225.8638211
20
-169.3008505
11
228.2786357
21
-169.9478981
0
LINE
8
0
10
228.2786357
20
-169.9478981
11
228.9256833
21
-167.5330835
0
LINE
8
0
10
228.9256833
20
-167.5330835
11
226.5108687
21
-166.8860359
0
LINE
8
0
10
226.5108687
20
-166.8860359
11
225.8638211
21
-169.3008505
0
LINE
8
0
10
245.9976973
20
-177.2846596
11
248.2252136
21
-178.4196359
0
LINE
8
0
10
248.2252136
20
-178.4196359
11
249.3601899
21
-176.1921196
0
LINE
8
0
10
249.3601899
20
-176.1921196
11
247.1326736
21
-175.0571433
0
LINE
8
0
10
247.1326736
20
-175.0571433
11
245.9976973
21
-177.2846596
0
ENDSEC
0
EOF