0
SECTION
2
HEADER
9
$INSUNITS
70
4
0
ENDSEC
0
SECTION
2
TABLES
0
TABLE
2
LTYPE
0
LTYPE
72
65
70
64
2
CONTINUOUS
3
______
73
0
40
0
0
ENDTAB
0
TABLE
2
LAYER
0
ENDTAB
0
ENDSEC
0
SECTION
2
ENTITIES
0
LINE
8
0
10
158.75
20
-161.25
11
161.25
21
-161.25
0
LINE
8
0
10
161.25
20
-161.25
11
161.25
21
-158.75
0
LINE
8
0
10
161.25
20
-158.75
11
158.75
21
-158.75
0
LINE
8
0
10
158.75
20
-158.75
11
158.75
21
-161.25
0
LINE
8
0
10
158.75
20
-144.25
11
161.25
21
-144.25
0
LINE
8
0
10
161.25
20
-144.25
11
161.25
21
-141.75
0
LINE
8
0
10
161.25
20
-141.75
11
158.75
21
-141.75
0
LINE
8
0
10
158.75
20
-141.75
11
158.75
21
-144.25
0
LINE
8
0
10
158.75
20
-127.25
11
161.25
21
-127.25
0
LINE
8
0
10
161.25
20
-127.25
11
161.25
21
-124.75
0
LINE
8
0
10
161.25
20
-124.75
11
158.75
21
-124.75
0
LINE
8
0
10
158.75
20
-124.75
11
158.75
21
-127.25
0
LINE
8
0
10
178.6069806
20
-147.088346
11
181.088346
21
-147.3930194
0
LINE
8
0
10
181.088346
20
-147.3930194
11
181.3930194
21
-144.911654
0
LINE
8
0
10
181.3930194
20
-144.911654
11
178.911654
21
-144.6069806
0
LINE
8
0
10
178.911654
20
-144.6069806
11
178.6069806
21
-147.088346
0
LINE
8
0
10
180.6787594
20
-130.2150614
11
183.1601248
21
-130.5197348
0
LINE
8
0
10
183.1601248
20
-130.5197348
11
183.4647982
21
-128.0383694
0
LINE
8
0
10
183.4647982
20
-128.0383694
11
180.9834328
21
-127.733696
0
LINE
8
0
10
180.9834328
20
-127.733696
11
180.6787594
21
-130.2150614
0
LINE
8
0
10
182.7505382
20
-113.3417768
11
185.2319036
21
-113.6464502
0
LINE
8
0
10
185.2319036
20
-113.6464502
11
185.536577
21
-111.1650848
0
LINE
8
0
10
185.536577
20
-111.1650848
11
183.0552116
21
-110.8604114
0
LINE
8
0
10
183.0552116
20
-110.8604114
11
182.7505382
21
-113.3417768
0
LINE
8
0
10
197.4477661
20
-141.341625
11
199.9291315
21
-141.6462984
0
LINE
8
0
10
199.9291315
20
-141.6462984
11
200.2338049
21
-139.164933
0
LINE
8
0
10
200.2338049
20
-139.164933
11
197.7524395
21
-138.8602596
0
LINE
8
0
10
197.7524395
20
-138.8602596
11
197.4477661
21
-141.341625
0
LINE
8
0
10
199.5195449
20
-124.4683404
11
202.0009103
21
-124.7730138
0
LINE
8
0
10
202.0009103
20
-124.7730138
11
202.3055837
21
-122.2916484
0
LINE
8
0
10
202.3055837
20
-122.2916484
11
199.8242183
21
-121.986975
0
LINE
8
0
10
199.8242183
20
-121.986975
11
199.5195449
21
-124.4683404
0
LINE
8
0
10
201.5913237
20
-107.5950558
11
204.0726891
21
-107.8997292
0
LINE
8
0
10
204.0726891
20
-107.8997292
11
204.3773625
21
-105.4183638
0
LINE
8
0
10
204.3773625
20
-105.4183638
11
201.8959971
21
-105.1136904
0
LINE
8
0
10
201.8959971
20
-105.1136904
11
201.5913237
21
-107.5950558
0
LINE
8
0
10
214.0949034
20
-153.4607347
11
216.5762688
21
-153.7654081
0
LINE
8
0
10
216.5762688
20
-153.7654081
11
216.8809422
21
-151.2840427
0
LINE
8
0
10
216.8809422
20
-151.2840427
11
214.3995768
21
-150.9793693
0
LINE
8
0
10
214.3995768
20
-150.9793693
11
214.0949034
21
-153.4607347
0
LINE
8
0
10
216.1666822
20
-136.5874501
11
218.6480476
21
-136.8921235
0
LINE
8
0
10
218.6480476
20
-136.8921235
11
218.952721
21
-134.4107581
0
LINE
8
0
10
218.952721
20
-134.4107581
11
216.4713556
21
-134.1060847
0
LINE
8
0
10
216.4713556
20
-134.1060847
11
216.1666822
21
-136.5874501
0
LINE
8
0
10
218.238461
20
-119.7141655
11
220.7198264
21
-120.0188389
0
LINE
8
0
10
220.7198264
20
-120.0188389
11
221.0244998
21
-117.5374735
0
LINE
8
0
10
221.0244998
20
-117.5374735
11
218.5431344
21
-117.2328001
0
LINE
8
0
10
218.5431344
20
-117.2328001
11
218.238461
21
-119.7141655
0
LINE
8
0
10
231.5951261
20
-158.6320213
11
234.0764915
21
-158.9366947
0
LINE
8
0
10
234.0764915
20
-158.9366947
11
234.3811649
21
-156.4553293
0
LINE
8
0
10
234.3811649
20
-156.4553293
11
231.8997995
21
-156.1506559
0
LINE
8
0
10
231.8997995
20
-156.1506559
11
231.5951261
21
-158.6320213
0
LINE
8
0
10
233.6669049
20
-141.7587367
11
236.1482703
21
-142.0634101
0
LINE
8
0
10
236.1482703
20
-142.0634101
11
236.4529437
21
-139.5820447
0
LINE
8
0
10
236.4529437
20
-139.5820447
11
233.9715783
21
-139.2773713
0
LINE
8
0
10
233.9715783
20
-139.2773713
11
233.6669049
21
-141.7587367
0
LINE
8
0
10
235.7386837
20
-124.8854521
11
238.2200491
21
-125.1901255
0
LINE
8
0
10
238.2200491
20
-125.1901255
11
238.5247225
21
-122.7087601
0
LINE
8
0
10
238.5247225
20
-122.7087601
11
236.0433571
21
-122.4040867
0
LINE
8
0
10
236.0433571
20
-122.4040867
11
235.7386837
21
-124.8854521
0
LINE
8
0
10
223.0291783
20
-176.8578308
11
225.347138
21
-177.7943473
0
LINE
8
0
10
225.347138
20
-177.7943473
11
226.2836545
21
-175.4763876
0
LINE
8
0
10
226.2836545
20
-175.4763876
11
223.9656948
21
-174.5398711
0
LINE
8
0
10
223.9656948
20
-174.5398711
11
223.0291783
21
-176.8578308
0
LINE
8
0
10
241.8082021
20
-187.1421805
11
243.880796
21
-188.5401628
0
LINE
8
0
10
243.880796
20
-188.5401628
11
245.2787783
21
-186.4675689
0
LINE
8
0
10
245.2787783
20
-186.4675689
11
243.2061844
21
-185.0695866
0
LINE
8
0
10
243.2061844
20
-185.0695866
11
241.8082021
21
-187.1421805
0
ENDSEC
0
EOF