0
SECTION
2
HEADER
9
$INSUNITS
70
4
0
ENDSEC
0
SECTION
2
TABLES
0
TABLE
2
LTYPE
0
LTYPE
72
65
70
64
2
CONTINUOUS
3
______
73
0
40
0
0
ENDTAB
0
TABLE
2
LAYER
0
ENDTAB
0
ENDSEC
0
SECTION
2
ENTITIES
0
LINE
8
0
10
158.911654
20
-161.3930194
11
161.3930194
21
-161.088346
0
LINE
8
0
10
161.3930194
20
-161.088346
11
161.088346
21
-158.6069806
0
LINE
8
0
10
161.088346
20
-158.6069806
11
158.6069806
21
-158.911654
0
LINE
8
0
10
158.6069806
20
-158.911654
11
158.911654
21
-161.3930194
0
LINE
8
0
10
156.8094078
20
-144.2715983
11
159.2907732
21
-143.9669249
0
LINE
8
0
10
159.2907732
20
-143.9669249
11
158.9860998
21
-141.4855595
0
LINE
8
0
10
158.9860998
20
-141.4855595
11
156.5047344
21
-141.7902329
0
LINE
8
0
10
156.5047344
20
-141.7902329
11
156.8094078
21
-144.2715983
0
LINE
8
0
10
154.7071616
20
-127.1501772
11
157.188527
21
-126.8455038
0
LINE
8
0
10
157.188527
20
-126.8455038
11
156.8838536
21
-124.3641384
0
LINE
8
0
10
156.8838536
20
-124.3641384
11
154.4024882
21
-124.6688118
0
LINE
8
0
10
154.4024882
20
-124.6688118
11
154.7071616
21
-127.1501772
0
LINE
8
0
10
177.9915763
20
-153.8498824
11
180.4915763
21
-153.8498824
0
LINE
8
0
10
180.4915763
20
-153.8498824
11
180.4915763
21
-151.3498824
0
LINE
8
0
10
180.4915763
20
-151.3498824
11
177.9915763
21
-151.3498824
0
LINE
8
0
10
177.9915763
20
-151.3498824
11
177.9915763
21
-153.8498824
0
LINE
8
0
10
177.9915763
20
-136.5998824
11
180.4915763
21
-136.5998824
0
LINE
8
0
10
180.4915763
20
-136.5998824
11
180.4915763
21
-134.0998824
0
LINE
8
0
10
180.4915763
20
-134.0998824
11
177.9915763
21
-134.0998824
0
LINE
8
0
10
177.9915763
20
-134.0998824
11
177.9915763
21
-136.5998824
0
LINE
8
0
10
177.9915763
20
-119.3498824
11
180.4915763
21
-119.3498824
0
LINE
8
0
10
180.4915763
20
-119.3498824
11
180.4915763
21
-116.8498824
0
LINE
8
0
10
180.4915763
20
-116.8498824
11
177.9915763
21
-116.8498824
0
LINE
8
0
10
177.9915763
20
-116.8498824
11
177.9915763
21
-119.3498824
0
LINE
8
0
10
197.4278695
20
-148.7827494
11
199.9244434
21
-148.9135893
0
LINE
8
0
10
199.9244434
20
-148.9135893
11
200.0552833
21
-146.4170154
0
LINE
8
0
10
200.0552833
20
-146.4170154
11
197.5587094
21
-146.2861755
0
LINE
8
0
10
197.5587094
20
-146.2861755
11
197.4278695
21
-148.7827494
0
LINE
8
0
10
198.3306647
20
-131.5563899
11
200.8272386
21
-131.6872298
0
LINE
8
0
10
200.8272386
20
-131.6872298
11
200.9580785
21
-129.1906559
0
LINE
8
0
10
200.9580785
20
-129.1906559
11
198.4615046
21
-129.059816
0
LINE
8
0
10
198.4615046
20
-129.059816
11
198.3306647
21
-131.5563899
0
LINE
8
0
10
199.2334599
20
-114.3300304
11
201.7300338
21
-114.4608703
0
LINE
8
0
10
201.7300338
20
-114.4608703
11
201.8608737
21
-111.9642964
0
LINE
8
0
10
201.8608737
20
-111.9642964
11
199.3642998
21
-111.8334565
0
LINE
8
0
10
199.3642998
20
-111.8334565
11
199.2334599
21
-114.3300304
0
LINE
8
0
10
215.5361642
20
-156.7413713
11
218.0327381
21
-156.8722112
0
LINE
8
0
10
218.0327381
20
-156.8722112
11
218.163578
21
-154.3756373
0
LINE
8
0
10
218.163578
20
-154.3756373
11
215.6670041
21
-154.2447974
0
LINE
8
0
10
215.6670041
20
-154.2447974
11
215.5361642
21
-156.7413713
0
LINE
8
0
10
216.4389594
20
-139.5150118
11
218.9355333
21
-139.6458517
0
LINE
8
0
10
218.9355333
20
-139.6458517
11
219.0663732
21
-137.1492778
0
LINE
8
0
10
219.0663732
20
-137.1492778
11
216.5697993
21
-137.0184379
0
LINE
8
0
10
216.5697993
20
-137.0184379
11
216.4389594
21
-139.5150118
0
LINE
8
0
10
217.3417546
20
-122.2886523
11
219.8383285
21
-122.4194922
0
LINE
8
0
10
219.8383285
20
-122.4194922
11
219.9691684
21
-119.9229183
0
LINE
8
0
10
219.9691684
20
-119.9229183
11
217.4725945
21
-119.7920784
0
LINE
8
0
10
217.4725945
20
-119.7920784
11
217.3417546
21
-122.2886523
0
LINE
8
0
10
233.6041453
20
-160.6923911
11
236.1007192
21
-160.823231
0
LINE
8
0
10
236.1007192
20
-160.823231
11
236.2315591
21
-158.3266571
0
LINE
8
0
10
236.2315591
20
-158.3266571
11
233.7349852
21
-158.1958172
0
LINE
8
0
10
233.7349852
20
-158.1958172
11
233.6041453
21
-160.6923911
0
LINE
8
0
10
234.5069405
20
-143.4660316
11
237.0035144
21
-143.5968715
0
LINE
8
0
10
237.0035144
20
-143.5968715
11
237.1343543
21
-141.1002976
0
LINE
8
0
10
237.1343543
20
-141.1002976
11
234.6377804
21
-140.9694577
0
LINE
8
0
10
234.6377804
20
-140.9694577
11
234.5069405
21
-143.4660316
0
LINE
8
0
10
235.4097357
20
-126.2396721
11
237.9063096
21
-126.370512
0
LINE
8
0
10
237.9063096
20
-126.370512
11
238.0371495
21
-123.8739381
0
LINE
8
0
10
238.0371495
20
-123.8739381
11
235.5405756
21
-123.7430982
0
LINE
8
0
10
235.5405756
20
-123.7430982
11
235.4097357
21
-126.2396721
0
LINE
8
0
10
226.3932885
20
-179.8552155
11
228.8292137
21
-180.4175931
0
LINE
8
0
10
228.8292137
20
-180.4175931
11
229.3915913
21
-177.9816679
0
LINE
8
0
10
229.3915913
20
-177.9816679
11
226.9556661
21
-177.4192903
0
LINE
8
0
10
226.9556661
20
-177.4192903
11
226.3932885
21
-179.8552155
0
LINE
8
0
10
246.7402905
20
-186.9898421
11
248.9678068
21
-188.1248184
0
LINE
8
0
10
248.9678068
20
-188.1248184
11
250.1027831
21
-185.8973021
0
LINE
8
0
10
250.1027831
20
-185.8973021
11
247.8752668
21
-184.7623258
0
LINE
8
0
10
247.8752668
20
-184.7623258
11
246.7402905
21
-186.9898421
0
ENDSEC
0
EOF