0
SECTION
2
HEADER
9
$INSUNITS
70
4
0
ENDSEC
0
SECTION
2
TABLES
0
TABLE
2
LTYPE
0
LTYPE
72
65
70
64
2
CONTINUOUS
3
______
73
0
40
0
0
ENDTAB
0
TABLE
2
LAYER
0
ENDTAB
0
ENDSEC
0
SECTION
2
ENTITIES
0
LINE
8
0
10
228.75
20
-161.25
11
231.25
21
-161.25
0
LINE
8
0
10
231.25
20
-161.25
11
231.25
21
-158.75
0
LINE
8
0
10
231.25
20
-158.75
11
228.75
21
-158.75
0
LINE
8
0
10
228.75
20
-158.75
11
228.75
21
-161.25
0
LINE
8
0
10
228.75
20
-144.25
11
231.25
21
-144.25
0
LINE
8
0
10
231.25
20
-144.25
11
231.25
21
-141.75
0
LINE
8
0
10
231.25
20
-141.75
11
228.75
21
-141.75
0
LINE
8
0
10
228.75
20
-141.75
11
228.75
21
-144.25
0
LINE
8
0
10
228.75
20
-127.25
11
231.25
21
-127.25
0
LINE
8
0
10
231.25
20
-127.25
11
231.25
21
-124.75
0
LINE
8
0
10
231.25
20
-124.75
11
228.75
21
-124.75
0
LINE
8
0
10
228.75
20
-124.75
11
228.75
21
-127.25
0
LINE
8
0
10
248.6069806
20
-147.088346
11
251.088346
21
-147.3930194
0
LINE
8
0
10
251.088346
20
-147.3930194
11
251.3930194
21
-144.911654
0
LINE
8
0
10
251.3930194
20
-144.911654
11
248.911654
21
-144.6069806
0
LINE
8
0
10
248.911654
20
-144.6069806
11
248.6069806
21
-147.088346
0
LINE
8
0
10
250.6787594
20
-130.2150614
11
253.1601248
21
-130.5197348
0
LINE
8
0
10
253.1601248
20
-130.5197348
11
253.4647982
21
-128.0383694
0
LINE
8
0
10
253.4647982
20
-128.0383694
11
250.9834328
21
-127.733696
0
LINE
8
0
10
250.9834328
20
-127.733696
11
250.6787594
21
-130.2150614
0
LINE
8
0
10
252.7505382
20
-113.3417768
11
255.2319036
21
-113.6464502
0
LINE
8
0
10
255.2319036
20
-113.6464502
11
255.536577
21
-111.1650848
0
LINE
8
0
10
255.536577
20
-111.1650848
11
253.0552116
21
-110.8604114
0
LINE
8
0
10
253.0552116
20
-110.8604114
11
252.7505382
21
-113.3417768
0
LINE
8
0
10
267.4477661
20
-141.341625
11
269.9291315
21
-141.6462984
0
LINE
8
0
10
269.9291315
20
-141.6462984
11
270.2338049
21
-139.164933
0
LINE
8
0
10
270.2338049
20
-139.164933
11
267.7524395
21
-138.8602596
0
LINE
8
0
10
267.7524395
20
-138.8602596
11
267.4477661
21
-141.341625
0
LINE
8
0
10
269.5195449
20
-124.4683404
11
272.0009103
21
-124.7730138
0
LINE
8
0
10
272.0009103
20
-124.7730138
11
272.3055837
21
-122.2916484
0
LINE
8
0
10
272.3055837
20
-122.2916484
11
269.8242183
21
-121.986975
0
LINE
8
0
10
269.8242183
20
-121.986975
11
269.5195449
21
-124.4683404
0
LINE
8
0
10
271.5913237
20
-107.5950558
11
274.0726891
21
-107.8997292
0
LINE
8
0
10
274.0726891
20
-107.8997292
11
274.3773625
21
-105.4183638
0
LINE
8
0
10
274.3773625
20
-105.4183638
11
271.8959971
21
-105.1136904
0
LINE
8
0
10
271.8959971
20
-105.1136904
11
271.5913237
21
-107.5950558
0
LINE
8
0
10
284.0949034
20
-153.4607347
11
286.5762688
21
-153.7654081
0
LINE
8
0
10
286.5762688
20
-153.7654081
11
286.8809422
21
-151.2840427
0
LINE
8
0
10
286.8809422
20
-151.2840427
11
284.3995768
21
-150.9793693
0
LINE
8
0
10
284.3995768
20
-150.9793693
11
284.0949034
21
-153.4607347
0
LINE
8
0
10
286.1666822
20
-136.5874501
11
288.6480476
21
-136.8921235
0
LINE
8
0
10
288.6480476
20
-136.8921235
11
288.952721
21
-134.4107581
0
LINE
8
0
10
288.952721
20
-134.4107581
11
286.4713556
21
-134.1060847
0
LINE
8
0
10
286.4713556
20
-134.1060847
11
286.1666822
21
-136.5874501
0
LINE
8
0
10
288.238461
20
-119.7141655
11
290.7198264
21
-120.0188389
0
LINE
8
0
10
290.7198264
20
-120.0188389
11
291.0244998
21
-117.5374735
0
LINE
8
0
10
291.0244998
20
-117.5374735
11
288.5431344
21
-117.2328001
0
LINE
8
0
10
288.5431344
20
-117.2328001
11
288.238461
21
-119.7141655
0
LINE
8
0
10
301.5951261
20
-158.6320213
11
304.0764915
21
-158.9366947
0
LINE
8
0
10
304.0764915
20
-158.9366947
11
304.3811649
21
-156.4553293
0
LINE
8
0
10
304.3811649
20
-156.4553293
11
301.8997995
21
-156.1506559
0
LINE
8
0
10
301.8997995
20
-156.1506559
11
301.5951261
21
-158.6320213
0
LINE
8
0
10
303.6669049
20
-141.7587367
11
306.1482703
21
-142.0634101
0
LINE
8
0
10
306.1482703
20
-142.0634101
11
306.4529437
21
-139.5820447
0
LINE
8
0
10
306.4529437
20
-139.5820447
11
303.9715783
21
-139.2773713
0
LINE
8
0
10
303.9715783
20
-139.2773713
11
303.6669049
21
-141.7587367
0
LINE
8
0
10
305.7386837
20
-124.8854521
11
308.2200491
21
-125.1901255
0
LINE
8
0
10
308.2200491
20
-125.1901255
11
308.5247225
21
-122.7087601
0
LINE
8
0
10
308.5247225
20
-122.7087601
11
306.0433571
21
-122.4040867
0
LINE
8
0
10
306.0433571
20
-122.4040867
11
305.7386837
21
-124.8854521
0
LINE
8
0
10
292.7245049
20
-179.3391962
11
295.0424646
21
-180.2757127
0
LINE
8
0
10
295.0424646
20
-180.2757127
11
295.9789811
21
-177.957753
0
LINE
8
0
10
295.9789811
20
-177.957753
11
293.6610214
21
-177.0212365
0
LINE
8
0
10
293.6610214
20
-177.0212365
11
292.7245049
21
-179.3391962
0
LINE
8
0
10
311.5035287
20
-189.6235459
11
313.5761226
21
-191.0215282
0
LINE
8
0
10
313.5761226
20
-191.0215282
11
314.9741049
21
-188.9489343
0
LINE
8
0
10
314.9741049
20
-188.9489343
11
312.901511
21
-187.550952
0
LINE
8
0
10
312.901511
20
-187.550952
11
311.5035287
21
-189.6235459
0
LINE
8
0
10
204.75
20
-161.25
11
207.25
21
-161.25
0
LINE
8
0
10
207.25
20
-161.25
11
207.25
21
-158.75
0
LINE
8
0
10
207.25
20
-158.75
11
204.75
21
-158.75
0
LINE
8
0
10
204.75
20
-158.75
11
204.75
21
-161.25
0
LINE
8
0
10
204.75
20
-144.25
11
207.25
21
-144.25
0
LINE
8
0
10
207.25
20
-144.25
11
207.25
21
-141.75
0
LINE
8
0
10
207.25
20
-141.75
11
204.75
21
-141.75
0
LINE
8
0
10
204.75
20
-141.75
11
204.75
21
-144.25
0
LINE
8
0
10
204.75
20
-127.25
11
207.25
21
-127.25
0
LINE
8
0
10
207.25
20
-127.25
11
207.25
21
-124.75
0
LINE
8
0
10
207.25
20
-124.75
11
204.75
21
-124.75
0
LINE
8
0
10
204.75
20
-124.75
11
204.75
21
-127.25
0
LINE
8
0
10
184.911654
20
-147.3930194
11
187.3930194
21
-147.088346
0
LINE
8
0
10
187.3930194
20
-147.088346
11
187.088346
21
-144.6069806
0
LINE
8
0
10
187.088346
20
-144.6069806
11
184.6069806
21
-144.911654
0
LINE
8
0
10
184.6069806
20
-144.911654
11
184.911654
21
-147.3930194
0
LINE
8
0
10
182.8398752
20
-130.5197348
11
185.3212406
21
-130.2150614
0
LINE
8
0
10
185.3212406
20
-130.2150614
11
185.0165672
21
-127.733696
0
LINE
8
0
10
185.0165672
20
-127.733696
11
182.5352018
21
-128.0383694
0
LINE
8
0
10
182.5352018
20
-128.0383694
11
182.8398752
21
-130.5197348
0
LINE
8
0
10
180.7680964
20
-113.6464502
11
183.2494618
21
-113.3417768
0
LINE
8
0
10
183.2494618
20
-113.3417768
11
182.9447884
21
-110.8604114
0
LINE
8
0
10
182.9447884
20
-110.8604114
11
180.463423
21
-111.1650848
0
LINE
8
0
10
180.463423
20
-111.1650848
11
180.7680964
21
-113.6464502
0
LINE
8
0
10
166.0708685
20
-141.6462984
11
168.5522339
21
-141.341625
0
LINE
8
0
10
168.5522339
20
-141.341625
11
168.2475605
21
-138.8602596
0
LINE
8
0
10
168.2475605
20
-138.8602596
11
165.7661951
21
-139.164933
0
LINE
8
0
10
165.7661951
20
-139.164933
11
166.0708685
21
-141.6462984
0
LINE
8
0
10
163.9990897
20
-124.7730138
11
166.4804551
21
-124.4683404
0
LINE
8
0
10
166.4804551
20
-124.4683404
11
166.1757817
21
-121.986975
0
LINE
8
0
10
166.1757817
20
-121.986975
11
163.6944163
21
-122.2916484
0
LINE
8
0
10
163.6944163
20
-122.2916484
11
163.9990897
21
-124.7730138
0
LINE
8
0
10
161.9273109
20
-107.8997292
11
164.4086763
21
-107.5950558
0
LINE
8
0
10
164.4086763
20
-107.5950558
11
164.1040029
21
-105.1136904
0
LINE
8
0
10
164.1040029
20
-105.1136904
11
161.6226375
21
-105.4183638
0
LINE
8
0
10
161.6226375
20
-105.4183638
11
161.9273109
21
-107.8997292
0
LINE
8
0
10
149.4237312
20
-153.7654081
11
151.9050966
21
-153.4607347
0
LINE
8
0
10
151.9050966
20
-153.4607347
11
151.6004232
21
-150.9793693
0
LINE
8
0
10
151.6004232
20
-150.9793693
11
149.1190578
21
-151.2840427
0
LINE
8
0
10
149.1190578
20
-151.2840427
11
149.4237312
21
-153.7654081
0
LINE
8
0
10
147.3519524
20
-136.8921235
11
149.8333178
21
-136.5874501
0
LINE
8
0
10
149.8333178
20
-136.5874501
11
149.5286444
21
-134.1060847
0
LINE
8
0
10
149.5286444
20
-134.1060847
11
147.047279
21
-134.4107581
0
LINE
8
0
10
147.047279
20
-134.4107581
11
147.3519524
21
-136.8921235
0
LINE
8
0
10
145.2801736
20
-120.0188389
11
147.761539
21
-119.7141655
0
LINE
8
0
10
147.761539
20
-119.7141655
11
147.4568656
21
-117.2328001
0
LINE
8
0
10
147.4568656
20
-117.2328001
11
144.9755002
21
-117.5374735
0
LINE
8
0
10
144.9755002
20
-117.5374735
11
145.2801736
21
-120.0188389
0
LINE
8
0
10
131.9235085
20
-158.9366947
11
134.4048739
21
-158.6320213
0
LINE
8
0
10
134.4048739
20
-158.6320213
11
134.1002005
21
-156.1506559
0
LINE
8
0
10
134.1002005
20
-156.1506559
11
131.6188351
21
-156.4553293
0
LINE
8
0
10
131.6188351
20
-156.4553293
11
131.9235085
21
-158.9366947
0
LINE
8
0
10
129.8517297
20
-142.0634101
11
132.3330951
21
-141.7587367
0
LINE
8
0
10
132.3330951
20
-141.7587367
11
132.0284217
21
-139.2773713
0
LINE
8
0
10
132.0284217
20
-139.2773713
11
129.5470563
21
-139.5820447
0
LINE
8
0
10
129.5470563
20
-139.5820447
11
129.8517297
21
-142.0634101
0
LINE
8
0
10
127.7799509
20
-125.1901255
11
130.2613163
21
-124.8854521
0
LINE
8
0
10
130.2613163
20
-124.8854521
11
129.9566429
21
-122.4040867
0
LINE
8
0
10
129.9566429
20
-122.4040867
11
127.4752775
21
-122.7087601
0
LINE
8
0
10
127.4752775
20
-122.7087601
11
127.7799509
21
-125.1901255
0
LINE
8
0
10
140.9575354
20
-180.2757127
11
143.2754951
21
-179.3391962
0
LINE
8
0
10
143.2754951
20
-179.3391962
11
142.3389786
21
-177.0212365
0
LINE
8
0
10
142.3389786
20
-177.0212365
11
140.0210189
21
-177.957753
0
LINE
8
0
10
140.0210189
20
-177.957753
11
140.9575354
21
-180.2757127
0
LINE
8
0
10
122.4238774
20
-191.0215282
11
124.4964713
21
-189.6235459
0
LINE
8
0
10
124.4964713
20
-189.6235459
11
123.098489
21
-187.550952
0
LINE
8
0
10
123.098489
20
-187.550952
11
121.0258951
21
-188.9489343
0
LINE
8
0
10
121.0258951
20
-188.9489343
11
122.4238774
21
-191.0215282
0
ENDSEC
0
EOF