0
SECTION
2
HEADER
9
$INSUNITS
70
4
0
ENDSEC
0
SECTION
2
TABLES
0
TABLE
2
LTYPE
0
LTYPE
72
65
70
64
2
CONTINUOUS
3
______
73
0
40
0
0
ENDTAB
0
TABLE
2
LAYER
0
ENDTAB
0
ENDSEC
0
SECTION
2
ENTITIES
0
LINE
8
0
10
158.911654
20
-161.3930194
11
161.3930194
21
-161.088346
0
LINE
8
0
10
161.3930194
20
-161.088346
11
161.088346
21
-158.6069806
0
LINE
8
0
10
161.088346
20
-158.6069806
11
158.6069806
21
-158.911654
0
LINE
8
0
10
158.6069806
20
-158.911654
11
158.911654
21
-161.3930194
0
LINE
8
0
10
156.8398752
20
-144.5197348
11
159.3212406
21
-144.2150614
0
LINE
8
0
10
159.3212406
20
-144.2150614
11
159.0165672
21
-141.733696
0
LINE
8
0
10
159.0165672
20
-141.733696
11
156.5352018
21
-142.0383694
0
LINE
8
0
10
156.5352018
20
-142.0383694
11
156.8398752
21
-144.5197348
0
LINE
8
0
10
154.7680964
20
-127.6464502
11
157.2494618
21
-127.3417768
0
LINE
8
0
10
157.2494618
20
-127.3417768
11
156.9447884
21
-124.8604114
0
LINE
8
0
10
156.9447884
20
-124.8604114
11
154.463423
21
-125.1650848
0
LINE
8
0
10
154.463423
20
-125.1650848
11
154.7680964
21
-127.6464502
0
LINE
8
0
10
176.8947522
20
-144.916967
11
179.3947522
21
-144.916967
0
LINE
8
0
10
179.3947522
20
-144.916967
11
179.3947522
21
-142.416967
0
LINE
8
0
10
179.3947522
20
-142.416967
11
176.8947522
21
-142.416967
0
LINE
8
0
10
176.8947522
20
-142.416967
11
176.8947522
21
-144.916967
0
LINE
8
0
10
176.8947522
20
-127.916967
11
179.3947522
21
-127.916967
0
LINE
8
0
10
179.3947522
20
-127.916967
11
179.3947522
21
-125.416967
0
LINE
8
0
10
179.3947522
20
-125.416967
11
176.8947522
21
-125.416967
0
LINE
8
0
10
176.8947522
20
-125.416967
11
176.8947522
21
-127.916967
0
LINE
8
0
10
176.8947522
20
-110.916967
11
179.3947522
21
-110.916967
0
LINE
8
0
10
179.3947522
20
-110.916967
11
179.3947522
21
-108.416967
0
LINE
8
0
10
179.3947522
20
-108.416967
11
176.8947522
21
-108.416967
0
LINE
8
0
10
176.8947522
20
-108.416967
11
176.8947522
21
-110.916967
0
LINE
8
0
10
194.8947522
20
-136.916967
11
197.3947522
21
-136.916967
0
LINE
8
0
10
197.3947522
20
-136.916967
11
197.3947522
21
-134.416967
0
LINE
8
0
10
197.3947522
20
-134.416967
11
194.8947522
21
-134.416967
0
LINE
8
0
10
194.8947522
20
-134.416967
11
194.8947522
21
-136.916967
0
LINE
8
0
10
194.8947522
20
-119.916967
11
197.3947522
21
-119.916967
0
LINE
8
0
10
197.3947522
20
-119.916967
11
197.3947522
21
-117.416967
0
LINE
8
0
10
197.3947522
20
-117.416967
11
194.8947522
21
-117.416967
0
LINE
8
0
10
194.8947522
20
-117.416967
11
194.8947522
21
-119.916967
0
LINE
8
0
10
194.8947522
20
-102.916967
11
197.3947522
21
-102.916967
0
LINE
8
0
10
197.3947522
20
-102.916967
11
197.3947522
21
-100.416967
0
LINE
8
0
10
197.3947522
20
-100.416967
11
194.8947522
21
-100.416967
0
LINE
8
0
10
194.8947522
20
-100.416967
11
194.8947522
21
-102.916967
0
LINE
8
0
10
212.8947523
20
-146.916967
11
215.3947523
21
-146.916967
0
LINE
8
0
10
215.3947523
20
-146.916967
11
215.3947523
21
-144.416967
0
LINE
8
0
10
215.3947523
20
-144.416967
11
212.8947523
21
-144.416967
0
LINE
8
0
10
212.8947523
20
-144.416967
11
212.8947523
21
-146.916967
0
LINE
8
0
10
212.8947523
20
-129.916967
11
215.3947523
21
-129.916967
0
LINE
8
0
10
215.3947523
20
-129.916967
11
215.3947523
21
-127.416967
0
LINE
8
0
10
215.3947523
20
-127.416967
11
212.8947523
21
-127.416967
0
LINE
8
0
10
212.8947523
20
-127.416967
11
212.8947523
21
-129.916967
0
LINE
8
0
10
212.8947523
20
-112.916967
11
215.3947523
21
-112.916967
0
LINE
8
0
10
215.3947523
20
-112.916967
11
215.3947523
21
-110.416967
0
LINE
8
0
10
215.3947523
20
-110.416967
11
212.8947523
21
-110.416967
0
LINE
8
0
10
212.8947523
20
-110.416967
11
212.8947523
21
-112.916967
0
LINE
8
0
10
230.8947522
20
-149.916967
11
233.3947522
21
-149.916967
0
LINE
8
0
10
233.3947522
20
-149.916967
11
233.3947522
21
-147.416967
0
LINE
8
0
10
233.3947522
20
-147.416967
11
230.8947522
21
-147.416967
0
LINE
8
0
10
230.8947522
20
-147.416967
11
230.8947522
21
-149.916967
0
LINE
8
0
10
230.8947522
20
-132.916967
11
233.3947522
21
-132.916967
0
LINE
8
0
10
233.3947522
20
-132.916967
11
233.3947522
21
-130.416967
0
LINE
8
0
10
233.3947522
20
-130.416967
11
230.8947522
21
-130.416967
0
LINE
8
0
10
230.8947522
20
-130.416967
11
230.8947522
21
-132.916967
0
LINE
8
0
10
230.8947522
20
-115.916967
11
233.3947522
21
-115.916967
0
LINE
8
0
10
233.3947522
20
-115.916967
11
233.3947522
21
-113.416967
0
LINE
8
0
10
233.3947522
20
-113.416967
11
230.8947522
21
-113.416967
0
LINE
8
0
10
230.8947522
20
-113.416967
11
230.8947522
21
-115.916967
0
LINE
8
0
10
224.6138211
20
-169.0508505
11
227.0286357
21
-169.6978981
0
LINE
8
0
10
227.0286357
20
-169.6978981
11
227.6756833
21
-167.2830835
0
LINE
8
0
10
227.6756833
20
-167.2830835
11
225.2608687
21
-166.6360359
0
LINE
8
0
10
225.2608687
20
-166.6360359
11
224.6138211
21
-169.0508505
0
LINE
8
0
10
244.5062159
20
-176.9699548
11
246.7337322
21
-178.1049311
0
LINE
8
0
10
246.7337322
20
-178.1049311
11
247.8687085
21
-175.8774148
0
LINE
8
0
10
247.8687085
20
-175.8774148
11
245.6411922
21
-174.7424385
0
LINE
8
0
10
245.6411922
20
-174.7424385
11
244.5062159
21
-176.9699548
0
ENDSEC
0
EOF