%TF.GenerationSoftware,KiCad,Pcbnew,7.0.11*%
%TF.CreationDate,2024-03-07T19:05:48+13:00*%
%TF.ProjectId,socius-choc-v1,736f6369-7573-42d6-9368-6f632d76312e,v1.0.0*%
%TF.SameCoordinates,Original*%
%TF.FileFunction,Legend,Top*%
%TF.FilePolarity,Positive*%
%FSLAX46Y46*%
G04 Gerber Fmt 4.6, Leading zero omitted, Abs format (unit mm)*
G04 Created by KiCad (PCBNEW 7.0.11) date 2024-03-07 19:05:48*
%MOMM*%
%LPD*%
G01*
G04 APERTURE LIST*
%ADD10C,0.150000*%
%ADD11C,0.200000*%
%ADD12C,0.100000*%
%ADD13C,2.000000*%
%ADD14R,1.400000X1.400000*%
%ADD15C,1.400000*%
G04 APERTURE END LIST*
D10*
G36*
X252245993Y-162589925D02*
G01*
X252263626Y-162625191D01*
X252034037Y-162671109D01*
X252034037Y-162627920D01*
X252053033Y-162589926D01*
X252091029Y-162570928D01*
X252207999Y-162570928D01*
X252245993Y-162589925D01*
G37*
G36*
X253579326Y-162589925D02*
G01*
X253596959Y-162625191D01*
X253367370Y-162671109D01*
X253367370Y-162627920D01*
X253386366Y-162589926D01*
X253424362Y-162570928D01*
X253541332Y-162570928D01*
X253579326Y-162589925D01*
G37*
G36*
X251533658Y-162328996D02*
G01*
X251554541Y-162349879D01*
X251579276Y-162399348D01*
X251579276Y-162478222D01*
X251554541Y-162527691D01*
X251533658Y-162548575D01*
X251484190Y-162573309D01*
X251272133Y-162573309D01*
X251272133Y-162304262D01*
X251484190Y-162304262D01*
X251533658Y-162328996D01*
G37*
G36*
X254394803Y-163218548D02*
G01*
X251007847Y-163218548D01*
X251007847Y-163029262D01*
X251122133Y-163029262D01*
X251139680Y-163077471D01*
X251184109Y-163103123D01*
X251234633Y-163094214D01*
X251267610Y-163054914D01*
X251272133Y-163029262D01*
X251272133Y-162723309D01*
X251348560Y-162723309D01*
X251592833Y-163072271D01*
X251634855Y-163101703D01*
X251685963Y-163097240D01*
X251722245Y-163060968D01*
X251726723Y-163009861D01*
X251715718Y-162986252D01*
X251665825Y-162914976D01*
X251884037Y-162914976D01*
X251885570Y-162919189D01*
X251884529Y-162923551D01*
X251891955Y-162948517D01*
X251930051Y-163024708D01*
X251938204Y-163032427D01*
X251942671Y-163042732D01*
X251963592Y-163058249D01*
X252039782Y-163096344D01*
X252044235Y-163096856D01*
X252047671Y-163099739D01*
X252073323Y-163104262D01*
X252225704Y-163104262D01*
X252229916Y-163102728D01*
X252234278Y-163103771D01*
X252259245Y-163096344D01*
X252335436Y-163058249D01*
X252370708Y-163020995D01*
X252373783Y-162969785D01*
X252343220Y-162928579D01*
X252293321Y-162916658D01*
X252268354Y-162924085D01*
X252207999Y-162954262D01*
X252091028Y-162954262D01*
X252053034Y-162935265D01*
X252034037Y-162897270D01*
X252034037Y-162824080D01*
X252354698Y-162759949D01*
X252365285Y-162753509D01*
X252377490Y-162751357D01*
X252386524Y-162740590D01*
X252398530Y-162733288D01*
X252402500Y-162721550D01*
X252410467Y-162712057D01*
X252414990Y-162686405D01*
X252414990Y-162648309D01*
X252569751Y-162648309D01*
X252571284Y-162652522D01*
X252570243Y-162656884D01*
X252577669Y-162681850D01*
X252615765Y-162758041D01*
X252623918Y-162765760D01*
X252628385Y-162776065D01*
X252649306Y-162791582D01*
X252725496Y-162829677D01*
X252729949Y-162830189D01*
X252733385Y-162833072D01*
X252759037Y-162837595D01*
X252855618Y-162837595D01*
X252893611Y-162856591D01*
X252912609Y-162894586D01*
X252912609Y-162897270D01*
X252893611Y-162935265D01*
X252855618Y-162954262D01*
X252738647Y-162954262D01*
X252678292Y-162924085D01*
X252627325Y-162918220D01*
X252584512Y-162946487D01*
X252569886Y-162995661D01*
X252590289Y-163042732D01*
X252611210Y-163058249D01*
X252687401Y-163096344D01*
X252691854Y-163096856D01*
X252695290Y-163099739D01*
X252720942Y-163104262D01*
X252873323Y-163104262D01*
X252877536Y-163102728D01*
X252881897Y-163103770D01*
X252906864Y-163096344D01*
X252983054Y-163058249D01*
X252990774Y-163050094D01*
X253001077Y-163045629D01*
X253016595Y-163024708D01*
X253054691Y-162948518D01*
X253055203Y-162944063D01*
X253058086Y-162940628D01*
X253062609Y-162914976D01*
X253217370Y-162914976D01*
X253218903Y-162919189D01*
X253217862Y-162923551D01*
X253225288Y-162948517D01*
X253263384Y-163024708D01*
X253271537Y-163032427D01*
X253276004Y-163042732D01*
X253296925Y-163058249D01*
X253373115Y-163096344D01*
X253377568Y-163096856D01*
X253381004Y-163099739D01*
X253406656Y-163104262D01*
X253559037Y-163104262D01*
X253563249Y-163102728D01*
X253567611Y-163103771D01*
X253592578Y-163096344D01*
X253668769Y-163058249D01*
X253704041Y-163020995D01*
X253707116Y-162969785D01*
X253676553Y-162928579D01*
X253626654Y-162916658D01*
X253601687Y-162924085D01*
X253541332Y-162954262D01*
X253424361Y-162954262D01*
X253386367Y-162935265D01*
X253367370Y-162897270D01*
X253367370Y-162824080D01*
X253688031Y-162759949D01*
X253698618Y-162753509D01*
X253710823Y-162751357D01*
X253719857Y-162740590D01*
X253731863Y-162733288D01*
X253735833Y-162721550D01*
X253743800Y-162712057D01*
X253748323Y-162686405D01*
X253748323Y-162610214D01*
X253746789Y-162606000D01*
X253747831Y-162601640D01*
X253740405Y-162576673D01*
X253702310Y-162500483D01*
X253694155Y-162492762D01*
X253689882Y-162482904D01*
X253828033Y-162482904D01*
X253836942Y-162533428D01*
X253876242Y-162566405D01*
X253901894Y-162570928D01*
X253941180Y-162570928D01*
X253941180Y-162914976D01*
X253942713Y-162919188D01*
X253941671Y-162923550D01*
X253949098Y-162948517D01*
X253987193Y-163024708D01*
X253995346Y-163032427D01*
X253999813Y-163042732D01*
X254020734Y-163058249D01*
X254096924Y-163096344D01*
X254101377Y-163096856D01*
X254104813Y-163099739D01*
X254130465Y-163104262D01*
X254206656Y-163104262D01*
X254254865Y-163086715D01*
X254280517Y-163042286D01*
X254271608Y-162991762D01*
X254232308Y-162958785D01*
X254206656Y-162954262D01*
X254148170Y-162954262D01*
X254110176Y-162935265D01*
X254091180Y-162897271D01*
X254091180Y-162570928D01*
X254206656Y-162570928D01*
X254254865Y-162553381D01*
X254280517Y-162508952D01*
X254271608Y-162458428D01*
X254232308Y-162425451D01*
X254206656Y-162420928D01*
X254091180Y-162420928D01*
X254091180Y-162229262D01*
X254073633Y-162181053D01*
X254029204Y-162155401D01*
X253978680Y-162164310D01*
X253945703Y-162203610D01*
X253941180Y-162229262D01*
X253941180Y-162420928D01*
X253901894Y-162420928D01*
X253853685Y-162438475D01*
X253828033Y-162482904D01*
X253689882Y-162482904D01*
X253689690Y-162482460D01*
X253668769Y-162466942D01*
X253592578Y-162428846D01*
X253588124Y-162428333D01*
X253584689Y-162425451D01*
X253559037Y-162420928D01*
X253406656Y-162420928D01*
X253402441Y-162422461D01*
X253398080Y-162421420D01*
X253373114Y-162428847D01*
X253296924Y-162466942D01*
X253289203Y-162475096D01*
X253278902Y-162479562D01*
X253263384Y-162500483D01*
X253225288Y-162576672D01*
X253224775Y-162581126D01*
X253221893Y-162584562D01*
X253217370Y-162610214D01*
X253217370Y-162914976D01*
X253062609Y-162914976D01*
X253062609Y-162876881D01*
X253061075Y-162872667D01*
X253062117Y-162868306D01*
X253054691Y-162843339D01*
X253016595Y-162767149D01*
X253008441Y-162759429D01*
X253003975Y-162749125D01*
X252983054Y-162733608D01*
X252906864Y-162695513D01*
X252902410Y-162695000D01*
X252898975Y-162692118D01*
X252873323Y-162687595D01*
X252776742Y-162687595D01*
X252738748Y-162668598D01*
X252719751Y-162630603D01*
X252719751Y-162627920D01*
X252738747Y-162589926D01*
X252776743Y-162570928D01*
X252855617Y-162570928D01*
X252915971Y-162601105D01*
X252966938Y-162606971D01*
X253009751Y-162578705D01*
X253024378Y-162529531D01*
X253003975Y-162482460D01*
X252983054Y-162466942D01*
X252906865Y-162428846D01*
X252902410Y-162428333D01*
X252898975Y-162425451D01*
X252873323Y-162420928D01*
X252759037Y-162420928D01*
X252754822Y-162422461D01*
X252750461Y-162421420D01*
X252725495Y-162428847D01*
X252649305Y-162466942D01*
X252641584Y-162475096D01*
X252631283Y-162479562D01*
X252615765Y-162500483D01*
X252577669Y-162576672D01*
X252577156Y-162581126D01*
X252574274Y-162584562D01*
X252569751Y-162610214D01*
X252569751Y-162648309D01*
X252414990Y-162648309D01*
X252414990Y-162610214D01*
X252413456Y-162606000D01*
X252414498Y-162601640D01*
X252407072Y-162576673D01*
X252368977Y-162500483D01*
X252360822Y-162492762D01*
X252356357Y-162482460D01*
X252335436Y-162466942D01*
X252259245Y-162428846D01*
X252254791Y-162428333D01*
X252251356Y-162425451D01*
X252225704Y-162420928D01*
X252073323Y-162420928D01*
X252069108Y-162422461D01*
X252064747Y-162421420D01*
X252039781Y-162428847D01*
X251963591Y-162466942D01*
X251955870Y-162475096D01*
X251945569Y-162479562D01*
X251930051Y-162500483D01*
X251891955Y-162576672D01*
X251891442Y-162581126D01*
X251888560Y-162584562D01*
X251884037Y-162610214D01*
X251884037Y-162914976D01*
X251665825Y-162914976D01*
X251527721Y-162717685D01*
X251535436Y-162715391D01*
X251611626Y-162677296D01*
X251612751Y-162676106D01*
X251631118Y-162663247D01*
X251669213Y-162625152D01*
X251669905Y-162623666D01*
X251683262Y-162605660D01*
X251721358Y-162529470D01*
X251721870Y-162525015D01*
X251724753Y-162521580D01*
X251729276Y-162495928D01*
X251729276Y-162381643D01*
X251727742Y-162377429D01*
X251728784Y-162373068D01*
X251721358Y-162348101D01*
X251683262Y-162271911D01*
X251682072Y-162270785D01*
X251669213Y-162252419D01*
X251631118Y-162214324D01*
X251629636Y-162213633D01*
X251611626Y-162200275D01*
X251535436Y-162162180D01*
X251530982Y-162161667D01*
X251527547Y-162158785D01*
X251501895Y-162154262D01*
X251197133Y-162154262D01*
X251178824Y-162160925D01*
X251159633Y-162164310D01*
X251155282Y-162169494D01*
X251148924Y-162171809D01*
X251139181Y-162188682D01*
X251126656Y-162203610D01*
X251124938Y-162213352D01*
X251123272Y-162216238D01*
X251123850Y-162219520D01*
X251122133Y-162229262D01*
X251122133Y-163029262D01*
X251007847Y-163029262D01*
X251007847Y-162039976D01*
X254394803Y-162039976D01*
X254394803Y-163218548D01*
G37*
G36*
X252124135Y-124695663D02*
G01*
X252145018Y-124716546D01*
X252169752Y-124766014D01*
X252169752Y-124959176D01*
X252145017Y-125008644D01*
X252124134Y-125029528D01*
X252074666Y-125054262D01*
X251995790Y-125054262D01*
X251946322Y-125029528D01*
X251925438Y-125008643D01*
X251900704Y-124959175D01*
X251900704Y-124766015D01*
X251925438Y-124716547D01*
X251946321Y-124695663D01*
X251995791Y-124670928D01*
X252074666Y-124670928D01*
X252124135Y-124695663D01*
G37*
G36*
X253674565Y-124689925D02*
G01*
X253692198Y-124725191D01*
X253462609Y-124771109D01*
X253462609Y-124727920D01*
X253481605Y-124689926D01*
X253519601Y-124670928D01*
X253636571Y-124670928D01*
X253674565Y-124689925D01*
G37*
G36*
X251400325Y-124428996D02*
G01*
X251421208Y-124449879D01*
X251445943Y-124499348D01*
X251445943Y-124578222D01*
X251421208Y-124627691D01*
X251400325Y-124648575D01*
X251350857Y-124673309D01*
X251138800Y-124673309D01*
X251138800Y-124404262D01*
X251350857Y-124404262D01*
X251400325Y-124428996D01*
G37*
G36*
X254528137Y-125318548D02*
G01*
X250874514Y-125318548D01*
X250874514Y-125129262D01*
X250988800Y-125129262D01*
X251006347Y-125177471D01*
X251050776Y-125203123D01*
X251101300Y-125194214D01*
X251134277Y-125154914D01*
X251138800Y-125129262D01*
X251138800Y-124976881D01*
X251750704Y-124976881D01*
X251752237Y-124981094D01*
X251751196Y-124985456D01*
X251758622Y-125010423D01*
X251796718Y-125086612D01*
X251797906Y-125087737D01*
X251810766Y-125106103D01*
X251848861Y-125144199D01*
X251850342Y-125144889D01*
X251868354Y-125158249D01*
X251944544Y-125196344D01*
X251948997Y-125196856D01*
X251952433Y-125199739D01*
X251978085Y-125204262D01*
X252092371Y-125204262D01*
X252096583Y-125202728D01*
X252100945Y-125203771D01*
X252125912Y-125196344D01*
X252202103Y-125158249D01*
X252203227Y-125157061D01*
X252221596Y-125144199D01*
X252259691Y-125106103D01*
X252260382Y-125104620D01*
X252273739Y-125086612D01*
X252311834Y-125010422D01*
X252312346Y-125005968D01*
X252315229Y-125002533D01*
X252319752Y-124976881D01*
X252319752Y-124748309D01*
X252318218Y-124744095D01*
X252319260Y-124739735D01*
X252311834Y-124714768D01*
X252273739Y-124638578D01*
X252272549Y-124637452D01*
X252259690Y-124619086D01*
X252231228Y-124590624D01*
X252436607Y-124590624D01*
X252439305Y-124616532D01*
X252591686Y-125149866D01*
X252592600Y-125151127D01*
X252592552Y-125152685D01*
X252607562Y-125171761D01*
X252621802Y-125191400D01*
X252623312Y-125191778D01*
X252624276Y-125193003D01*
X252648031Y-125197966D01*
X252671568Y-125203859D01*
X252672969Y-125203177D01*
X252674495Y-125203496D01*
X252695883Y-125192028D01*
X252717701Y-125181413D01*
X252718336Y-125179990D01*
X252719709Y-125179254D01*
X252733436Y-125157116D01*
X252816181Y-124950253D01*
X252898926Y-125157116D01*
X252899965Y-125158278D01*
X252900076Y-125159833D01*
X252916951Y-125177275D01*
X252933123Y-125195361D01*
X252934664Y-125195583D01*
X252935748Y-125196703D01*
X252959880Y-125199216D01*
X252983901Y-125202677D01*
X252985225Y-125201855D01*
X252986775Y-125202017D01*
X253006885Y-125188424D01*
X253027502Y-125175641D01*
X253027988Y-125174162D01*
X253029280Y-125173289D01*
X253040676Y-125149866D01*
X253079216Y-125014976D01*
X253312609Y-125014976D01*
X253314142Y-125019189D01*
X253313101Y-125023551D01*
X253320527Y-125048517D01*
X253358623Y-125124708D01*
X253366776Y-125132427D01*
X253371243Y-125142732D01*
X253392164Y-125158249D01*
X253468354Y-125196344D01*
X253472807Y-125196856D01*
X253476243Y-125199739D01*
X253501895Y-125204262D01*
X253654276Y-125204262D01*
X253658488Y-125202728D01*
X253662850Y-125203771D01*
X253687817Y-125196344D01*
X253764008Y-125158249D01*
X253791453Y-125129262D01*
X254036419Y-125129262D01*
X254053966Y-125177471D01*
X254098395Y-125203123D01*
X254148919Y-125194214D01*
X254181896Y-125154914D01*
X254186419Y-125129262D01*
X254186419Y-124766014D01*
X254211153Y-124716546D01*
X254232036Y-124695662D01*
X254281505Y-124670928D01*
X254339990Y-124670928D01*
X254388199Y-124653381D01*
X254413851Y-124608952D01*
X254404942Y-124558428D01*
X254365642Y-124525451D01*
X254339990Y-124520928D01*
X254263800Y-124520928D01*
X254259586Y-124522461D01*
X254255225Y-124521420D01*
X254230258Y-124528846D01*
X254172512Y-124557719D01*
X254168872Y-124547719D01*
X254124443Y-124522067D01*
X254073919Y-124530976D01*
X254040942Y-124570276D01*
X254036419Y-124595928D01*
X254036419Y-125129262D01*
X253791453Y-125129262D01*
X253799280Y-125120995D01*
X253802355Y-125069785D01*
X253771792Y-125028579D01*
X253721893Y-125016658D01*
X253696926Y-125024085D01*
X253636571Y-125054262D01*
X253519600Y-125054262D01*
X253481606Y-125035265D01*
X253462609Y-124997270D01*
X253462609Y-124924080D01*
X253783270Y-124859949D01*
X253793857Y-124853509D01*
X253806062Y-124851357D01*
X253815096Y-124840590D01*
X253827102Y-124833288D01*
X253831072Y-124821550D01*
X253839039Y-124812057D01*
X253843562Y-124786405D01*
X253843562Y-124710214D01*
X253842028Y-124706000D01*
X253843070Y-124701640D01*
X253835644Y-124676673D01*
X253797549Y-124600483D01*
X253789394Y-124592762D01*
X253784929Y-124582460D01*
X253764008Y-124566942D01*
X253687817Y-124528846D01*
X253683363Y-124528333D01*
X253679928Y-124525451D01*
X253654276Y-124520928D01*
X253501895Y-124520928D01*
X253497680Y-124522461D01*
X253493319Y-124521420D01*
X253468353Y-124528847D01*
X253392163Y-124566942D01*
X253384442Y-124575096D01*
X253374141Y-124579562D01*
X253358623Y-124600483D01*
X253320527Y-124676672D01*
X253320014Y-124681126D01*
X253317132Y-124684562D01*
X253312609Y-124710214D01*
X253312609Y-125014976D01*
X253079216Y-125014976D01*
X253193057Y-124616532D01*
X253189430Y-124565357D01*
X253153757Y-124528487D01*
X253102730Y-124523173D01*
X253060225Y-124551901D01*
X253048829Y-124575324D01*
X252956718Y-124897709D01*
X252885817Y-124720455D01*
X252870203Y-124702994D01*
X252855705Y-124684568D01*
X252853273Y-124684059D01*
X252851620Y-124682211D01*
X252828435Y-124678870D01*
X252805486Y-124674075D01*
X252803298Y-124675247D01*
X252800842Y-124674894D01*
X252780930Y-124687240D01*
X252760272Y-124698317D01*
X252758525Y-124701133D01*
X252757241Y-124701930D01*
X252756348Y-124704644D01*
X252746545Y-124720455D01*
X252675643Y-124897709D01*
X252583533Y-124575324D01*
X252553417Y-124533790D01*
X252503651Y-124521331D01*
X252457518Y-124543777D01*
X252436607Y-124590624D01*
X252231228Y-124590624D01*
X252221595Y-124580991D01*
X252220110Y-124580298D01*
X252202103Y-124566942D01*
X252125912Y-124528846D01*
X252121458Y-124528333D01*
X252118023Y-124525451D01*
X252092371Y-124520928D01*
X251978085Y-124520928D01*
X251973870Y-124522461D01*
X251969509Y-124521420D01*
X251944543Y-124528847D01*
X251868353Y-124566942D01*
X251867225Y-124568133D01*
X251848862Y-124580991D01*
X251810767Y-124619086D01*
X251810074Y-124620570D01*
X251796718Y-124638578D01*
X251758622Y-124714767D01*
X251758109Y-124719221D01*
X251755227Y-124722657D01*
X251750704Y-124748309D01*
X251750704Y-124976881D01*
X251138800Y-124976881D01*
X251138800Y-124823309D01*
X251368562Y-124823309D01*
X251372775Y-124821775D01*
X251377136Y-124822817D01*
X251402103Y-124815391D01*
X251478293Y-124777296D01*
X251479418Y-124776106D01*
X251497785Y-124763247D01*
X251535880Y-124725152D01*
X251536572Y-124723666D01*
X251549929Y-124705660D01*
X251588025Y-124629470D01*
X251588537Y-124625015D01*
X251591420Y-124621580D01*
X251595943Y-124595928D01*
X251595943Y-124481643D01*
X251594409Y-124477429D01*
X251595451Y-124473068D01*
X251588025Y-124448101D01*
X251549929Y-124371911D01*
X251548739Y-124370785D01*
X251535880Y-124352419D01*
X251497785Y-124314324D01*
X251496303Y-124313633D01*
X251478293Y-124300275D01*
X251402103Y-124262180D01*
X251397649Y-124261667D01*
X251394214Y-124258785D01*
X251368562Y-124254262D01*
X251063800Y-124254262D01*
X251045491Y-124260925D01*
X251026300Y-124264310D01*
X251021949Y-124269494D01*
X251015591Y-124271809D01*
X251005848Y-124288682D01*
X250993323Y-124303610D01*
X250991605Y-124313352D01*
X250989939Y-124316238D01*
X250990517Y-124319520D01*
X250988800Y-124329262D01*
X250988800Y-125129262D01*
X250874514Y-125129262D01*
X250874514Y-124139976D01*
X254528137Y-124139976D01*
X254528137Y-125318548D01*
G37*
G36*
X252124135Y-124695663D02*
G01*
X252145018Y-124716546D01*
X252169752Y-124766014D01*
X252169752Y-124959176D01*
X252145017Y-125008644D01*
X252124134Y-125029528D01*
X252074666Y-125054262D01*
X251995790Y-125054262D01*
X251946322Y-125029528D01*
X251925438Y-125008643D01*
X251900704Y-124959175D01*
X251900704Y-124766015D01*
X251925438Y-124716547D01*
X251946321Y-124695663D01*
X251995791Y-124670928D01*
X252074666Y-124670928D01*
X252124135Y-124695663D01*
G37*
G36*
X253674565Y-124689925D02*
G01*
X253692198Y-124725191D01*
X253462609Y-124771109D01*
X253462609Y-124727920D01*
X253481605Y-124689926D01*
X253519601Y-124670928D01*
X253636571Y-124670928D01*
X253674565Y-124689925D01*
G37*
G36*
X251400325Y-124428996D02*
G01*
X251421208Y-124449879D01*
X251445943Y-124499348D01*
X251445943Y-124578222D01*
X251421208Y-124627691D01*
X251400325Y-124648575D01*
X251350857Y-124673309D01*
X251138800Y-124673309D01*
X251138800Y-124404262D01*
X251350857Y-124404262D01*
X251400325Y-124428996D01*
G37*
G36*
X254528137Y-125318548D02*
G01*
X250874514Y-125318548D01*
X250874514Y-125129262D01*
X250988800Y-125129262D01*
X251006347Y-125177471D01*
X251050776Y-125203123D01*
X251101300Y-125194214D01*
X251134277Y-125154914D01*
X251138800Y-125129262D01*
X251138800Y-124976881D01*
X251750704Y-124976881D01*
X251752237Y-124981094D01*
X251751196Y-124985456D01*
X251758622Y-125010423D01*
X251796718Y-125086612D01*
X251797906Y-125087737D01*
X251810766Y-125106103D01*
X251848861Y-125144199D01*
X251850342Y-125144889D01*
X251868354Y-125158249D01*
X251944544Y-125196344D01*
X251948997Y-125196856D01*
X251952433Y-125199739D01*
X251978085Y-125204262D01*
X252092371Y-125204262D01*
X252096583Y-125202728D01*
X252100945Y-125203771D01*
X252125912Y-125196344D01*
X252202103Y-125158249D01*
X252203227Y-125157061D01*
X252221596Y-125144199D01*
X252259691Y-125106103D01*
X252260382Y-125104620D01*
X252273739Y-125086612D01*
X252311834Y-125010422D01*
X252312346Y-125005968D01*
X252315229Y-125002533D01*
X252319752Y-124976881D01*
X252319752Y-124748309D01*
X252318218Y-124744095D01*
X252319260Y-124739735D01*
X252311834Y-124714768D01*
X252273739Y-124638578D01*
X252272549Y-124637452D01*
X252259690Y-124619086D01*
X252231228Y-124590624D01*
X252436607Y-124590624D01*
X252439305Y-124616532D01*
X252591686Y-125149866D01*
X252592600Y-125151127D01*
X252592552Y-125152685D01*
X252607562Y-125171761D01*
X252621802Y-125191400D01*
X252623312Y-125191778D01*
X252624276Y-125193003D01*
X252648031Y-125197966D01*
X252671568Y-125203859D01*
X252672969Y-125203177D01*
X252674495Y-125203496D01*
X252695883Y-125192028D01*
X252717701Y-125181413D01*
X252718336Y-125179990D01*
X252719709Y-125179254D01*
X252733436Y-125157116D01*
X252816181Y-124950253D01*
X252898926Y-125157116D01*
X252899965Y-125158278D01*
X252900076Y-125159833D01*
X252916951Y-125177275D01*
X252933123Y-125195361D01*
X252934664Y-125195583D01*
X252935748Y-125196703D01*
X252959880Y-125199216D01*
X252983901Y-125202677D01*
X252985225Y-125201855D01*
X252986775Y-125202017D01*
X253006885Y-125188424D01*
X253027502Y-125175641D01*
X253027988Y-125174162D01*
X253029280Y-125173289D01*
X253040676Y-125149866D01*
X253079216Y-125014976D01*
X253312609Y-125014976D01*
X253314142Y-125019189D01*
X253313101Y-125023551D01*
X253320527Y-125048517D01*
X253358623Y-125124708D01*
X253366776Y-125132427D01*
X253371243Y-125142732D01*
X253392164Y-125158249D01*
X253468354Y-125196344D01*
X253472807Y-125196856D01*
X253476243Y-125199739D01*
X253501895Y-125204262D01*
X253654276Y-125204262D01*
X253658488Y-125202728D01*
X253662850Y-125203771D01*
X253687817Y-125196344D01*
X253764008Y-125158249D01*
X253791453Y-125129262D01*
X254036419Y-125129262D01*
X254053966Y-125177471D01*
X254098395Y-125203123D01*
X254148919Y-125194214D01*
X254181896Y-125154914D01*
X254186419Y-125129262D01*
X254186419Y-124766014D01*
X254211153Y-124716546D01*
X254232036Y-124695662D01*
X254281505Y-124670928D01*
X254339990Y-124670928D01*
X254388199Y-124653381D01*
X254413851Y-124608952D01*
X254404942Y-124558428D01*
X254365642Y-124525451D01*
X254339990Y-124520928D01*
X254263800Y-124520928D01*
X254259586Y-124522461D01*
X254255225Y-124521420D01*
X254230258Y-124528846D01*
X254172512Y-124557719D01*
X254168872Y-124547719D01*
X254124443Y-124522067D01*
X254073919Y-124530976D01*
X254040942Y-124570276D01*
X254036419Y-124595928D01*
X254036419Y-125129262D01*
X253791453Y-125129262D01*
X253799280Y-125120995D01*
X253802355Y-125069785D01*
X253771792Y-125028579D01*
X253721893Y-125016658D01*
X253696926Y-125024085D01*
X253636571Y-125054262D01*
X253519600Y-125054262D01*
X253481606Y-125035265D01*
X253462609Y-124997270D01*
X253462609Y-124924080D01*
X253783270Y-124859949D01*
X253793857Y-124853509D01*
X253806062Y-124851357D01*
X253815096Y-124840590D01*
X253827102Y-124833288D01*
X253831072Y-124821550D01*
X253839039Y-124812057D01*
X253843562Y-124786405D01*
X253843562Y-124710214D01*
X253842028Y-124706000D01*
X253843070Y-124701640D01*
X253835644Y-124676673D01*
X253797549Y-124600483D01*
X253789394Y-124592762D01*
X253784929Y-124582460D01*
X253764008Y-124566942D01*
X253687817Y-124528846D01*
X253683363Y-124528333D01*
X253679928Y-124525451D01*
X253654276Y-124520928D01*
X253501895Y-124520928D01*
X253497680Y-124522461D01*
X253493319Y-124521420D01*
X253468353Y-124528847D01*
X253392163Y-124566942D01*
X253384442Y-124575096D01*
X253374141Y-124579562D01*
X253358623Y-124600483D01*
X253320527Y-124676672D01*
X253320014Y-124681126D01*
X253317132Y-124684562D01*
X253312609Y-124710214D01*
X253312609Y-125014976D01*
X253079216Y-125014976D01*
X253193057Y-124616532D01*
X253189430Y-124565357D01*
X253153757Y-124528487D01*
X253102730Y-124523173D01*
X253060225Y-124551901D01*
X253048829Y-124575324D01*
X252956718Y-124897709D01*
X252885817Y-124720455D01*
X252870203Y-124702994D01*
X252855705Y-124684568D01*
X252853273Y-124684059D01*
X252851620Y-124682211D01*
X252828435Y-124678870D01*
X252805486Y-124674075D01*
X252803298Y-124675247D01*
X252800842Y-124674894D01*
X252780930Y-124687240D01*
X252760272Y-124698317D01*
X252758525Y-124701133D01*
X252757241Y-124701930D01*
X252756348Y-124704644D01*
X252746545Y-124720455D01*
X252675643Y-124897709D01*
X252583533Y-124575324D01*
X252553417Y-124533790D01*
X252503651Y-124521331D01*
X252457518Y-124543777D01*
X252436607Y-124590624D01*
X252231228Y-124590624D01*
X252221595Y-124580991D01*
X252220110Y-124580298D01*
X252202103Y-124566942D01*
X252125912Y-124528846D01*
X252121458Y-124528333D01*
X252118023Y-124525451D01*
X252092371Y-124520928D01*
X251978085Y-124520928D01*
X251973870Y-124522461D01*
X251969509Y-124521420D01*
X251944543Y-124528847D01*
X251868353Y-124566942D01*
X251867225Y-124568133D01*
X251848862Y-124580991D01*
X251810767Y-124619086D01*
X251810074Y-124620570D01*
X251796718Y-124638578D01*
X251758622Y-124714767D01*
X251758109Y-124719221D01*
X251755227Y-124722657D01*
X251750704Y-124748309D01*
X251750704Y-124976881D01*
X251138800Y-124976881D01*
X251138800Y-124823309D01*
X251368562Y-124823309D01*
X251372775Y-124821775D01*
X251377136Y-124822817D01*
X251402103Y-124815391D01*
X251478293Y-124777296D01*
X251479418Y-124776106D01*
X251497785Y-124763247D01*
X251535880Y-124725152D01*
X251536572Y-124723666D01*
X251549929Y-124705660D01*
X251588025Y-124629470D01*
X251588537Y-124625015D01*
X251591420Y-124621580D01*
X251595943Y-124595928D01*
X251595943Y-124481643D01*
X251594409Y-124477429D01*
X251595451Y-124473068D01*
X251588025Y-124448101D01*
X251549929Y-124371911D01*
X251548739Y-124370785D01*
X251535880Y-124352419D01*
X251497785Y-124314324D01*
X251496303Y-124313633D01*
X251478293Y-124300275D01*
X251402103Y-124262180D01*
X251397649Y-124261667D01*
X251394214Y-124258785D01*
X251368562Y-124254262D01*
X251063800Y-124254262D01*
X251045491Y-124260925D01*
X251026300Y-124264310D01*
X251021949Y-124269494D01*
X251015591Y-124271809D01*
X251005848Y-124288682D01*
X250993323Y-124303610D01*
X250991605Y-124313352D01*
X250989939Y-124316238D01*
X250990517Y-124319520D01*
X250988800Y-124329262D01*
X250988800Y-125129262D01*
X250874514Y-125129262D01*
X250874514Y-124139976D01*
X254528137Y-124139976D01*
X254528137Y-125318548D01*
G37*
D11*
G36*
X248956942Y-154151037D02*
G01*
X249040169Y-154234264D01*
X249087608Y-154424019D01*
X249087608Y-154799399D01*
X249040169Y-154989155D01*
X248956942Y-155072381D01*
X248878287Y-155111709D01*
X248696929Y-155111709D01*
X248618273Y-155072381D01*
X248535046Y-154989154D01*
X248487608Y-154799399D01*
X248487608Y-154424019D01*
X248535046Y-154234264D01*
X248618273Y-154151037D01*
X248696929Y-154111709D01*
X248878286Y-154111709D01*
X248956942Y-154151037D01*
G37*
G36*
X256099801Y-154151037D02*
G01*
X256133994Y-154185230D01*
X256178971Y-154275184D01*
X256230466Y-154481162D01*
X256230466Y-154742256D01*
X256178971Y-154948234D01*
X256133994Y-155038188D01*
X256099801Y-155072381D01*
X256021145Y-155111709D01*
X255954073Y-155111709D01*
X255875416Y-155072381D01*
X255841223Y-155038187D01*
X255796246Y-154948233D01*
X255744752Y-154742257D01*
X255744752Y-154481162D01*
X255796246Y-154275186D01*
X255841223Y-154185231D01*
X255875415Y-154151038D01*
X255954073Y-154111709D01*
X256021145Y-154111709D01*
X256099801Y-154151037D01*
G37*
G36*
X258316181Y-155483138D02*
G01*
X246973322Y-155483138D01*
X246973322Y-154354567D01*
X247144751Y-154354567D01*
X247151874Y-154376490D01*
X247155308Y-154399289D01*
X247212452Y-154513574D01*
X247223824Y-154525120D01*
X247231183Y-154539563D01*
X247288326Y-154596705D01*
X247302765Y-154604062D01*
X247314315Y-154615438D01*
X247428601Y-154672581D01*
X247439621Y-154674240D01*
X247449068Y-154680152D01*
X247666989Y-154734632D01*
X247756944Y-154779609D01*
X247791135Y-154813800D01*
X247830465Y-154892458D01*
X247830465Y-154959530D01*
X247791135Y-155038189D01*
X247756944Y-155072380D01*
X247678287Y-155111709D01*
X247432407Y-155111709D01*
X247276373Y-155059699D01*
X247214571Y-155059229D01*
X247164297Y-155095176D01*
X247144753Y-155153809D01*
X247163405Y-155212730D01*
X247213129Y-155249435D01*
X247384558Y-155306578D01*
X247400766Y-155306701D01*
X247416180Y-155311709D01*
X247701894Y-155311709D01*
X247723817Y-155304585D01*
X247746615Y-155301152D01*
X247860901Y-155244010D01*
X247872450Y-155232635D01*
X247886891Y-155225277D01*
X247944034Y-155168134D01*
X247951392Y-155153691D01*
X247962765Y-155142145D01*
X248019908Y-155027859D01*
X248023341Y-155005061D01*
X248030465Y-154983138D01*
X248030465Y-154868852D01*
X248023341Y-154846928D01*
X248019908Y-154824131D01*
X248013697Y-154811709D01*
X248287608Y-154811709D01*
X248291454Y-154823546D01*
X248290594Y-154835963D01*
X248347737Y-155064535D01*
X248361909Y-155087183D01*
X248374040Y-155110992D01*
X248488326Y-155225278D01*
X248502769Y-155232637D01*
X248514316Y-155244010D01*
X248628601Y-155301152D01*
X248651398Y-155304585D01*
X248673322Y-155311709D01*
X248901894Y-155311709D01*
X248923817Y-155304585D01*
X248946615Y-155301152D01*
X249060900Y-155244010D01*
X249072447Y-155232636D01*
X249086890Y-155225278D01*
X249201176Y-155110992D01*
X249213309Y-155087180D01*
X249227479Y-155064535D01*
X249284622Y-154835962D01*
X249283761Y-154823546D01*
X249287608Y-154811709D01*
X249287608Y-154697424D01*
X249544751Y-154697424D01*
X249548597Y-154709261D01*
X249547737Y-154721678D01*
X249604880Y-154950249D01*
X249610791Y-154959695D01*
X249612451Y-154970716D01*
X249669594Y-155085003D01*
X249680968Y-155096551D01*
X249688326Y-155110991D01*
X249802611Y-155225277D01*
X249823152Y-155235743D01*
X249841700Y-155249435D01*
X250013129Y-155306578D01*
X250029337Y-155306701D01*
X250044751Y-155311709D01*
X250159037Y-155311709D01*
X250174452Y-155306700D01*
X250190659Y-155306577D01*
X250362088Y-155249435D01*
X250380634Y-155235744D01*
X250401176Y-155225278D01*
X250414745Y-155211709D01*
X250801894Y-155211709D01*
X250820992Y-155270488D01*
X250870992Y-155306815D01*
X250932796Y-155306815D01*
X250982796Y-155270488D01*
X251001894Y-155211709D01*
X251001894Y-154983138D01*
X251373323Y-154983138D01*
X251380446Y-155005061D01*
X251383880Y-155027859D01*
X251441023Y-155142146D01*
X251452397Y-155153693D01*
X251459755Y-155168135D01*
X251516898Y-155225277D01*
X251531339Y-155232635D01*
X251542888Y-155244010D01*
X251657173Y-155301152D01*
X251679970Y-155304585D01*
X251701894Y-155311709D01*
X251930466Y-155311709D01*
X251952389Y-155304585D01*
X251975187Y-155301152D01*
X252089472Y-155244010D01*
X252101019Y-155232636D01*
X252115462Y-155225278D01*
X252172604Y-155168135D01*
X252179962Y-155153693D01*
X252191337Y-155142145D01*
X252248480Y-155027859D01*
X252251913Y-155005061D01*
X252259037Y-154983138D01*
X252259037Y-154354567D01*
X252573323Y-154354567D01*
X252580446Y-154376490D01*
X252583880Y-154399289D01*
X252641024Y-154513574D01*
X252652396Y-154525120D01*
X252659755Y-154539563D01*
X252716898Y-154596705D01*
X252731337Y-154604062D01*
X252742887Y-154615438D01*
X252857173Y-154672581D01*
X252868193Y-154674240D01*
X252877640Y-154680152D01*
X253095561Y-154734632D01*
X253185516Y-154779609D01*
X253219707Y-154813800D01*
X253259037Y-154892458D01*
X253259037Y-154959530D01*
X253219707Y-155038189D01*
X253185516Y-155072380D01*
X253106859Y-155111709D01*
X252860979Y-155111709D01*
X252704945Y-155059699D01*
X252643143Y-155059229D01*
X252592869Y-155095176D01*
X252573325Y-155153809D01*
X252591977Y-155212730D01*
X252641701Y-155249435D01*
X252813130Y-155306578D01*
X252829338Y-155306701D01*
X252844752Y-155311709D01*
X253130466Y-155311709D01*
X253152389Y-155304585D01*
X253175187Y-155301152D01*
X253289473Y-155244010D01*
X253301022Y-155232635D01*
X253315463Y-155225277D01*
X253372606Y-155168134D01*
X253379964Y-155153691D01*
X253391337Y-155142145D01*
X253448480Y-155027859D01*
X253451913Y-155005061D01*
X253459037Y-154983138D01*
X253459037Y-154868852D01*
X253451913Y-154846928D01*
X253448480Y-154824131D01*
X253391337Y-154709845D01*
X253379963Y-154698298D01*
X253372606Y-154683857D01*
X253315463Y-154626714D01*
X253301023Y-154619356D01*
X253289474Y-154607981D01*
X253175187Y-154550838D01*
X253164166Y-154549178D01*
X253154720Y-154543267D01*
X252936796Y-154488786D01*
X252846843Y-154443808D01*
X252812651Y-154409615D01*
X252799626Y-154383565D01*
X254577365Y-154383565D01*
X254579149Y-154445343D01*
X254864863Y-155245343D01*
X254882062Y-155267633D01*
X254897948Y-155290881D01*
X254900780Y-155291892D01*
X254902618Y-155294274D01*
X254929636Y-155302198D01*
X254956151Y-155311668D01*
X254959037Y-155310821D01*
X254961923Y-155311668D01*
X254988437Y-155302198D01*
X255015456Y-155294274D01*
X255017293Y-155291892D01*
X255020126Y-155290881D01*
X255036014Y-155267629D01*
X255053211Y-155245343D01*
X255228489Y-154754567D01*
X255544752Y-154754567D01*
X255548598Y-154766404D01*
X255547738Y-154778821D01*
X255604881Y-155007392D01*
X255610792Y-155016838D01*
X255612452Y-155027859D01*
X255669595Y-155142146D01*
X255680969Y-155153693D01*
X255688327Y-155168135D01*
X255745470Y-155225277D01*
X255759911Y-155232635D01*
X255771460Y-155244010D01*
X255885745Y-155301152D01*
X255908542Y-155304585D01*
X255930466Y-155311709D01*
X256044752Y-155311709D01*
X256066675Y-155304585D01*
X256089473Y-155301152D01*
X256203759Y-155244010D01*
X256215306Y-155232636D01*
X256229749Y-155225278D01*
X256284815Y-155170211D01*
X256688840Y-155170211D01*
X256696030Y-155184322D01*
X256698508Y-155199966D01*
X256709708Y-155211166D01*
X256716899Y-155225278D01*
X256774042Y-155282421D01*
X256788153Y-155289610D01*
X256799352Y-155300810D01*
X256807322Y-155302072D01*
X256813850Y-155306815D01*
X256821919Y-155306815D01*
X256829110Y-155310479D01*
X256844752Y-155308001D01*
X256860394Y-155310479D01*
X256867585Y-155306815D01*
X256875654Y-155306815D01*
X256882181Y-155302072D01*
X256890152Y-155300810D01*
X256901352Y-155289609D01*
X256915462Y-155282420D01*
X256972605Y-155225278D01*
X256979795Y-155211166D01*
X256990996Y-155199966D01*
X256993473Y-155184322D01*
X257000664Y-155170211D01*
X256998186Y-155154566D01*
X257000664Y-155138923D01*
X256993474Y-155124813D01*
X256991614Y-155113067D01*
X257203126Y-155113067D01*
X257231184Y-155168135D01*
X257288327Y-155225277D01*
X257302767Y-155232635D01*
X257314317Y-155244010D01*
X257428603Y-155301152D01*
X257451400Y-155304585D01*
X257473324Y-155311709D01*
X257816181Y-155311709D01*
X257838104Y-155304585D01*
X257860902Y-155301152D01*
X257975188Y-155244010D01*
X257986737Y-155232635D01*
X258001178Y-155225277D01*
X258058321Y-155168134D01*
X258065679Y-155153691D01*
X258077052Y-155142145D01*
X258134195Y-155027859D01*
X258137628Y-155005061D01*
X258144752Y-154983138D01*
X258144752Y-154697424D01*
X258137628Y-154675500D01*
X258134195Y-154652703D01*
X258077052Y-154538417D01*
X258065679Y-154526870D01*
X258058321Y-154512428D01*
X258001178Y-154455285D01*
X257986738Y-154447927D01*
X257975189Y-154436552D01*
X257860902Y-154379409D01*
X257856474Y-154378742D01*
X258120010Y-154077559D01*
X258127971Y-154058971D01*
X258139858Y-154042611D01*
X258139858Y-154031219D01*
X258144343Y-154020748D01*
X258139858Y-154001029D01*
X258139858Y-153980807D01*
X258133162Y-153971591D01*
X258130636Y-153960484D01*
X258115417Y-153947167D01*
X258103531Y-153930807D01*
X258092697Y-153927287D01*
X258084124Y-153919785D01*
X258063981Y-153917957D01*
X258044752Y-153911709D01*
X257301895Y-153911709D01*
X257243116Y-153930807D01*
X257206789Y-153980807D01*
X257206789Y-154042611D01*
X257243116Y-154092611D01*
X257301895Y-154111709D01*
X257824375Y-154111709D01*
X257569494Y-154403002D01*
X257561532Y-154421589D01*
X257549646Y-154437950D01*
X257549646Y-154449341D01*
X257545161Y-154459813D01*
X257549646Y-154479531D01*
X257549646Y-154499754D01*
X257556341Y-154508969D01*
X257558868Y-154520077D01*
X257574086Y-154533393D01*
X257585973Y-154549754D01*
X257596806Y-154553273D01*
X257605380Y-154560776D01*
X257625522Y-154562603D01*
X257644752Y-154568852D01*
X257792574Y-154568852D01*
X257871231Y-154608180D01*
X257905422Y-154642372D01*
X257944752Y-154721031D01*
X257944752Y-154959530D01*
X257905422Y-155038189D01*
X257871231Y-155072380D01*
X257792574Y-155111709D01*
X257496931Y-155111709D01*
X257418273Y-155072380D01*
X257372606Y-155026713D01*
X257317538Y-154998655D01*
X257256496Y-155008323D01*
X257212794Y-155052025D01*
X257203126Y-155113067D01*
X256991614Y-155113067D01*
X256990997Y-155109168D01*
X256979794Y-155097965D01*
X256972605Y-155083856D01*
X256915463Y-155026713D01*
X256901350Y-155019522D01*
X256890151Y-155008323D01*
X256882182Y-155007060D01*
X256875654Y-155002318D01*
X256867584Y-155002318D01*
X256860395Y-154998655D01*
X256844751Y-155001132D01*
X256829108Y-154998655D01*
X256821919Y-155002318D01*
X256813850Y-155002318D01*
X256807322Y-155007060D01*
X256799353Y-155008323D01*
X256788152Y-155019523D01*
X256774041Y-155026714D01*
X256716898Y-155083856D01*
X256709707Y-155097968D01*
X256698507Y-155109169D01*
X256696029Y-155124813D01*
X256688840Y-155138924D01*
X256691317Y-155154566D01*
X256688840Y-155170211D01*
X256284815Y-155170211D01*
X256286891Y-155168135D01*
X256294249Y-155153694D01*
X256305624Y-155142145D01*
X256362766Y-155027859D01*
X256364425Y-155016838D01*
X256370337Y-155007392D01*
X256427480Y-154778820D01*
X256426619Y-154766404D01*
X256430466Y-154754567D01*
X256430466Y-154468852D01*
X256426619Y-154457014D01*
X256427480Y-154444599D01*
X256370337Y-154216027D01*
X256364425Y-154206580D01*
X256362766Y-154195560D01*
X256305624Y-154081274D01*
X256294249Y-154069724D01*
X256286891Y-154055284D01*
X256229749Y-153998141D01*
X256215307Y-153990783D01*
X256203760Y-153979409D01*
X256089473Y-153922266D01*
X256066675Y-153918832D01*
X256044752Y-153911709D01*
X255930466Y-153911709D01*
X255908542Y-153918832D01*
X255885745Y-153922266D01*
X255771459Y-153979409D01*
X255759909Y-153990784D01*
X255745470Y-153998142D01*
X255688327Y-154055284D01*
X255680969Y-154069725D01*
X255669595Y-154081273D01*
X255612452Y-154195560D01*
X255610792Y-154206580D01*
X255604881Y-154216027D01*
X255547738Y-154444598D01*
X255548598Y-154457014D01*
X255544752Y-154468852D01*
X255544752Y-154754567D01*
X255228489Y-154754567D01*
X255338926Y-154445343D01*
X255340710Y-154383565D01*
X255305841Y-154332537D01*
X255247638Y-154311750D01*
X255188333Y-154329144D01*
X255150578Y-154378075D01*
X254959037Y-154914388D01*
X254767497Y-154378075D01*
X254729742Y-154329144D01*
X254670437Y-154311750D01*
X254612234Y-154332537D01*
X254577365Y-154383565D01*
X252799626Y-154383565D01*
X252773323Y-154330959D01*
X252773323Y-154263888D01*
X252812651Y-154185231D01*
X252846843Y-154151038D01*
X252925501Y-154111709D01*
X253171382Y-154111709D01*
X253327414Y-154163720D01*
X253389216Y-154164190D01*
X253439490Y-154128243D01*
X253459034Y-154069611D01*
X253440383Y-154010689D01*
X253390660Y-153973984D01*
X253219232Y-153916841D01*
X253203024Y-153916717D01*
X253187609Y-153911709D01*
X252901894Y-153911709D01*
X252879970Y-153918832D01*
X252857173Y-153922266D01*
X252742887Y-153979409D01*
X252731337Y-153990784D01*
X252716898Y-153998142D01*
X252659755Y-154055284D01*
X252652397Y-154069725D01*
X252641023Y-154081273D01*
X252583880Y-154195560D01*
X252580446Y-154218357D01*
X252573323Y-154240281D01*
X252573323Y-154354567D01*
X252259037Y-154354567D01*
X252259037Y-154011709D01*
X252239939Y-153952930D01*
X252189939Y-153916603D01*
X252128135Y-153916603D01*
X252078135Y-153952930D01*
X252059037Y-154011709D01*
X252059037Y-154959530D01*
X252019708Y-155038188D01*
X251985514Y-155072381D01*
X251906859Y-155111709D01*
X251725501Y-155111709D01*
X251646844Y-155072381D01*
X251612651Y-155038187D01*
X251573323Y-154959531D01*
X251573323Y-154011709D01*
X251554225Y-153952930D01*
X251504225Y-153916603D01*
X251442421Y-153916603D01*
X251392421Y-153952930D01*
X251373323Y-154011709D01*
X251373323Y-154983138D01*
X251001894Y-154983138D01*
X251001894Y-154011709D01*
X250982796Y-153952930D01*
X250932796Y-153916603D01*
X250870992Y-153916603D01*
X250820992Y-153952930D01*
X250801894Y-154011709D01*
X250801894Y-155211709D01*
X250414745Y-155211709D01*
X250458318Y-155168135D01*
X250486377Y-155113068D01*
X250476709Y-155052025D01*
X250433007Y-155008323D01*
X250371964Y-154998655D01*
X250316897Y-155026714D01*
X250276446Y-155067163D01*
X250142811Y-155111709D01*
X250060978Y-155111709D01*
X249927340Y-155067164D01*
X249841223Y-154981046D01*
X249796245Y-154891090D01*
X249744751Y-154685114D01*
X249744751Y-154538305D01*
X249796245Y-154332329D01*
X249841223Y-154242372D01*
X249927340Y-154156254D01*
X250060978Y-154111709D01*
X250142810Y-154111709D01*
X250276445Y-154156254D01*
X250316897Y-154196705D01*
X250371964Y-154224764D01*
X250433007Y-154215096D01*
X250476709Y-154171394D01*
X250486377Y-154110351D01*
X250458318Y-154055284D01*
X250401176Y-153998141D01*
X250380634Y-153987674D01*
X250362088Y-153973984D01*
X250190660Y-153916841D01*
X250174452Y-153916717D01*
X250159037Y-153911709D01*
X250044751Y-153911709D01*
X250029335Y-153916717D01*
X250013128Y-153916841D01*
X249841699Y-153973984D01*
X249823150Y-153987676D01*
X249802611Y-153998142D01*
X249688326Y-154112428D01*
X249680968Y-154126867D01*
X249669594Y-154138416D01*
X249612451Y-154252703D01*
X249610791Y-154263723D01*
X249604880Y-154273170D01*
X249547737Y-154501741D01*
X249548597Y-154514157D01*
X249544751Y-154525995D01*
X249544751Y-154697424D01*
X249287608Y-154697424D01*
X249287608Y-154411709D01*
X249283761Y-154399871D01*
X249284622Y-154387456D01*
X249227479Y-154158884D01*
X249213309Y-154136238D01*
X249201176Y-154112427D01*
X249086890Y-153998141D01*
X249072447Y-153990782D01*
X249060901Y-153979410D01*
X248946616Y-153922266D01*
X248923817Y-153918832D01*
X248901894Y-153911709D01*
X248673322Y-153911709D01*
X248651398Y-153918832D01*
X248628601Y-153922266D01*
X248514315Y-153979409D01*
X248502767Y-153990782D01*
X248488326Y-153998141D01*
X248374040Y-154112427D01*
X248361909Y-154136235D01*
X248347737Y-154158884D01*
X248290594Y-154387455D01*
X248291454Y-154399871D01*
X248287608Y-154411709D01*
X248287608Y-154811709D01*
X248013697Y-154811709D01*
X247962765Y-154709845D01*
X247951391Y-154698298D01*
X247944034Y-154683857D01*
X247886891Y-154626714D01*
X247872451Y-154619356D01*
X247860902Y-154607981D01*
X247746615Y-154550838D01*
X247735594Y-154549178D01*
X247726148Y-154543267D01*
X247508224Y-154488786D01*
X247418271Y-154443808D01*
X247384079Y-154409615D01*
X247344751Y-154330959D01*
X247344751Y-154263888D01*
X247384079Y-154185231D01*
X247418271Y-154151038D01*
X247496929Y-154111709D01*
X247742810Y-154111709D01*
X247898842Y-154163720D01*
X247960644Y-154164190D01*
X248010918Y-154128243D01*
X248030462Y-154069611D01*
X248011811Y-154010689D01*
X247962088Y-153973984D01*
X247790660Y-153916841D01*
X247774452Y-153916717D01*
X247759037Y-153911709D01*
X247473322Y-153911709D01*
X247451398Y-153918832D01*
X247428601Y-153922266D01*
X247314315Y-153979409D01*
X247302765Y-153990784D01*
X247288326Y-153998142D01*
X247231183Y-154055284D01*
X247223825Y-154069725D01*
X247212451Y-154081273D01*
X247155308Y-154195560D01*
X247151874Y-154218357D01*
X247144751Y-154240281D01*
X247144751Y-154354567D01*
X246973322Y-154354567D01*
X246973322Y-153740280D01*
X258316181Y-153740280D01*
X258316181Y-155483138D01*
G37*
D10*
X254179401Y-149459262D02*
X253912734Y-149078309D01*
X253722258Y-149459262D02*
X253722258Y-148659262D01*
X253722258Y-148659262D02*
X254027020Y-148659262D01*
X254027020Y-148659262D02*
X254103210Y-148697357D01*
X254103210Y-148697357D02*
X254141305Y-148735452D01*
X254141305Y-148735452D02*
X254179401Y-148811643D01*
X254179401Y-148811643D02*
X254179401Y-148925928D01*
X254179401Y-148925928D02*
X254141305Y-149002119D01*
X254141305Y-149002119D02*
X254103210Y-149040214D01*
X254103210Y-149040214D02*
X254027020Y-149078309D01*
X254027020Y-149078309D02*
X253722258Y-149078309D01*
X254674639Y-148659262D02*
X254827020Y-148659262D01*
X254827020Y-148659262D02*
X254903210Y-148697357D01*
X254903210Y-148697357D02*
X254979401Y-148773547D01*
X254979401Y-148773547D02*
X255017496Y-148925928D01*
X255017496Y-148925928D02*
X255017496Y-149192595D01*
X255017496Y-149192595D02*
X254979401Y-149344976D01*
X254979401Y-149344976D02*
X254903210Y-149421167D01*
X254903210Y-149421167D02*
X254827020Y-149459262D01*
X254827020Y-149459262D02*
X254674639Y-149459262D01*
X254674639Y-149459262D02*
X254598448Y-149421167D01*
X254598448Y-149421167D02*
X254522258Y-149344976D01*
X254522258Y-149344976D02*
X254484162Y-149192595D01*
X254484162Y-149192595D02*
X254484162Y-148925928D01*
X254484162Y-148925928D02*
X254522258Y-148773547D01*
X254522258Y-148773547D02*
X254598448Y-148697357D01*
X254598448Y-148697357D02*
X254674639Y-148659262D01*
X255284162Y-148659262D02*
X255474638Y-149459262D01*
X255474638Y-149459262D02*
X255627019Y-148887833D01*
X255627019Y-148887833D02*
X255779400Y-149459262D01*
X255779400Y-149459262D02*
X255969877Y-148659262D01*
X256236543Y-148735452D02*
X256274639Y-148697357D01*
X256274639Y-148697357D02*
X256350829Y-148659262D01*
X256350829Y-148659262D02*
X256541305Y-148659262D01*
X256541305Y-148659262D02*
X256617496Y-148697357D01*
X256617496Y-148697357D02*
X256655591Y-148735452D01*
X256655591Y-148735452D02*
X256693686Y-148811643D01*
X256693686Y-148811643D02*
X256693686Y-148887833D01*
X256693686Y-148887833D02*
X256655591Y-149002119D01*
X256655591Y-149002119D02*
X256198448Y-149459262D01*
X256198448Y-149459262D02*
X256693686Y-149459262D01*
D11*
G36*
X252667514Y-138966966D02*
G01*
X252584531Y-138966966D01*
X252521172Y-138935287D01*
X252489494Y-138871930D01*
X252489494Y-138690573D01*
X252521172Y-138627216D01*
X252584530Y-138595538D01*
X252593229Y-138595538D01*
X252667514Y-138966966D01*
G37*
G36*
X253089494Y-135776286D02*
G01*
X253089494Y-136014788D01*
X253057816Y-136078144D01*
X252994459Y-136109823D01*
X252927388Y-136109823D01*
X252864029Y-136078144D01*
X252832352Y-136014788D01*
X252832352Y-135752680D01*
X252827711Y-135738395D01*
X253070548Y-135738395D01*
X253089494Y-135776286D01*
G37*
G36*
X253015974Y-133549153D02*
G01*
X253050166Y-133583345D01*
X253089494Y-133662001D01*
X253089494Y-133786217D01*
X253050166Y-133864873D01*
X253015972Y-133899066D01*
X252937316Y-133938395D01*
X252641674Y-133938395D01*
X252563015Y-133899066D01*
X252528822Y-133864872D01*
X252489494Y-133786216D01*
X252489494Y-133662002D01*
X252528822Y-133583344D01*
X252563014Y-133549153D01*
X252641674Y-133509824D01*
X252937316Y-133509824D01*
X253015974Y-133549153D01*
G37*
G36*
X253460923Y-142138395D02*
G01*
X251719296Y-142138395D01*
X251719296Y-141887321D01*
X251891587Y-141887321D01*
X251894388Y-141892222D01*
X251894388Y-141897868D01*
X251909499Y-141918667D01*
X251922251Y-141940982D01*
X251927396Y-141943300D01*
X251930715Y-141947868D01*
X251955161Y-141955811D01*
X251978598Y-141966371D01*
X251984125Y-141965221D01*
X251989494Y-141966966D01*
X253189494Y-141966966D01*
X253248273Y-141947868D01*
X253284600Y-141897868D01*
X253284600Y-141836064D01*
X253248273Y-141786064D01*
X253189494Y-141766966D01*
X252366050Y-141766966D01*
X253239108Y-141268076D01*
X253242903Y-141263898D01*
X253248273Y-141262154D01*
X253263384Y-141241355D01*
X253280667Y-141222332D01*
X253281282Y-141216720D01*
X253284600Y-141212154D01*
X253284600Y-141186450D01*
X253287401Y-141160897D01*
X253284600Y-141155995D01*
X253284600Y-141150350D01*
X253269488Y-141129550D01*
X253256737Y-141107236D01*
X253251591Y-141104917D01*
X253248273Y-141100350D01*
X253223826Y-141092406D01*
X253200390Y-141081847D01*
X253194862Y-141082996D01*
X253189494Y-141081252D01*
X251989494Y-141081252D01*
X251930715Y-141100350D01*
X251894388Y-141150350D01*
X251894388Y-141212154D01*
X251930715Y-141262154D01*
X251989494Y-141281252D01*
X252812938Y-141281252D01*
X251939880Y-141780142D01*
X251936084Y-141784319D01*
X251930715Y-141786064D01*
X251915603Y-141806862D01*
X251898321Y-141825886D01*
X251897705Y-141831497D01*
X251894388Y-141836064D01*
X251894388Y-141861767D01*
X251891587Y-141887321D01*
X251719296Y-141887321D01*
X251719296Y-140625466D01*
X251890725Y-140625466D01*
X251894388Y-140632655D01*
X251894388Y-140640725D01*
X251899130Y-140647252D01*
X251900393Y-140655222D01*
X251911592Y-140666421D01*
X251918783Y-140680534D01*
X251975926Y-140737676D01*
X251990037Y-140744866D01*
X252001238Y-140756067D01*
X252016881Y-140758544D01*
X252030993Y-140765735D01*
X252046636Y-140763257D01*
X252062280Y-140765735D01*
X252076392Y-140758544D01*
X252092036Y-140756067D01*
X252103235Y-140744867D01*
X252117348Y-140737677D01*
X252174490Y-140680534D01*
X252181680Y-140666422D01*
X252192881Y-140655222D01*
X252194143Y-140647253D01*
X252198886Y-140640725D01*
X252294388Y-140640725D01*
X252330715Y-140690725D01*
X252389494Y-140709823D01*
X253189494Y-140709823D01*
X253248273Y-140690725D01*
X253284600Y-140640725D01*
X253284600Y-140578921D01*
X253248273Y-140528921D01*
X253189494Y-140509823D01*
X252389494Y-140509823D01*
X252330715Y-140528921D01*
X252294388Y-140578921D01*
X252294388Y-140640725D01*
X252198886Y-140640725D01*
X252198886Y-140632655D01*
X252202549Y-140625467D01*
X252200071Y-140609823D01*
X252202549Y-140594179D01*
X252198886Y-140586990D01*
X252198886Y-140578921D01*
X252194143Y-140572392D01*
X252192881Y-140564424D01*
X252181680Y-140553223D01*
X252174490Y-140539112D01*
X252117348Y-140481969D01*
X252103235Y-140474778D01*
X252092036Y-140463579D01*
X252076392Y-140461101D01*
X252062280Y-140453911D01*
X252046636Y-140456388D01*
X252030993Y-140453911D01*
X252016881Y-140461101D01*
X252001238Y-140463579D01*
X251990037Y-140474779D01*
X251975926Y-140481970D01*
X251918783Y-140539112D01*
X251911592Y-140553224D01*
X251900393Y-140564424D01*
X251899130Y-140572393D01*
X251894388Y-140578921D01*
X251894388Y-140586990D01*
X251890725Y-140594180D01*
X251893202Y-140609823D01*
X251890725Y-140625466D01*
X251719296Y-140625466D01*
X251719296Y-139866966D01*
X252289494Y-139866966D01*
X252296617Y-139888889D01*
X252300051Y-139911688D01*
X252357195Y-140025973D01*
X252368567Y-140037519D01*
X252375926Y-140051962D01*
X252433069Y-140109104D01*
X252447510Y-140116462D01*
X252459059Y-140127837D01*
X252573345Y-140184980D01*
X252596142Y-140188413D01*
X252618066Y-140195537D01*
X252960923Y-140195537D01*
X252982846Y-140188413D01*
X253005644Y-140184980D01*
X253119931Y-140127837D01*
X253131478Y-140116462D01*
X253145920Y-140109105D01*
X253203062Y-140051962D01*
X253210420Y-140037520D01*
X253221795Y-140025972D01*
X253278937Y-139911687D01*
X253282370Y-139888889D01*
X253289494Y-139866966D01*
X253289494Y-139638394D01*
X253282370Y-139616470D01*
X253278937Y-139593673D01*
X253221795Y-139479388D01*
X253178426Y-139435355D01*
X253117459Y-139425224D01*
X253062180Y-139452863D01*
X253033704Y-139507716D01*
X253042909Y-139568830D01*
X253089494Y-139662000D01*
X253089494Y-139843359D01*
X253050166Y-139922015D01*
X253015972Y-139956208D01*
X252937316Y-139995537D01*
X252641674Y-139995537D01*
X252563015Y-139956208D01*
X252528822Y-139922014D01*
X252489494Y-139843358D01*
X252489494Y-139662002D01*
X252536080Y-139568830D01*
X252545285Y-139507716D01*
X252516810Y-139452863D01*
X252461531Y-139425224D01*
X252400563Y-139435355D01*
X252357195Y-139479387D01*
X252300051Y-139593672D01*
X252296617Y-139616470D01*
X252289494Y-139638394D01*
X252289494Y-139866966D01*
X251719296Y-139866966D01*
X251719296Y-138895538D01*
X252289494Y-138895538D01*
X252296617Y-138917461D01*
X252300051Y-138940260D01*
X252357195Y-139054545D01*
X252357752Y-139055110D01*
X252357883Y-139055897D01*
X252379385Y-139077075D01*
X252400563Y-139098577D01*
X252401349Y-139098707D01*
X252401916Y-139099266D01*
X252516202Y-139156409D01*
X252538999Y-139159842D01*
X252560923Y-139166966D01*
X253018066Y-139166966D01*
X253039989Y-139159842D01*
X253062787Y-139156409D01*
X253177074Y-139099266D01*
X253177641Y-139098707D01*
X253178426Y-139098577D01*
X253199588Y-139077090D01*
X253221106Y-139055897D01*
X253221236Y-139055110D01*
X253221795Y-139054544D01*
X253278937Y-138940259D01*
X253282370Y-138917461D01*
X253289494Y-138895538D01*
X253289494Y-138666966D01*
X253282370Y-138645042D01*
X253278937Y-138622245D01*
X253221795Y-138507959D01*
X253178427Y-138463926D01*
X253117460Y-138453795D01*
X253062180Y-138481434D01*
X253033704Y-138536286D01*
X253042909Y-138597401D01*
X253089494Y-138690572D01*
X253089494Y-138871931D01*
X253057816Y-138935287D01*
X252994459Y-138966966D01*
X252871474Y-138966966D01*
X252773267Y-138475926D01*
X252770315Y-138470667D01*
X252770315Y-138464636D01*
X252755419Y-138444134D01*
X252743013Y-138422034D01*
X252737532Y-138419514D01*
X252733988Y-138414636D01*
X252709886Y-138406805D01*
X252686859Y-138396219D01*
X252680945Y-138397401D01*
X252675209Y-138395538D01*
X252560923Y-138395538D01*
X252538999Y-138402661D01*
X252516202Y-138406095D01*
X252401916Y-138463237D01*
X252401349Y-138463795D01*
X252400563Y-138463926D01*
X252379385Y-138485426D01*
X252357883Y-138506605D01*
X252357752Y-138507391D01*
X252357194Y-138507958D01*
X252300051Y-138622245D01*
X252296617Y-138645042D01*
X252289494Y-138666966D01*
X252289494Y-138895538D01*
X251719296Y-138895538D01*
X251719296Y-137996895D01*
X251890725Y-137996895D01*
X251894388Y-138004084D01*
X251894388Y-138012154D01*
X251899130Y-138018681D01*
X251900393Y-138026651D01*
X251911592Y-138037850D01*
X251918783Y-138051963D01*
X251975926Y-138109105D01*
X251986805Y-138114648D01*
X251994780Y-138123899D01*
X252013688Y-138128346D01*
X252030993Y-138137164D01*
X252043054Y-138135253D01*
X252054942Y-138138050D01*
X252740657Y-138080907D01*
X252761842Y-138072017D01*
X252784210Y-138066756D01*
X252787027Y-138063487D01*
X252791131Y-138062154D01*
X252793667Y-138058662D01*
X252797647Y-138056993D01*
X252809562Y-138037346D01*
X252824563Y-138019945D01*
X252824921Y-138015645D01*
X252827458Y-138012154D01*
X252827458Y-138007839D01*
X252829696Y-138004149D01*
X252829091Y-137996895D01*
X252976440Y-137996895D01*
X252980103Y-138004084D01*
X252980103Y-138012154D01*
X252984845Y-138018681D01*
X252986108Y-138026651D01*
X252997307Y-138037850D01*
X253004498Y-138051963D01*
X253061641Y-138109105D01*
X253075751Y-138116295D01*
X253086954Y-138127497D01*
X253102598Y-138129974D01*
X253116708Y-138137164D01*
X253132351Y-138134686D01*
X253147996Y-138137164D01*
X253162107Y-138129973D01*
X253177751Y-138127496D01*
X253188951Y-138116295D01*
X253203063Y-138109105D01*
X253260206Y-138051962D01*
X253267395Y-138037851D01*
X253278595Y-138026652D01*
X253279857Y-138018681D01*
X253284600Y-138012154D01*
X253284600Y-138004085D01*
X253288264Y-137996894D01*
X253285786Y-137981252D01*
X253288264Y-137965610D01*
X253284600Y-137958418D01*
X253284600Y-137950350D01*
X253279857Y-137943822D01*
X253278595Y-137935852D01*
X253267395Y-137924652D01*
X253260206Y-137910542D01*
X253203063Y-137853399D01*
X253188951Y-137846208D01*
X253177751Y-137835008D01*
X253162107Y-137832530D01*
X253147996Y-137825340D01*
X253132351Y-137827817D01*
X253116708Y-137825340D01*
X253102598Y-137832529D01*
X253086954Y-137835007D01*
X253075751Y-137846208D01*
X253061641Y-137853399D01*
X253004498Y-137910541D01*
X252997307Y-137924653D01*
X252986108Y-137935853D01*
X252984845Y-137943822D01*
X252980103Y-137950350D01*
X252980103Y-137958419D01*
X252976440Y-137965609D01*
X252978917Y-137981252D01*
X252976440Y-137996895D01*
X252829091Y-137996895D01*
X252827787Y-137981252D01*
X252829696Y-137958355D01*
X252827458Y-137954664D01*
X252827458Y-137950350D01*
X252824921Y-137946858D01*
X252824563Y-137942559D01*
X252809562Y-137925157D01*
X252797647Y-137905511D01*
X252793667Y-137903841D01*
X252791131Y-137900350D01*
X252787027Y-137899016D01*
X252784210Y-137895748D01*
X252761842Y-137890486D01*
X252740657Y-137881597D01*
X252054942Y-137824454D01*
X252043054Y-137827250D01*
X252030993Y-137825340D01*
X252013688Y-137834157D01*
X251994780Y-137838605D01*
X251986805Y-137847855D01*
X251975926Y-137853399D01*
X251918783Y-137910541D01*
X251911592Y-137924653D01*
X251900393Y-137935853D01*
X251899130Y-137943822D01*
X251894388Y-137950350D01*
X251894388Y-137958419D01*
X251890725Y-137965609D01*
X251893202Y-137981252D01*
X251890725Y-137996895D01*
X251719296Y-137996895D01*
X251719296Y-137430178D01*
X251891587Y-137430178D01*
X251894388Y-137435079D01*
X251894388Y-137440725D01*
X251909499Y-137461524D01*
X251922251Y-137483839D01*
X251927396Y-137486157D01*
X251930715Y-137490725D01*
X251955161Y-137498668D01*
X251978598Y-137509228D01*
X251984125Y-137508078D01*
X251989494Y-137509823D01*
X253189494Y-137509823D01*
X253248273Y-137490725D01*
X253284600Y-137440725D01*
X253284600Y-137378921D01*
X253248273Y-137328921D01*
X253189494Y-137309823D01*
X252366050Y-137309823D01*
X253239108Y-136810933D01*
X253242903Y-136806755D01*
X253248273Y-136805011D01*
X253263384Y-136784212D01*
X253280667Y-136765189D01*
X253281282Y-136759577D01*
X253284600Y-136755011D01*
X253284600Y-136729307D01*
X253287401Y-136703754D01*
X253284600Y-136698852D01*
X253284600Y-136693207D01*
X253269488Y-136672407D01*
X253256737Y-136650093D01*
X253251591Y-136647774D01*
X253248273Y-136643207D01*
X253223826Y-136635263D01*
X253200390Y-136624704D01*
X253194862Y-136625853D01*
X253189494Y-136624109D01*
X251989494Y-136624109D01*
X251930715Y-136643207D01*
X251894388Y-136693207D01*
X251894388Y-136755011D01*
X251930715Y-136805011D01*
X251989494Y-136824109D01*
X252812938Y-136824109D01*
X251939880Y-137322999D01*
X251936084Y-137327176D01*
X251930715Y-137328921D01*
X251915603Y-137349719D01*
X251898321Y-137368743D01*
X251897705Y-137374354D01*
X251894388Y-137378921D01*
X251894388Y-137404624D01*
X251891587Y-137430178D01*
X251719296Y-137430178D01*
X251719296Y-136038395D01*
X252289494Y-136038395D01*
X252296617Y-136060318D01*
X252300051Y-136083117D01*
X252357195Y-136197402D01*
X252400563Y-136241434D01*
X252461531Y-136251565D01*
X252516810Y-136223926D01*
X252545285Y-136169073D01*
X252536080Y-136107959D01*
X252489494Y-136014787D01*
X252489494Y-135833430D01*
X252521172Y-135770073D01*
X252584530Y-135738395D01*
X252613406Y-135738395D01*
X252632352Y-135776286D01*
X252632352Y-136038395D01*
X252639475Y-136060318D01*
X252642909Y-136083116D01*
X252700051Y-136197401D01*
X252700609Y-136197967D01*
X252700740Y-136198754D01*
X252722225Y-136219915D01*
X252743419Y-136241434D01*
X252744206Y-136241564D01*
X252744773Y-136242123D01*
X252859059Y-136299266D01*
X252881856Y-136302699D01*
X252903780Y-136309823D01*
X253018066Y-136309823D01*
X253039989Y-136302699D01*
X253062787Y-136299266D01*
X253177074Y-136242123D01*
X253177641Y-136241564D01*
X253178426Y-136241434D01*
X253199588Y-136219947D01*
X253221106Y-136198754D01*
X253221236Y-136197967D01*
X253221795Y-136197401D01*
X253278937Y-136083116D01*
X253282370Y-136060318D01*
X253289494Y-136038395D01*
X253289494Y-135752680D01*
X253282370Y-135730756D01*
X253278937Y-135707959D01*
X253269794Y-135689674D01*
X253284600Y-135669297D01*
X253284600Y-135607493D01*
X253248273Y-135557493D01*
X253189494Y-135538395D01*
X252560923Y-135538395D01*
X252538999Y-135545518D01*
X252516202Y-135548952D01*
X252401916Y-135606094D01*
X252401349Y-135606652D01*
X252400563Y-135606783D01*
X252379385Y-135628283D01*
X252357883Y-135649462D01*
X252357752Y-135650248D01*
X252357194Y-135650815D01*
X252300051Y-135765102D01*
X252296617Y-135787899D01*
X252289494Y-135809823D01*
X252289494Y-136038395D01*
X251719296Y-136038395D01*
X251719296Y-134895538D01*
X252289494Y-134895538D01*
X252296617Y-134917461D01*
X252300051Y-134940260D01*
X252326117Y-134992391D01*
X252294388Y-135036064D01*
X252294388Y-135097868D01*
X252330715Y-135147868D01*
X252389494Y-135166966D01*
X253189494Y-135166966D01*
X253248273Y-135147868D01*
X253284600Y-135097868D01*
X253284600Y-135036064D01*
X253248273Y-134986064D01*
X253189494Y-134966966D01*
X252545202Y-134966966D01*
X252528822Y-134950586D01*
X252489494Y-134871930D01*
X252489494Y-134747716D01*
X252521172Y-134684359D01*
X252584530Y-134652681D01*
X253189494Y-134652681D01*
X253248273Y-134633583D01*
X253284600Y-134583583D01*
X253284600Y-134521779D01*
X253248273Y-134471779D01*
X253189494Y-134452681D01*
X252560923Y-134452681D01*
X252538999Y-134459804D01*
X252516202Y-134463238D01*
X252401916Y-134520380D01*
X252401349Y-134520938D01*
X252400563Y-134521069D01*
X252379385Y-134542569D01*
X252357883Y-134563748D01*
X252357752Y-134564534D01*
X252357194Y-134565101D01*
X252300051Y-134679388D01*
X252296617Y-134702185D01*
X252289494Y-134724109D01*
X252289494Y-134895538D01*
X251719296Y-134895538D01*
X251719296Y-133809824D01*
X252289494Y-133809824D01*
X252296617Y-133831747D01*
X252300051Y-133854546D01*
X252357195Y-133968831D01*
X252368567Y-133980377D01*
X252375926Y-133994820D01*
X252433069Y-134051962D01*
X252447510Y-134059320D01*
X252459059Y-134070695D01*
X252573345Y-134127838D01*
X252596142Y-134131271D01*
X252618066Y-134138395D01*
X252960923Y-134138395D01*
X252982846Y-134131271D01*
X253005644Y-134127838D01*
X253119931Y-134070695D01*
X253131478Y-134059320D01*
X253145920Y-134051963D01*
X253203062Y-133994820D01*
X253210420Y-133980378D01*
X253221795Y-133968830D01*
X253278937Y-133854545D01*
X253282370Y-133831747D01*
X253289494Y-133809824D01*
X253289494Y-133638395D01*
X253282370Y-133616471D01*
X253278937Y-133593674D01*
X253221795Y-133479388D01*
X253210420Y-133467838D01*
X253203062Y-133453398D01*
X253145919Y-133396256D01*
X253131479Y-133388898D01*
X253119931Y-133377524D01*
X253005644Y-133320381D01*
X252982846Y-133316947D01*
X252960923Y-133309824D01*
X252618066Y-133309824D01*
X252596142Y-133316947D01*
X252573345Y-133320381D01*
X252459059Y-133377524D01*
X252447512Y-133388896D01*
X252433070Y-133396255D01*
X252375927Y-133453398D01*
X252368569Y-133467837D01*
X252357194Y-133479387D01*
X252300051Y-133593674D01*
X252296617Y-133616471D01*
X252289494Y-133638395D01*
X252289494Y-133809824D01*
X251719296Y-133809824D01*
X251719296Y-133138395D01*
X253460923Y-133138395D01*
X253460923Y-142138395D01*
G37*
D10*
X254636543Y-136721167D02*
X254750829Y-136759262D01*
X254750829Y-136759262D02*
X254941305Y-136759262D01*
X254941305Y-136759262D02*
X255017496Y-136721167D01*
X255017496Y-136721167D02*
X255055591Y-136683071D01*
X255055591Y-136683071D02*
X255093686Y-136606881D01*
X255093686Y-136606881D02*
X255093686Y-136530690D01*
X255093686Y-136530690D02*
X255055591Y-136454500D01*
X255055591Y-136454500D02*
X255017496Y-136416405D01*
X255017496Y-136416405D02*
X254941305Y-136378309D01*
X254941305Y-136378309D02*
X254788924Y-136340214D01*
X254788924Y-136340214D02*
X254712734Y-136302119D01*
X254712734Y-136302119D02*
X254674639Y-136264024D01*
X254674639Y-136264024D02*
X254636543Y-136187833D01*
X254636543Y-136187833D02*
X254636543Y-136111643D01*
X254636543Y-136111643D02*
X254674639Y-136035452D01*
X254674639Y-136035452D02*
X254712734Y-135997357D01*
X254712734Y-135997357D02*
X254788924Y-135959262D01*
X254788924Y-135959262D02*
X254979401Y-135959262D01*
X254979401Y-135959262D02*
X255093686Y-135997357D01*
X255893687Y-136683071D02*
X255855591Y-136721167D01*
X255855591Y-136721167D02*
X255741306Y-136759262D01*
X255741306Y-136759262D02*
X255665115Y-136759262D01*
X255665115Y-136759262D02*
X255550829Y-136721167D01*
X255550829Y-136721167D02*
X255474639Y-136644976D01*
X255474639Y-136644976D02*
X255436544Y-136568786D01*
X255436544Y-136568786D02*
X255398448Y-136416405D01*
X255398448Y-136416405D02*
X255398448Y-136302119D01*
X255398448Y-136302119D02*
X255436544Y-136149738D01*
X255436544Y-136149738D02*
X255474639Y-136073547D01*
X255474639Y-136073547D02*
X255550829Y-135997357D01*
X255550829Y-135997357D02*
X255665115Y-135959262D01*
X255665115Y-135959262D02*
X255741306Y-135959262D01*
X255741306Y-135959262D02*
X255855591Y-135997357D01*
X255855591Y-135997357D02*
X255893687Y-136035452D01*
X256236544Y-136759262D02*
X256236544Y-135959262D01*
X256693687Y-136759262D02*
X256350829Y-136302119D01*
X256693687Y-135959262D02*
X256236544Y-136416405D01*
X249091055Y-124059262D02*
X248824388Y-123678309D01*
X248633912Y-124059262D02*
X248633912Y-123259262D01*
X248633912Y-123259262D02*
X248938674Y-123259262D01*
X248938674Y-123259262D02*
X249014864Y-123297357D01*
X249014864Y-123297357D02*
X249052959Y-123335452D01*
X249052959Y-123335452D02*
X249091055Y-123411643D01*
X249091055Y-123411643D02*
X249091055Y-123525928D01*
X249091055Y-123525928D02*
X249052959Y-123602119D01*
X249052959Y-123602119D02*
X249014864Y-123640214D01*
X249014864Y-123640214D02*
X248938674Y-123678309D01*
X248938674Y-123678309D02*
X248633912Y-123678309D01*
X249395816Y-123830690D02*
X249776769Y-123830690D01*
X249319626Y-124059262D02*
X249586293Y-123259262D01*
X249586293Y-123259262D02*
X249852959Y-124059262D01*
X250043435Y-123259262D02*
X250233911Y-124059262D01*
X250233911Y-124059262D02*
X250386292Y-123487833D01*
X250386292Y-123487833D02*
X250538673Y-124059262D01*
X250538673Y-124059262D02*
X250729150Y-123259262D01*
X249091055Y-146843071D02*
X249052959Y-146881167D01*
X249052959Y-146881167D02*
X248938674Y-146919262D01*
X248938674Y-146919262D02*
X248862483Y-146919262D01*
X248862483Y-146919262D02*
X248748197Y-146881167D01*
X248748197Y-146881167D02*
X248672007Y-146804976D01*
X248672007Y-146804976D02*
X248633912Y-146728786D01*
X248633912Y-146728786D02*
X248595816Y-146576405D01*
X248595816Y-146576405D02*
X248595816Y-146462119D01*
X248595816Y-146462119D02*
X248633912Y-146309738D01*
X248633912Y-146309738D02*
X248672007Y-146233547D01*
X248672007Y-146233547D02*
X248748197Y-146157357D01*
X248748197Y-146157357D02*
X248862483Y-146119262D01*
X248862483Y-146119262D02*
X248938674Y-146119262D01*
X248938674Y-146119262D02*
X249052959Y-146157357D01*
X249052959Y-146157357D02*
X249091055Y-146195452D01*
X249586293Y-146119262D02*
X249738674Y-146119262D01*
X249738674Y-146119262D02*
X249814864Y-146157357D01*
X249814864Y-146157357D02*
X249891055Y-146233547D01*
X249891055Y-146233547D02*
X249929150Y-146385928D01*
X249929150Y-146385928D02*
X249929150Y-146652595D01*
X249929150Y-146652595D02*
X249891055Y-146804976D01*
X249891055Y-146804976D02*
X249814864Y-146881167D01*
X249814864Y-146881167D02*
X249738674Y-146919262D01*
X249738674Y-146919262D02*
X249586293Y-146919262D01*
X249586293Y-146919262D02*
X249510102Y-146881167D01*
X249510102Y-146881167D02*
X249433912Y-146804976D01*
X249433912Y-146804976D02*
X249395816Y-146652595D01*
X249395816Y-146652595D02*
X249395816Y-146385928D01*
X249395816Y-146385928D02*
X249433912Y-146233547D01*
X249433912Y-146233547D02*
X249510102Y-146157357D01*
X249510102Y-146157357D02*
X249586293Y-146119262D01*
X250652959Y-146919262D02*
X250272007Y-146919262D01*
X250272007Y-146919262D02*
X250272007Y-146119262D01*
X250881530Y-146195452D02*
X250919626Y-146157357D01*
X250919626Y-146157357D02*
X250995816Y-146119262D01*
X250995816Y-146119262D02*
X251186292Y-146119262D01*
X251186292Y-146119262D02*
X251262483Y-146157357D01*
X251262483Y-146157357D02*
X251300578Y-146195452D01*
X251300578Y-146195452D02*
X251338673Y-146271643D01*
X251338673Y-146271643D02*
X251338673Y-146347833D01*
X251338673Y-146347833D02*
X251300578Y-146462119D01*
X251300578Y-146462119D02*
X250843435Y-146919262D01*
X250843435Y-146919262D02*
X251338673Y-146919262D01*
X249091055Y-149383071D02*
X249052959Y-149421167D01*
X249052959Y-149421167D02*
X248938674Y-149459262D01*
X248938674Y-149459262D02*
X248862483Y-149459262D01*
X248862483Y-149459262D02*
X248748197Y-149421167D01*
X248748197Y-149421167D02*
X248672007Y-149344976D01*
X248672007Y-149344976D02*
X248633912Y-149268786D01*
X248633912Y-149268786D02*
X248595816Y-149116405D01*
X248595816Y-149116405D02*
X248595816Y-149002119D01*
X248595816Y-149002119D02*
X248633912Y-148849738D01*
X248633912Y-148849738D02*
X248672007Y-148773547D01*
X248672007Y-148773547D02*
X248748197Y-148697357D01*
X248748197Y-148697357D02*
X248862483Y-148659262D01*
X248862483Y-148659262D02*
X248938674Y-148659262D01*
X248938674Y-148659262D02*
X249052959Y-148697357D01*
X249052959Y-148697357D02*
X249091055Y-148735452D01*
X249586293Y-148659262D02*
X249738674Y-148659262D01*
X249738674Y-148659262D02*
X249814864Y-148697357D01*
X249814864Y-148697357D02*
X249891055Y-148773547D01*
X249891055Y-148773547D02*
X249929150Y-148925928D01*
X249929150Y-148925928D02*
X249929150Y-149192595D01*
X249929150Y-149192595D02*
X249891055Y-149344976D01*
X249891055Y-149344976D02*
X249814864Y-149421167D01*
X249814864Y-149421167D02*
X249738674Y-149459262D01*
X249738674Y-149459262D02*
X249586293Y-149459262D01*
X249586293Y-149459262D02*
X249510102Y-149421167D01*
X249510102Y-149421167D02*
X249433912Y-149344976D01*
X249433912Y-149344976D02*
X249395816Y-149192595D01*
X249395816Y-149192595D02*
X249395816Y-148925928D01*
X249395816Y-148925928D02*
X249433912Y-148773547D01*
X249433912Y-148773547D02*
X249510102Y-148697357D01*
X249510102Y-148697357D02*
X249586293Y-148659262D01*
X250652959Y-149459262D02*
X250272007Y-149459262D01*
X250272007Y-149459262D02*
X250272007Y-148659262D01*
X250843435Y-148659262D02*
X251338673Y-148659262D01*
X251338673Y-148659262D02*
X251072007Y-148964024D01*
X251072007Y-148964024D02*
X251186292Y-148964024D01*
X251186292Y-148964024D02*
X251262483Y-149002119D01*
X251262483Y-149002119D02*
X251300578Y-149040214D01*
X251300578Y-149040214D02*
X251338673Y-149116405D01*
X251338673Y-149116405D02*
X251338673Y-149306881D01*
X251338673Y-149306881D02*
X251300578Y-149383071D01*
X251300578Y-149383071D02*
X251262483Y-149421167D01*
X251262483Y-149421167D02*
X251186292Y-149459262D01*
X251186292Y-149459262D02*
X250957721Y-149459262D01*
X250957721Y-149459262D02*
X250881530Y-149421167D01*
X250881530Y-149421167D02*
X250843435Y-149383071D01*
X249091055Y-151923071D02*
X249052959Y-151961167D01*
X249052959Y-151961167D02*
X248938674Y-151999262D01*
X248938674Y-151999262D02*
X248862483Y-151999262D01*
X248862483Y-151999262D02*
X248748197Y-151961167D01*
X248748197Y-151961167D02*
X248672007Y-151884976D01*
X248672007Y-151884976D02*
X248633912Y-151808786D01*
X248633912Y-151808786D02*
X248595816Y-151656405D01*
X248595816Y-151656405D02*
X248595816Y-151542119D01*
X248595816Y-151542119D02*
X248633912Y-151389738D01*
X248633912Y-151389738D02*
X248672007Y-151313547D01*
X248672007Y-151313547D02*
X248748197Y-151237357D01*
X248748197Y-151237357D02*
X248862483Y-151199262D01*
X248862483Y-151199262D02*
X248938674Y-151199262D01*
X248938674Y-151199262D02*
X249052959Y-151237357D01*
X249052959Y-151237357D02*
X249091055Y-151275452D01*
X249586293Y-151199262D02*
X249738674Y-151199262D01*
X249738674Y-151199262D02*
X249814864Y-151237357D01*
X249814864Y-151237357D02*
X249891055Y-151313547D01*
X249891055Y-151313547D02*
X249929150Y-151465928D01*
X249929150Y-151465928D02*
X249929150Y-151732595D01*
X249929150Y-151732595D02*
X249891055Y-151884976D01*
X249891055Y-151884976D02*
X249814864Y-151961167D01*
X249814864Y-151961167D02*
X249738674Y-151999262D01*
X249738674Y-151999262D02*
X249586293Y-151999262D01*
X249586293Y-151999262D02*
X249510102Y-151961167D01*
X249510102Y-151961167D02*
X249433912Y-151884976D01*
X249433912Y-151884976D02*
X249395816Y-151732595D01*
X249395816Y-151732595D02*
X249395816Y-151465928D01*
X249395816Y-151465928D02*
X249433912Y-151313547D01*
X249433912Y-151313547D02*
X249510102Y-151237357D01*
X249510102Y-151237357D02*
X249586293Y-151199262D01*
X250652959Y-151999262D02*
X250272007Y-151999262D01*
X250272007Y-151999262D02*
X250272007Y-151199262D01*
X251262483Y-151465928D02*
X251262483Y-151999262D01*
X251072007Y-151161167D02*
X250881530Y-151732595D01*
X250881530Y-151732595D02*
X251376769Y-151732595D01*
X249091055Y-129139262D02*
X248824388Y-128758309D01*
X248633912Y-129139262D02*
X248633912Y-128339262D01*
X248633912Y-128339262D02*
X248938674Y-128339262D01*
X248938674Y-128339262D02*
X249014864Y-128377357D01*
X249014864Y-128377357D02*
X249052959Y-128415452D01*
X249052959Y-128415452D02*
X249091055Y-128491643D01*
X249091055Y-128491643D02*
X249091055Y-128605928D01*
X249091055Y-128605928D02*
X249052959Y-128682119D01*
X249052959Y-128682119D02*
X249014864Y-128720214D01*
X249014864Y-128720214D02*
X248938674Y-128758309D01*
X248938674Y-128758309D02*
X248633912Y-128758309D01*
X249395816Y-129101167D02*
X249510102Y-129139262D01*
X249510102Y-129139262D02*
X249700578Y-129139262D01*
X249700578Y-129139262D02*
X249776769Y-129101167D01*
X249776769Y-129101167D02*
X249814864Y-129063071D01*
X249814864Y-129063071D02*
X249852959Y-128986881D01*
X249852959Y-128986881D02*
X249852959Y-128910690D01*
X249852959Y-128910690D02*
X249814864Y-128834500D01*
X249814864Y-128834500D02*
X249776769Y-128796405D01*
X249776769Y-128796405D02*
X249700578Y-128758309D01*
X249700578Y-128758309D02*
X249548197Y-128720214D01*
X249548197Y-128720214D02*
X249472007Y-128682119D01*
X249472007Y-128682119D02*
X249433912Y-128644024D01*
X249433912Y-128644024D02*
X249395816Y-128567833D01*
X249395816Y-128567833D02*
X249395816Y-128491643D01*
X249395816Y-128491643D02*
X249433912Y-128415452D01*
X249433912Y-128415452D02*
X249472007Y-128377357D01*
X249472007Y-128377357D02*
X249548197Y-128339262D01*
X249548197Y-128339262D02*
X249738674Y-128339262D01*
X249738674Y-128339262D02*
X249852959Y-128377357D01*
X250081531Y-128339262D02*
X250538674Y-128339262D01*
X250310102Y-129139262D02*
X250310102Y-128339262D01*
X254179401Y-151999262D02*
X253912734Y-151618309D01*
X253722258Y-151999262D02*
X253722258Y-151199262D01*
X253722258Y-151199262D02*
X254027020Y-151199262D01*
X254027020Y-151199262D02*
X254103210Y-151237357D01*
X254103210Y-151237357D02*
X254141305Y-151275452D01*
X254141305Y-151275452D02*
X254179401Y-151351643D01*
X254179401Y-151351643D02*
X254179401Y-151465928D01*
X254179401Y-151465928D02*
X254141305Y-151542119D01*
X254141305Y-151542119D02*
X254103210Y-151580214D01*
X254103210Y-151580214D02*
X254027020Y-151618309D01*
X254027020Y-151618309D02*
X253722258Y-151618309D01*
X254674639Y-151199262D02*
X254827020Y-151199262D01*
X254827020Y-151199262D02*
X254903210Y-151237357D01*
X254903210Y-151237357D02*
X254979401Y-151313547D01*
X254979401Y-151313547D02*
X255017496Y-151465928D01*
X255017496Y-151465928D02*
X255017496Y-151732595D01*
X255017496Y-151732595D02*
X254979401Y-151884976D01*
X254979401Y-151884976D02*
X254903210Y-151961167D01*
X254903210Y-151961167D02*
X254827020Y-151999262D01*
X254827020Y-151999262D02*
X254674639Y-151999262D01*
X254674639Y-151999262D02*
X254598448Y-151961167D01*
X254598448Y-151961167D02*
X254522258Y-151884976D01*
X254522258Y-151884976D02*
X254484162Y-151732595D01*
X254484162Y-151732595D02*
X254484162Y-151465928D01*
X254484162Y-151465928D02*
X254522258Y-151313547D01*
X254522258Y-151313547D02*
X254598448Y-151237357D01*
X254598448Y-151237357D02*
X254674639Y-151199262D01*
X255284162Y-151199262D02*
X255474638Y-151999262D01*
X255474638Y-151999262D02*
X255627019Y-151427833D01*
X255627019Y-151427833D02*
X255779400Y-151999262D01*
X255779400Y-151999262D02*
X255969877Y-151199262D01*
X256198448Y-151199262D02*
X256693686Y-151199262D01*
X256693686Y-151199262D02*
X256427020Y-151504024D01*
X256427020Y-151504024D02*
X256541305Y-151504024D01*
X256541305Y-151504024D02*
X256617496Y-151542119D01*
X256617496Y-151542119D02*
X256655591Y-151580214D01*
X256655591Y-151580214D02*
X256693686Y-151656405D01*
X256693686Y-151656405D02*
X256693686Y-151846881D01*
X256693686Y-151846881D02*
X256655591Y-151923071D01*
X256655591Y-151923071D02*
X256617496Y-151961167D01*
X256617496Y-151961167D02*
X256541305Y-151999262D01*
X256541305Y-151999262D02*
X256312734Y-151999262D01*
X256312734Y-151999262D02*
X256236543Y-151961167D01*
X256236543Y-151961167D02*
X256198448Y-151923071D01*
X255931782Y-123983071D02*
X255893686Y-124021167D01*
X255893686Y-124021167D02*
X255779401Y-124059262D01*
X255779401Y-124059262D02*
X255703210Y-124059262D01*
X255703210Y-124059262D02*
X255588924Y-124021167D01*
X255588924Y-124021167D02*
X255512734Y-123944976D01*
X255512734Y-123944976D02*
X255474639Y-123868786D01*
X255474639Y-123868786D02*
X255436543Y-123716405D01*
X255436543Y-123716405D02*
X255436543Y-123602119D01*
X255436543Y-123602119D02*
X255474639Y-123449738D01*
X255474639Y-123449738D02*
X255512734Y-123373547D01*
X255512734Y-123373547D02*
X255588924Y-123297357D01*
X255588924Y-123297357D02*
X255703210Y-123259262D01*
X255703210Y-123259262D02*
X255779401Y-123259262D01*
X255779401Y-123259262D02*
X255893686Y-123297357D01*
X255893686Y-123297357D02*
X255931782Y-123335452D01*
X256236543Y-124021167D02*
X256350829Y-124059262D01*
X256350829Y-124059262D02*
X256541305Y-124059262D01*
X256541305Y-124059262D02*
X256617496Y-124021167D01*
X256617496Y-124021167D02*
X256655591Y-123983071D01*
X256655591Y-123983071D02*
X256693686Y-123906881D01*
X256693686Y-123906881D02*
X256693686Y-123830690D01*
X256693686Y-123830690D02*
X256655591Y-123754500D01*
X256655591Y-123754500D02*
X256617496Y-123716405D01*
X256617496Y-123716405D02*
X256541305Y-123678309D01*
X256541305Y-123678309D02*
X256388924Y-123640214D01*
X256388924Y-123640214D02*
X256312734Y-123602119D01*
X256312734Y-123602119D02*
X256274639Y-123564024D01*
X256274639Y-123564024D02*
X256236543Y-123487833D01*
X256236543Y-123487833D02*
X256236543Y-123411643D01*
X256236543Y-123411643D02*
X256274639Y-123335452D01*
X256274639Y-123335452D02*
X256312734Y-123297357D01*
X256312734Y-123297357D02*
X256388924Y-123259262D01*
X256388924Y-123259262D02*
X256579401Y-123259262D01*
X256579401Y-123259262D02*
X256693686Y-123297357D01*
X248519626Y-130879262D02*
X248786293Y-131679262D01*
X248786293Y-131679262D02*
X249052959Y-130879262D01*
X249776769Y-131603071D02*
X249738673Y-131641167D01*
X249738673Y-131641167D02*
X249624388Y-131679262D01*
X249624388Y-131679262D02*
X249548197Y-131679262D01*
X249548197Y-131679262D02*
X249433911Y-131641167D01*
X249433911Y-131641167D02*
X249357721Y-131564976D01*
X249357721Y-131564976D02*
X249319626Y-131488786D01*
X249319626Y-131488786D02*
X249281530Y-131336405D01*
X249281530Y-131336405D02*
X249281530Y-131222119D01*
X249281530Y-131222119D02*
X249319626Y-131069738D01*
X249319626Y-131069738D02*
X249357721Y-130993547D01*
X249357721Y-130993547D02*
X249433911Y-130917357D01*
X249433911Y-130917357D02*
X249548197Y-130879262D01*
X249548197Y-130879262D02*
X249624388Y-130879262D01*
X249624388Y-130879262D02*
X249738673Y-130917357D01*
X249738673Y-130917357D02*
X249776769Y-130955452D01*
X250576769Y-131603071D02*
X250538673Y-131641167D01*
X250538673Y-131641167D02*
X250424388Y-131679262D01*
X250424388Y-131679262D02*
X250348197Y-131679262D01*
X250348197Y-131679262D02*
X250233911Y-131641167D01*
X250233911Y-131641167D02*
X250157721Y-131564976D01*
X250157721Y-131564976D02*
X250119626Y-131488786D01*
X250119626Y-131488786D02*
X250081530Y-131336405D01*
X250081530Y-131336405D02*
X250081530Y-131222119D01*
X250081530Y-131222119D02*
X250119626Y-131069738D01*
X250119626Y-131069738D02*
X250157721Y-130993547D01*
X250157721Y-130993547D02*
X250233911Y-130917357D01*
X250233911Y-130917357D02*
X250348197Y-130879262D01*
X250348197Y-130879262D02*
X250424388Y-130879262D01*
X250424388Y-130879262D02*
X250538673Y-130917357D01*
X250538673Y-130917357D02*
X250576769Y-130955452D01*
X254179401Y-144379262D02*
X253912734Y-143998309D01*
X253722258Y-144379262D02*
X253722258Y-143579262D01*
X253722258Y-143579262D02*
X254027020Y-143579262D01*
X254027020Y-143579262D02*
X254103210Y-143617357D01*
X254103210Y-143617357D02*
X254141305Y-143655452D01*
X254141305Y-143655452D02*
X254179401Y-143731643D01*
X254179401Y-143731643D02*
X254179401Y-143845928D01*
X254179401Y-143845928D02*
X254141305Y-143922119D01*
X254141305Y-143922119D02*
X254103210Y-143960214D01*
X254103210Y-143960214D02*
X254027020Y-143998309D01*
X254027020Y-143998309D02*
X253722258Y-143998309D01*
X254674639Y-143579262D02*
X254827020Y-143579262D01*
X254827020Y-143579262D02*
X254903210Y-143617357D01*
X254903210Y-143617357D02*
X254979401Y-143693547D01*
X254979401Y-143693547D02*
X255017496Y-143845928D01*
X255017496Y-143845928D02*
X255017496Y-144112595D01*
X255017496Y-144112595D02*
X254979401Y-144264976D01*
X254979401Y-144264976D02*
X254903210Y-144341167D01*
X254903210Y-144341167D02*
X254827020Y-144379262D01*
X254827020Y-144379262D02*
X254674639Y-144379262D01*
X254674639Y-144379262D02*
X254598448Y-144341167D01*
X254598448Y-144341167D02*
X254522258Y-144264976D01*
X254522258Y-144264976D02*
X254484162Y-144112595D01*
X254484162Y-144112595D02*
X254484162Y-143845928D01*
X254484162Y-143845928D02*
X254522258Y-143693547D01*
X254522258Y-143693547D02*
X254598448Y-143617357D01*
X254598448Y-143617357D02*
X254674639Y-143579262D01*
X255284162Y-143579262D02*
X255474638Y-144379262D01*
X255474638Y-144379262D02*
X255627019Y-143807833D01*
X255627019Y-143807833D02*
X255779400Y-144379262D01*
X255779400Y-144379262D02*
X255969877Y-143579262D01*
X256427020Y-143579262D02*
X256503210Y-143579262D01*
X256503210Y-143579262D02*
X256579401Y-143617357D01*
X256579401Y-143617357D02*
X256617496Y-143655452D01*
X256617496Y-143655452D02*
X256655591Y-143731643D01*
X256655591Y-143731643D02*
X256693686Y-143884024D01*
X256693686Y-143884024D02*
X256693686Y-144074500D01*
X256693686Y-144074500D02*
X256655591Y-144226881D01*
X256655591Y-144226881D02*
X256617496Y-144303071D01*
X256617496Y-144303071D02*
X256579401Y-144341167D01*
X256579401Y-144341167D02*
X256503210Y-144379262D01*
X256503210Y-144379262D02*
X256427020Y-144379262D01*
X256427020Y-144379262D02*
X256350829Y-144341167D01*
X256350829Y-144341167D02*
X256312734Y-144303071D01*
X256312734Y-144303071D02*
X256274639Y-144226881D01*
X256274639Y-144226881D02*
X256236543Y-144074500D01*
X256236543Y-144074500D02*
X256236543Y-143884024D01*
X256236543Y-143884024D02*
X256274639Y-143731643D01*
X256274639Y-143731643D02*
X256312734Y-143655452D01*
X256312734Y-143655452D02*
X256350829Y-143617357D01*
X256350829Y-143617357D02*
X256427020Y-143579262D01*
X254141306Y-134219262D02*
X254141306Y-133419262D01*
X254141306Y-133419262D02*
X254407972Y-133990690D01*
X254407972Y-133990690D02*
X254674639Y-133419262D01*
X254674639Y-133419262D02*
X254674639Y-134219262D01*
X255207973Y-133419262D02*
X255360354Y-133419262D01*
X255360354Y-133419262D02*
X255436544Y-133457357D01*
X255436544Y-133457357D02*
X255512735Y-133533547D01*
X255512735Y-133533547D02*
X255550830Y-133685928D01*
X255550830Y-133685928D02*
X255550830Y-133952595D01*
X255550830Y-133952595D02*
X255512735Y-134104976D01*
X255512735Y-134104976D02*
X255436544Y-134181167D01*
X255436544Y-134181167D02*
X255360354Y-134219262D01*
X255360354Y-134219262D02*
X255207973Y-134219262D01*
X255207973Y-134219262D02*
X255131782Y-134181167D01*
X255131782Y-134181167D02*
X255055592Y-134104976D01*
X255055592Y-134104976D02*
X255017496Y-133952595D01*
X255017496Y-133952595D02*
X255017496Y-133685928D01*
X255017496Y-133685928D02*
X255055592Y-133533547D01*
X255055592Y-133533547D02*
X255131782Y-133457357D01*
X255131782Y-133457357D02*
X255207973Y-133419262D01*
X255855591Y-134181167D02*
X255969877Y-134219262D01*
X255969877Y-134219262D02*
X256160353Y-134219262D01*
X256160353Y-134219262D02*
X256236544Y-134181167D01*
X256236544Y-134181167D02*
X256274639Y-134143071D01*
X256274639Y-134143071D02*
X256312734Y-134066881D01*
X256312734Y-134066881D02*
X256312734Y-133990690D01*
X256312734Y-133990690D02*
X256274639Y-133914500D01*
X256274639Y-133914500D02*
X256236544Y-133876405D01*
X256236544Y-133876405D02*
X256160353Y-133838309D01*
X256160353Y-133838309D02*
X256007972Y-133800214D01*
X256007972Y-133800214D02*
X255931782Y-133762119D01*
X255931782Y-133762119D02*
X255893687Y-133724024D01*
X255893687Y-133724024D02*
X255855591Y-133647833D01*
X255855591Y-133647833D02*
X255855591Y-133571643D01*
X255855591Y-133571643D02*
X255893687Y-133495452D01*
X255893687Y-133495452D02*
X255931782Y-133457357D01*
X255931782Y-133457357D02*
X256007972Y-133419262D01*
X256007972Y-133419262D02*
X256198449Y-133419262D01*
X256198449Y-133419262D02*
X256312734Y-133457357D01*
X256655592Y-134219262D02*
X256655592Y-133419262D01*
X255017496Y-130917357D02*
X254941306Y-130879262D01*
X254941306Y-130879262D02*
X254827020Y-130879262D01*
X254827020Y-130879262D02*
X254712734Y-130917357D01*
X254712734Y-130917357D02*
X254636544Y-130993547D01*
X254636544Y-130993547D02*
X254598449Y-131069738D01*
X254598449Y-131069738D02*
X254560353Y-131222119D01*
X254560353Y-131222119D02*
X254560353Y-131336405D01*
X254560353Y-131336405D02*
X254598449Y-131488786D01*
X254598449Y-131488786D02*
X254636544Y-131564976D01*
X254636544Y-131564976D02*
X254712734Y-131641167D01*
X254712734Y-131641167D02*
X254827020Y-131679262D01*
X254827020Y-131679262D02*
X254903211Y-131679262D01*
X254903211Y-131679262D02*
X255017496Y-131641167D01*
X255017496Y-131641167D02*
X255055592Y-131603071D01*
X255055592Y-131603071D02*
X255055592Y-131336405D01*
X255055592Y-131336405D02*
X254903211Y-131336405D01*
X255398449Y-131679262D02*
X255398449Y-130879262D01*
X255398449Y-130879262D02*
X255855592Y-131679262D01*
X255855592Y-131679262D02*
X255855592Y-130879262D01*
X256236544Y-131679262D02*
X256236544Y-130879262D01*
X256236544Y-130879262D02*
X256427020Y-130879262D01*
X256427020Y-130879262D02*
X256541306Y-130917357D01*
X256541306Y-130917357D02*
X256617496Y-130993547D01*
X256617496Y-130993547D02*
X256655591Y-131069738D01*
X256655591Y-131069738D02*
X256693687Y-131222119D01*
X256693687Y-131222119D02*
X256693687Y-131336405D01*
X256693687Y-131336405D02*
X256655591Y-131488786D01*
X256655591Y-131488786D02*
X256617496Y-131564976D01*
X256617496Y-131564976D02*
X256541306Y-131641167D01*
X256541306Y-131641167D02*
X256427020Y-131679262D01*
X256427020Y-131679262D02*
X256236544Y-131679262D01*
X249091055Y-141763071D02*
X249052959Y-141801167D01*
X249052959Y-141801167D02*
X248938674Y-141839262D01*
X248938674Y-141839262D02*
X248862483Y-141839262D01*
X248862483Y-141839262D02*
X248748197Y-141801167D01*
X248748197Y-141801167D02*
X248672007Y-141724976D01*
X248672007Y-141724976D02*
X248633912Y-141648786D01*
X248633912Y-141648786D02*
X248595816Y-141496405D01*
X248595816Y-141496405D02*
X248595816Y-141382119D01*
X248595816Y-141382119D02*
X248633912Y-141229738D01*
X248633912Y-141229738D02*
X248672007Y-141153547D01*
X248672007Y-141153547D02*
X248748197Y-141077357D01*
X248748197Y-141077357D02*
X248862483Y-141039262D01*
X248862483Y-141039262D02*
X248938674Y-141039262D01*
X248938674Y-141039262D02*
X249052959Y-141077357D01*
X249052959Y-141077357D02*
X249091055Y-141115452D01*
X249586293Y-141039262D02*
X249738674Y-141039262D01*
X249738674Y-141039262D02*
X249814864Y-141077357D01*
X249814864Y-141077357D02*
X249891055Y-141153547D01*
X249891055Y-141153547D02*
X249929150Y-141305928D01*
X249929150Y-141305928D02*
X249929150Y-141572595D01*
X249929150Y-141572595D02*
X249891055Y-141724976D01*
X249891055Y-141724976D02*
X249814864Y-141801167D01*
X249814864Y-141801167D02*
X249738674Y-141839262D01*
X249738674Y-141839262D02*
X249586293Y-141839262D01*
X249586293Y-141839262D02*
X249510102Y-141801167D01*
X249510102Y-141801167D02*
X249433912Y-141724976D01*
X249433912Y-141724976D02*
X249395816Y-141572595D01*
X249395816Y-141572595D02*
X249395816Y-141305928D01*
X249395816Y-141305928D02*
X249433912Y-141153547D01*
X249433912Y-141153547D02*
X249510102Y-141077357D01*
X249510102Y-141077357D02*
X249586293Y-141039262D01*
X250652959Y-141839262D02*
X250272007Y-141839262D01*
X250272007Y-141839262D02*
X250272007Y-141039262D01*
X251072007Y-141039262D02*
X251148197Y-141039262D01*
X251148197Y-141039262D02*
X251224388Y-141077357D01*
X251224388Y-141077357D02*
X251262483Y-141115452D01*
X251262483Y-141115452D02*
X251300578Y-141191643D01*
X251300578Y-141191643D02*
X251338673Y-141344024D01*
X251338673Y-141344024D02*
X251338673Y-141534500D01*
X251338673Y-141534500D02*
X251300578Y-141686881D01*
X251300578Y-141686881D02*
X251262483Y-141763071D01*
X251262483Y-141763071D02*
X251224388Y-141801167D01*
X251224388Y-141801167D02*
X251148197Y-141839262D01*
X251148197Y-141839262D02*
X251072007Y-141839262D01*
X251072007Y-141839262D02*
X250995816Y-141801167D01*
X250995816Y-141801167D02*
X250957721Y-141763071D01*
X250957721Y-141763071D02*
X250919626Y-141686881D01*
X250919626Y-141686881D02*
X250881530Y-141534500D01*
X250881530Y-141534500D02*
X250881530Y-141344024D01*
X250881530Y-141344024D02*
X250919626Y-141191643D01*
X250919626Y-141191643D02*
X250957721Y-141115452D01*
X250957721Y-141115452D02*
X250995816Y-141077357D01*
X250995816Y-141077357D02*
X251072007Y-141039262D01*
X254179401Y-146919262D02*
X253912734Y-146538309D01*
X253722258Y-146919262D02*
X253722258Y-146119262D01*
X253722258Y-146119262D02*
X254027020Y-146119262D01*
X254027020Y-146119262D02*
X254103210Y-146157357D01*
X254103210Y-146157357D02*
X254141305Y-146195452D01*
X254141305Y-146195452D02*
X254179401Y-146271643D01*
X254179401Y-146271643D02*
X254179401Y-146385928D01*
X254179401Y-146385928D02*
X254141305Y-146462119D01*
X254141305Y-146462119D02*
X254103210Y-146500214D01*
X254103210Y-146500214D02*
X254027020Y-146538309D01*
X254027020Y-146538309D02*
X253722258Y-146538309D01*
X254674639Y-146119262D02*
X254827020Y-146119262D01*
X254827020Y-146119262D02*
X254903210Y-146157357D01*
X254903210Y-146157357D02*
X254979401Y-146233547D01*
X254979401Y-146233547D02*
X255017496Y-146385928D01*
X255017496Y-146385928D02*
X255017496Y-146652595D01*
X255017496Y-146652595D02*
X254979401Y-146804976D01*
X254979401Y-146804976D02*
X254903210Y-146881167D01*
X254903210Y-146881167D02*
X254827020Y-146919262D01*
X254827020Y-146919262D02*
X254674639Y-146919262D01*
X254674639Y-146919262D02*
X254598448Y-146881167D01*
X254598448Y-146881167D02*
X254522258Y-146804976D01*
X254522258Y-146804976D02*
X254484162Y-146652595D01*
X254484162Y-146652595D02*
X254484162Y-146385928D01*
X254484162Y-146385928D02*
X254522258Y-146233547D01*
X254522258Y-146233547D02*
X254598448Y-146157357D01*
X254598448Y-146157357D02*
X254674639Y-146119262D01*
X255284162Y-146119262D02*
X255474638Y-146919262D01*
X255474638Y-146919262D02*
X255627019Y-146347833D01*
X255627019Y-146347833D02*
X255779400Y-146919262D01*
X255779400Y-146919262D02*
X255969877Y-146119262D01*
X256693686Y-146919262D02*
X256236543Y-146919262D01*
X256465115Y-146919262D02*
X256465115Y-146119262D01*
X256465115Y-146119262D02*
X256388924Y-146233547D01*
X256388924Y-146233547D02*
X256312734Y-146309738D01*
X256312734Y-146309738D02*
X256236543Y-146347833D01*
X249091055Y-144303071D02*
X249052959Y-144341167D01*
X249052959Y-144341167D02*
X248938674Y-144379262D01*
X248938674Y-144379262D02*
X248862483Y-144379262D01*
X248862483Y-144379262D02*
X248748197Y-144341167D01*
X248748197Y-144341167D02*
X248672007Y-144264976D01*
X248672007Y-144264976D02*
X248633912Y-144188786D01*
X248633912Y-144188786D02*
X248595816Y-144036405D01*
X248595816Y-144036405D02*
X248595816Y-143922119D01*
X248595816Y-143922119D02*
X248633912Y-143769738D01*
X248633912Y-143769738D02*
X248672007Y-143693547D01*
X248672007Y-143693547D02*
X248748197Y-143617357D01*
X248748197Y-143617357D02*
X248862483Y-143579262D01*
X248862483Y-143579262D02*
X248938674Y-143579262D01*
X248938674Y-143579262D02*
X249052959Y-143617357D01*
X249052959Y-143617357D02*
X249091055Y-143655452D01*
X249586293Y-143579262D02*
X249738674Y-143579262D01*
X249738674Y-143579262D02*
X249814864Y-143617357D01*
X249814864Y-143617357D02*
X249891055Y-143693547D01*
X249891055Y-143693547D02*
X249929150Y-143845928D01*
X249929150Y-143845928D02*
X249929150Y-144112595D01*
X249929150Y-144112595D02*
X249891055Y-144264976D01*
X249891055Y-144264976D02*
X249814864Y-144341167D01*
X249814864Y-144341167D02*
X249738674Y-144379262D01*
X249738674Y-144379262D02*
X249586293Y-144379262D01*
X249586293Y-144379262D02*
X249510102Y-144341167D01*
X249510102Y-144341167D02*
X249433912Y-144264976D01*
X249433912Y-144264976D02*
X249395816Y-144112595D01*
X249395816Y-144112595D02*
X249395816Y-143845928D01*
X249395816Y-143845928D02*
X249433912Y-143693547D01*
X249433912Y-143693547D02*
X249510102Y-143617357D01*
X249510102Y-143617357D02*
X249586293Y-143579262D01*
X250652959Y-144379262D02*
X250272007Y-144379262D01*
X250272007Y-144379262D02*
X250272007Y-143579262D01*
X251338673Y-144379262D02*
X250881530Y-144379262D01*
X251110102Y-144379262D02*
X251110102Y-143579262D01*
X251110102Y-143579262D02*
X251033911Y-143693547D01*
X251033911Y-143693547D02*
X250957721Y-143769738D01*
X250957721Y-143769738D02*
X250881530Y-143807833D01*
X255017496Y-128377357D02*
X254941306Y-128339262D01*
X254941306Y-128339262D02*
X254827020Y-128339262D01*
X254827020Y-128339262D02*
X254712734Y-128377357D01*
X254712734Y-128377357D02*
X254636544Y-128453547D01*
X254636544Y-128453547D02*
X254598449Y-128529738D01*
X254598449Y-128529738D02*
X254560353Y-128682119D01*
X254560353Y-128682119D02*
X254560353Y-128796405D01*
X254560353Y-128796405D02*
X254598449Y-128948786D01*
X254598449Y-128948786D02*
X254636544Y-129024976D01*
X254636544Y-129024976D02*
X254712734Y-129101167D01*
X254712734Y-129101167D02*
X254827020Y-129139262D01*
X254827020Y-129139262D02*
X254903211Y-129139262D01*
X254903211Y-129139262D02*
X255017496Y-129101167D01*
X255017496Y-129101167D02*
X255055592Y-129063071D01*
X255055592Y-129063071D02*
X255055592Y-128796405D01*
X255055592Y-128796405D02*
X254903211Y-128796405D01*
X255398449Y-129139262D02*
X255398449Y-128339262D01*
X255398449Y-128339262D02*
X255855592Y-129139262D01*
X255855592Y-129139262D02*
X255855592Y-128339262D01*
X256236544Y-129139262D02*
X256236544Y-128339262D01*
X256236544Y-128339262D02*
X256427020Y-128339262D01*
X256427020Y-128339262D02*
X256541306Y-128377357D01*
X256541306Y-128377357D02*
X256617496Y-128453547D01*
X256617496Y-128453547D02*
X256655591Y-128529738D01*
X256655591Y-128529738D02*
X256693687Y-128682119D01*
X256693687Y-128682119D02*
X256693687Y-128796405D01*
X256693687Y-128796405D02*
X256655591Y-128948786D01*
X256655591Y-128948786D02*
X256617496Y-129024976D01*
X256617496Y-129024976D02*
X256541306Y-129101167D01*
X256541306Y-129101167D02*
X256427020Y-129139262D01*
X256427020Y-129139262D02*
X256236544Y-129139262D01*
X249052959Y-125837357D02*
X248976769Y-125799262D01*
X248976769Y-125799262D02*
X248862483Y-125799262D01*
X248862483Y-125799262D02*
X248748197Y-125837357D01*
X248748197Y-125837357D02*
X248672007Y-125913547D01*
X248672007Y-125913547D02*
X248633912Y-125989738D01*
X248633912Y-125989738D02*
X248595816Y-126142119D01*
X248595816Y-126142119D02*
X248595816Y-126256405D01*
X248595816Y-126256405D02*
X248633912Y-126408786D01*
X248633912Y-126408786D02*
X248672007Y-126484976D01*
X248672007Y-126484976D02*
X248748197Y-126561167D01*
X248748197Y-126561167D02*
X248862483Y-126599262D01*
X248862483Y-126599262D02*
X248938674Y-126599262D01*
X248938674Y-126599262D02*
X249052959Y-126561167D01*
X249052959Y-126561167D02*
X249091055Y-126523071D01*
X249091055Y-126523071D02*
X249091055Y-126256405D01*
X249091055Y-126256405D02*
X248938674Y-126256405D01*
X249433912Y-126599262D02*
X249433912Y-125799262D01*
X249433912Y-125799262D02*
X249891055Y-126599262D01*
X249891055Y-126599262D02*
X249891055Y-125799262D01*
X250272007Y-126599262D02*
X250272007Y-125799262D01*
X250272007Y-125799262D02*
X250462483Y-125799262D01*
X250462483Y-125799262D02*
X250576769Y-125837357D01*
X250576769Y-125837357D02*
X250652959Y-125913547D01*
X250652959Y-125913547D02*
X250691054Y-125989738D01*
X250691054Y-125989738D02*
X250729150Y-126142119D01*
X250729150Y-126142119D02*
X250729150Y-126256405D01*
X250729150Y-126256405D02*
X250691054Y-126408786D01*
X250691054Y-126408786D02*
X250652959Y-126484976D01*
X250652959Y-126484976D02*
X250576769Y-126561167D01*
X250576769Y-126561167D02*
X250462483Y-126599262D01*
X250462483Y-126599262D02*
X250272007Y-126599262D01*
X258639990Y-121224500D02*
X259249514Y-121224500D01*
X246039990Y-121224500D02*
X246649514Y-121224500D01*
X246344752Y-121529262D02*
X246344752Y-120919738D01*
D12*
%TO.C,D13*%
X231394752Y-153466967D02*
X231794752Y-153466967D01*
X231794752Y-153466967D02*
X231794752Y-152916967D01*
X231794752Y-153466967D02*
X231794752Y-154016967D01*
X231794752Y-153466967D02*
X232394752Y-153066967D01*
X232394752Y-153066967D02*
X232394752Y-153866967D01*
X232394752Y-153466967D02*
X232894752Y-153466967D01*
X232394752Y-153866967D02*
X231794752Y-153466967D01*
%TO.C,D16*%
X224177977Y-172609297D02*
X224564347Y-172712824D01*
X224564347Y-172712824D02*
X224706697Y-172181565D01*
X224564347Y-172712824D02*
X224421996Y-173244084D01*
X224564347Y-172712824D02*
X225247430Y-172481745D01*
X225247430Y-172481745D02*
X225040375Y-173254486D01*
X225143902Y-172868116D02*
X225626865Y-172997525D01*
X225040375Y-173254486D02*
X224564347Y-172712824D01*
D10*
%TO.C,T1*%
X249344752Y-119816967D02*
X249344752Y-122666967D01*
X249344752Y-122666967D02*
X255944752Y-122666967D01*
X252644752Y-119816967D02*
X249344752Y-119816967D01*
X252644752Y-119816967D02*
X255944752Y-119816967D01*
X254594752Y-119816967D02*
X250694752Y-119816967D01*
X255944752Y-122666967D02*
X255944752Y-119816967D01*
D12*
%TO.C,D12*%
X213394752Y-116466967D02*
X213794752Y-116466967D01*
X213794752Y-116466967D02*
X213794752Y-115916967D01*
X213794752Y-116466967D02*
X213794752Y-117016967D01*
X213794752Y-116466967D02*
X214394752Y-116066967D01*
X214394752Y-116066967D02*
X214394752Y-116866967D01*
X214394752Y-116466967D02*
X214894752Y-116466967D01*
X214394752Y-116866967D02*
X213794752Y-116466967D01*
%TO.C,D11*%
X213394752Y-133466967D02*
X213794752Y-133466967D01*
X213794752Y-133466967D02*
X213794752Y-132916967D01*
X213794752Y-133466967D02*
X213794752Y-134016967D01*
X213794752Y-133466967D02*
X214394752Y-133066967D01*
X214394752Y-133066967D02*
X214394752Y-133866967D01*
X214394752Y-133466967D02*
X214894752Y-133466967D01*
X214394752Y-133866967D02*
X213794752Y-133466967D01*
%TO.C,D4*%
X177394752Y-148466967D02*
X177794752Y-148466967D01*
X177794752Y-148466967D02*
X177794752Y-147916967D01*
X177794752Y-148466967D02*
X177794752Y-149016967D01*
X177794752Y-148466967D02*
X178394752Y-148066967D01*
X178394752Y-148066967D02*
X178394752Y-148866967D01*
X178394752Y-148466967D02*
X178894752Y-148466967D01*
X178394752Y-148866967D02*
X177794752Y-148466967D01*
D10*
%TO.C,MCU1*%
X243754752Y-152906967D02*
X261534752Y-152906967D01*
X261534752Y-152906967D02*
X261534752Y-119886967D01*
X243754752Y-119886967D02*
X243754752Y-152906967D01*
X261534752Y-119886967D02*
X243754752Y-119886967D01*
D12*
%TO.C,D8*%
X195394752Y-123466967D02*
X195794752Y-123466967D01*
X195794752Y-123466967D02*
X195794752Y-122916967D01*
X195794752Y-123466967D02*
X195794752Y-124016967D01*
X195794752Y-123466967D02*
X196394752Y-123066967D01*
X196394752Y-123066967D02*
X196394752Y-123866967D01*
X196394752Y-123466967D02*
X196894752Y-123466967D01*
X196394752Y-123866967D02*
X195794752Y-123466967D01*
%TO.C,D7*%
X195394752Y-140466967D02*
X195794752Y-140466967D01*
X195794752Y-140466967D02*
X195794752Y-139916967D01*
X195794752Y-140466967D02*
X195794752Y-141016967D01*
X195794752Y-140466967D02*
X196394752Y-140066967D01*
X196394752Y-140066967D02*
X196394752Y-140866967D01*
X196394752Y-140466967D02*
X196894752Y-140466967D01*
X196394752Y-140866967D02*
X195794752Y-140466967D01*
%TO.C,D3*%
X155697005Y-131109054D02*
X156094024Y-131060306D01*
X156094024Y-131060306D02*
X156026996Y-130514406D01*
X156094024Y-131060306D02*
X156161052Y-131606207D01*
X156094024Y-131060306D02*
X156640804Y-130590166D01*
X156640804Y-130590166D02*
X156738299Y-131384203D01*
X156689552Y-130987185D02*
X157185825Y-130926250D01*
X156738299Y-131384203D02*
X156094024Y-131060306D01*
%TO.C,D1*%
X159840563Y-164855624D02*
X160237582Y-164806876D01*
X160237582Y-164806876D02*
X160170554Y-164260976D01*
X160237582Y-164806876D02*
X160304610Y-165352777D01*
X160237582Y-164806876D02*
X160784362Y-164336736D01*
X160784362Y-164336736D02*
X160881857Y-165130773D01*
X160833110Y-164733755D02*
X161329383Y-164672820D01*
X160881857Y-165130773D02*
X160237582Y-164806876D01*
%TO.C,D6*%
X177394752Y-114466967D02*
X177794752Y-114466967D01*
X177794752Y-114466967D02*
X177794752Y-113916967D01*
X177794752Y-114466967D02*
X177794752Y-115016967D01*
X177794752Y-114466967D02*
X178394752Y-114066967D01*
X178394752Y-114066967D02*
X178394752Y-114866967D01*
X178394752Y-114466967D02*
X178894752Y-114466967D01*
X178394752Y-114866967D02*
X177794752Y-114466967D01*
%TO.C,D14*%
X231394752Y-136466967D02*
X231794752Y-136466967D01*
X231794752Y-136466967D02*
X231794752Y-135916967D01*
X231794752Y-136466967D02*
X231794752Y-137016967D01*
X231794752Y-136466967D02*
X232394752Y-136066967D01*
X232394752Y-136066967D02*
X232394752Y-136866967D01*
X232394752Y-136466967D02*
X232894752Y-136466967D01*
X232394752Y-136866967D02*
X231794752Y-136466967D01*
%TO.C,D2*%
X157768784Y-147982339D02*
X158165803Y-147933591D01*
X158165803Y-147933591D02*
X158098775Y-147387691D01*
X158165803Y-147933591D02*
X158232831Y-148479492D01*
X158165803Y-147933591D02*
X158712583Y-147463451D01*
X158712583Y-147463451D02*
X158810078Y-148257488D01*
X158761331Y-147860470D02*
X159257604Y-147799535D01*
X158810078Y-148257488D02*
X158165803Y-147933591D01*
%TO.C,D9*%
X195394752Y-106466967D02*
X195794752Y-106466967D01*
X195794752Y-106466967D02*
X195794752Y-105916967D01*
X195794752Y-106466967D02*
X195794752Y-107016967D01*
X195794752Y-106466967D02*
X196394752Y-106066967D01*
X196394752Y-106066967D02*
X196394752Y-106866967D01*
X196394752Y-106466967D02*
X196894752Y-106466967D01*
X196394752Y-106866967D02*
X195794752Y-106466967D01*
%TO.C,D17*%
X243340053Y-180360023D02*
X243696456Y-180541619D01*
X243696456Y-180541619D02*
X243946150Y-180051566D01*
X243696456Y-180541619D02*
X243446761Y-181031673D01*
X243696456Y-180541619D02*
X244412656Y-180457611D01*
X244412656Y-180457611D02*
X244049463Y-181170416D01*
X244231060Y-180814014D02*
X244676563Y-181041009D01*
X244049463Y-181170416D02*
X243696456Y-180541619D01*
%TO.C,D5*%
X177394752Y-131466967D02*
X177794752Y-131466967D01*
X177794752Y-131466967D02*
X177794752Y-130916967D01*
X177794752Y-131466967D02*
X177794752Y-132016967D01*
X177794752Y-131466967D02*
X178394752Y-131066967D01*
X178394752Y-131066967D02*
X178394752Y-131866967D01*
X178394752Y-131466967D02*
X178894752Y-131466967D01*
X178394752Y-131866967D02*
X177794752Y-131466967D01*
%TO.C,D15*%
X231394752Y-119466967D02*
X231794752Y-119466967D01*
X231794752Y-119466967D02*
X231794752Y-118916967D01*
X231794752Y-119466967D02*
X231794752Y-120016967D01*
X231794752Y-119466967D02*
X232394752Y-119066967D01*
X232394752Y-119066967D02*
X232394752Y-119866967D01*
X232394752Y-119466967D02*
X232894752Y-119466967D01*
X232394752Y-119866967D02*
X231794752Y-119466967D01*
%TO.C,D10*%
X213394752Y-150466967D02*
X213794752Y-150466967D01*
X213794752Y-150466967D02*
X213794752Y-149916967D01*
X213794752Y-150466967D02*
X213794752Y-151016967D01*
X213794752Y-150466967D02*
X214394752Y-150066967D01*
X214394752Y-150066967D02*
X214394752Y-150866967D01*
X214394752Y-150466967D02*
X214894752Y-150466967D01*
X214394752Y-150866967D02*
X213794752Y-150466967D01*
%TD*%
D13*
%TO.C,MCU1*%
X260264752Y-151636967D03*
X260264752Y-149096967D03*
X260264752Y-146556967D03*
X260264752Y-144016967D03*
X260264752Y-141476967D03*
X260264752Y-138936967D03*
X260264752Y-136396967D03*
X260264752Y-133856967D03*
X260264752Y-131316967D03*
X260264752Y-128776967D03*
X260264752Y-126236967D03*
X260264752Y-123696967D03*
X245024752Y-151636967D03*
X245024752Y-149096967D03*
X245024752Y-146556967D03*
X245024752Y-144016967D03*
X245024752Y-141476967D03*
X245024752Y-138936967D03*
X245024752Y-136396967D03*
X245024752Y-133856967D03*
X245024752Y-131316967D03*
X245024752Y-128776967D03*
X245024752Y-126236967D03*
X245024752Y-123696967D03*
%TD*%
D14*
%TO.C,*%
X244894752Y-121166967D03*
D15*
X260394752Y-121166967D03*
%TD*%
M02*
