%TF.GenerationSoftware,KiCad,Pcbnew,7.0.11*%
%TF.CreationDate,2024-03-07T19:05:48+13:00*%
%TF.ProjectId,socius-choc-v1,736f6369-7573-42d6-9368-6f632d76312e,v1.0.0*%
%TF.SameCoordinates,Original*%
%TF.FileFunction,Paste,Top*%
%TF.FilePolarity,Positive*%
%FSLAX46Y46*%
G04 Gerber Fmt 4.6, Leading zero omitted, Abs format (unit mm)*
G04 Created by KiCad (PCBNEW 7.0.11) date 2024-03-07 19:05:48*
%MOMM*%
%LPD*%
G01*
G04 APERTURE LIST*
G04 Aperture macros list*
%AMRotRect*
0 Rectangle, with rotation*
0 The origin of the aperture is its center*
0 $1 length*
0 $2 width*
0 $3 Rotation angle, in degrees counterclockwise*
0 Add horizontal line*
21,1,$1,$2,0,0,$3*%
G04 Aperture macros list end*
%ADD10R,2.600000X2.600000*%
%ADD11R,0.900000X1.700000*%
%ADD12RotRect,2.600000X2.600000X333.000000*%
%ADD13RotRect,2.600000X2.600000X345.000000*%
%ADD14R,0.900000X1.200000*%
%ADD15RotRect,0.900000X1.200000X345.000000*%
%ADD16R,0.900000X0.900000*%
%ADD17R,0.900000X1.250000*%
%ADD18RotRect,0.900000X1.200000X7.000000*%
%ADD19RotRect,2.600000X2.600000X7.000000*%
%ADD20RotRect,0.900000X1.200000X333.000000*%
G04 APERTURE END LIST*
D10*
%TO.C,S13*%
X235419752Y-142716967D03*
X223869752Y-144916967D03*
%TD*%
D11*
%TO.C,*%
X254344752Y-159666967D03*
X250944752Y-159666967D03*
%TD*%
D12*
%TO.C,S17*%
X251806752Y-172609015D03*
X240516847Y-169325639D03*
%TD*%
D10*
%TO.C,S10*%
X217419752Y-139716967D03*
X205869752Y-141916967D03*
%TD*%
D13*
%TO.C,S16*%
X230848132Y-163267341D03*
X219122287Y-162403018D03*
%TD*%
D14*
%TO.C,D13*%
X230494752Y-153466967D03*
X233794752Y-153466967D03*
%TD*%
D15*
%TO.C,D16*%
X223308643Y-172376360D03*
X226496199Y-173230462D03*
%TD*%
D10*
%TO.C,S7*%
X199419752Y-129716967D03*
X187869752Y-131916967D03*
%TD*%
D16*
%TO.C,T1*%
X248944752Y-120066967D03*
X248944752Y-122266967D03*
X256344752Y-120066967D03*
X256344752Y-122266967D03*
D17*
X254894752Y-123241967D03*
X251894752Y-123241967D03*
X250394752Y-123241967D03*
%TD*%
D10*
%TO.C,S6*%
X181419752Y-103716967D03*
X169869752Y-105916967D03*
%TD*%
D14*
%TO.C,D12*%
X212494752Y-116466967D03*
X215794752Y-116466967D03*
%TD*%
%TO.C,D11*%
X212494752Y-133466967D03*
X215794752Y-133466967D03*
%TD*%
D10*
%TO.C,S9*%
X199419752Y-95716967D03*
X187869752Y-97916967D03*
%TD*%
%TO.C,S11*%
X217419752Y-122716967D03*
X205869752Y-124916967D03*
%TD*%
D14*
%TO.C,D4*%
X176494752Y-148466967D03*
X179794752Y-148466967D03*
%TD*%
D10*
%TO.C,S15*%
X235419752Y-108716967D03*
X223869752Y-110916967D03*
%TD*%
D14*
%TO.C,D8*%
X194494752Y-123466967D03*
X197794752Y-123466967D03*
%TD*%
D10*
%TO.C,S4*%
X181419752Y-137716967D03*
X169869752Y-139916967D03*
%TD*%
D14*
%TO.C,D7*%
X194494752Y-140466967D03*
X197794752Y-140466967D03*
%TD*%
D18*
%TO.C,D3*%
X154803714Y-131218736D03*
X158079116Y-130816568D03*
%TD*%
%TO.C,D1*%
X158947272Y-164965306D03*
X162222674Y-164563138D03*
%TD*%
D10*
%TO.C,S5*%
X181419752Y-120716967D03*
X169869752Y-122916967D03*
%TD*%
D19*
%TO.C,S1*%
X162525466Y-153695228D03*
X151329671Y-157286421D03*
%TD*%
D10*
%TO.C,S12*%
X217419752Y-105716967D03*
X205869752Y-107916967D03*
%TD*%
D14*
%TO.C,D6*%
X176494752Y-114466967D03*
X179794752Y-114466967D03*
%TD*%
%TO.C,D14*%
X230494752Y-136466967D03*
X233794752Y-136466967D03*
%TD*%
D19*
%TO.C,S3*%
X158381908Y-119948659D03*
X147186113Y-123539852D03*
%TD*%
D18*
%TO.C,D2*%
X156875493Y-148092021D03*
X160150895Y-147689853D03*
%TD*%
D14*
%TO.C,D9*%
X194494752Y-106466967D03*
X197794752Y-106466967D03*
%TD*%
D20*
%TO.C,D17*%
X242538147Y-179951432D03*
X245478469Y-181449600D03*
%TD*%
D14*
%TO.C,D5*%
X176494752Y-131466967D03*
X179794752Y-131466967D03*
%TD*%
%TO.C,D15*%
X230494752Y-119466967D03*
X233794752Y-119466967D03*
%TD*%
D19*
%TO.C,S2*%
X160453687Y-136821943D03*
X149257892Y-140413136D03*
%TD*%
D14*
%TO.C,D10*%
X212494752Y-150466967D03*
X215794752Y-150466967D03*
%TD*%
D10*
%TO.C,S14*%
X235419752Y-125716967D03*
X223869752Y-127916967D03*
%TD*%
%TO.C,S8*%
X199419752Y-112716967D03*
X187869752Y-114916967D03*
%TD*%
M02*
