%TF.GenerationSoftware,KiCad,Pcbnew,7.0.11*%
%TF.CreationDate,2024-03-07T19:05:49+13:00*%
%TF.ProjectId,socius-choc-v1,736f6369-7573-42d6-9368-6f632d76312e,v1.0.0*%
%TF.SameCoordinates,Original*%
%TF.FileFunction,Profile,NP*%
%FSLAX46Y46*%
G04 Gerber Fmt 4.6, Leading zero omitted, Abs format (unit mm)*
G04 Created by KiCad (PCBNEW 7.0.11) date 2024-03-07 19:05:49*
%MOMM*%
%LPD*%
G01*
G04 APERTURE LIST*
%TA.AperFunction,Profile*%
%ADD10C,0.150000*%
%TD*%
G04 APERTURE END LIST*
D10*
X259290199Y-172735032D02*
G75*
G03*
X259465107Y-172239863I-1781999J907932D01*
G01*
X251692599Y-187646139D02*
X259290189Y-172735027D01*
X262601684Y-157371129D02*
X259465108Y-172239863D01*
X232787471Y-180296060D02*
X214157296Y-174793639D01*
X153217390Y-170404143D02*
X170810146Y-168244024D01*
X171355206Y-168251942D02*
G75*
G03*
X170810146Y-168244025I-301306J-1977158D01*
G01*
X145016961Y-120028028D02*
X150988559Y-168662790D01*
X213892108Y-174734558D02*
X171355205Y-168251945D01*
X242144752Y-119415375D02*
X242144752Y-107166967D01*
X186144752Y-94166967D02*
X186144752Y-100166967D01*
X233128945Y-180432137D02*
X249002605Y-188520171D01*
X240144752Y-105166967D02*
X224144752Y-105166967D01*
X249002605Y-188520170D02*
G75*
G03*
X251692599Y-187646139I907995J1781970D01*
G01*
X206144833Y-94166967D02*
G75*
G03*
X204144752Y-92166967I-2000033J-33D01*
G01*
X150988545Y-168662792D02*
G75*
G03*
X153217390Y-170404143I1985055J243692D01*
G01*
X206144752Y-102166967D02*
X206144752Y-94166967D01*
X262644752Y-121666967D02*
X262644752Y-156958312D01*
X224144833Y-104166967D02*
G75*
G03*
X222144752Y-102166967I-2000033J-33D01*
G01*
X188144752Y-92166952D02*
G75*
G03*
X186144752Y-94166967I48J-2000048D01*
G01*
X146758314Y-117799197D02*
X168144752Y-115173273D01*
X244544873Y-119656917D02*
G75*
G03*
X244745135Y-119666968I200227J1989417D01*
G01*
X214157295Y-174793642D02*
G75*
G03*
X213892109Y-174734559I-566495J-1917958D01*
G01*
X204144752Y-92166967D02*
X188144752Y-92166967D01*
X186144752Y-100166967D02*
X170144752Y-100166967D01*
X170144752Y-100166952D02*
G75*
G03*
X168144752Y-102166967I48J-2000048D01*
G01*
X262644833Y-121666967D02*
G75*
G03*
X260644752Y-119666967I-2000033J-33D01*
G01*
X242144833Y-107166967D02*
G75*
G03*
X240144752Y-105166967I-2000033J-33D01*
G01*
X146758311Y-117799169D02*
G75*
G03*
X145016961Y-120028028I243789J-1985131D01*
G01*
X224144752Y-105166967D02*
X224144752Y-104166967D01*
X233128942Y-180432144D02*
G75*
G03*
X232787472Y-180296060I-908042J-1782056D01*
G01*
X242144752Y-119415375D02*
X244544873Y-119656915D01*
X222144752Y-102166967D02*
X206144752Y-102166967D01*
X262601680Y-157371128D02*
G75*
G03*
X262644752Y-156958312I-1956880J412828D01*
G01*
X244745136Y-119666967D02*
X260644752Y-119666967D01*
X168144752Y-102166967D02*
X168144752Y-115173273D01*
M02*
